G04*
G04 #@! TF.GenerationSoftware,Altium Limited,Altium Designer,20.2.6 (244)*
G04*
G04 Layer_Physical_Order=1*
G04 Layer_Color=255*
%FSLAX25Y25*%
%MOIN*%
G70*
G04*
G04 #@! TF.SameCoordinates,92151F8D-A914-4CFD-8B26-E94C02A97E6A*
G04*
G04*
G04 #@! TF.FilePolarity,Positive*
G04*
G01*
G75*
%ADD16R,0.06299X0.03937*%
%ADD17R,0.03150X0.03543*%
%ADD18R,0.03268X0.02461*%
%ADD19R,0.03150X0.03150*%
%ADD20C,0.03937*%
%ADD21O,0.05709X0.02362*%
%ADD22R,0.03150X0.03740*%
%ADD23R,0.03543X0.03937*%
%ADD33C,0.12500*%
%ADD34C,0.06265*%
%ADD35R,0.06265X0.06265*%
%ADD40C,0.02500*%
%ADD43C,0.00950*%
%ADD44C,0.01150*%
%ADD45C,0.02000*%
%ADD46O,0.03740X0.06102*%
%ADD47O,0.05118X0.03740*%
%ADD48C,0.23622*%
%ADD49R,0.06000X0.06000*%
%ADD50C,0.06000*%
%ADD51C,0.02362*%
%ADD52C,0.02025*%
%ADD53C,0.02756*%
G36*
X426980Y281571D02*
X426917Y281511D01*
X425032Y281263D01*
X424968Y281241D01*
X424901Y281237D01*
X423065Y280745D01*
X423005Y280715D01*
X422939Y280702D01*
X421183Y279975D01*
X421127Y279937D01*
X421063Y279916D01*
X419417Y278965D01*
X419367Y278921D01*
X419306Y278891D01*
X417798Y277734D01*
X417754Y277683D01*
X417698Y277646D01*
X416354Y276302D01*
X416317Y276246D01*
X416266Y276202D01*
X415109Y274694D01*
X415079Y274633D01*
X415035Y274583D01*
X414084Y272937D01*
X414063Y272873D01*
X414025Y272817D01*
X413298Y271061D01*
X413285Y270995D01*
X413255Y270935D01*
X412763Y269099D01*
X412759Y269032D01*
X412737Y268968D01*
X412489Y267084D01*
X412494Y267016D01*
X412480Y266950D01*
X412480Y266000D01*
X412480Y265050D01*
X412494Y264984D01*
X412489Y264916D01*
X412737Y263032D01*
X412759Y262968D01*
X412763Y262901D01*
X413255Y261065D01*
X413285Y261005D01*
X413298Y260939D01*
X414025Y259183D01*
X414063Y259127D01*
X414084Y259063D01*
X415035Y257417D01*
X415079Y257367D01*
X415109Y257306D01*
X416266Y255798D01*
X416317Y255754D01*
X416354Y255698D01*
X417698Y254354D01*
X417754Y254317D01*
X417798Y254266D01*
X419306Y253109D01*
X419367Y253079D01*
X419417Y253035D01*
X421063Y252084D01*
X421127Y252063D01*
X421183Y252025D01*
X422939Y251298D01*
X423005Y251285D01*
X423065Y251255D01*
X424901Y250763D01*
X424968Y250759D01*
X425032Y250737D01*
X426917Y250489D01*
X426980Y250429D01*
X426980Y241571D01*
X426917Y241511D01*
X425032Y241263D01*
X424968Y241241D01*
X424901Y241237D01*
X423065Y240745D01*
X423005Y240715D01*
X422939Y240702D01*
X421183Y239975D01*
X421127Y239937D01*
X421063Y239916D01*
X419417Y238965D01*
X419367Y238921D01*
X419306Y238891D01*
X417798Y237734D01*
X417754Y237683D01*
X417698Y237646D01*
X416354Y236302D01*
X416317Y236246D01*
X416266Y236202D01*
X415109Y234694D01*
X415079Y234633D01*
X415035Y234583D01*
X414084Y232937D01*
X414063Y232873D01*
X414025Y232817D01*
X413298Y231061D01*
X413285Y230995D01*
X413255Y230935D01*
X412763Y229099D01*
X412759Y229032D01*
X412737Y228968D01*
X412489Y227083D01*
X412494Y227016D01*
X412480Y226950D01*
X412480Y226000D01*
X412480Y225050D01*
X412494Y224984D01*
X412489Y224917D01*
X412737Y223032D01*
X412759Y222968D01*
X412763Y222901D01*
X413255Y221065D01*
X413285Y221005D01*
X413298Y220939D01*
X414025Y219183D01*
X414063Y219127D01*
X414084Y219063D01*
X415035Y217417D01*
X415079Y217367D01*
X415109Y217306D01*
X416266Y215798D01*
X416317Y215754D01*
X416354Y215698D01*
X417698Y214354D01*
X417754Y214317D01*
X417798Y214266D01*
X419306Y213109D01*
X419367Y213079D01*
X419417Y213035D01*
X421063Y212084D01*
X421127Y212063D01*
X421183Y212025D01*
X422939Y211298D01*
X423005Y211285D01*
X423065Y211255D01*
X424901Y210763D01*
X424968Y210759D01*
X425032Y210737D01*
X426917Y210489D01*
X426980Y210429D01*
X426980Y201571D01*
X426917Y201511D01*
X425032Y201263D01*
X424968Y201241D01*
X424901Y201237D01*
X423065Y200745D01*
X423005Y200715D01*
X422939Y200702D01*
X421183Y199975D01*
X421127Y199937D01*
X421063Y199916D01*
X419417Y198965D01*
X419367Y198921D01*
X419306Y198891D01*
X417798Y197734D01*
X417754Y197683D01*
X417698Y197646D01*
X416354Y196302D01*
X416317Y196246D01*
X416266Y196202D01*
X415109Y194694D01*
X415079Y194633D01*
X415035Y194583D01*
X414084Y192937D01*
X414063Y192873D01*
X414025Y192817D01*
X413298Y191061D01*
X413285Y190995D01*
X413255Y190935D01*
X412763Y189099D01*
X412759Y189032D01*
X412737Y188968D01*
X412489Y187083D01*
X412494Y187016D01*
X412480Y186950D01*
X412480Y186000D01*
X412480Y185050D01*
X412494Y184984D01*
X412489Y184916D01*
X412737Y183032D01*
X412759Y182968D01*
X412763Y182901D01*
X413255Y181065D01*
X413285Y181005D01*
X413298Y180939D01*
X414025Y179183D01*
X414063Y179127D01*
X414084Y179063D01*
X415035Y177417D01*
X415079Y177367D01*
X415109Y177306D01*
X416266Y175798D01*
X416317Y175754D01*
X416354Y175698D01*
X417698Y174354D01*
X417754Y174317D01*
X417798Y174266D01*
X419306Y173109D01*
X419367Y173079D01*
X419417Y173035D01*
X421063Y172084D01*
X421127Y172063D01*
X421183Y172026D01*
X422939Y171298D01*
X423005Y171285D01*
X423065Y171255D01*
X424901Y170763D01*
X424968Y170759D01*
X425032Y170737D01*
X426916Y170489D01*
X426980Y170429D01*
X426980Y161571D01*
X426917Y161511D01*
X425032Y161263D01*
X424968Y161241D01*
X424901Y161237D01*
X423065Y160745D01*
X423005Y160715D01*
X422939Y160702D01*
X421183Y159975D01*
X421127Y159937D01*
X421063Y159916D01*
X419417Y158965D01*
X419367Y158921D01*
X419306Y158891D01*
X417798Y157734D01*
X417754Y157683D01*
X417698Y157646D01*
X416354Y156302D01*
X416317Y156246D01*
X416266Y156202D01*
X415109Y154694D01*
X415079Y154633D01*
X415035Y154583D01*
X414084Y152937D01*
X414063Y152873D01*
X414025Y152817D01*
X413298Y151061D01*
X413285Y150995D01*
X413255Y150935D01*
X412763Y149099D01*
X412759Y149032D01*
X412737Y148968D01*
X412489Y147083D01*
X412494Y147016D01*
X412480Y146950D01*
X412480Y146000D01*
X412480Y146000D01*
X412480Y145050D01*
X412494Y144984D01*
X412489Y144917D01*
X412737Y143032D01*
X412759Y142968D01*
X412763Y142901D01*
X413255Y141065D01*
X413285Y141005D01*
X413298Y140939D01*
X414025Y139183D01*
X414063Y139127D01*
X414084Y139063D01*
X415035Y137417D01*
X415079Y137367D01*
X415109Y137306D01*
X416266Y135798D01*
X416317Y135754D01*
X416354Y135698D01*
X417698Y134354D01*
X417754Y134317D01*
X417798Y134266D01*
X419306Y133109D01*
X419367Y133079D01*
X419417Y133035D01*
X421063Y132084D01*
X421127Y132063D01*
X421183Y132026D01*
X422939Y131298D01*
X423005Y131285D01*
X423065Y131255D01*
X424901Y130763D01*
X424968Y130759D01*
X425032Y130737D01*
X426917Y130489D01*
X426980Y130429D01*
Y119539D01*
X110126D01*
X109967Y120339D01*
X110148Y120414D01*
X111244Y121256D01*
X112086Y122352D01*
X112615Y123629D01*
X112795Y125000D01*
X112615Y126371D01*
X112086Y127648D01*
X111244Y128744D01*
X110148Y129586D01*
X108870Y130115D01*
X107500Y130295D01*
X106130Y130115D01*
X104852Y129586D01*
X103756Y128744D01*
X102914Y127648D01*
X102839Y127467D01*
X102039Y127626D01*
Y287374D01*
X102839Y287533D01*
X102914Y287352D01*
X103756Y286256D01*
X104852Y285414D01*
X106130Y284885D01*
X107500Y284705D01*
X108870Y284885D01*
X110148Y285414D01*
X111244Y286256D01*
X112086Y287352D01*
X112615Y288630D01*
X112795Y290000D01*
X112615Y291371D01*
X112086Y292648D01*
X111244Y293744D01*
X110148Y294586D01*
X109967Y294661D01*
X110126Y295461D01*
X229155D01*
X232558Y292058D01*
X232915Y291820D01*
X232982Y291723D01*
X233132Y290976D01*
X233110Y290822D01*
X232730Y290326D01*
X232327Y289354D01*
X232190Y288311D01*
Y285949D01*
X232327Y284906D01*
X232730Y283934D01*
X233370Y283099D01*
X234205Y282458D01*
X235177Y282056D01*
X236221Y281918D01*
X237264Y282056D01*
X238236Y282458D01*
X239071Y283099D01*
X239711Y283934D01*
X240114Y284906D01*
X240251Y285949D01*
Y288311D01*
X240114Y289354D01*
X239711Y290326D01*
X239454Y290661D01*
X239849Y291461D01*
X260151D01*
X260546Y290661D01*
X260289Y290326D01*
X259886Y289354D01*
X259749Y288311D01*
Y285949D01*
X259886Y284906D01*
X260289Y283934D01*
X260929Y283099D01*
X261764Y282458D01*
X262736Y282056D01*
X263779Y281918D01*
X264823Y282056D01*
X265795Y282458D01*
X266630Y283099D01*
X267270Y283934D01*
X267673Y284906D01*
X267810Y285949D01*
Y288311D01*
X267673Y289354D01*
X267270Y290326D01*
X266890Y290822D01*
X266868Y290976D01*
X267018Y291723D01*
X267085Y291820D01*
X267442Y292058D01*
X270845Y295461D01*
X426980D01*
X426980Y281571D01*
D02*
G37*
G36*
X597961Y102039D02*
X545845D01*
X528942Y118942D01*
X528280Y119384D01*
X527500Y119539D01*
X428000D01*
Y131500D01*
X428000Y131500D01*
X427050D01*
X425165Y131748D01*
X423329Y132240D01*
X421573Y132967D01*
X419927Y133918D01*
X418419Y135075D01*
X417075Y136419D01*
X415918Y137927D01*
X414967Y139573D01*
X414240Y141329D01*
X413748Y143165D01*
X413500Y145050D01*
X413500Y146000D01*
X413500Y146000D01*
X413500Y146000D01*
X413500Y146000D01*
X413500Y146950D01*
X413748Y148835D01*
X414240Y150671D01*
X414967Y152427D01*
X415918Y154073D01*
X417075Y155581D01*
X418419Y156925D01*
X419927Y158082D01*
X421573Y159033D01*
X423329Y159760D01*
X425165Y160252D01*
X427050Y160500D01*
X428000Y160500D01*
X428000Y170700D01*
X428000Y171500D01*
X427049Y171500D01*
X425165Y171748D01*
X423329Y172240D01*
X421573Y172967D01*
X419927Y173918D01*
X418419Y175075D01*
X417075Y176419D01*
X415918Y177927D01*
X414967Y179573D01*
X414240Y181329D01*
X413748Y183165D01*
X413500Y185050D01*
X413500Y186000D01*
X413500Y186950D01*
X413748Y188835D01*
X414240Y190671D01*
X414967Y192427D01*
X415918Y194073D01*
X417075Y195581D01*
X418419Y196925D01*
X419927Y198082D01*
X421573Y199033D01*
X423329Y199760D01*
X425165Y200252D01*
X427050Y200500D01*
X428000Y200500D01*
X428000Y210700D01*
X428000Y211500D01*
X428000Y211500D01*
X427050Y211500D01*
X425165Y211748D01*
X423329Y212240D01*
X421573Y212967D01*
X419927Y213918D01*
X418419Y215075D01*
X417075Y216419D01*
X415918Y217927D01*
X414967Y219573D01*
X414240Y221329D01*
X413748Y223165D01*
X413500Y225050D01*
X413500Y226000D01*
X413500Y226950D01*
X413748Y228835D01*
X414240Y230671D01*
X414967Y232427D01*
X415918Y234073D01*
X417075Y235581D01*
X418419Y236925D01*
X419927Y238082D01*
X421573Y239033D01*
X423329Y239760D01*
X425165Y240252D01*
X427050Y240500D01*
X428000Y240500D01*
X428000Y250700D01*
X428000Y251500D01*
X428000Y251500D01*
X427050Y251500D01*
X425165Y251748D01*
X423329Y252240D01*
X421573Y252967D01*
X419927Y253918D01*
X418419Y255075D01*
X417075Y256419D01*
X415918Y257927D01*
X414967Y259573D01*
X414240Y261329D01*
X413748Y263165D01*
X413500Y265050D01*
X413500Y266000D01*
X413500Y266950D01*
X413748Y268835D01*
X414240Y270671D01*
X414967Y272427D01*
X415918Y274073D01*
X417075Y275581D01*
X418419Y276925D01*
X419927Y278082D01*
X421573Y279033D01*
X423329Y279760D01*
X425165Y280252D01*
X427050Y280500D01*
X428000Y280500D01*
X428000Y295461D01*
X527500D01*
X528280Y295616D01*
X528942Y296058D01*
X545845Y312961D01*
X597961D01*
Y102039D01*
D02*
G37*
%LPC*%
G36*
X213225Y292575D02*
X208076D01*
Y292039D01*
X205864D01*
X205800Y292052D01*
X205015Y291896D01*
X204349Y291451D01*
X203904Y290785D01*
X203748Y290000D01*
X203904Y289215D01*
X204349Y288549D01*
X205015Y288104D01*
X205800Y287948D01*
X205864Y287961D01*
X208076D01*
Y287425D01*
X213225D01*
Y292575D01*
D02*
G37*
G36*
X219524D02*
X214375D01*
Y287425D01*
X219524D01*
Y287961D01*
X221736D01*
X221800Y287948D01*
X222585Y288104D01*
X223251Y288549D01*
X223696Y289215D01*
X223852Y290000D01*
X223696Y290785D01*
X223251Y291451D01*
X222585Y291896D01*
X221800Y292052D01*
X221736Y292039D01*
X219524D01*
Y292575D01*
D02*
G37*
G36*
X165701Y283968D02*
X163429D01*
Y281500D01*
X165701D01*
Y283968D01*
D02*
G37*
G36*
X211500Y285552D02*
X210715Y285396D01*
X210049Y284951D01*
X209604Y284285D01*
X209448Y283500D01*
X209466Y283412D01*
Y281469D01*
X209079D01*
Y280539D01*
X205776D01*
X205753Y280555D01*
X204902Y280724D01*
X201555D01*
X200704Y280555D01*
X199983Y280072D01*
X199501Y279351D01*
X199331Y278500D01*
X199501Y277649D01*
X199983Y276927D01*
X200704Y276445D01*
X200893Y276408D01*
Y275592D01*
X200704Y275555D01*
X199983Y275073D01*
X199501Y274351D01*
X199331Y273500D01*
X199501Y272649D01*
X199983Y271927D01*
X200704Y271445D01*
X200893Y271408D01*
Y270592D01*
X200704Y270555D01*
X199983Y270073D01*
X199501Y269351D01*
X199331Y268500D01*
X199501Y267649D01*
X199983Y266928D01*
X200704Y266445D01*
X200893Y266408D01*
Y265592D01*
X200704Y265555D01*
X199983Y265072D01*
X199501Y264351D01*
X199331Y263500D01*
X199501Y262649D01*
X199983Y261928D01*
X200704Y261445D01*
X200893Y261408D01*
Y260592D01*
X200704Y260555D01*
X199983Y260072D01*
X199501Y259351D01*
X199331Y258500D01*
X199501Y257649D01*
X199983Y256927D01*
X200704Y256445D01*
X200893Y256408D01*
Y255592D01*
X200704Y255555D01*
X199983Y255072D01*
X199501Y254351D01*
X199331Y253500D01*
X199501Y252649D01*
X199983Y251927D01*
X200704Y251445D01*
X200893Y251408D01*
Y250592D01*
X200704Y250555D01*
X199983Y250073D01*
X199501Y249351D01*
X199431Y249000D01*
X203228D01*
X207026D01*
X206956Y249351D01*
X206474Y250073D01*
X205753Y250555D01*
X205563Y250592D01*
Y251408D01*
X205753Y251445D01*
X206474Y251927D01*
X207209Y251672D01*
X211944Y246937D01*
X211944Y246937D01*
X212432Y246611D01*
X213008Y246496D01*
X214768D01*
Y245130D01*
X219283D01*
X219917Y245130D01*
X220717Y245130D01*
X225232D01*
Y246496D01*
X236579D01*
Y245031D01*
X242078D01*
X242122Y245031D01*
X242878D01*
X242922Y245031D01*
X248421D01*
Y246496D01*
X249377D01*
X254937Y240937D01*
X255424Y240611D01*
X256000Y240496D01*
X276673D01*
X276916Y239696D01*
X276549Y239451D01*
X276104Y238785D01*
X275948Y238000D01*
X276104Y237215D01*
X276549Y236549D01*
X277215Y236104D01*
X278000Y235948D01*
X278040Y235956D01*
X279685D01*
Y235102D01*
X281951D01*
X283482Y233572D01*
X283425Y232772D01*
X283425D01*
Y231504D01*
X216372D01*
X215785Y231896D01*
X215000Y232052D01*
X214215Y231896D01*
X213549Y231451D01*
X213104Y230785D01*
X212967Y230094D01*
X212877Y230004D01*
X206520D01*
X206474Y230072D01*
X205753Y230555D01*
X205563Y230592D01*
Y231408D01*
X205753Y231445D01*
X206474Y231927D01*
X206956Y232649D01*
X207125Y233500D01*
X206956Y234351D01*
X206474Y235072D01*
X206206Y235252D01*
X206099Y236239D01*
X206342Y236461D01*
X209079D01*
Y235531D01*
X214578D01*
X214622Y235531D01*
X215378D01*
X215422Y235531D01*
X217650D01*
Y238500D01*
Y241469D01*
X215422D01*
X215378Y241469D01*
X214622D01*
X214578Y241469D01*
X213544D01*
Y243460D01*
X213552Y243500D01*
X213396Y244285D01*
X212951Y244951D01*
X212285Y245396D01*
X211500Y245552D01*
X210715Y245396D01*
X210049Y244951D01*
X209604Y244285D01*
X209448Y243500D01*
X209466Y243412D01*
Y241469D01*
X209079D01*
Y240539D01*
X205776D01*
X205753Y240555D01*
X204902Y240724D01*
X201555D01*
X200704Y240555D01*
X199983Y240072D01*
X199501Y239351D01*
X199331Y238500D01*
X199501Y237649D01*
X199983Y236928D01*
X200704Y236445D01*
X200893Y236408D01*
Y235592D01*
X200704Y235555D01*
X199983Y235072D01*
X199501Y234351D01*
X199331Y233500D01*
X199501Y232649D01*
X199983Y231927D01*
X200704Y231445D01*
X200893Y231408D01*
Y230592D01*
X200704Y230555D01*
X199983Y230072D01*
X199501Y229351D01*
X199331Y228500D01*
X199501Y227649D01*
X199983Y226927D01*
X200704Y226445D01*
X200893Y226408D01*
Y225592D01*
X200704Y225555D01*
X199983Y225073D01*
X199501Y224351D01*
X199331Y223500D01*
X199501Y222649D01*
X199983Y221927D01*
X200704Y221445D01*
X200893Y221408D01*
Y220592D01*
X200704Y220555D01*
X199983Y220073D01*
X199501Y219351D01*
X199331Y218500D01*
X199501Y217649D01*
X199983Y216928D01*
X200704Y216445D01*
X200893Y216408D01*
Y215592D01*
X200704Y215555D01*
X199983Y215072D01*
X199501Y214351D01*
X199331Y213500D01*
X199501Y212649D01*
X199983Y211928D01*
X200704Y211445D01*
X200893Y211408D01*
Y210592D01*
X200704Y210555D01*
X199983Y210072D01*
X199501Y209351D01*
X199431Y209000D01*
X203228D01*
X207026D01*
X206956Y209351D01*
X206474Y210072D01*
X205753Y210555D01*
X205563Y210592D01*
Y211408D01*
X205753Y211445D01*
X206474Y211928D01*
X207209Y211672D01*
X211944Y206937D01*
X211944Y206937D01*
X212432Y206611D01*
X213008Y206496D01*
X214768D01*
Y205130D01*
X219283D01*
X219917Y205130D01*
X220717Y205130D01*
X225232D01*
Y206496D01*
X236579D01*
Y205031D01*
X242078D01*
X242122Y205031D01*
X242878D01*
X242922Y205031D01*
X248421D01*
Y206496D01*
X249377D01*
X254937Y200937D01*
X255424Y200611D01*
X256000Y200496D01*
X276673D01*
X276916Y199696D01*
X276549Y199451D01*
X276104Y198785D01*
X275948Y198000D01*
X276104Y197215D01*
X276549Y196549D01*
X277215Y196104D01*
X278000Y195948D01*
X278040Y195956D01*
X279685D01*
Y195102D01*
X281951D01*
X283482Y193572D01*
X283425Y192772D01*
X283425D01*
Y191504D01*
X216372D01*
X215785Y191896D01*
X215000Y192052D01*
X214215Y191896D01*
X213549Y191451D01*
X213104Y190785D01*
X212967Y190094D01*
X212877Y190004D01*
X206520D01*
X206474Y190073D01*
X205753Y190554D01*
X205563Y190592D01*
Y191408D01*
X205753Y191446D01*
X206474Y191928D01*
X206956Y192649D01*
X207125Y193500D01*
X206956Y194351D01*
X206474Y195072D01*
X206206Y195252D01*
X206099Y196239D01*
X206342Y196461D01*
X209079D01*
Y195531D01*
X214578D01*
X214622Y195531D01*
X215378D01*
X215422Y195531D01*
X217650D01*
Y198500D01*
Y201468D01*
X215422D01*
X215378Y201468D01*
X214622D01*
X214578Y201468D01*
X213544D01*
Y203460D01*
X213552Y203500D01*
X213396Y204285D01*
X212951Y204951D01*
X212285Y205396D01*
X211500Y205552D01*
X210715Y205396D01*
X210049Y204951D01*
X209604Y204285D01*
X209448Y203500D01*
X209466Y203412D01*
Y201468D01*
X209079D01*
Y200539D01*
X205776D01*
X205753Y200554D01*
X204902Y200724D01*
X201555D01*
X200704Y200554D01*
X199983Y200073D01*
X199501Y199351D01*
X199331Y198500D01*
X199501Y197649D01*
X199983Y196927D01*
X200704Y196446D01*
X200893Y196408D01*
Y195592D01*
X200704Y195554D01*
X199983Y195072D01*
X199501Y194351D01*
X199331Y193500D01*
X199501Y192649D01*
X199983Y191928D01*
X200704Y191446D01*
X200893Y191408D01*
Y190592D01*
X200704Y190554D01*
X199983Y190073D01*
X199501Y189351D01*
X199331Y188500D01*
X199501Y187649D01*
X199983Y186927D01*
X200704Y186445D01*
X200893Y186408D01*
Y185592D01*
X200704Y185555D01*
X199983Y185073D01*
X199501Y184351D01*
X199331Y183500D01*
X199501Y182649D01*
X199983Y181928D01*
X200704Y181446D01*
X200893Y181408D01*
Y180592D01*
X200704Y180554D01*
X199983Y180072D01*
X199501Y179351D01*
X199331Y178500D01*
X199501Y177649D01*
X199983Y176927D01*
X200704Y176445D01*
X200893Y176408D01*
Y175592D01*
X200704Y175555D01*
X199983Y175073D01*
X199501Y174351D01*
X199331Y173500D01*
X199501Y172649D01*
X199983Y171927D01*
X200704Y171446D01*
X200893Y171408D01*
Y170592D01*
X200704Y170554D01*
X199983Y170072D01*
X199501Y169351D01*
X199431Y169000D01*
X203228D01*
X207026D01*
X206956Y169351D01*
X206474Y170072D01*
X205753Y170554D01*
X205563Y170592D01*
Y171408D01*
X205753Y171446D01*
X206474Y171927D01*
X207208Y171666D01*
X211937Y166937D01*
X211937Y166937D01*
X212424Y166611D01*
X213000Y166496D01*
X214768D01*
Y165130D01*
X219283D01*
X219917Y165130D01*
X220717Y165130D01*
X225232D01*
Y166496D01*
X236579D01*
Y165032D01*
X242078D01*
X242122Y165032D01*
X242878D01*
X242922Y165032D01*
X248421D01*
Y166496D01*
X249377D01*
X254937Y160937D01*
X255424Y160611D01*
X256000Y160496D01*
X276673D01*
X276916Y159696D01*
X276549Y159451D01*
X276104Y158785D01*
X275948Y158000D01*
X276104Y157215D01*
X276549Y156549D01*
X277215Y156104D01*
X278000Y155948D01*
X278040Y155956D01*
X279685D01*
Y155102D01*
X281951D01*
X283482Y153572D01*
X283425Y152772D01*
X283425D01*
Y151504D01*
X216372D01*
X215785Y151896D01*
X215000Y152052D01*
X214215Y151896D01*
X213549Y151451D01*
X213104Y150785D01*
X212967Y150093D01*
X212877Y150004D01*
X206520D01*
X206474Y150073D01*
X205753Y150555D01*
X205563Y150592D01*
Y151408D01*
X205753Y151445D01*
X206474Y151927D01*
X206956Y152649D01*
X207125Y153500D01*
X206956Y154351D01*
X206474Y155072D01*
X206206Y155252D01*
X206099Y156239D01*
X206342Y156461D01*
X209079D01*
Y155532D01*
X214578D01*
X214622Y155532D01*
X215378D01*
X215422Y155532D01*
X217650D01*
Y158500D01*
Y161469D01*
X215422D01*
X215378Y161469D01*
X214622D01*
X214578Y161469D01*
X213544D01*
Y163460D01*
X213552Y163500D01*
X213396Y164285D01*
X212951Y164951D01*
X212285Y165396D01*
X211500Y165552D01*
X210715Y165396D01*
X210049Y164951D01*
X209604Y164285D01*
X209448Y163500D01*
X209466Y163412D01*
Y161469D01*
X209079D01*
Y160539D01*
X205776D01*
X205753Y160555D01*
X204902Y160724D01*
X201555D01*
X200704Y160555D01*
X199983Y160073D01*
X199501Y159351D01*
X199331Y158500D01*
X199501Y157649D01*
X199983Y156928D01*
X200704Y156446D01*
X200893Y156408D01*
Y155592D01*
X200704Y155554D01*
X199983Y155072D01*
X199501Y154351D01*
X199331Y153500D01*
X199501Y152649D01*
X199983Y151927D01*
X200704Y151445D01*
X200893Y151408D01*
Y150592D01*
X200704Y150555D01*
X199983Y150073D01*
X199501Y149351D01*
X199331Y148500D01*
X199501Y147649D01*
X199983Y146927D01*
X200704Y146446D01*
X200893Y146408D01*
Y145592D01*
X200704Y145554D01*
X199983Y145072D01*
X199501Y144351D01*
X199331Y143500D01*
X199501Y142649D01*
X199983Y141928D01*
X200704Y141446D01*
X200893Y141408D01*
Y140592D01*
X200704Y140554D01*
X199983Y140073D01*
X199501Y139351D01*
X199331Y138500D01*
X199501Y137649D01*
X199983Y136927D01*
X200704Y136445D01*
X200893Y136408D01*
Y135592D01*
X200704Y135555D01*
X199983Y135073D01*
X199501Y134351D01*
X199331Y133500D01*
X199501Y132649D01*
X199983Y131928D01*
X200704Y131446D01*
X200893Y131408D01*
Y130592D01*
X200704Y130554D01*
X199983Y130072D01*
X199501Y129351D01*
X199431Y129000D01*
X203228D01*
X207026D01*
X206956Y129351D01*
X206474Y130072D01*
X205753Y130554D01*
X205563Y130592D01*
Y131408D01*
X205753Y131446D01*
X206474Y131928D01*
X207208Y131666D01*
X211937Y126937D01*
X211937Y126937D01*
X212424Y126611D01*
X213000Y126496D01*
X214768D01*
Y125130D01*
X219283D01*
X219917Y125130D01*
X220717Y125130D01*
X225232D01*
Y126496D01*
X236579D01*
Y125031D01*
X242078D01*
X242122Y125031D01*
X242878D01*
X242922Y125031D01*
X248421D01*
Y126496D01*
X249377D01*
X254937Y120937D01*
X255424Y120611D01*
X256000Y120496D01*
X360000D01*
X360576Y120611D01*
X361063Y120937D01*
X380623Y140496D01*
X383425D01*
Y139228D01*
X387511D01*
X388033Y138428D01*
X387948Y138000D01*
X387956Y137960D01*
Y136898D01*
X387165D01*
Y131354D01*
X387956D01*
Y130040D01*
X387948Y130000D01*
X388104Y129215D01*
X388549Y128549D01*
X389215Y128104D01*
X390000Y127948D01*
X390785Y128104D01*
X391451Y128549D01*
X391896Y129215D01*
X392052Y130000D01*
X392034Y130088D01*
Y131354D01*
X392315D01*
Y136898D01*
X392034D01*
Y137912D01*
X392052Y138000D01*
X391896Y138785D01*
X391451Y139451D01*
X391084Y139696D01*
X391327Y140496D01*
X397196D01*
X400850Y136842D01*
Y133031D01*
X409150D01*
Y138969D01*
X402977D01*
X398882Y143063D01*
X398394Y143389D01*
X397819Y143504D01*
X388575D01*
Y144772D01*
X383425D01*
Y143504D01*
X380000D01*
X379425Y143389D01*
X378937Y143063D01*
X359377Y123504D01*
X256623D01*
X251063Y129063D01*
X250575Y129389D01*
X250000Y129504D01*
X248421D01*
Y130968D01*
X242922D01*
X242878Y130968D01*
X242122D01*
X242078Y130968D01*
X236579D01*
Y129504D01*
X225232D01*
Y130870D01*
X220717D01*
X220083Y130870D01*
X219283Y130870D01*
X214768D01*
Y129504D01*
X213623D01*
X208563Y134563D01*
X208075Y134889D01*
X207500Y135004D01*
X206520D01*
X206474Y135073D01*
X205753Y135555D01*
X205563Y135592D01*
Y136408D01*
X205753Y136445D01*
X206474Y136927D01*
X206520Y136996D01*
X209377D01*
X211437Y134937D01*
X211925Y134611D01*
X212500Y134496D01*
X214768D01*
Y133130D01*
X219283D01*
X219917Y133130D01*
X220717Y133130D01*
X225232D01*
Y134496D01*
X236579D01*
Y133031D01*
X242078D01*
X242122Y133031D01*
X242878D01*
X242922Y133031D01*
X248421D01*
Y134496D01*
X251377D01*
X256937Y128937D01*
X257424Y128611D01*
X258000Y128496D01*
X358000D01*
X358576Y128611D01*
X359063Y128937D01*
X378623Y148496D01*
X383425D01*
Y147228D01*
X388575D01*
Y148496D01*
X397819D01*
X398394Y148611D01*
X398882Y148937D01*
X402977Y153032D01*
X409150D01*
Y158968D01*
X400850D01*
Y155158D01*
X397196Y151504D01*
X388575D01*
Y152772D01*
X384489D01*
X383967Y153572D01*
X384052Y154000D01*
X384044Y154040D01*
Y155102D01*
X384835D01*
Y160646D01*
X384044D01*
Y161960D01*
X384052Y162000D01*
X383896Y162785D01*
X383451Y163451D01*
X382785Y163896D01*
X382000Y164052D01*
X381215Y163896D01*
X380549Y163451D01*
X380104Y162785D01*
X379948Y162000D01*
X379966Y161912D01*
Y160646D01*
X379685D01*
Y155102D01*
X379966D01*
Y154088D01*
X379948Y154000D01*
X380104Y153215D01*
X380549Y152549D01*
X380916Y152304D01*
X380673Y151504D01*
X378000D01*
X377425Y151389D01*
X376937Y151063D01*
X363759Y137885D01*
X363020Y138192D01*
Y160500D01*
X362942Y160890D01*
X362721Y161221D01*
X362576Y161318D01*
X362387Y162012D01*
X362385Y162259D01*
X380623Y180496D01*
X383425D01*
Y179228D01*
X387511D01*
X388033Y178428D01*
X387948Y178000D01*
X387956Y177960D01*
Y176898D01*
X387165D01*
Y171354D01*
X387956D01*
Y170040D01*
X387948Y170000D01*
X388104Y169215D01*
X388549Y168549D01*
X389215Y168104D01*
X390000Y167948D01*
X390785Y168104D01*
X391451Y168549D01*
X391896Y169215D01*
X392052Y170000D01*
X392034Y170088D01*
Y171354D01*
X392315D01*
Y176898D01*
X392034D01*
Y177912D01*
X392052Y178000D01*
X391896Y178785D01*
X391451Y179451D01*
X391084Y179696D01*
X391327Y180496D01*
X397058D01*
X400713Y176842D01*
Y173031D01*
X409012D01*
Y178969D01*
X402839D01*
X398745Y183063D01*
X398257Y183389D01*
X397681Y183504D01*
X388575D01*
Y184772D01*
X383425D01*
Y183504D01*
X380000D01*
X379425Y183389D01*
X378937Y183063D01*
X359377Y163504D01*
X256623D01*
X251063Y169063D01*
X250575Y169389D01*
X250000Y169504D01*
X248421D01*
Y170968D01*
X242922D01*
X242878Y170968D01*
X242122D01*
X242078Y170968D01*
X236579D01*
Y169504D01*
X225232D01*
Y170870D01*
X220717D01*
X220083Y170870D01*
X219283Y170870D01*
X214768D01*
Y169504D01*
X213623D01*
X208563Y174563D01*
X208075Y174889D01*
X207500Y175004D01*
X206520D01*
X206474Y175073D01*
X205753Y175555D01*
X205563Y175592D01*
Y176408D01*
X205753Y176445D01*
X206474Y176927D01*
X206520Y176996D01*
X209377D01*
X211437Y174937D01*
X211925Y174611D01*
X212500Y174496D01*
X214768D01*
Y173130D01*
X219283D01*
X219917Y173130D01*
X220717Y173130D01*
X225232D01*
Y174496D01*
X236579D01*
Y173031D01*
X242078D01*
X242122Y173031D01*
X242878D01*
X242922Y173031D01*
X248421D01*
Y174496D01*
X251377D01*
X256937Y168937D01*
X256937Y168937D01*
X257424Y168611D01*
X258000Y168496D01*
X258000Y168496D01*
X358000Y168496D01*
X358576Y168611D01*
X359063Y168937D01*
X378623Y188496D01*
X383425D01*
Y187228D01*
X388575D01*
Y188496D01*
X397681D01*
X398257Y188611D01*
X398745Y188937D01*
X402839Y193032D01*
X409012D01*
Y198969D01*
X400713D01*
Y195158D01*
X397058Y191504D01*
X388575D01*
Y192772D01*
X384489D01*
X383967Y193572D01*
X384052Y194000D01*
X384044Y194040D01*
Y195102D01*
X384835D01*
Y200646D01*
X384044D01*
Y201960D01*
X384052Y202000D01*
X383896Y202785D01*
X383451Y203451D01*
X382785Y203896D01*
X382000Y204052D01*
X381215Y203896D01*
X380549Y203451D01*
X380104Y202785D01*
X379948Y202000D01*
X379966Y201912D01*
Y200646D01*
X379685D01*
Y195102D01*
X379966D01*
Y194088D01*
X379948Y194000D01*
X380104Y193215D01*
X380549Y192549D01*
X380916Y192304D01*
X380673Y191504D01*
X378000D01*
X377425Y191389D01*
X376937Y191063D01*
X363759Y177885D01*
X363020Y178192D01*
Y200500D01*
X362942Y200890D01*
X362721Y201221D01*
X362576Y201318D01*
X362387Y202012D01*
X362385Y202259D01*
X380623Y220496D01*
X383425D01*
Y219228D01*
X387511D01*
X388033Y218428D01*
X387948Y218000D01*
X387956Y217960D01*
Y216898D01*
X387165D01*
Y211354D01*
X387956D01*
Y210040D01*
X387948Y210000D01*
X388104Y209215D01*
X388549Y208549D01*
X389215Y208104D01*
X390000Y207948D01*
X390785Y208104D01*
X391451Y208549D01*
X391896Y209215D01*
X392052Y210000D01*
X392034Y210088D01*
Y211354D01*
X392315D01*
Y216898D01*
X392034D01*
Y217912D01*
X392052Y218000D01*
X391896Y218785D01*
X391451Y219451D01*
X391084Y219696D01*
X391327Y220496D01*
X397196D01*
X400850Y216842D01*
Y213032D01*
X409150D01*
Y218969D01*
X402977D01*
X398882Y223063D01*
X398394Y223389D01*
X397819Y223504D01*
X388575D01*
Y224772D01*
X383425D01*
Y223504D01*
X380000D01*
X379425Y223389D01*
X378937Y223063D01*
X359377Y203504D01*
X256623D01*
X251063Y209063D01*
X250575Y209389D01*
X250000Y209504D01*
X248421D01*
Y210968D01*
X242922D01*
X242878Y210968D01*
X242122D01*
X242078Y210968D01*
X236579D01*
Y209504D01*
X225232D01*
Y210870D01*
X220717D01*
X220083Y210870D01*
X219283Y210870D01*
X214768D01*
Y209504D01*
X213631D01*
X208571Y214563D01*
X208083Y214889D01*
X207508Y215004D01*
X206520D01*
X206474Y215072D01*
X205753Y215555D01*
X205563Y215592D01*
Y216408D01*
X205753Y216445D01*
X206474Y216928D01*
X206520Y216996D01*
X209377D01*
X211437Y214937D01*
X211925Y214611D01*
X212500Y214496D01*
X214768D01*
Y213130D01*
X219283D01*
X219917Y213130D01*
X220717Y213130D01*
X225232D01*
Y214496D01*
X236579D01*
Y213032D01*
X242078D01*
X242122Y213032D01*
X242878D01*
X242922Y213032D01*
X248421D01*
Y214496D01*
X251377D01*
X256937Y208937D01*
X257424Y208611D01*
X258000Y208496D01*
X358000D01*
X358576Y208611D01*
X359063Y208937D01*
X378623Y228496D01*
X383425D01*
Y227228D01*
X388575D01*
Y228496D01*
X397819D01*
X398394Y228611D01*
X398882Y228937D01*
X402977Y233032D01*
X409150D01*
Y238968D01*
X400850D01*
Y235158D01*
X397196Y231504D01*
X388575D01*
Y232772D01*
X384489D01*
X383967Y233572D01*
X384052Y234000D01*
X384044Y234040D01*
Y235102D01*
X384835D01*
Y240646D01*
X384044D01*
Y241960D01*
X384052Y242000D01*
X383896Y242785D01*
X383451Y243451D01*
X382785Y243896D01*
X382000Y244052D01*
X381215Y243896D01*
X380549Y243451D01*
X380104Y242785D01*
X379948Y242000D01*
X379966Y241912D01*
Y240646D01*
X379685D01*
Y235102D01*
X379966D01*
Y234088D01*
X379948Y234000D01*
X380104Y233215D01*
X380549Y232549D01*
X380916Y232304D01*
X380673Y231504D01*
X378000D01*
X377425Y231389D01*
X376937Y231063D01*
X363759Y217885D01*
X363020Y218192D01*
Y240500D01*
X362942Y240890D01*
X362721Y241221D01*
X362576Y241318D01*
X362387Y242012D01*
X362385Y242259D01*
X380623Y260496D01*
X383425D01*
Y259228D01*
X387511D01*
X388033Y258428D01*
X387948Y258000D01*
X387956Y257960D01*
Y256898D01*
X387165D01*
Y251354D01*
X387956D01*
Y250040D01*
X387948Y250000D01*
X388104Y249215D01*
X388549Y248549D01*
X389215Y248104D01*
X390000Y247948D01*
X390785Y248104D01*
X391451Y248549D01*
X391896Y249215D01*
X392052Y250000D01*
X392034Y250088D01*
Y251354D01*
X392315D01*
Y256898D01*
X392034D01*
Y257912D01*
X392052Y258000D01*
X391896Y258785D01*
X391451Y259451D01*
X391084Y259696D01*
X391327Y260496D01*
X397196D01*
X400850Y256842D01*
Y253031D01*
X409150D01*
Y258968D01*
X402977D01*
X398882Y263063D01*
X398394Y263389D01*
X397819Y263504D01*
X388575D01*
Y264772D01*
X383425D01*
Y263504D01*
X380000D01*
X379425Y263389D01*
X378937Y263063D01*
X359377Y243504D01*
X256623D01*
X251063Y249063D01*
X250575Y249389D01*
X250000Y249504D01*
X248421D01*
Y250969D01*
X242922D01*
X242878Y250969D01*
X242122D01*
X242078Y250969D01*
X236579D01*
Y249504D01*
X225232D01*
Y250870D01*
X220717D01*
X220083Y250870D01*
X219283Y250870D01*
X214768D01*
Y249504D01*
X213631D01*
X208571Y254563D01*
X208083Y254889D01*
X207508Y255004D01*
X206520D01*
X206474Y255072D01*
X205753Y255555D01*
X205563Y255592D01*
Y256408D01*
X205753Y256445D01*
X206474Y256927D01*
X206520Y256996D01*
X209377D01*
X211437Y254937D01*
X211925Y254611D01*
X212500Y254496D01*
X214768D01*
Y253130D01*
X219283D01*
X219917Y253130D01*
X220717Y253130D01*
X225232D01*
Y254496D01*
X236579D01*
Y253031D01*
X242078D01*
X242122Y253031D01*
X242878D01*
X242922Y253031D01*
X248421D01*
Y254496D01*
X251377D01*
X256937Y248937D01*
X257424Y248611D01*
X258000Y248496D01*
X358000D01*
X358576Y248611D01*
X359063Y248937D01*
X378623Y268496D01*
X383425D01*
Y267228D01*
X388575D01*
Y268496D01*
X397819D01*
X398394Y268611D01*
X398882Y268937D01*
X402977Y273031D01*
X409150D01*
Y278969D01*
X400850D01*
Y275158D01*
X397196Y271504D01*
X388575D01*
Y272772D01*
X384489D01*
X383967Y273572D01*
X384052Y274000D01*
X384044Y274040D01*
Y275102D01*
X384835D01*
Y280646D01*
X384044D01*
Y281960D01*
X384052Y282000D01*
X383896Y282785D01*
X383451Y283451D01*
X382785Y283896D01*
X382000Y284052D01*
X381215Y283896D01*
X380549Y283451D01*
X380104Y282785D01*
X379948Y282000D01*
X379966Y281912D01*
Y280646D01*
X379685D01*
Y275102D01*
X379966D01*
Y274088D01*
X379948Y274000D01*
X380104Y273215D01*
X380549Y272549D01*
X380916Y272304D01*
X380673Y271504D01*
X378000D01*
X377425Y271389D01*
X376937Y271063D01*
X363759Y257886D01*
X363020Y258192D01*
Y280500D01*
X362942Y280890D01*
X362721Y281221D01*
X362390Y281442D01*
X362000Y281520D01*
X328000Y281520D01*
X326859D01*
X326780Y281504D01*
X326699Y281507D01*
X324445Y281150D01*
X324370Y281122D01*
X324289Y281113D01*
X322119Y280407D01*
X322049Y280368D01*
X321971Y280346D01*
X319937Y279310D01*
X319874Y279260D01*
X319801Y279226D01*
X317955Y277885D01*
X317900Y277826D01*
X317833Y277781D01*
X316219Y276167D01*
X316174Y276100D01*
X316115Y276045D01*
X314774Y274199D01*
X314740Y274126D01*
X314690Y274062D01*
X313654Y272029D01*
X313632Y271951D01*
X313593Y271881D01*
X312887Y269710D01*
X312878Y269631D01*
X312850Y269555D01*
X312493Y267301D01*
X312496Y267220D01*
X312480Y267141D01*
X312480Y264859D01*
X312496Y264780D01*
X312493Y264699D01*
X312850Y262445D01*
X312878Y262369D01*
X312887Y262290D01*
X313593Y260119D01*
X313632Y260049D01*
X313654Y259971D01*
X314690Y257938D01*
X314740Y257874D01*
X314774Y257801D01*
X316115Y255955D01*
X316174Y255900D01*
X316219Y255833D01*
X317833Y254219D01*
X317900Y254174D01*
X317955Y254115D01*
X319801Y252774D01*
X319874Y252740D01*
X319937Y252690D01*
X320695Y252304D01*
X320503Y251504D01*
X295327D01*
X295084Y252304D01*
X295451Y252549D01*
X295896Y253215D01*
X296052Y254000D01*
X295896Y254785D01*
X295451Y255451D01*
X294785Y255896D01*
X294000Y256052D01*
X293960Y256044D01*
X292315D01*
Y256898D01*
X290049D01*
X288519Y258428D01*
X288575Y259228D01*
X288575D01*
Y260496D01*
X297196D01*
X300850Y256842D01*
Y253031D01*
X309150D01*
Y258968D01*
X302977D01*
X298882Y263063D01*
X298394Y263389D01*
X297819Y263504D01*
X288575D01*
Y264772D01*
X283425D01*
Y263504D01*
X216372D01*
X215785Y263896D01*
X215093Y264033D01*
X214563Y264563D01*
X214075Y264889D01*
X213500Y265004D01*
X206520D01*
X206474Y265072D01*
X205753Y265555D01*
X205563Y265592D01*
Y266408D01*
X205753Y266445D01*
X206474Y266928D01*
X206520Y266996D01*
X213500D01*
X214075Y267111D01*
X214563Y267437D01*
X215093Y267967D01*
X215785Y268104D01*
X216372Y268496D01*
X283425D01*
Y267228D01*
X288575D01*
Y268496D01*
X297819D01*
X298394Y268611D01*
X298882Y268937D01*
X302977Y273031D01*
X309150D01*
Y278969D01*
X300850D01*
Y275158D01*
X297196Y271504D01*
X288575D01*
Y272772D01*
X284489D01*
X283967Y273572D01*
X284052Y274000D01*
X284044Y274040D01*
Y275102D01*
X284835D01*
Y280646D01*
X284044D01*
Y281960D01*
X284052Y282000D01*
X283896Y282785D01*
X283451Y283451D01*
X282785Y283896D01*
X282000Y284052D01*
X281215Y283896D01*
X280549Y283451D01*
X280104Y282785D01*
X279948Y282000D01*
X279966Y281912D01*
Y280646D01*
X279685D01*
Y275102D01*
X279966D01*
Y274088D01*
X279948Y274000D01*
X280104Y273215D01*
X280549Y272549D01*
X280916Y272304D01*
X280673Y271504D01*
X216372D01*
X215785Y271896D01*
X215000Y272052D01*
X214215Y271896D01*
X213549Y271451D01*
X213104Y270785D01*
X212967Y270093D01*
X212877Y270004D01*
X206520D01*
X206474Y270073D01*
X205753Y270555D01*
X205563Y270592D01*
Y271408D01*
X205753Y271445D01*
X206474Y271927D01*
X206956Y272649D01*
X207125Y273500D01*
X206956Y274351D01*
X206474Y275073D01*
X206206Y275252D01*
X206099Y276239D01*
X206342Y276461D01*
X209079D01*
Y275532D01*
X214578D01*
X214622Y275532D01*
X215378D01*
X215422Y275532D01*
X217650D01*
Y278500D01*
X218150D01*
D01*
X217650D01*
Y281469D01*
X215422D01*
X215378Y281469D01*
X214622D01*
X214578Y281469D01*
X213544D01*
Y283460D01*
X213552Y283500D01*
X213396Y284285D01*
X212951Y284951D01*
X212285Y285396D01*
X211500Y285552D01*
D02*
G37*
G36*
X218650Y281469D02*
Y279000D01*
X220921D01*
Y281469D01*
X218650D01*
D02*
G37*
G36*
X392315Y280646D02*
X390240D01*
Y278374D01*
X392315D01*
Y280646D01*
D02*
G37*
G36*
X292315D02*
X290240D01*
Y278374D01*
X292315D01*
Y280646D01*
D02*
G37*
G36*
X389240D02*
X387165D01*
Y278374D01*
X389240D01*
Y280646D01*
D02*
G37*
G36*
X289240D02*
X287165D01*
Y278374D01*
X289240D01*
Y280646D01*
D02*
G37*
G36*
X165701Y280500D02*
X163429D01*
Y278031D01*
X165701D01*
Y280500D01*
D02*
G37*
G36*
X172500Y288052D02*
X171715Y287896D01*
X171049Y287451D01*
X170604Y286785D01*
X170448Y286000D01*
X170461Y285936D01*
Y284238D01*
X169728Y283968D01*
X168972D01*
X168928Y283968D01*
X166701D01*
Y281000D01*
Y278031D01*
X168928D01*
X168972Y278031D01*
X169728D01*
X169773Y278031D01*
X172585D01*
X173446Y277170D01*
X173357Y276721D01*
X173148Y276370D01*
X170560D01*
X169925Y276370D01*
X169125Y276370D01*
X164610D01*
Y276206D01*
X163871Y275900D01*
X153636Y286136D01*
X153114Y286484D01*
X152500Y286606D01*
X117500D01*
X116885Y286484D01*
X116365Y286136D01*
X113865Y283635D01*
X113516Y283115D01*
X113394Y282500D01*
Y282383D01*
X112415Y281978D01*
X111344Y281156D01*
X110522Y280085D01*
X110006Y278838D01*
X109830Y277500D01*
X110006Y276162D01*
X110522Y274915D01*
X111344Y273844D01*
X112415Y273023D01*
X112631Y272933D01*
Y272067D01*
X112415Y271977D01*
X111344Y271156D01*
X110522Y270085D01*
X110006Y268838D01*
X109830Y267500D01*
X110006Y266162D01*
X110522Y264915D01*
X111344Y263844D01*
X112415Y263022D01*
X112631Y262933D01*
Y262067D01*
X112415Y261978D01*
X111344Y261156D01*
X110522Y260085D01*
X110006Y258838D01*
X109830Y257500D01*
X110006Y256162D01*
X110522Y254915D01*
X111344Y253844D01*
X112415Y253023D01*
X112631Y252933D01*
Y252067D01*
X112415Y251977D01*
X111344Y251156D01*
X110522Y250085D01*
X110006Y248838D01*
X109830Y247500D01*
X110006Y246162D01*
X110522Y244915D01*
X111344Y243844D01*
X112415Y243022D01*
X113662Y242506D01*
X115000Y242330D01*
X116338Y242506D01*
X117317Y242912D01*
X118394Y241835D01*
Y240894D01*
X117594Y240551D01*
X117017Y240994D01*
X116044Y241397D01*
X115500Y241469D01*
Y237500D01*
Y233531D01*
X116044Y233603D01*
X117017Y234006D01*
X117594Y234449D01*
X118394Y234106D01*
Y232261D01*
X117677Y231907D01*
X117585Y231978D01*
X116338Y232494D01*
X115000Y232670D01*
X113662Y232494D01*
X112415Y231978D01*
X111344Y231156D01*
X110522Y230085D01*
X110006Y228838D01*
X109830Y227500D01*
X110006Y226162D01*
X110522Y224915D01*
X111344Y223844D01*
X112415Y223023D01*
X113662Y222506D01*
X115000Y222330D01*
X116338Y222506D01*
X117585Y223023D01*
X118167Y223469D01*
X118736Y223792D01*
X119326Y223403D01*
X125364Y217365D01*
X125885Y217016D01*
X126500Y216894D01*
X171281D01*
X171715Y216604D01*
X172500Y216448D01*
X173285Y216604D01*
X173719Y216894D01*
X178576D01*
X179247Y216445D01*
X179437Y216408D01*
Y215592D01*
X179247Y215555D01*
X178526Y215072D01*
X178044Y214351D01*
X177974Y214000D01*
X181772D01*
X185569D01*
X185499Y214351D01*
X185017Y215072D01*
X184296Y215555D01*
X184107Y215592D01*
Y216408D01*
X184296Y216445D01*
X185017Y216928D01*
X185499Y217649D01*
X185669Y218500D01*
X185499Y219351D01*
X185017Y220073D01*
X184296Y220555D01*
X184107Y220592D01*
Y221408D01*
X184296Y221445D01*
X185017Y221927D01*
X185499Y222649D01*
X185569Y223000D01*
X181772D01*
X177974D01*
X178044Y222649D01*
X178526Y221927D01*
X179247Y221445D01*
X179437Y221408D01*
Y220592D01*
X179247Y220555D01*
X178576Y220106D01*
X173719D01*
X173285Y220396D01*
X172500Y220552D01*
X171715Y220396D01*
X171281Y220106D01*
X127165D01*
X125661Y221610D01*
X125948Y222455D01*
X126338Y222506D01*
X127585Y223023D01*
X128656Y223844D01*
X129478Y224915D01*
X129994Y226162D01*
X130170Y227500D01*
X129994Y228838D01*
X129478Y230085D01*
X128656Y231156D01*
X127585Y231978D01*
X126338Y232494D01*
X125000Y232670D01*
X123662Y232494D01*
X122415Y231978D01*
X122323Y231907D01*
X121606Y232261D01*
Y234106D01*
X122406Y234449D01*
X122983Y234006D01*
X123956Y233603D01*
X124500Y233531D01*
Y237500D01*
Y241469D01*
X123956Y241397D01*
X122983Y240994D01*
X122406Y240551D01*
X121606Y240894D01*
Y242500D01*
X121574Y242659D01*
X122300Y243111D01*
X122415Y243022D01*
X123662Y242506D01*
X125000Y242330D01*
X126338Y242506D01*
X127585Y243022D01*
X128656Y243844D01*
X129350Y244748D01*
X130258Y244971D01*
X142865Y232365D01*
X143386Y232016D01*
X144000Y231894D01*
X164610D01*
Y230630D01*
X169125D01*
X169760Y230630D01*
X170560Y230630D01*
X173625D01*
X173831Y230300D01*
X173968Y229830D01*
X173604Y229285D01*
X173448Y228500D01*
X173604Y227715D01*
X174049Y227049D01*
X174715Y226604D01*
X175500Y226448D01*
X175564Y226461D01*
X179224D01*
X179247Y226445D01*
X179437Y226408D01*
Y225592D01*
X179247Y225555D01*
X178526Y225073D01*
X178044Y224351D01*
X177974Y224000D01*
X181772D01*
X185569D01*
X185499Y224351D01*
X185017Y225073D01*
X184296Y225555D01*
X184107Y225592D01*
Y226408D01*
X184296Y226445D01*
X185017Y226927D01*
X185499Y227649D01*
X185669Y228500D01*
X185499Y229351D01*
X185017Y230072D01*
X184296Y230555D01*
X184107Y230592D01*
Y231408D01*
X184296Y231445D01*
X185017Y231927D01*
X185499Y232649D01*
X185669Y233500D01*
X185499Y234351D01*
X185017Y235072D01*
X184296Y235555D01*
X184107Y235592D01*
Y236408D01*
X184296Y236445D01*
X185017Y236928D01*
X185499Y237649D01*
X185669Y238500D01*
X185499Y239351D01*
X185017Y240072D01*
X184296Y240555D01*
X183445Y240724D01*
X180098D01*
X179247Y240555D01*
X179224Y240539D01*
X175845D01*
X175272Y241112D01*
Y243969D01*
X174539D01*
Y245936D01*
X174552Y246000D01*
X174396Y246785D01*
X173951Y247451D01*
X173285Y247896D01*
X172500Y248052D01*
X171715Y247896D01*
X171049Y247451D01*
X170604Y246785D01*
X170448Y246000D01*
X170461Y245936D01*
Y244238D01*
X169728Y243969D01*
X168972D01*
X168928Y243969D01*
X166701D01*
Y241000D01*
Y238032D01*
X168928D01*
X168972Y238032D01*
X169728D01*
X169773Y238032D01*
X172585D01*
X173446Y237170D01*
X173357Y236721D01*
X173148Y236370D01*
X170560D01*
X169925Y236370D01*
X169125Y236370D01*
X164610D01*
Y235106D01*
X144665D01*
X140585Y239186D01*
X140891Y239925D01*
X141350D01*
Y242000D01*
X139276D01*
Y241541D01*
X138537Y241234D01*
X131135Y248636D01*
X130614Y248984D01*
X130000Y249106D01*
X129883D01*
X129478Y250085D01*
X128656Y251156D01*
X127585Y251977D01*
X127369Y252067D01*
Y252933D01*
X127585Y253023D01*
X128656Y253844D01*
X129478Y254915D01*
X129994Y256162D01*
X130170Y257500D01*
X129994Y258838D01*
X129478Y260085D01*
X128656Y261156D01*
X127585Y261978D01*
X127369Y262067D01*
Y262933D01*
X127585Y263022D01*
X128656Y263844D01*
X129478Y264915D01*
X129994Y266162D01*
X130170Y267500D01*
X129994Y268838D01*
X129478Y270085D01*
X128656Y271156D01*
X128111Y271574D01*
X128383Y272374D01*
X130126D01*
Y282626D01*
X130126D01*
X130203Y283394D01*
X151835D01*
X162864Y272364D01*
X163385Y272016D01*
X164000Y271894D01*
X164610D01*
Y270630D01*
X169125D01*
X169760Y270630D01*
X170560Y270630D01*
X173625D01*
X173831Y270300D01*
X173968Y269830D01*
X173604Y269285D01*
X173448Y268500D01*
X173604Y267715D01*
X174049Y267049D01*
X174715Y266604D01*
X175500Y266448D01*
X175564Y266461D01*
X179224D01*
X179247Y266445D01*
X179437Y266408D01*
Y265592D01*
X179247Y265555D01*
X178526Y265072D01*
X178044Y264351D01*
X177974Y264000D01*
X181772D01*
X185569D01*
X185499Y264351D01*
X185017Y265072D01*
X184296Y265555D01*
X184107Y265592D01*
Y266408D01*
X184296Y266445D01*
X185017Y266928D01*
X185499Y267649D01*
X185669Y268500D01*
X185499Y269351D01*
X185017Y270073D01*
X184296Y270555D01*
X184107Y270592D01*
Y271408D01*
X184296Y271445D01*
X185017Y271927D01*
X185499Y272649D01*
X185669Y273500D01*
X185499Y274351D01*
X185017Y275073D01*
X184296Y275555D01*
X184107Y275592D01*
Y276408D01*
X184296Y276445D01*
X185017Y276927D01*
X185499Y277649D01*
X185669Y278500D01*
X185499Y279351D01*
X185017Y280072D01*
X184296Y280555D01*
X183445Y280724D01*
X180098D01*
X179247Y280555D01*
X179224Y280539D01*
X175845D01*
X175272Y281112D01*
Y283968D01*
X174539D01*
Y285936D01*
X174552Y286000D01*
X174396Y286785D01*
X173951Y287451D01*
X173285Y287896D01*
X172500Y288052D01*
D02*
G37*
G36*
X220921Y278000D02*
X218650D01*
Y275532D01*
X220921D01*
Y278000D01*
D02*
G37*
G36*
X392315Y277374D02*
X390240D01*
Y275102D01*
X392315D01*
Y277374D01*
D02*
G37*
G36*
X389240D02*
X387165D01*
Y275102D01*
X389240D01*
Y277374D01*
D02*
G37*
G36*
X292315D02*
X290240D01*
Y275102D01*
X292315D01*
Y277374D01*
D02*
G37*
G36*
X289240D02*
X287165D01*
Y275102D01*
X289240D01*
Y277374D01*
D02*
G37*
G36*
X144425Y275075D02*
X142350D01*
Y273000D01*
X144425D01*
Y275075D01*
D02*
G37*
G36*
X141350D02*
X139276D01*
Y273000D01*
X141350D01*
Y275075D01*
D02*
G37*
G36*
X260531Y280531D02*
X259154D01*
X258110Y280393D01*
X257138Y279991D01*
X256304Y279350D01*
X255663Y278515D01*
X255260Y277543D01*
X255123Y276500D01*
X255260Y275457D01*
X255663Y274485D01*
X256304Y273650D01*
X257138Y273009D01*
X258110Y272607D01*
X259154Y272469D01*
X260531D01*
X261575Y272607D01*
X262547Y273009D01*
X263382Y273650D01*
X264022Y274485D01*
X264425Y275457D01*
X264562Y276500D01*
X264425Y277543D01*
X264022Y278515D01*
X263382Y279350D01*
X262547Y279991D01*
X261575Y280393D01*
X260531Y280531D01*
D02*
G37*
G36*
X240846D02*
X239469D01*
X238425Y280393D01*
X237453Y279991D01*
X236618Y279350D01*
X235978Y278515D01*
X235575Y277543D01*
X235438Y276500D01*
X235575Y275457D01*
X235978Y274485D01*
X236618Y273650D01*
X237453Y273009D01*
X238425Y272607D01*
X239469Y272469D01*
X240846D01*
X241890Y272607D01*
X242862Y273009D01*
X243696Y273650D01*
X244337Y274485D01*
X244740Y275457D01*
X244877Y276500D01*
X244740Y277543D01*
X244337Y278515D01*
X243696Y279350D01*
X242862Y279991D01*
X241890Y280393D01*
X240846Y280531D01*
D02*
G37*
G36*
X150724Y275075D02*
X145575D01*
Y269925D01*
X150724D01*
Y270894D01*
X152781D01*
X153215Y270604D01*
X154000Y270448D01*
X154785Y270604D01*
X155451Y271049D01*
X155896Y271715D01*
X156052Y272500D01*
X155896Y273285D01*
X155451Y273951D01*
X154785Y274396D01*
X154000Y274552D01*
X153215Y274396D01*
X152781Y274106D01*
X150724D01*
Y275075D01*
D02*
G37*
G36*
X144425Y272000D02*
X142350D01*
Y269925D01*
X144425D01*
Y272000D01*
D02*
G37*
G36*
X141350D02*
X139276D01*
Y269925D01*
X141350D01*
Y272000D01*
D02*
G37*
G36*
X409150Y268969D02*
X405500D01*
Y266500D01*
X409150D01*
Y268969D01*
D02*
G37*
G36*
X404500D02*
X400850D01*
Y266500D01*
X404500D01*
Y268969D01*
D02*
G37*
G36*
X309150D02*
X305500D01*
Y266500D01*
X309150D01*
Y268969D01*
D02*
G37*
G36*
X304500D02*
X300850D01*
Y266500D01*
X304500D01*
Y268969D01*
D02*
G37*
G36*
X409150Y265500D02*
X405500D01*
Y263032D01*
X409150D01*
Y265500D01*
D02*
G37*
G36*
X404500D02*
X400850D01*
Y263032D01*
X404500D01*
Y265500D01*
D02*
G37*
G36*
X309150D02*
X305500D01*
Y263032D01*
X309150D01*
Y265500D01*
D02*
G37*
G36*
X304500D02*
X300850D01*
Y263032D01*
X304500D01*
Y265500D01*
D02*
G37*
G36*
X144425Y265075D02*
X142350D01*
Y263000D01*
X144425D01*
Y265075D01*
D02*
G37*
G36*
X141350D02*
X139276D01*
Y263000D01*
X141350D01*
Y265075D01*
D02*
G37*
G36*
X150724D02*
X145575D01*
Y259925D01*
X150724D01*
Y260894D01*
X152781D01*
X153215Y260604D01*
X154000Y260448D01*
X154785Y260604D01*
X155451Y261049D01*
X155896Y261715D01*
X156052Y262500D01*
X155896Y263285D01*
X155451Y263951D01*
X154785Y264396D01*
X154000Y264552D01*
X153215Y264396D01*
X152781Y264106D01*
X150724D01*
Y265075D01*
D02*
G37*
G36*
X144425Y262000D02*
X142350D01*
Y259925D01*
X144425D01*
Y262000D01*
D02*
G37*
G36*
X141350D02*
X139276D01*
Y259925D01*
X141350D01*
Y262000D01*
D02*
G37*
G36*
X384835Y256898D02*
X382760D01*
Y254626D01*
X384835D01*
Y256898D01*
D02*
G37*
G36*
X381760D02*
X379685D01*
Y254626D01*
X381760D01*
Y256898D01*
D02*
G37*
G36*
X172500Y263052D02*
X171715Y262896D01*
X171049Y262451D01*
X170604Y261785D01*
X170448Y261000D01*
X170604Y260215D01*
X171049Y259549D01*
X171715Y259104D01*
X172227Y259002D01*
X173864Y257365D01*
X174385Y257016D01*
X175000Y256894D01*
X178576D01*
X179247Y256445D01*
X179437Y256408D01*
Y255592D01*
X179247Y255555D01*
X178526Y255072D01*
X178044Y254351D01*
X177974Y254000D01*
X181772D01*
X185569D01*
X185499Y254351D01*
X185017Y255072D01*
X184296Y255555D01*
X184107Y255592D01*
Y256408D01*
X184296Y256445D01*
X185017Y256927D01*
X185499Y257649D01*
X185669Y258500D01*
X185499Y259351D01*
X185017Y260072D01*
X184296Y260555D01*
X184107Y260592D01*
Y261408D01*
X184296Y261445D01*
X185017Y261928D01*
X185499Y262649D01*
X185569Y263000D01*
X181772D01*
X177974D01*
X178044Y262649D01*
X178526Y261928D01*
X179247Y261445D01*
X179437Y261408D01*
Y260592D01*
X179247Y260555D01*
X178576Y260106D01*
X175665D01*
X174497Y261274D01*
X174396Y261785D01*
X173951Y262451D01*
X173285Y262896D01*
X172500Y263052D01*
D02*
G37*
G36*
X144425Y255075D02*
X142350D01*
Y253000D01*
X144425D01*
Y255075D01*
D02*
G37*
G36*
X141350D02*
X139276D01*
Y253000D01*
X141350D01*
Y255075D01*
D02*
G37*
G36*
X384835Y253626D02*
X382760D01*
Y251354D01*
X384835D01*
Y253626D01*
D02*
G37*
G36*
X381760D02*
X379685D01*
Y251354D01*
X381760D01*
Y253626D01*
D02*
G37*
G36*
X150724Y255075D02*
X145575D01*
Y249925D01*
X150724D01*
Y250894D01*
X152781D01*
X153215Y250604D01*
X154000Y250448D01*
X154785Y250604D01*
X155451Y251049D01*
X155896Y251715D01*
X156052Y252500D01*
X155896Y253285D01*
X155451Y253951D01*
X154785Y254396D01*
X154000Y254552D01*
X153215Y254396D01*
X152781Y254106D01*
X150724D01*
Y255075D01*
D02*
G37*
G36*
X144425Y252000D02*
X142350D01*
Y249925D01*
X144425D01*
Y252000D01*
D02*
G37*
G36*
X141350D02*
X139276D01*
Y249925D01*
X141350D01*
Y252000D01*
D02*
G37*
G36*
X207026Y248000D02*
X203728D01*
Y246276D01*
X204902D01*
X205753Y246445D01*
X206474Y246927D01*
X206956Y247649D01*
X207026Y248000D01*
D02*
G37*
G36*
X202728D02*
X199431D01*
X199501Y247649D01*
X199983Y246927D01*
X200704Y246445D01*
X201555Y246276D01*
X202728D01*
Y248000D01*
D02*
G37*
G36*
X185569Y253000D02*
X181772D01*
X177974D01*
X178044Y252649D01*
X178526Y251927D01*
X179247Y251445D01*
X179437Y251408D01*
Y250592D01*
X179247Y250555D01*
X178526Y250073D01*
X178044Y249351D01*
X177875Y248500D01*
X178044Y247649D01*
X178526Y246927D01*
X179247Y246445D01*
X180098Y246276D01*
X183445D01*
X184296Y246445D01*
X185017Y246927D01*
X185499Y247649D01*
X185669Y248500D01*
X185499Y249351D01*
X185017Y250073D01*
X184296Y250555D01*
X184107Y250592D01*
Y251408D01*
X184296Y251445D01*
X185017Y251927D01*
X185499Y252649D01*
X185569Y253000D01*
D02*
G37*
G36*
X144425Y245075D02*
X142350D01*
Y243000D01*
X144425D01*
Y245075D01*
D02*
G37*
G36*
X141350D02*
X139276D01*
Y243000D01*
X141350D01*
Y245075D01*
D02*
G37*
G36*
X165701Y243969D02*
X163429D01*
Y241500D01*
X165701D01*
Y243969D01*
D02*
G37*
G36*
X150724Y245075D02*
X145575D01*
Y239925D01*
X150724D01*
Y240894D01*
X152781D01*
X153215Y240604D01*
X154000Y240448D01*
X154785Y240604D01*
X155451Y241049D01*
X155896Y241715D01*
X156052Y242500D01*
X155896Y243285D01*
X155451Y243951D01*
X154785Y244396D01*
X154000Y244552D01*
X153215Y244396D01*
X152781Y244106D01*
X150724D01*
Y245075D01*
D02*
G37*
G36*
X144425Y242000D02*
X142350D01*
Y239925D01*
X144425D01*
Y242000D01*
D02*
G37*
G36*
X218650Y241469D02*
Y239000D01*
X220921D01*
Y241469D01*
X218650D01*
D02*
G37*
G36*
X392315Y240646D02*
X390240D01*
Y238374D01*
X392315D01*
Y240646D01*
D02*
G37*
G36*
X389240D02*
X387165D01*
Y238374D01*
X389240D01*
Y240646D01*
D02*
G37*
G36*
X165701Y240500D02*
X163429D01*
Y238032D01*
X165701D01*
Y240500D01*
D02*
G37*
G36*
X125500Y241469D02*
Y238000D01*
X128969D01*
X128897Y238544D01*
X128494Y239517D01*
X127853Y240353D01*
X127017Y240994D01*
X126044Y241397D01*
X125500Y241469D01*
D02*
G37*
G36*
X114500D02*
X113956Y241397D01*
X112983Y240994D01*
X112147Y240353D01*
X111506Y239517D01*
X111103Y238544D01*
X111031Y238000D01*
X114500D01*
Y241469D01*
D02*
G37*
G36*
X220921Y238000D02*
X218650D01*
Y235531D01*
X220921D01*
Y238000D01*
D02*
G37*
G36*
X392315Y237374D02*
X390240D01*
Y235102D01*
X392315D01*
Y237374D01*
D02*
G37*
G36*
X389240D02*
X387165D01*
Y235102D01*
X389240D01*
Y237374D01*
D02*
G37*
G36*
X128969Y237000D02*
X125500D01*
Y233531D01*
X126044Y233603D01*
X127017Y234006D01*
X127853Y234647D01*
X128494Y235483D01*
X128897Y236456D01*
X128969Y237000D01*
D02*
G37*
G36*
X114500D02*
X111031D01*
X111103Y236456D01*
X111506Y235483D01*
X112147Y234647D01*
X112983Y234006D01*
X113956Y233603D01*
X114500Y233531D01*
Y237000D01*
D02*
G37*
G36*
X409150Y228969D02*
X405500D01*
Y226500D01*
X409150D01*
Y228969D01*
D02*
G37*
G36*
X404500D02*
X400850D01*
Y226500D01*
X404500D01*
Y228969D01*
D02*
G37*
G36*
X409150Y225500D02*
X405500D01*
Y223031D01*
X409150D01*
Y225500D01*
D02*
G37*
G36*
X404500D02*
X400850D01*
Y223031D01*
X404500D01*
Y225500D01*
D02*
G37*
G36*
X384835Y216898D02*
X382760D01*
Y214626D01*
X384835D01*
Y216898D01*
D02*
G37*
G36*
X381760D02*
X379685D01*
Y214626D01*
X381760D01*
Y216898D01*
D02*
G37*
G36*
X384835Y213626D02*
X382760D01*
Y211354D01*
X384835D01*
Y213626D01*
D02*
G37*
G36*
X381760D02*
X379685D01*
Y211354D01*
X381760D01*
Y213626D01*
D02*
G37*
G36*
X207026Y208000D02*
X203728D01*
Y206276D01*
X204902D01*
X205753Y206445D01*
X206474Y206927D01*
X206956Y207649D01*
X207026Y208000D01*
D02*
G37*
G36*
X202728D02*
X199431D01*
X199501Y207649D01*
X199983Y206927D01*
X200704Y206445D01*
X201555Y206276D01*
X202728D01*
Y208000D01*
D02*
G37*
G36*
X185569Y213000D02*
X181772D01*
X177974D01*
X178044Y212649D01*
X178526Y211928D01*
X179247Y211445D01*
X179437Y211408D01*
Y210592D01*
X179247Y210555D01*
X178526Y210072D01*
X178044Y209351D01*
X177875Y208500D01*
X178044Y207649D01*
X178526Y206927D01*
X179247Y206445D01*
X180098Y206276D01*
X183445D01*
X184296Y206445D01*
X185017Y206927D01*
X185499Y207649D01*
X185669Y208500D01*
X185499Y209351D01*
X185017Y210072D01*
X184296Y210555D01*
X184107Y210592D01*
Y211408D01*
X184296Y211445D01*
X185017Y211928D01*
X185499Y212649D01*
X185569Y213000D01*
D02*
G37*
G36*
X149500Y214052D02*
X148715Y213896D01*
X148049Y213451D01*
X147604Y212785D01*
X147448Y212000D01*
X147456Y211960D01*
Y210075D01*
X146575D01*
Y204925D01*
X151724D01*
Y210075D01*
X151534D01*
Y211912D01*
X151552Y212000D01*
X151396Y212785D01*
X150951Y213451D01*
X150285Y213896D01*
X149500Y214052D01*
D02*
G37*
G36*
X165701Y203969D02*
X163429D01*
Y201500D01*
X165701D01*
Y203969D01*
D02*
G37*
G36*
X145425Y210075D02*
X140276D01*
Y204925D01*
X140956D01*
Y202540D01*
X140948Y202500D01*
X141104Y201715D01*
X141549Y201049D01*
X142215Y200604D01*
X143000Y200448D01*
X143785Y200604D01*
X144451Y201049D01*
X144896Y201715D01*
X145052Y202500D01*
X145034Y202588D01*
Y204925D01*
X145425D01*
Y210075D01*
D02*
G37*
G36*
X218650Y201468D02*
Y199000D01*
X220921D01*
Y201468D01*
X218650D01*
D02*
G37*
G36*
X392315Y200646D02*
X390240D01*
Y198374D01*
X392315D01*
Y200646D01*
D02*
G37*
G36*
X389240D02*
X387165D01*
Y198374D01*
X389240D01*
Y200646D01*
D02*
G37*
G36*
X115000Y216795D02*
X113187Y216616D01*
X111443Y216087D01*
X109836Y215228D01*
X108428Y214072D01*
X107272Y212664D01*
X106413Y211057D01*
X105884Y209313D01*
X105705Y207500D01*
X105884Y205687D01*
X106413Y203943D01*
X107272Y202336D01*
X108428Y200928D01*
X109836Y199772D01*
X111443Y198913D01*
X113187Y198384D01*
X115000Y198205D01*
X116813Y198384D01*
X118557Y198913D01*
X120164Y199772D01*
X121572Y200928D01*
X122728Y202336D01*
X123587Y203943D01*
X124116Y205687D01*
X124295Y207500D01*
X124116Y209313D01*
X123587Y211057D01*
X122728Y212664D01*
X121572Y214072D01*
X120164Y215228D01*
X118557Y216087D01*
X116813Y216616D01*
X115000Y216795D01*
D02*
G37*
G36*
X165701Y200500D02*
X163429D01*
Y198031D01*
X165701D01*
Y200500D01*
D02*
G37*
G36*
X172500Y208052D02*
X171715Y207896D01*
X171049Y207451D01*
X170604Y206785D01*
X170448Y206000D01*
X170461Y205936D01*
Y204238D01*
X169728Y203969D01*
X168972D01*
X168928Y203969D01*
X166701D01*
Y201000D01*
Y198031D01*
X168928D01*
X168972Y198031D01*
X169728D01*
X169773Y198031D01*
X172388D01*
X173249Y197170D01*
X173160Y196721D01*
X172951Y196370D01*
X169925Y196370D01*
X169125Y196370D01*
X164610D01*
Y195106D01*
X121000D01*
X120386Y194984D01*
X119864Y194635D01*
X117317Y192088D01*
X116338Y192494D01*
X115000Y192670D01*
X113662Y192494D01*
X112415Y191978D01*
X111344Y191156D01*
X110522Y190085D01*
X110006Y188838D01*
X109830Y187500D01*
X110006Y186162D01*
X110522Y184915D01*
X111344Y183844D01*
X112415Y183022D01*
X112631Y182933D01*
Y182067D01*
X112415Y181977D01*
X111344Y181156D01*
X110522Y180085D01*
X110006Y178838D01*
X109830Y177500D01*
X110006Y176162D01*
X110522Y174915D01*
X111344Y173844D01*
X112415Y173022D01*
X112631Y172933D01*
Y172067D01*
X112415Y171977D01*
X111344Y171156D01*
X110522Y170085D01*
X110006Y168838D01*
X109830Y167500D01*
X110006Y166162D01*
X110522Y164915D01*
X111344Y163844D01*
X112415Y163022D01*
X112631Y162933D01*
Y162067D01*
X112415Y161978D01*
X111344Y161156D01*
X110522Y160085D01*
X110006Y158838D01*
X109830Y157500D01*
X110006Y156162D01*
X110522Y154915D01*
X111344Y153844D01*
X112415Y153023D01*
X113662Y152506D01*
X115000Y152330D01*
X116338Y152506D01*
X117317Y152912D01*
X118394Y151835D01*
Y150893D01*
X117594Y150551D01*
X117017Y150994D01*
X116044Y151397D01*
X115500Y151469D01*
Y147500D01*
Y143531D01*
X116044Y143603D01*
X117017Y144006D01*
X117594Y144449D01*
X118394Y144106D01*
Y142261D01*
X117677Y141907D01*
X117585Y141978D01*
X116338Y142494D01*
X115000Y142670D01*
X113662Y142494D01*
X112415Y141978D01*
X111344Y141156D01*
X110522Y140085D01*
X110006Y138838D01*
X109830Y137500D01*
X110006Y136162D01*
X110522Y134915D01*
X111344Y133844D01*
X112415Y133022D01*
X113662Y132506D01*
X115000Y132330D01*
X116338Y132506D01*
X117585Y133022D01*
X118167Y133469D01*
X118736Y133791D01*
X119326Y133403D01*
X123864Y128865D01*
X124385Y128516D01*
X125000Y128394D01*
X166500D01*
X167114Y128516D01*
X167636Y128865D01*
X172774Y134002D01*
X173285Y134104D01*
X173951Y134549D01*
X174396Y135215D01*
X174497Y135726D01*
X175665Y136894D01*
X178576D01*
X179247Y136445D01*
X179437Y136408D01*
Y135592D01*
X179247Y135555D01*
X178526Y135073D01*
X178044Y134351D01*
X177974Y134000D01*
X181772D01*
X185569D01*
X185499Y134351D01*
X185017Y135073D01*
X184296Y135555D01*
X184107Y135592D01*
Y136408D01*
X184296Y136445D01*
X185017Y136927D01*
X185499Y137649D01*
X185669Y138500D01*
X185499Y139351D01*
X185017Y140073D01*
X184296Y140554D01*
X184107Y140592D01*
Y141408D01*
X184296Y141446D01*
X185017Y141928D01*
X185499Y142649D01*
X185569Y143000D01*
X181772D01*
X177974D01*
X178044Y142649D01*
X178526Y141928D01*
X179247Y141446D01*
X179437Y141408D01*
Y140592D01*
X179247Y140554D01*
X178576Y140106D01*
X175000D01*
X174385Y139984D01*
X173864Y139636D01*
X172227Y137997D01*
X171715Y137896D01*
X171049Y137451D01*
X170604Y136785D01*
X170502Y136274D01*
X165835Y131606D01*
X126505D01*
X126429Y131711D01*
X126415Y131835D01*
X126728Y132668D01*
X127585Y133022D01*
X128656Y133844D01*
X129478Y134915D01*
X129994Y136162D01*
X130170Y137500D01*
X129994Y138838D01*
X129478Y140085D01*
X128656Y141156D01*
X127585Y141978D01*
X126338Y142494D01*
X125000Y142670D01*
X123662Y142494D01*
X122415Y141978D01*
X122323Y141907D01*
X121606Y142261D01*
Y144106D01*
X122406Y144449D01*
X122983Y144006D01*
X123956Y143603D01*
X124500Y143531D01*
Y147500D01*
Y151469D01*
X123956Y151397D01*
X122983Y150994D01*
X122406Y150551D01*
X121606Y150893D01*
Y152500D01*
X121574Y152659D01*
X122300Y153111D01*
X122415Y153023D01*
X123662Y152506D01*
X125000Y152330D01*
X126338Y152506D01*
X127585Y153023D01*
X128656Y153844D01*
X129350Y154748D01*
X130258Y154971D01*
X138865Y146364D01*
X139385Y146016D01*
X140000Y145894D01*
X161480D01*
X162095Y146016D01*
X162616Y146364D01*
X166881Y150630D01*
X169760Y150630D01*
X170560Y150630D01*
X173625D01*
X173831Y150300D01*
X173968Y149830D01*
X173604Y149285D01*
X173448Y148500D01*
X173604Y147715D01*
X174049Y147049D01*
X174715Y146604D01*
X175500Y146448D01*
X175564Y146461D01*
X179224D01*
X179247Y146446D01*
X179437Y146408D01*
Y145592D01*
X179247Y145554D01*
X178526Y145072D01*
X178044Y144351D01*
X177974Y144000D01*
X181772D01*
X185569D01*
X185499Y144351D01*
X185017Y145072D01*
X184296Y145554D01*
X184107Y145592D01*
Y146408D01*
X184296Y146446D01*
X185017Y146927D01*
X185499Y147649D01*
X185669Y148500D01*
X185499Y149351D01*
X185017Y150073D01*
X184296Y150555D01*
X184107Y150592D01*
Y151408D01*
X184296Y151445D01*
X185017Y151927D01*
X185499Y152649D01*
X185669Y153500D01*
X185499Y154351D01*
X185017Y155072D01*
X184296Y155554D01*
X184107Y155592D01*
Y156408D01*
X184296Y156446D01*
X185017Y156928D01*
X185499Y157649D01*
X185669Y158500D01*
X185499Y159351D01*
X185017Y160073D01*
X184296Y160555D01*
X183445Y160724D01*
X180098D01*
X179247Y160555D01*
X179224Y160539D01*
X175845D01*
X175272Y161112D01*
Y163969D01*
X174539D01*
Y165936D01*
X174552Y166000D01*
X174396Y166785D01*
X173951Y167451D01*
X173285Y167896D01*
X172500Y168052D01*
X171715Y167896D01*
X171049Y167451D01*
X170604Y166785D01*
X170448Y166000D01*
X170461Y165936D01*
Y164238D01*
X169728Y163969D01*
X168972D01*
X168928Y163969D01*
X166701D01*
Y161000D01*
Y158031D01*
X168928D01*
X168972Y158031D01*
X169728D01*
X169773Y158031D01*
X172585D01*
X173446Y157170D01*
X173357Y156721D01*
X173148Y156370D01*
X170560D01*
X169925Y156370D01*
X169125Y156370D01*
X164610D01*
Y152901D01*
X160815Y149106D01*
X141418D01*
X141405Y149125D01*
X141832Y149925D01*
X144425D01*
Y152000D01*
X139276D01*
Y151541D01*
X138537Y151234D01*
X131135Y158635D01*
X130614Y158984D01*
X130000Y159106D01*
X129883D01*
X129478Y160085D01*
X128656Y161156D01*
X127585Y161978D01*
X127369Y162067D01*
Y162933D01*
X127585Y163022D01*
X128656Y163844D01*
X129478Y164915D01*
X129994Y166162D01*
X130170Y167500D01*
X129994Y168838D01*
X129478Y170085D01*
X128656Y171156D01*
X127585Y171977D01*
X127369Y172067D01*
Y172933D01*
X127585Y173022D01*
X128656Y173844D01*
X129478Y174915D01*
X129994Y176162D01*
X130170Y177500D01*
X129994Y178838D01*
X129478Y180085D01*
X128656Y181156D01*
X128111Y181574D01*
X128383Y182374D01*
X130126D01*
Y191894D01*
X164610D01*
Y190630D01*
X169125D01*
X169760Y190630D01*
X170560Y190630D01*
X173625D01*
X173831Y190300D01*
X173968Y189830D01*
X173604Y189285D01*
X173448Y188500D01*
X173604Y187715D01*
X174049Y187049D01*
X174715Y186604D01*
X175500Y186448D01*
X175564Y186461D01*
X179224D01*
X179247Y186445D01*
X179437Y186408D01*
Y185592D01*
X179247Y185555D01*
X178526Y185073D01*
X178044Y184351D01*
X177974Y184000D01*
X181772D01*
X185569D01*
X185499Y184351D01*
X185017Y185073D01*
X184296Y185555D01*
X184107Y185592D01*
Y186408D01*
X184296Y186445D01*
X185017Y186927D01*
X185499Y187649D01*
X185669Y188500D01*
X185499Y189351D01*
X185017Y190073D01*
X184296Y190554D01*
X184107Y190592D01*
Y191408D01*
X184296Y191446D01*
X185017Y191928D01*
X185499Y192649D01*
X185669Y193500D01*
X185499Y194351D01*
X185017Y195072D01*
X184296Y195554D01*
X184107Y195592D01*
Y196408D01*
X184296Y196446D01*
X185017Y196927D01*
X185499Y197649D01*
X185669Y198500D01*
X185499Y199351D01*
X185017Y200073D01*
X184296Y200554D01*
X183445Y200724D01*
X180098D01*
X179247Y200554D01*
X179224Y200539D01*
X175648D01*
X175272Y200915D01*
Y203969D01*
X174539D01*
Y205936D01*
X174552Y206000D01*
X174396Y206785D01*
X173951Y207451D01*
X173285Y207896D01*
X172500Y208052D01*
D02*
G37*
G36*
X220921Y198000D02*
X218650D01*
Y195531D01*
X220921D01*
Y198000D01*
D02*
G37*
G36*
X392315Y197374D02*
X390240D01*
Y195102D01*
X392315D01*
Y197374D01*
D02*
G37*
G36*
X389240D02*
X387165D01*
Y195102D01*
X389240D01*
Y197374D01*
D02*
G37*
G36*
X409012Y188969D02*
X405362D01*
Y186500D01*
X409012D01*
Y188969D01*
D02*
G37*
G36*
X404362D02*
X400713D01*
Y186500D01*
X404362D01*
Y188969D01*
D02*
G37*
G36*
X409012Y185500D02*
X405362D01*
Y183031D01*
X409012D01*
Y185500D01*
D02*
G37*
G36*
X404362D02*
X400713D01*
Y183031D01*
X404362D01*
Y185500D01*
D02*
G37*
G36*
X144425Y185075D02*
X142350D01*
Y183000D01*
X144425D01*
Y185075D01*
D02*
G37*
G36*
X141350D02*
X139276D01*
Y183000D01*
X141350D01*
Y185075D01*
D02*
G37*
G36*
X150724D02*
X145575D01*
Y179925D01*
X150724D01*
Y180894D01*
X152781D01*
X153215Y180604D01*
X154000Y180448D01*
X154785Y180604D01*
X155451Y181049D01*
X155896Y181715D01*
X156052Y182500D01*
X155896Y183285D01*
X155451Y183951D01*
X154785Y184396D01*
X154000Y184552D01*
X153215Y184396D01*
X152781Y184106D01*
X150724D01*
Y185075D01*
D02*
G37*
G36*
X144425Y182000D02*
X142350D01*
Y179925D01*
X144425D01*
Y182000D01*
D02*
G37*
G36*
X141350D02*
X139276D01*
Y179925D01*
X141350D01*
Y182000D01*
D02*
G37*
G36*
X384835Y176898D02*
X382760D01*
Y174626D01*
X384835D01*
Y176898D01*
D02*
G37*
G36*
X381760D02*
X379685D01*
Y174626D01*
X381760D01*
Y176898D01*
D02*
G37*
G36*
X172500Y183052D02*
X171715Y182896D01*
X171049Y182451D01*
X170604Y181785D01*
X170448Y181000D01*
X170604Y180215D01*
X171049Y179549D01*
X171715Y179104D01*
X172227Y179002D01*
X173864Y177365D01*
X174385Y177016D01*
X175000Y176894D01*
X178576D01*
X179247Y176445D01*
X179437Y176408D01*
Y175592D01*
X179247Y175555D01*
X178526Y175073D01*
X178044Y174351D01*
X177974Y174000D01*
X181772D01*
X185569D01*
X185499Y174351D01*
X185017Y175073D01*
X184296Y175555D01*
X184107Y175592D01*
Y176408D01*
X184296Y176445D01*
X185017Y176927D01*
X185499Y177649D01*
X185669Y178500D01*
X185499Y179351D01*
X185017Y180072D01*
X184296Y180554D01*
X184107Y180592D01*
Y181408D01*
X184296Y181446D01*
X185017Y181928D01*
X185499Y182649D01*
X185569Y183000D01*
X181772D01*
X177974D01*
X178044Y182649D01*
X178526Y181928D01*
X179247Y181446D01*
X179437Y181408D01*
Y180592D01*
X179247Y180554D01*
X178576Y180106D01*
X175665D01*
X174497Y181273D01*
X174396Y181785D01*
X173951Y182451D01*
X173285Y182896D01*
X172500Y183052D01*
D02*
G37*
G36*
X144425Y175075D02*
X142350D01*
Y173000D01*
X144425D01*
Y175075D01*
D02*
G37*
G36*
X141350D02*
X139276D01*
Y173000D01*
X141350D01*
Y175075D01*
D02*
G37*
G36*
X384835Y173626D02*
X382760D01*
Y171354D01*
X384835D01*
Y173626D01*
D02*
G37*
G36*
X381760D02*
X379685D01*
Y171354D01*
X381760D01*
Y173626D01*
D02*
G37*
G36*
X150724Y175075D02*
X145575D01*
Y169925D01*
X150724D01*
Y170894D01*
X152781D01*
X153215Y170604D01*
X154000Y170448D01*
X154785Y170604D01*
X155451Y171049D01*
X155896Y171715D01*
X156052Y172500D01*
X155896Y173285D01*
X155451Y173951D01*
X154785Y174396D01*
X154000Y174552D01*
X153215Y174396D01*
X152781Y174106D01*
X150724D01*
Y175075D01*
D02*
G37*
G36*
X144425Y172000D02*
X142350D01*
Y169925D01*
X144425D01*
Y172000D01*
D02*
G37*
G36*
X141350D02*
X139276D01*
Y169925D01*
X141350D01*
Y172000D01*
D02*
G37*
G36*
X207026Y168000D02*
X203728D01*
Y166276D01*
X204902D01*
X205753Y166446D01*
X206474Y166928D01*
X206956Y167649D01*
X207026Y168000D01*
D02*
G37*
G36*
X202728D02*
X199431D01*
X199501Y167649D01*
X199983Y166928D01*
X200704Y166446D01*
X201555Y166276D01*
X202728D01*
Y168000D01*
D02*
G37*
G36*
X185569Y173000D02*
X181772D01*
X177974D01*
X178044Y172649D01*
X178526Y171927D01*
X179247Y171446D01*
X179437Y171408D01*
Y170592D01*
X179247Y170554D01*
X178526Y170072D01*
X178044Y169351D01*
X177875Y168500D01*
X178044Y167649D01*
X178526Y166928D01*
X179247Y166446D01*
X180098Y166276D01*
X183445D01*
X184296Y166446D01*
X185017Y166928D01*
X185499Y167649D01*
X185669Y168500D01*
X185499Y169351D01*
X185017Y170072D01*
X184296Y170554D01*
X184107Y170592D01*
Y171408D01*
X184296Y171446D01*
X185017Y171927D01*
X185499Y172649D01*
X185569Y173000D01*
D02*
G37*
G36*
X144425Y165075D02*
X142350D01*
Y163000D01*
X144425D01*
Y165075D01*
D02*
G37*
G36*
X141350D02*
X139276D01*
Y163000D01*
X141350D01*
Y165075D01*
D02*
G37*
G36*
X165701Y163969D02*
X163429D01*
Y161500D01*
X165701D01*
Y163969D01*
D02*
G37*
G36*
X150724Y165075D02*
X145575D01*
Y159925D01*
X150724D01*
Y160894D01*
X152781D01*
X153215Y160604D01*
X154000Y160448D01*
X154785Y160604D01*
X155451Y161049D01*
X155896Y161715D01*
X156052Y162500D01*
X155896Y163285D01*
X155451Y163951D01*
X154785Y164396D01*
X154000Y164552D01*
X153215Y164396D01*
X152781Y164106D01*
X150724D01*
Y165075D01*
D02*
G37*
G36*
X144425Y162000D02*
X142350D01*
Y159925D01*
X144425D01*
Y162000D01*
D02*
G37*
G36*
X141350D02*
X139276D01*
Y159925D01*
X141350D01*
Y162000D01*
D02*
G37*
G36*
X218650Y161469D02*
Y159000D01*
X220921D01*
Y161469D01*
X218650D01*
D02*
G37*
G36*
X392315Y160646D02*
X390240D01*
Y158374D01*
X392315D01*
Y160646D01*
D02*
G37*
G36*
X389240D02*
X387165D01*
Y158374D01*
X389240D01*
Y160646D01*
D02*
G37*
G36*
X165701Y160500D02*
X163429D01*
Y158031D01*
X165701D01*
Y160500D01*
D02*
G37*
G36*
X220921Y158000D02*
X218650D01*
Y155532D01*
X220921D01*
Y158000D01*
D02*
G37*
G36*
X392315Y157374D02*
X390240D01*
Y155102D01*
X392315D01*
Y157374D01*
D02*
G37*
G36*
X389240D02*
X387165D01*
Y155102D01*
X389240D01*
Y157374D01*
D02*
G37*
G36*
X144425Y155075D02*
X142350D01*
Y153000D01*
X144425D01*
Y155075D01*
D02*
G37*
G36*
X141350D02*
X139276D01*
Y153000D01*
X141350D01*
Y155075D01*
D02*
G37*
G36*
X150724D02*
X145575D01*
Y149925D01*
X150724D01*
Y150894D01*
X152781D01*
X153215Y150604D01*
X154000Y150448D01*
X154785Y150604D01*
X155451Y151049D01*
X155896Y151715D01*
X156052Y152500D01*
X155896Y153285D01*
X155451Y153951D01*
X154785Y154396D01*
X154000Y154552D01*
X153215Y154396D01*
X152781Y154106D01*
X150724D01*
Y155075D01*
D02*
G37*
G36*
X125500Y151469D02*
Y148000D01*
X128969D01*
X128897Y148544D01*
X128494Y149517D01*
X127853Y150353D01*
X127017Y150994D01*
X126044Y151397D01*
X125500Y151469D01*
D02*
G37*
G36*
X114500D02*
X113956Y151397D01*
X112983Y150994D01*
X112147Y150353D01*
X111506Y149517D01*
X111103Y148544D01*
X111031Y148000D01*
X114500D01*
Y151469D01*
D02*
G37*
G36*
X409150Y148969D02*
X405500D01*
Y146500D01*
X409150D01*
Y148969D01*
D02*
G37*
G36*
X404500D02*
X400850D01*
Y146500D01*
X404500D01*
Y148969D01*
D02*
G37*
G36*
X128969Y147000D02*
X125500D01*
Y143531D01*
X126044Y143603D01*
X127017Y144006D01*
X127853Y144647D01*
X128494Y145483D01*
X128897Y146456D01*
X128969Y147000D01*
D02*
G37*
G36*
X114500D02*
X111031D01*
X111103Y146456D01*
X111506Y145483D01*
X112147Y144647D01*
X112983Y144006D01*
X113956Y143603D01*
X114500Y143531D01*
Y147000D01*
D02*
G37*
G36*
X409150Y145500D02*
X405500D01*
Y143032D01*
X409150D01*
Y145500D01*
D02*
G37*
G36*
X404500D02*
X400850D01*
Y143032D01*
X404500D01*
Y145500D01*
D02*
G37*
G36*
X384835Y136898D02*
X382760D01*
Y134626D01*
X384835D01*
Y136898D01*
D02*
G37*
G36*
X381760D02*
X379685D01*
Y134626D01*
X381760D01*
Y136898D01*
D02*
G37*
G36*
X384835Y133626D02*
X382760D01*
Y131354D01*
X384835D01*
Y133626D01*
D02*
G37*
G36*
X381760D02*
X379685D01*
Y131354D01*
X381760D01*
Y133626D01*
D02*
G37*
G36*
X207026Y128000D02*
X203728D01*
Y126276D01*
X204902D01*
X205753Y126445D01*
X206474Y126927D01*
X206956Y127649D01*
X207026Y128000D01*
D02*
G37*
G36*
X202728D02*
X199431D01*
X199501Y127649D01*
X199983Y126927D01*
X200704Y126445D01*
X201555Y126276D01*
X202728D01*
Y128000D01*
D02*
G37*
G36*
X185569Y133000D02*
X181772D01*
X177974D01*
X178044Y132649D01*
X178526Y131928D01*
X179247Y131446D01*
X179437Y131408D01*
Y130592D01*
X179247Y130554D01*
X178526Y130072D01*
X178044Y129351D01*
X177875Y128500D01*
X178044Y127649D01*
X178526Y126927D01*
X179247Y126445D01*
X180098Y126276D01*
X183445D01*
X184296Y126445D01*
X185017Y126927D01*
X185499Y127649D01*
X185669Y128500D01*
X185499Y129351D01*
X185017Y130072D01*
X184296Y130554D01*
X184107Y130592D01*
Y131408D01*
X184296Y131446D01*
X185017Y131928D01*
X185499Y132649D01*
X185569Y133000D01*
D02*
G37*
%LPD*%
G36*
X362000Y280500D02*
Y256127D01*
X357377Y251504D01*
X326834D01*
X324605Y251857D01*
X322434Y252562D01*
X320400Y253598D01*
X318554Y254940D01*
X316940Y256554D01*
X315599Y258400D01*
X314562Y260434D01*
X313857Y262605D01*
X313500Y264859D01*
X313500Y267141D01*
X313857Y269395D01*
X314562Y271566D01*
X315599Y273600D01*
X316940Y275446D01*
X318554Y277060D01*
X320400Y278401D01*
X322434Y279438D01*
X324605Y280143D01*
X326859Y280500D01*
X328000D01*
X362000Y280500D01*
D02*
G37*
G36*
X212967Y261907D02*
X213104Y261215D01*
X213549Y260549D01*
X214215Y260104D01*
X215000Y259948D01*
X215785Y260104D01*
X216372Y260496D01*
X283425D01*
Y259228D01*
X284272D01*
X284700Y258428D01*
X284604Y258285D01*
X284448Y257500D01*
X283954Y256898D01*
X282760D01*
Y254126D01*
X282260D01*
Y253626D01*
X279685D01*
Y251504D01*
X258623D01*
X253063Y257063D01*
X252575Y257389D01*
X252000Y257504D01*
X248421D01*
Y258968D01*
X242922D01*
X242878Y258968D01*
X242122D01*
X242078Y258968D01*
X236579D01*
Y257504D01*
X225232D01*
Y258870D01*
X220717D01*
X220083Y258870D01*
X219283Y258870D01*
X214768D01*
Y257504D01*
X213123D01*
X211063Y259563D01*
X210576Y259889D01*
X210000Y260004D01*
X206520D01*
X206474Y260072D01*
X205753Y260555D01*
X205563Y260592D01*
Y261408D01*
X205753Y261445D01*
X206474Y261928D01*
X206520Y261996D01*
X212877D01*
X212967Y261907D01*
D02*
G37*
G36*
X320695Y239696D02*
X319937Y239310D01*
X319874Y239260D01*
X319801Y239226D01*
X317955Y237885D01*
X317900Y237826D01*
X317833Y237781D01*
X316219Y236167D01*
X316174Y236100D01*
X316115Y236045D01*
X314774Y234199D01*
X314740Y234126D01*
X314690Y234063D01*
X313654Y232029D01*
X313632Y231951D01*
X313593Y231881D01*
X312887Y229711D01*
X312878Y229630D01*
X312850Y229555D01*
X312493Y227301D01*
X312496Y227220D01*
X312480Y227141D01*
X312480Y224859D01*
X312496Y224780D01*
X312493Y224699D01*
X312850Y222445D01*
X312878Y222370D01*
X312887Y222289D01*
X313593Y220119D01*
X313632Y220049D01*
X313654Y219971D01*
X314690Y217937D01*
X314740Y217874D01*
X314774Y217801D01*
X316115Y215955D01*
X316174Y215900D01*
X316219Y215833D01*
X317833Y214219D01*
X317900Y214174D01*
X317955Y214115D01*
X319801Y212774D01*
X319874Y212740D01*
X319937Y212690D01*
X320695Y212304D01*
X320503Y211504D01*
X295327D01*
X295084Y212304D01*
X295451Y212549D01*
X295896Y213215D01*
X296052Y214000D01*
X295896Y214785D01*
X295451Y215451D01*
X294785Y215896D01*
X294000Y216052D01*
X293936Y216039D01*
X292315D01*
Y216898D01*
X290049D01*
X288519Y218428D01*
X288575Y219228D01*
X288575D01*
Y220496D01*
X297196D01*
X300850Y216842D01*
Y213032D01*
X309150D01*
Y218969D01*
X302977D01*
X298882Y223063D01*
X298394Y223389D01*
X297819Y223504D01*
X288575D01*
Y224772D01*
X283425D01*
Y223504D01*
X216372D01*
X215785Y223896D01*
X215093Y224033D01*
X214563Y224563D01*
X214075Y224889D01*
X213500Y225004D01*
X206520D01*
X206474Y225073D01*
X205753Y225555D01*
X205563Y225592D01*
Y226408D01*
X205753Y226445D01*
X206474Y226927D01*
X206520Y226996D01*
X213500D01*
X214075Y227111D01*
X214563Y227437D01*
X215093Y227967D01*
X215785Y228104D01*
X216372Y228496D01*
X283425D01*
Y227228D01*
X288575D01*
Y228496D01*
X297819D01*
X298394Y228611D01*
X298882Y228937D01*
X302977Y233032D01*
X309150D01*
Y238968D01*
X300850D01*
Y235158D01*
X297196Y231504D01*
X288575D01*
Y232772D01*
X287728D01*
X287300Y233572D01*
X287396Y233715D01*
X287552Y234500D01*
X288046Y235102D01*
X289240D01*
Y237874D01*
X289740D01*
Y238374D01*
X292315D01*
Y240496D01*
X320503D01*
X320695Y239696D01*
D02*
G37*
G36*
X362000Y240500D02*
Y216127D01*
X357377Y211504D01*
X326834D01*
X324605Y211857D01*
X322434Y212562D01*
X320400Y213598D01*
X318554Y214940D01*
X316940Y216554D01*
X315599Y218400D01*
X314562Y220434D01*
X313857Y222605D01*
X313500Y224859D01*
X313500Y227141D01*
X313857Y229395D01*
X314562Y231566D01*
X315599Y233600D01*
X316940Y235446D01*
X318554Y237060D01*
X320400Y238402D01*
X322434Y239438D01*
X324605Y240143D01*
X326834Y240496D01*
X360000D01*
X360020Y240500D01*
X362000D01*
D02*
G37*
G36*
X212967Y221906D02*
X213104Y221215D01*
X213549Y220549D01*
X214215Y220104D01*
X215000Y219948D01*
X215785Y220104D01*
X216372Y220496D01*
X283425D01*
Y219228D01*
X284272D01*
X284700Y218428D01*
X284604Y218285D01*
X284448Y217500D01*
X283954Y216898D01*
X282760D01*
Y214126D01*
X282260D01*
Y213626D01*
X279685D01*
Y211504D01*
X258623D01*
X253063Y217063D01*
X252575Y217389D01*
X252000Y217504D01*
X248421D01*
Y218969D01*
X242922D01*
X242878Y218969D01*
X242122D01*
X242078Y218969D01*
X236579D01*
Y217504D01*
X225232D01*
Y218870D01*
X220717D01*
X220083Y218870D01*
X219283Y218870D01*
X214768D01*
Y217504D01*
X213123D01*
X211063Y219563D01*
X210576Y219889D01*
X210000Y220004D01*
X206520D01*
X206474Y220073D01*
X205753Y220555D01*
X205563Y220592D01*
Y221408D01*
X205753Y221445D01*
X206474Y221927D01*
X206520Y221996D01*
X212877D01*
X212967Y221906D01*
D02*
G37*
G36*
X320695Y199696D02*
X319937Y199310D01*
X319874Y199260D01*
X319801Y199226D01*
X317955Y197885D01*
X317900Y197826D01*
X317833Y197781D01*
X316219Y196167D01*
X316174Y196100D01*
X316115Y196045D01*
X314774Y194199D01*
X314740Y194126D01*
X314690Y194063D01*
X313654Y192029D01*
X313632Y191952D01*
X313593Y191881D01*
X312887Y189710D01*
X312878Y189630D01*
X312850Y189555D01*
X312493Y187301D01*
X312496Y187220D01*
X312480Y187141D01*
X312480Y184859D01*
X312496Y184780D01*
X312493Y184699D01*
X312850Y182445D01*
X312878Y182369D01*
X312887Y182290D01*
X313593Y180119D01*
X313632Y180049D01*
X313654Y179971D01*
X314690Y177937D01*
X314740Y177874D01*
X314774Y177801D01*
X316115Y175955D01*
X316174Y175900D01*
X316219Y175833D01*
X317833Y174219D01*
X317900Y174174D01*
X317955Y174115D01*
X319801Y172774D01*
X319874Y172740D01*
X319937Y172690D01*
X320695Y172304D01*
X320503Y171504D01*
X295327Y171504D01*
X295084Y172304D01*
X295451Y172549D01*
X295896Y173215D01*
X296052Y174000D01*
X295896Y174785D01*
X295451Y175451D01*
X294785Y175896D01*
X294000Y176052D01*
X293960Y176044D01*
X292315D01*
Y176898D01*
X290049D01*
X288519Y178428D01*
X288575Y179228D01*
X288575D01*
Y180496D01*
X297196D01*
X300850Y176842D01*
Y173031D01*
X309150D01*
Y178969D01*
X302977D01*
X298882Y183063D01*
X298394Y183389D01*
X297819Y183504D01*
X288575D01*
Y184772D01*
X283425D01*
Y183504D01*
X216372D01*
X215785Y183896D01*
X215093Y184033D01*
X214563Y184563D01*
X214075Y184889D01*
X213500Y185004D01*
X206520D01*
X206474Y185073D01*
X205753Y185555D01*
X205563Y185592D01*
Y186408D01*
X205753Y186445D01*
X206474Y186927D01*
X206520Y186996D01*
X213500D01*
X214075Y187111D01*
X214563Y187437D01*
X215093Y187967D01*
X215785Y188104D01*
X216372Y188496D01*
X283425D01*
Y187228D01*
X288575D01*
Y188496D01*
X297819D01*
X298394Y188611D01*
X298882Y188937D01*
X302977Y193032D01*
X309150D01*
Y198969D01*
X300850D01*
Y195158D01*
X297196Y191504D01*
X288575D01*
Y192772D01*
X287728D01*
X287300Y193572D01*
X287396Y193715D01*
X287552Y194500D01*
X288046Y195102D01*
X289240D01*
Y197874D01*
X289740D01*
Y198374D01*
X292315D01*
Y200496D01*
X320503D01*
X320695Y199696D01*
D02*
G37*
G36*
X362000Y200500D02*
Y176127D01*
X357377Y171504D01*
X326834D01*
X324605Y171857D01*
X322434Y172562D01*
X320400Y173599D01*
X318554Y174940D01*
X316940Y176554D01*
X315599Y178400D01*
X314562Y180434D01*
X313857Y182605D01*
X313500Y184859D01*
X313500Y187141D01*
X313857Y189395D01*
X314562Y191566D01*
X315599Y193600D01*
X316940Y195446D01*
X318554Y197060D01*
X320400Y198401D01*
X322434Y199438D01*
X324605Y200143D01*
X326834Y200496D01*
X360000D01*
X360020Y200500D01*
X362000D01*
D02*
G37*
G36*
X212967Y181906D02*
X213104Y181215D01*
X213549Y180549D01*
X214215Y180104D01*
X215000Y179948D01*
X215785Y180104D01*
X216372Y180496D01*
X283425D01*
Y179228D01*
X284272D01*
X284700Y178428D01*
X284604Y178285D01*
X284448Y177500D01*
X283954Y176898D01*
X282760D01*
Y174126D01*
X282260D01*
Y173626D01*
X279685D01*
Y171504D01*
X258623D01*
X253063Y177063D01*
X252575Y177389D01*
X252000Y177504D01*
X248421D01*
Y178969D01*
X242922D01*
X242878Y178969D01*
X242122D01*
X242078Y178969D01*
X236579D01*
Y177504D01*
X225232D01*
Y178870D01*
X220717D01*
X220083Y178870D01*
X219283Y178870D01*
X214768D01*
Y177504D01*
X213123D01*
X211063Y179563D01*
X210576Y179889D01*
X210000Y180004D01*
X206520D01*
X206474Y180072D01*
X205753Y180554D01*
X205563Y180592D01*
Y181408D01*
X205753Y181446D01*
X206474Y181928D01*
X206520Y181996D01*
X212877D01*
X212967Y181906D01*
D02*
G37*
G36*
X320695Y159696D02*
X319937Y159310D01*
X319874Y159260D01*
X319801Y159226D01*
X317955Y157885D01*
X317900Y157826D01*
X317833Y157781D01*
X316219Y156167D01*
X316174Y156100D01*
X316115Y156045D01*
X314774Y154199D01*
X314740Y154126D01*
X314690Y154063D01*
X313654Y152029D01*
X313632Y151952D01*
X313593Y151881D01*
X312887Y149711D01*
X312878Y149630D01*
X312850Y149555D01*
X312493Y147301D01*
X312496Y147220D01*
X312480Y147141D01*
X312480Y144859D01*
X312496Y144780D01*
X312493Y144699D01*
X312850Y142445D01*
X312878Y142369D01*
X312887Y142289D01*
X313593Y140119D01*
X313632Y140049D01*
X313654Y139971D01*
X314690Y137937D01*
X314740Y137874D01*
X314774Y137801D01*
X316115Y135955D01*
X316174Y135900D01*
X316219Y135833D01*
X317833Y134219D01*
X317900Y134174D01*
X317955Y134115D01*
X319801Y132774D01*
X319874Y132740D01*
X319937Y132690D01*
X320695Y132304D01*
X320503Y131504D01*
X295327D01*
X295084Y132304D01*
X295451Y132549D01*
X295896Y133215D01*
X296052Y134000D01*
X295896Y134785D01*
X295451Y135451D01*
X294785Y135896D01*
X294000Y136052D01*
X293960Y136044D01*
X292315D01*
Y136898D01*
X290049D01*
X288519Y138428D01*
X288575Y139228D01*
X288575D01*
Y140496D01*
X297196D01*
X300850Y136842D01*
Y133031D01*
X309150D01*
Y138969D01*
X302977D01*
X298882Y143063D01*
X298394Y143389D01*
X297819Y143504D01*
X288575D01*
Y144772D01*
X283425D01*
Y143504D01*
X216372D01*
X215785Y143896D01*
X215093Y144033D01*
X214563Y144563D01*
X214075Y144889D01*
X213500Y145004D01*
X206520D01*
X206474Y145072D01*
X205753Y145554D01*
X205563Y145592D01*
Y146408D01*
X205753Y146446D01*
X206474Y146927D01*
X206520Y146996D01*
X213500D01*
X214075Y147111D01*
X214563Y147437D01*
X215093Y147967D01*
X215785Y148104D01*
X216372Y148496D01*
X283425D01*
Y147228D01*
X288575D01*
Y148496D01*
X297819D01*
X298394Y148611D01*
X298882Y148937D01*
X302977Y153032D01*
X309150D01*
Y158968D01*
X300850D01*
Y155158D01*
X297196Y151504D01*
X288575D01*
Y152772D01*
X287728D01*
X287300Y153572D01*
X287396Y153715D01*
X287552Y154500D01*
X288046Y155102D01*
X289240D01*
Y157874D01*
X289740D01*
Y158374D01*
X292315D01*
Y160496D01*
X320503D01*
X320695Y159696D01*
D02*
G37*
G36*
X362000Y160500D02*
Y136127D01*
X357377Y131504D01*
X326834D01*
X324605Y131857D01*
X322434Y132562D01*
X320400Y133598D01*
X318554Y134940D01*
X316940Y136554D01*
X315599Y138400D01*
X314562Y140434D01*
X313857Y142605D01*
X313500Y144859D01*
X313500Y147141D01*
X313857Y149395D01*
X314562Y151566D01*
X315599Y153600D01*
X316940Y155446D01*
X318554Y157060D01*
X320400Y158402D01*
X322434Y159438D01*
X324605Y160143D01*
X326834Y160496D01*
X360000D01*
X360020Y160500D01*
X362000D01*
D02*
G37*
G36*
X212967Y141906D02*
X213104Y141215D01*
X213549Y140549D01*
X214215Y140104D01*
X215000Y139948D01*
X215785Y140104D01*
X216372Y140496D01*
X283425D01*
Y139228D01*
X284272D01*
X284700Y138428D01*
X284604Y138285D01*
X284448Y137500D01*
X283954Y136898D01*
X282760D01*
Y134126D01*
X282260D01*
Y133626D01*
X279685D01*
Y131504D01*
X258623D01*
X253063Y137063D01*
X252575Y137389D01*
X252000Y137504D01*
X248421D01*
Y138969D01*
X242922D01*
X242878Y138969D01*
X242122D01*
X242078Y138969D01*
X236579D01*
Y137504D01*
X225232D01*
Y138870D01*
X220717D01*
X220083Y138870D01*
X219283Y138870D01*
X214768D01*
Y137504D01*
X213123D01*
X211063Y139563D01*
X210576Y139889D01*
X210000Y140004D01*
X206520D01*
X206474Y140073D01*
X205753Y140554D01*
X205563Y140592D01*
Y141408D01*
X205753Y141446D01*
X206474Y141928D01*
X206520Y141996D01*
X212877D01*
X212967Y141906D01*
D02*
G37*
%LPC*%
G36*
X354425Y278969D02*
X346126D01*
Y273031D01*
X352298D01*
X356102Y269228D01*
X356104Y269215D01*
X356549Y268549D01*
X357215Y268104D01*
X358000Y267948D01*
X358785Y268104D01*
X359451Y268549D01*
X359896Y269215D01*
X360052Y270000D01*
X359896Y270785D01*
X359451Y271451D01*
X358785Y271896D01*
X358000Y272052D01*
X357609Y271974D01*
X354425Y275158D01*
Y278969D01*
D02*
G37*
G36*
Y268969D02*
X350776D01*
Y266500D01*
X354425D01*
Y268969D01*
D02*
G37*
G36*
X349776D02*
X346126D01*
Y266500D01*
X349776D01*
Y268969D01*
D02*
G37*
G36*
X354425Y265500D02*
X350776D01*
Y263032D01*
X354425D01*
Y265500D01*
D02*
G37*
G36*
X349776D02*
X346126D01*
Y263032D01*
X349776D01*
Y265500D01*
D02*
G37*
G36*
X358000Y264052D02*
X357215Y263896D01*
X356549Y263451D01*
X356104Y262785D01*
X356102Y262772D01*
X352298Y258968D01*
X346126D01*
Y253031D01*
X354425D01*
Y256842D01*
X357609Y260026D01*
X358000Y259948D01*
X358785Y260104D01*
X359451Y260549D01*
X359896Y261215D01*
X360052Y262000D01*
X359896Y262785D01*
X359451Y263451D01*
X358785Y263896D01*
X358000Y264052D01*
D02*
G37*
G36*
X281760Y256898D02*
X279685D01*
Y254626D01*
X281760D01*
Y256898D01*
D02*
G37*
G36*
X292315Y237374D02*
X290240D01*
Y235102D01*
X292315D01*
Y237374D01*
D02*
G37*
G36*
X309150Y228969D02*
X305500D01*
Y226500D01*
X309150D01*
Y228969D01*
D02*
G37*
G36*
X304500D02*
X300850D01*
Y226500D01*
X304500D01*
Y228969D01*
D02*
G37*
G36*
X309150Y225500D02*
X305500D01*
Y223031D01*
X309150D01*
Y225500D01*
D02*
G37*
G36*
X304500D02*
X300850D01*
Y223031D01*
X304500D01*
Y225500D01*
D02*
G37*
G36*
X354425Y238968D02*
X346126D01*
Y233032D01*
X352298D01*
X356102Y229228D01*
X356104Y229215D01*
X356549Y228549D01*
X357215Y228104D01*
X358000Y227948D01*
X358785Y228104D01*
X359451Y228549D01*
X359896Y229215D01*
X360052Y230000D01*
X359896Y230785D01*
X359451Y231451D01*
X358785Y231896D01*
X358000Y232052D01*
X357609Y231974D01*
X354425Y235158D01*
Y238968D01*
D02*
G37*
G36*
Y228969D02*
X350776D01*
Y226500D01*
X354425D01*
Y228969D01*
D02*
G37*
G36*
X349776D02*
X346126D01*
Y226500D01*
X349776D01*
Y228969D01*
D02*
G37*
G36*
X354425Y225500D02*
X350776D01*
Y223031D01*
X354425D01*
Y225500D01*
D02*
G37*
G36*
X349776D02*
X346126D01*
Y223031D01*
X349776D01*
Y225500D01*
D02*
G37*
G36*
X358000Y224052D02*
X357215Y223896D01*
X356549Y223451D01*
X356104Y222785D01*
X356102Y222772D01*
X352298Y218969D01*
X346126D01*
Y213032D01*
X354425D01*
Y216842D01*
X357609Y220026D01*
X358000Y219948D01*
X358785Y220104D01*
X359451Y220549D01*
X359896Y221215D01*
X360052Y222000D01*
X359896Y222785D01*
X359451Y223451D01*
X358785Y223896D01*
X358000Y224052D01*
D02*
G37*
G36*
X281760Y216898D02*
X279685D01*
Y214626D01*
X281760D01*
Y216898D01*
D02*
G37*
G36*
X292315Y197374D02*
X290240D01*
Y195102D01*
X292315D01*
Y197374D01*
D02*
G37*
G36*
X309150Y188969D02*
X305500D01*
Y186500D01*
X309150D01*
Y188969D01*
D02*
G37*
G36*
X304500D02*
X300850D01*
Y186500D01*
X304500D01*
Y188969D01*
D02*
G37*
G36*
X309150Y185500D02*
X305500D01*
Y183031D01*
X309150D01*
Y185500D01*
D02*
G37*
G36*
X304500D02*
X300850D01*
Y183031D01*
X304500D01*
Y185500D01*
D02*
G37*
G36*
X354425Y198969D02*
X346126D01*
Y193032D01*
X352298D01*
X356102Y189228D01*
X356104Y189215D01*
X356549Y188549D01*
X357215Y188104D01*
X358000Y187948D01*
X358785Y188104D01*
X359451Y188549D01*
X359896Y189215D01*
X360052Y190000D01*
X359896Y190785D01*
X359451Y191451D01*
X358785Y191896D01*
X358000Y192052D01*
X357609Y191974D01*
X354425Y195158D01*
Y198969D01*
D02*
G37*
G36*
Y188969D02*
X350776D01*
Y186500D01*
X354425D01*
Y188969D01*
D02*
G37*
G36*
X349776D02*
X346126D01*
Y186500D01*
X349776D01*
Y188969D01*
D02*
G37*
G36*
X354425Y185500D02*
X350776D01*
Y183031D01*
X354425D01*
Y185500D01*
D02*
G37*
G36*
X349776D02*
X346126D01*
Y183031D01*
X349776D01*
Y185500D01*
D02*
G37*
G36*
X358000Y184052D02*
X357215Y183896D01*
X356549Y183451D01*
X356104Y182785D01*
X356102Y182772D01*
X352298Y178969D01*
X346126D01*
Y173031D01*
X354425D01*
Y176842D01*
X357609Y180026D01*
X358000Y179948D01*
X358785Y180104D01*
X359451Y180549D01*
X359896Y181215D01*
X360052Y182000D01*
X359896Y182785D01*
X359451Y183451D01*
X358785Y183896D01*
X358000Y184052D01*
D02*
G37*
G36*
X281760Y176898D02*
X279685D01*
Y174626D01*
X281760D01*
Y176898D01*
D02*
G37*
G36*
X292315Y157374D02*
X290240D01*
Y155102D01*
X292315D01*
Y157374D01*
D02*
G37*
G36*
X309150Y148969D02*
X305500D01*
Y146500D01*
X309150D01*
Y148969D01*
D02*
G37*
G36*
X304500D02*
X300850D01*
Y146500D01*
X304500D01*
Y148969D01*
D02*
G37*
G36*
X309150Y145500D02*
X305500D01*
Y143032D01*
X309150D01*
Y145500D01*
D02*
G37*
G36*
X304500D02*
X300850D01*
Y143032D01*
X304500D01*
Y145500D01*
D02*
G37*
G36*
X354425Y158968D02*
X346126D01*
Y153032D01*
X352298D01*
X356102Y149228D01*
X356104Y149215D01*
X356549Y148549D01*
X357215Y148104D01*
X358000Y147948D01*
X358785Y148104D01*
X359451Y148549D01*
X359896Y149215D01*
X360052Y150000D01*
X359896Y150785D01*
X359451Y151451D01*
X358785Y151896D01*
X358000Y152052D01*
X357609Y151974D01*
X354425Y155158D01*
Y158968D01*
D02*
G37*
G36*
Y148969D02*
X350776D01*
Y146500D01*
X354425D01*
Y148969D01*
D02*
G37*
G36*
X349776D02*
X346126D01*
Y146500D01*
X349776D01*
Y148969D01*
D02*
G37*
G36*
X354425Y145500D02*
X350776D01*
Y143032D01*
X354425D01*
Y145500D01*
D02*
G37*
G36*
X349776D02*
X346126D01*
Y143032D01*
X349776D01*
Y145500D01*
D02*
G37*
G36*
X358000Y144052D02*
X357215Y143896D01*
X356549Y143451D01*
X356104Y142785D01*
X356102Y142772D01*
X352298Y138969D01*
X346126D01*
Y133031D01*
X354425D01*
Y136842D01*
X357609Y140026D01*
X358000Y139948D01*
X358785Y140104D01*
X359451Y140549D01*
X359896Y141215D01*
X360052Y142000D01*
X359896Y142785D01*
X359451Y143451D01*
X358785Y143896D01*
X358000Y144052D01*
D02*
G37*
G36*
X281760Y136898D02*
X279685D01*
Y134626D01*
X281760D01*
Y136898D01*
D02*
G37*
G36*
X542500Y305295D02*
X541129Y305115D01*
X539852Y304586D01*
X538756Y303744D01*
X537914Y302648D01*
X537385Y301371D01*
X537205Y300000D01*
X537385Y298629D01*
X537914Y297352D01*
X538756Y296256D01*
X539852Y295414D01*
X541129Y294885D01*
X542500Y294705D01*
X543870Y294885D01*
X545148Y295414D01*
X546244Y296256D01*
X547086Y297352D01*
X547615Y298629D01*
X547795Y300000D01*
X547615Y301371D01*
X547086Y302648D01*
X546244Y303744D01*
X545148Y304586D01*
X543870Y305115D01*
X542500Y305295D01*
D02*
G37*
G36*
X562400Y308517D02*
X560758Y308355D01*
X559179Y307876D01*
X557724Y307098D01*
X556449Y306051D01*
X555402Y304776D01*
X554624Y303321D01*
X554145Y301742D01*
X553983Y300100D01*
X554145Y298458D01*
X554624Y296879D01*
X555402Y295424D01*
X556449Y294149D01*
X557724Y293102D01*
X559179Y292324D01*
X560758Y291845D01*
X562400Y291684D01*
X564042Y291845D01*
X565621Y292324D01*
X567076Y293102D01*
X568351Y294149D01*
X569398Y295424D01*
X570176Y296879D01*
X570655Y298458D01*
X570817Y300100D01*
X570655Y301742D01*
X570176Y303321D01*
X569398Y304776D01*
X568351Y306051D01*
X567076Y307098D01*
X565621Y307876D01*
X564042Y308355D01*
X562400Y308517D01*
D02*
G37*
G36*
X537534Y278490D02*
X535400D01*
Y276760D01*
X537534D01*
Y278490D01*
D02*
G37*
G36*
X534400D02*
X532266D01*
Y276760D01*
X534400D01*
Y278490D01*
D02*
G37*
G36*
X500000Y289295D02*
X498187Y289116D01*
X496443Y288587D01*
X494836Y287728D01*
X493428Y286572D01*
X492272Y285164D01*
X491413Y283557D01*
X490884Y281813D01*
X490705Y280000D01*
X490884Y278187D01*
X491413Y276443D01*
X492272Y274836D01*
X493428Y273428D01*
X494836Y272272D01*
X496443Y271413D01*
X498187Y270884D01*
X500000Y270705D01*
X501813Y270884D01*
X503557Y271413D01*
X505164Y272272D01*
X506572Y273428D01*
X507728Y274836D01*
X508587Y276443D01*
X509116Y278187D01*
X509295Y280000D01*
X509116Y281813D01*
X508587Y283557D01*
X507728Y285164D01*
X506572Y286572D01*
X505164Y287728D01*
X503557Y288587D01*
X501813Y289116D01*
X500000Y289295D01*
D02*
G37*
G36*
X515988Y280746D02*
X515217Y280645D01*
X514500Y280348D01*
X513884Y279875D01*
X513411Y279258D01*
X513113Y278541D01*
X513019Y277822D01*
X513009Y277771D01*
Y274555D01*
X513007D01*
X512710Y273840D01*
X512146Y273273D01*
X506377Y267504D01*
X492123D01*
X482563Y277063D01*
X482076Y277389D01*
X481500Y277504D01*
X454425D01*
Y278969D01*
X446126D01*
Y273031D01*
X454425D01*
Y274496D01*
X480877D01*
X490437Y264937D01*
X490437Y264937D01*
X490925Y264611D01*
X491500Y264496D01*
X491500Y264496D01*
X507000D01*
X507576Y264611D01*
X508063Y264937D01*
X514273Y271146D01*
X514842Y271708D01*
X514842Y271708D01*
X515482Y272542D01*
X515652Y272951D01*
X515764Y273004D01*
X516553Y273036D01*
X516834Y272671D01*
X517450Y272198D01*
X518167Y271901D01*
X518886Y271806D01*
X518938Y271796D01*
X521166D01*
Y271070D01*
X526434D01*
Y271796D01*
X551541D01*
Y268979D01*
X537534D01*
Y269730D01*
X532266D01*
Y269004D01*
X516500D01*
X515925Y268889D01*
X515437Y268563D01*
X509377Y262504D01*
X456500D01*
X455925Y262389D01*
X455437Y262063D01*
X452342Y258968D01*
X446126D01*
Y253031D01*
X454425D01*
Y256798D01*
X457123Y259496D01*
X510000D01*
X510575Y259611D01*
X511063Y259937D01*
X517123Y265996D01*
X521166D01*
Y265040D01*
X526434D01*
Y265996D01*
X532266D01*
Y265270D01*
X537534D01*
Y265971D01*
X553872D01*
X554144Y265171D01*
X553853Y264947D01*
X553190Y264084D01*
X552774Y263079D01*
X552698Y262500D01*
X556800D01*
X560903D01*
X560826Y263079D01*
X560410Y264084D01*
X559748Y264947D01*
X559456Y265171D01*
X559728Y265971D01*
X562921D01*
X563407Y264798D01*
X564250Y263700D01*
X565348Y262857D01*
X566420Y262412D01*
Y261588D01*
X565348Y261143D01*
X564250Y260300D01*
X563407Y259202D01*
X562983Y258179D01*
X559923D01*
X559652Y258979D01*
X559748Y259053D01*
X560410Y259916D01*
X560826Y260921D01*
X560903Y261500D01*
X556800D01*
X552698D01*
X552774Y260921D01*
X553190Y259916D01*
X553853Y259053D01*
X553948Y258979D01*
X553677Y258179D01*
X537634D01*
Y259030D01*
X532366D01*
Y258004D01*
X526434D01*
Y259360D01*
X523800D01*
X521166D01*
Y258004D01*
X516000D01*
X515424Y257889D01*
X514937Y257563D01*
X513877Y256504D01*
X487500D01*
X486925Y256389D01*
X486437Y256063D01*
X467877Y237504D01*
X454425D01*
Y238968D01*
X446126D01*
Y233032D01*
X454425D01*
Y234496D01*
X468500D01*
X469075Y234611D01*
X469563Y234937D01*
X488123Y253496D01*
X514500D01*
X515075Y253611D01*
X515563Y253937D01*
X516623Y254996D01*
X532366D01*
Y254570D01*
X537634D01*
Y255171D01*
X552287D01*
X552682Y254371D01*
X552207Y253752D01*
X551731Y252604D01*
X526434D01*
Y253330D01*
X521166D01*
Y252604D01*
X518600D01*
X518024Y252489D01*
X517537Y252163D01*
X516377Y251004D01*
X491000D01*
X490424Y250889D01*
X489937Y250563D01*
X462877Y223504D01*
X457500D01*
X456924Y223389D01*
X456437Y223063D01*
X452342Y218969D01*
X446126D01*
Y213032D01*
X454425D01*
Y216798D01*
X458123Y220496D01*
X463500D01*
X464076Y220611D01*
X464563Y220937D01*
X491623Y247996D01*
X517000D01*
X517576Y248111D01*
X518063Y248437D01*
X519223Y249596D01*
X521166D01*
Y248870D01*
X526434D01*
Y249596D01*
X532366D01*
Y248540D01*
X537634D01*
Y249596D01*
X551731D01*
X552207Y248448D01*
X553050Y247350D01*
X554148Y246507D01*
X555220Y246062D01*
Y245238D01*
X554148Y244793D01*
X553050Y243951D01*
X552207Y242852D01*
X551793Y241854D01*
X537634D01*
Y242860D01*
X535000D01*
X532366D01*
Y241854D01*
X526434D01*
Y242730D01*
X521326D01*
X521324Y242745D01*
X521027Y243463D01*
X520554Y244079D01*
X519938Y244552D01*
X519220Y244849D01*
X518450Y244951D01*
X517680Y244849D01*
X516962Y244552D01*
X516346Y244079D01*
X515873Y243463D01*
X515744Y243151D01*
X514837Y243019D01*
X514654Y243257D01*
X514038Y243730D01*
X513320Y244027D01*
X512550Y244129D01*
X511780Y244027D01*
X511062Y243730D01*
X510446Y243257D01*
X510324Y243099D01*
X510046Y243081D01*
X509438Y243257D01*
X509227Y243767D01*
X508754Y244383D01*
X508138Y244856D01*
X507420Y245153D01*
X506650Y245254D01*
X505880Y245153D01*
X505162Y244856D01*
X504546Y244383D01*
X504073Y243767D01*
X503776Y243049D01*
X503681Y242330D01*
X503671Y242279D01*
Y242017D01*
X503662Y242013D01*
X503658Y242004D01*
X490500D01*
X489924Y241889D01*
X489437Y241563D01*
X472937Y225063D01*
X472611Y224575D01*
X472496Y224000D01*
Y194623D01*
X469377Y191504D01*
X458623D01*
X454287Y195839D01*
Y198969D01*
X445988D01*
Y193032D01*
X452842D01*
X456937Y188937D01*
X457424Y188611D01*
X458000Y188496D01*
X470000D01*
X470576Y188611D01*
X471063Y188937D01*
X475063Y192937D01*
X475063Y192937D01*
X475389Y193424D01*
X475504Y194000D01*
Y223377D01*
X491123Y238996D01*
X503700D01*
X503751Y239006D01*
X504470Y239101D01*
X505188Y239398D01*
X505804Y239871D01*
X505937Y240044D01*
X506136Y240072D01*
X506833Y239897D01*
X507023Y239437D01*
X507496Y238821D01*
X508112Y238348D01*
X508830Y238051D01*
X509600Y237949D01*
X510370Y238051D01*
X511088Y238348D01*
X511704Y238821D01*
X512099Y239336D01*
X512550Y239391D01*
X513001Y239336D01*
X513396Y238821D01*
X514012Y238348D01*
X514730Y238051D01*
X515500Y237949D01*
X516270Y238051D01*
X516988Y238348D01*
X517604Y238821D01*
X518077Y239437D01*
X518267Y239897D01*
X518964Y240072D01*
X519163Y240044D01*
X519296Y239871D01*
X519912Y239398D01*
X520630Y239101D01*
X521166Y239030D01*
Y238270D01*
X526434D01*
Y238846D01*
X551674D01*
X551677Y238827D01*
X552207Y237548D01*
X552701Y236904D01*
X552306Y236104D01*
X537634D01*
Y236830D01*
X532366D01*
Y236004D01*
X494500D01*
X494500Y236004D01*
X493925Y235889D01*
X493437Y235563D01*
X478937Y221063D01*
X478611Y220575D01*
X478496Y220000D01*
Y190623D01*
X471377Y183504D01*
X458000D01*
X457424Y183389D01*
X456937Y183063D01*
X452842Y178969D01*
X445988D01*
Y173031D01*
X454287D01*
Y176161D01*
X458623Y180496D01*
X472000D01*
X472576Y180611D01*
X473063Y180937D01*
X481063Y188937D01*
X481389Y189425D01*
X481504Y190000D01*
Y219377D01*
X495123Y232996D01*
X521166D01*
Y232240D01*
X526434D01*
Y232996D01*
X532366D01*
Y232370D01*
X537634D01*
Y233096D01*
X553644D01*
X553916Y232296D01*
X553853Y232247D01*
X553190Y231384D01*
X552774Y230379D01*
X552698Y229800D01*
X556800D01*
X560903D01*
X560826Y230379D01*
X560410Y231384D01*
X559748Y232247D01*
X559684Y232296D01*
X559956Y233096D01*
X562993D01*
X563407Y232098D01*
X564250Y230999D01*
X565348Y230157D01*
X566420Y229712D01*
Y228888D01*
X565348Y228443D01*
X564250Y227601D01*
X563407Y226502D01*
X562962Y225429D01*
X559858D01*
X559586Y226229D01*
X559748Y226353D01*
X560410Y227216D01*
X560826Y228221D01*
X560903Y228800D01*
X556800D01*
X552698D01*
X552774Y228221D01*
X553190Y227216D01*
X553853Y226353D01*
X554014Y226229D01*
X553742Y225429D01*
X537634D01*
Y226230D01*
X532366D01*
Y225504D01*
X526434D01*
Y226660D01*
X523800D01*
X521166D01*
Y225504D01*
X496000D01*
X496000Y225504D01*
X495425Y225389D01*
X494937Y225063D01*
X494937Y225063D01*
X484937Y215063D01*
X484611Y214576D01*
X484496Y214000D01*
Y158623D01*
X477377Y151504D01*
X458623D01*
X454425Y155702D01*
Y158968D01*
X446126D01*
Y153032D01*
X452842D01*
X456937Y148937D01*
X457424Y148611D01*
X458000Y148496D01*
X478000D01*
X478576Y148611D01*
X479063Y148937D01*
X487063Y156937D01*
X487389Y157424D01*
X487504Y158000D01*
Y213377D01*
X496623Y222496D01*
X532366D01*
Y221770D01*
X537634D01*
Y222421D01*
X552249D01*
X552643Y221621D01*
X552207Y221052D01*
X551731Y219904D01*
X526434D01*
Y220630D01*
X521166D01*
Y220004D01*
X519361D01*
X519310Y219994D01*
X518591Y219899D01*
X517873Y219602D01*
X517257Y219129D01*
X516862Y218614D01*
X516411Y218559D01*
X515960Y218614D01*
X515565Y219129D01*
X514949Y219602D01*
X514231Y219899D01*
X513512Y219994D01*
X513461Y220004D01*
X500000D01*
X499425Y219889D01*
X498937Y219563D01*
X497975Y218602D01*
X490937Y211563D01*
X490611Y211075D01*
X490496Y210500D01*
Y154623D01*
X479377Y143504D01*
X458000D01*
X457424Y143389D01*
X456937Y143063D01*
X452842Y138969D01*
X446126D01*
Y133031D01*
X454425D01*
Y136298D01*
X458623Y140496D01*
X480000D01*
X480576Y140611D01*
X481063Y140937D01*
X493063Y152937D01*
X493389Y153425D01*
X493504Y154000D01*
Y209877D01*
X500037Y216410D01*
X500623Y216996D01*
X513419D01*
X513423Y216987D01*
X513432Y216983D01*
Y214395D01*
X513442Y214343D01*
X513537Y213625D01*
X513834Y212907D01*
X514307Y212291D01*
X514923Y211818D01*
X515641Y211521D01*
X516411Y211419D01*
X517181Y211521D01*
X517899Y211818D01*
X518515Y212291D01*
X518988Y212907D01*
X519285Y213625D01*
X519380Y214343D01*
X519390Y214395D01*
Y216983D01*
X519399Y216987D01*
X519403Y216996D01*
X521166D01*
Y216170D01*
X526434D01*
Y216896D01*
X532366D01*
Y215740D01*
X537634D01*
Y216896D01*
X551731D01*
X552207Y215748D01*
X553050Y214650D01*
X554148Y213807D01*
X555220Y213362D01*
Y212538D01*
X554148Y212093D01*
X553050Y211250D01*
X552207Y210152D01*
X551731Y209004D01*
X537634D01*
Y210000D01*
X535000D01*
X532366D01*
Y209004D01*
X526434D01*
Y209730D01*
X521166D01*
Y209004D01*
X509452D01*
X509448Y209013D01*
X509438Y209017D01*
Y212075D01*
X509428Y212126D01*
X509334Y212845D01*
X509036Y213563D01*
X508564Y214179D01*
X507947Y214652D01*
X507230Y214949D01*
X506460Y215051D01*
X505689Y214949D01*
X504972Y214652D01*
X504355Y214179D01*
X503883Y213563D01*
X503585Y212845D01*
X503491Y212126D01*
X503481Y212075D01*
Y209017D01*
X503471Y209013D01*
X503467Y209004D01*
X501372D01*
X500785Y209396D01*
X500000Y209552D01*
X499215Y209396D01*
X498549Y208951D01*
X498104Y208285D01*
X497948Y207500D01*
X498104Y206715D01*
X498549Y206049D01*
X499215Y205604D01*
X500000Y205448D01*
X500785Y205604D01*
X501372Y205996D01*
X503510D01*
X503561Y206006D01*
X504280Y206101D01*
X504997Y206398D01*
X505614Y206871D01*
X506009Y207386D01*
X506460Y207441D01*
X506910Y207386D01*
X507305Y206871D01*
X507922Y206398D01*
X508639Y206101D01*
X509358Y206006D01*
X509410Y205996D01*
X521166D01*
Y205270D01*
X526434D01*
Y205996D01*
X551731D01*
X552207Y204848D01*
X552705Y204199D01*
X552310Y203399D01*
X537634D01*
Y203971D01*
X532366D01*
Y203504D01*
X501372D01*
X500785Y203896D01*
X500000Y204052D01*
X499215Y203896D01*
X498549Y203451D01*
X498104Y202785D01*
X497948Y202000D01*
X498104Y201215D01*
X498549Y200549D01*
X499215Y200104D01*
X500000Y199948D01*
X500785Y200104D01*
X501372Y200496D01*
X521166D01*
Y199240D01*
X526434D01*
Y200496D01*
X532366D01*
Y199510D01*
X537634D01*
Y200391D01*
X553638D01*
X553909Y199591D01*
X553853Y199548D01*
X553190Y198684D01*
X552774Y197679D01*
X552698Y197100D01*
X556800D01*
X560903D01*
X560826Y197679D01*
X560410Y198684D01*
X559748Y199548D01*
X559691Y199591D01*
X559962Y200391D01*
X562995D01*
X563407Y199398D01*
X564250Y198300D01*
X565348Y197457D01*
X566420Y197012D01*
Y196188D01*
X565348Y195743D01*
X564250Y194901D01*
X563407Y193802D01*
X562979Y192769D01*
X559910D01*
X559638Y193569D01*
X559748Y193652D01*
X560410Y194516D01*
X560826Y195521D01*
X560903Y196100D01*
X556800D01*
X552698D01*
X552774Y195521D01*
X553190Y194516D01*
X553853Y193652D01*
X553962Y193569D01*
X553690Y192769D01*
X537634D01*
Y193610D01*
X532366D01*
Y192944D01*
X526434D01*
Y193500D01*
X523800D01*
X521166D01*
Y192944D01*
X501456D01*
X501451Y192951D01*
X500785Y193396D01*
X500000Y193552D01*
X499215Y193396D01*
X498549Y192951D01*
X498104Y192285D01*
X497948Y191500D01*
X498104Y190715D01*
X498549Y190049D01*
X499215Y189604D01*
X500000Y189448D01*
X500785Y189604D01*
X501282Y189936D01*
X532366D01*
Y189150D01*
X537634D01*
Y189761D01*
X552279D01*
X552674Y188961D01*
X552207Y188352D01*
X551677Y187073D01*
X551664Y186974D01*
X526434D01*
Y187470D01*
X521166D01*
Y187004D01*
X501372D01*
X500785Y187396D01*
X500000Y187552D01*
X499215Y187396D01*
X498549Y186951D01*
X498104Y186285D01*
X497948Y185500D01*
X498104Y184715D01*
X498549Y184049D01*
X499215Y183604D01*
X500000Y183448D01*
X500785Y183604D01*
X501372Y183996D01*
X521166D01*
Y183010D01*
X526434D01*
Y183966D01*
X532366D01*
Y183120D01*
X537634D01*
Y183966D01*
X551826D01*
X552207Y183048D01*
X553050Y181949D01*
X554148Y181107D01*
X555220Y180662D01*
Y179838D01*
X554148Y179393D01*
X553050Y178551D01*
X552207Y177452D01*
X551772Y176404D01*
X537634D01*
Y177380D01*
X535000D01*
X532366D01*
Y176404D01*
X526434D01*
Y177230D01*
X521166D01*
Y176504D01*
X515411D01*
X515407Y176513D01*
X515398Y176517D01*
Y177033D01*
X515388Y177084D01*
X515293Y177803D01*
X514996Y178521D01*
X514523Y179137D01*
X513907Y179610D01*
X513189Y179907D01*
X512419Y180008D01*
X511649Y179907D01*
X510931Y179610D01*
X510315Y179137D01*
X509939Y178647D01*
X509361Y178609D01*
X509037Y178668D01*
X508623Y179208D01*
X508007Y179681D01*
X507289Y179978D01*
X506519Y180080D01*
X505749Y179978D01*
X505031Y179681D01*
X504415Y179208D01*
X503942Y178592D01*
X503645Y177874D01*
X503550Y177155D01*
X503540Y177104D01*
Y176517D01*
X503531Y176513D01*
X503527Y176504D01*
X501372D01*
X500785Y176896D01*
X500000Y177052D01*
X499215Y176896D01*
X498549Y176451D01*
X498104Y175785D01*
X497948Y175000D01*
X498104Y174215D01*
X498549Y173549D01*
X499215Y173104D01*
X500000Y172948D01*
X500785Y173104D01*
X501372Y173496D01*
X503569D01*
X503620Y173506D01*
X504339Y173601D01*
X505057Y173898D01*
X505673Y174371D01*
X505920Y174693D01*
X506796Y174627D01*
X506818Y174615D01*
X506892Y174437D01*
X507365Y173821D01*
X507981Y173348D01*
X508699Y173051D01*
X509469Y172950D01*
X510239Y173051D01*
X510957Y173348D01*
X511573Y173821D01*
X512046Y174437D01*
X512119Y174615D01*
X512141Y174627D01*
X513018Y174693D01*
X513265Y174371D01*
X513881Y173898D01*
X514599Y173601D01*
X515318Y173506D01*
X515369Y173496D01*
X521166D01*
Y172770D01*
X526434D01*
Y173396D01*
X551690D01*
X552207Y172148D01*
X552674Y171539D01*
X552279Y170739D01*
X537634D01*
Y171350D01*
X532366D01*
Y171004D01*
X501372D01*
X500785Y171396D01*
X500000Y171552D01*
X499215Y171396D01*
X498549Y170951D01*
X498104Y170285D01*
X497948Y169500D01*
X498104Y168715D01*
X498549Y168049D01*
X499215Y167604D01*
X500000Y167448D01*
X500785Y167604D01*
X501372Y167996D01*
X521166D01*
Y166740D01*
X526434D01*
Y167996D01*
X532366D01*
Y166890D01*
X537634D01*
Y167731D01*
X553690D01*
X553962Y166931D01*
X553853Y166848D01*
X553190Y165984D01*
X552774Y164979D01*
X552698Y164400D01*
X556800D01*
X560903D01*
X560826Y164979D01*
X560410Y165984D01*
X559748Y166848D01*
X559638Y166931D01*
X559910Y167731D01*
X562979D01*
X563407Y166698D01*
X564250Y165600D01*
X565348Y164757D01*
X566420Y164312D01*
Y163488D01*
X565348Y163043D01*
X564250Y162200D01*
X563407Y161102D01*
X562917Y159919D01*
X559715D01*
X559443Y160719D01*
X559748Y160952D01*
X560410Y161816D01*
X560826Y162821D01*
X560903Y163400D01*
X556800D01*
X552698D01*
X552774Y162821D01*
X553190Y161816D01*
X553853Y160952D01*
X554157Y160719D01*
X553886Y159919D01*
X537634D01*
Y160610D01*
X532366D01*
Y159504D01*
X526434D01*
Y161000D01*
X523800D01*
X521166D01*
Y159504D01*
X501372D01*
X500785Y159896D01*
X500000Y160052D01*
X499215Y159896D01*
X498549Y159451D01*
X498104Y158785D01*
X497948Y158000D01*
X498104Y157215D01*
X498549Y156549D01*
X499215Y156104D01*
X500000Y155948D01*
X500785Y156104D01*
X501372Y156496D01*
X532366D01*
Y156150D01*
X537634D01*
Y156911D01*
X552164D01*
X552559Y156111D01*
X552207Y155652D01*
X551677Y154374D01*
X526434D01*
Y154971D01*
X521166D01*
Y154458D01*
X520717Y154399D01*
X520000Y154102D01*
X519384Y153629D01*
X519002Y153131D01*
X518460Y153087D01*
X518100Y153146D01*
X517692Y153679D01*
X517075Y154152D01*
X516358Y154449D01*
X515588Y154551D01*
X514817Y154449D01*
X514100Y154152D01*
X513484Y153679D01*
X513075Y153146D01*
X512715Y153087D01*
X512173Y153131D01*
X511792Y153629D01*
X511175Y154102D01*
X510458Y154399D01*
X509739Y154494D01*
X509688Y154504D01*
X501372D01*
X500785Y154896D01*
X500000Y155052D01*
X499215Y154896D01*
X498549Y154451D01*
X498104Y153785D01*
X497948Y153000D01*
X498104Y152215D01*
X498549Y151549D01*
X499215Y151104D01*
X500000Y150948D01*
X500785Y151104D01*
X501372Y151496D01*
X509645D01*
X509649Y151487D01*
X509659Y151483D01*
Y151004D01*
X509669Y150953D01*
X509763Y150234D01*
X510061Y149516D01*
X510534Y148900D01*
X511150Y148427D01*
X511868Y148130D01*
X512638Y148028D01*
X513408Y148130D01*
X514125Y148427D01*
X514742Y148900D01*
X515137Y149415D01*
X515588Y149470D01*
X516038Y149415D01*
X516434Y148900D01*
X517050Y148427D01*
X517767Y148130D01*
X518538Y148028D01*
X519308Y148130D01*
X520025Y148427D01*
X520642Y148900D01*
X521114Y149516D01*
X521412Y150234D01*
X521448Y150510D01*
X526434D01*
Y151366D01*
X532366D01*
Y150120D01*
X537634D01*
Y151366D01*
X551785D01*
X552207Y150348D01*
X553050Y149249D01*
X554148Y148407D01*
X555220Y147962D01*
Y147138D01*
X554148Y146693D01*
X553050Y145851D01*
X552207Y144752D01*
X551677Y143473D01*
X551496Y142100D01*
X551677Y140727D01*
X552207Y139448D01*
X553050Y138349D01*
X554148Y137507D01*
X555427Y136977D01*
X556800Y136796D01*
X558173Y136977D01*
X559452Y137507D01*
X560550Y138349D01*
X561393Y139448D01*
X561923Y140727D01*
X562104Y142100D01*
X561923Y143473D01*
X561393Y144752D01*
X560550Y145851D01*
X559452Y146693D01*
X558380Y147138D01*
Y147962D01*
X559452Y148407D01*
X560550Y149249D01*
X561393Y150348D01*
X561923Y151627D01*
X562104Y153000D01*
X561923Y154373D01*
X561393Y155652D01*
X561041Y156111D01*
X561436Y156911D01*
X562946D01*
X563407Y155798D01*
X564250Y154700D01*
X565348Y153857D01*
X566627Y153327D01*
X568000Y153146D01*
X569373Y153327D01*
X570652Y153857D01*
X571750Y154700D01*
X572593Y155798D01*
X573123Y157077D01*
X573304Y158450D01*
X573123Y159823D01*
X572593Y161102D01*
X571750Y162200D01*
X570652Y163043D01*
X569580Y163488D01*
Y164312D01*
X570652Y164757D01*
X571750Y165600D01*
X572593Y166698D01*
X573123Y167977D01*
X573304Y169350D01*
X573123Y170723D01*
X572593Y172002D01*
X571750Y173100D01*
X570652Y173943D01*
X569373Y174473D01*
X568000Y174654D01*
X566627Y174473D01*
X565348Y173943D01*
X564250Y173100D01*
X563407Y172002D01*
X562883Y170739D01*
X561321D01*
X560926Y171539D01*
X561393Y172148D01*
X561923Y173427D01*
X562104Y174800D01*
X561923Y176173D01*
X561393Y177452D01*
X560550Y178551D01*
X559452Y179393D01*
X558380Y179838D01*
Y180662D01*
X559452Y181107D01*
X560550Y181949D01*
X561393Y183048D01*
X561923Y184327D01*
X562104Y185700D01*
X561923Y187073D01*
X561393Y188352D01*
X560926Y188961D01*
X561321Y189761D01*
X562883D01*
X563407Y188498D01*
X564250Y187399D01*
X565348Y186557D01*
X566627Y186027D01*
X568000Y185846D01*
X569373Y186027D01*
X570652Y186557D01*
X571750Y187399D01*
X572593Y188498D01*
X573123Y189777D01*
X573304Y191150D01*
X573123Y192523D01*
X572593Y193802D01*
X571750Y194901D01*
X570652Y195743D01*
X569580Y196188D01*
Y197012D01*
X570652Y197457D01*
X571750Y198300D01*
X572593Y199398D01*
X573123Y200677D01*
X573304Y202050D01*
X573123Y203423D01*
X572593Y204702D01*
X571750Y205801D01*
X570652Y206643D01*
X569373Y207173D01*
X568000Y207354D01*
X566627Y207173D01*
X565348Y206643D01*
X564250Y205801D01*
X563407Y204702D01*
X562877Y203423D01*
X562874Y203399D01*
X561290D01*
X560895Y204199D01*
X561393Y204848D01*
X561923Y206127D01*
X562104Y207500D01*
X561923Y208873D01*
X561393Y210152D01*
X560550Y211250D01*
X559452Y212093D01*
X558380Y212538D01*
Y213362D01*
X559452Y213807D01*
X560550Y214650D01*
X561393Y215748D01*
X561923Y217027D01*
X562104Y218400D01*
X561923Y219773D01*
X561393Y221052D01*
X560957Y221621D01*
X561351Y222421D01*
X562900D01*
X563407Y221198D01*
X564250Y220099D01*
X565348Y219257D01*
X566627Y218727D01*
X568000Y218546D01*
X569373Y218727D01*
X570652Y219257D01*
X571750Y220099D01*
X572593Y221198D01*
X573123Y222477D01*
X573304Y223850D01*
X573123Y225223D01*
X572593Y226502D01*
X571750Y227601D01*
X570652Y228443D01*
X569580Y228888D01*
Y229712D01*
X570652Y230157D01*
X571750Y230999D01*
X572593Y232098D01*
X573123Y233377D01*
X573304Y234750D01*
X573123Y236123D01*
X572593Y237402D01*
X571750Y238500D01*
X570652Y239343D01*
X569373Y239873D01*
X568000Y240054D01*
X566627Y239873D01*
X565348Y239343D01*
X564250Y238500D01*
X563407Y237402D01*
X562877Y236123D01*
X562874Y236104D01*
X561294D01*
X560899Y236904D01*
X561393Y237548D01*
X561923Y238827D01*
X562104Y240200D01*
X561923Y241573D01*
X561393Y242852D01*
X560550Y243951D01*
X559452Y244793D01*
X558380Y245238D01*
Y246062D01*
X559452Y246507D01*
X560550Y247350D01*
X561393Y248448D01*
X561923Y249727D01*
X562104Y251100D01*
X561923Y252473D01*
X561393Y253752D01*
X560918Y254371D01*
X561313Y255171D01*
X562879D01*
X563407Y253898D01*
X564250Y252800D01*
X565348Y251957D01*
X566627Y251427D01*
X568000Y251246D01*
X569373Y251427D01*
X570652Y251957D01*
X571750Y252800D01*
X572593Y253898D01*
X573123Y255177D01*
X573304Y256550D01*
X573123Y257923D01*
X572593Y259202D01*
X571750Y260300D01*
X570652Y261143D01*
X569580Y261588D01*
Y262412D01*
X570652Y262857D01*
X571750Y263700D01*
X572593Y264798D01*
X573123Y266077D01*
X573304Y267450D01*
X573123Y268823D01*
X572593Y270102D01*
X571750Y271200D01*
X570652Y272043D01*
X569373Y272573D01*
X568000Y272754D01*
X566627Y272573D01*
X565348Y272043D01*
X564250Y271200D01*
X563407Y270102D01*
X562941Y268979D01*
X562059D01*
Y278159D01*
X551541D01*
Y274804D01*
X537534D01*
Y275760D01*
X534900D01*
X532266D01*
Y274804D01*
X526434D01*
Y275530D01*
X521166D01*
Y274804D01*
X518980D01*
X518976Y274813D01*
X518966Y274817D01*
Y277771D01*
X518956Y277822D01*
X518862Y278541D01*
X518564Y279258D01*
X518091Y279875D01*
X517475Y280348D01*
X516758Y280645D01*
X515988Y280746D01*
D02*
G37*
G36*
X454425Y268969D02*
X450776D01*
Y266500D01*
X454425D01*
Y268969D01*
D02*
G37*
G36*
X449776D02*
X446126D01*
Y266500D01*
X449776D01*
Y268969D01*
D02*
G37*
G36*
X454425Y265500D02*
X450776D01*
Y263032D01*
X454425D01*
Y265500D01*
D02*
G37*
G36*
X449776D02*
X446126D01*
Y263032D01*
X449776D01*
Y265500D01*
D02*
G37*
G36*
X526434Y264040D02*
X521166D01*
Y262310D01*
X521166D01*
Y262090D01*
X521166D01*
Y260360D01*
X523800D01*
X526434D01*
Y262090D01*
X526434D01*
Y262310D01*
X526434D01*
Y264040D01*
D02*
G37*
G36*
X568500Y249752D02*
Y246150D01*
X572102D01*
X572026Y246729D01*
X571610Y247734D01*
X570948Y248597D01*
X570084Y249260D01*
X569079Y249676D01*
X568500Y249752D01*
D02*
G37*
G36*
X567500D02*
X566921Y249676D01*
X565916Y249260D01*
X565053Y248597D01*
X564390Y247734D01*
X563974Y246729D01*
X563898Y246150D01*
X567500D01*
Y249752D01*
D02*
G37*
G36*
X537634Y247540D02*
X532366D01*
Y246390D01*
X532366Y245810D01*
X532366Y245010D01*
Y243860D01*
X535000D01*
X537634D01*
Y245010D01*
X537634Y245590D01*
X537634Y246390D01*
Y247540D01*
D02*
G37*
G36*
X572102Y245150D02*
X568500D01*
Y241547D01*
X569079Y241624D01*
X570084Y242040D01*
X570948Y242703D01*
X571610Y243566D01*
X572026Y244571D01*
X572102Y245150D01*
D02*
G37*
G36*
X567500D02*
X563898D01*
X563974Y244571D01*
X564390Y243566D01*
X565053Y242703D01*
X565916Y242040D01*
X566921Y241624D01*
X567500Y241547D01*
Y245150D01*
D02*
G37*
G36*
X526434Y231240D02*
X521166D01*
Y229510D01*
X521166D01*
Y229390D01*
X521166D01*
Y227660D01*
X523800D01*
X526434D01*
Y229390D01*
X526434D01*
Y229510D01*
X526434D01*
Y231240D01*
D02*
G37*
G36*
X454425Y228969D02*
X450776D01*
Y226500D01*
X454425D01*
Y228969D01*
D02*
G37*
G36*
X449776D02*
X446126D01*
Y226500D01*
X449776D01*
Y228969D01*
D02*
G37*
G36*
X454425Y225500D02*
X450776D01*
Y223031D01*
X454425D01*
Y225500D01*
D02*
G37*
G36*
X449776D02*
X446126D01*
Y223031D01*
X449776D01*
Y225500D01*
D02*
G37*
G36*
X568500Y217053D02*
Y213450D01*
X572102D01*
X572026Y214029D01*
X571610Y215034D01*
X570948Y215897D01*
X570084Y216560D01*
X569079Y216976D01*
X568500Y217053D01*
D02*
G37*
G36*
X567500D02*
X566921Y216976D01*
X565916Y216560D01*
X565053Y215897D01*
X564390Y215034D01*
X563974Y214029D01*
X563898Y213450D01*
X567500D01*
Y217053D01*
D02*
G37*
G36*
X537634Y214740D02*
X532366D01*
Y213530D01*
X532366Y213010D01*
X532366Y212210D01*
Y211000D01*
X535000D01*
X537634D01*
Y212210D01*
X537634Y212730D01*
X537634Y213530D01*
Y214740D01*
D02*
G37*
G36*
X572102Y212450D02*
X568500D01*
Y208847D01*
X569079Y208924D01*
X570084Y209340D01*
X570948Y210003D01*
X571610Y210866D01*
X572026Y211871D01*
X572102Y212450D01*
D02*
G37*
G36*
X567500D02*
X563898D01*
X563974Y211871D01*
X564390Y210866D01*
X565053Y210003D01*
X565916Y209340D01*
X566921Y208924D01*
X567500Y208847D01*
Y212450D01*
D02*
G37*
G36*
X526434Y198240D02*
X521166D01*
Y196510D01*
X521166D01*
Y196230D01*
X521166D01*
Y194500D01*
X523800D01*
X526434D01*
Y196230D01*
X526434D01*
Y196510D01*
X526434D01*
Y198240D01*
D02*
G37*
G36*
X454287Y188969D02*
X450638D01*
Y186500D01*
X454287D01*
Y188969D01*
D02*
G37*
G36*
X449638D02*
X445988D01*
Y186500D01*
X449638D01*
Y188969D01*
D02*
G37*
G36*
X454287Y185500D02*
X450638D01*
Y183031D01*
X454287D01*
Y185500D01*
D02*
G37*
G36*
X449638D02*
X445988D01*
Y183031D01*
X449638D01*
Y185500D01*
D02*
G37*
G36*
X568500Y184353D02*
Y180750D01*
X572102D01*
X572026Y181329D01*
X571610Y182334D01*
X570948Y183197D01*
X570084Y183860D01*
X569079Y184276D01*
X568500Y184353D01*
D02*
G37*
G36*
X567500D02*
X566921Y184276D01*
X565916Y183860D01*
X565053Y183197D01*
X564390Y182334D01*
X563974Y181329D01*
X563898Y180750D01*
X567500D01*
Y184353D01*
D02*
G37*
G36*
X537634Y182120D02*
X532366D01*
Y180910D01*
X532366Y180390D01*
X532366Y179590D01*
Y178380D01*
X535000D01*
X537634D01*
Y179590D01*
X537634Y180110D01*
X537634Y180910D01*
Y182120D01*
D02*
G37*
G36*
X572102Y179750D02*
X568500D01*
Y176147D01*
X569079Y176224D01*
X570084Y176640D01*
X570948Y177303D01*
X571610Y178166D01*
X572026Y179171D01*
X572102Y179750D01*
D02*
G37*
G36*
X567500D02*
X563898D01*
X563974Y179171D01*
X564390Y178166D01*
X565053Y177303D01*
X565916Y176640D01*
X566921Y176224D01*
X567500Y176147D01*
Y179750D01*
D02*
G37*
G36*
X526434Y165740D02*
X521166D01*
Y164010D01*
X521166D01*
Y163730D01*
X521166D01*
Y162000D01*
X523800D01*
X526434D01*
Y163730D01*
X526434D01*
Y164010D01*
X526434D01*
Y165740D01*
D02*
G37*
G36*
X568500Y151653D02*
Y148050D01*
X572102D01*
X572026Y148629D01*
X571610Y149634D01*
X570948Y150497D01*
X570084Y151160D01*
X569079Y151576D01*
X568500Y151653D01*
D02*
G37*
G36*
X567500D02*
X566921Y151576D01*
X565916Y151160D01*
X565053Y150497D01*
X564390Y149634D01*
X563974Y148629D01*
X563898Y148050D01*
X567500D01*
Y151653D01*
D02*
G37*
G36*
X537634Y149120D02*
X535500D01*
Y147390D01*
X537634D01*
Y149120D01*
D02*
G37*
G36*
X534500D02*
X532366D01*
Y147390D01*
X534500D01*
Y149120D01*
D02*
G37*
G36*
X454425Y148969D02*
X450776D01*
Y146500D01*
X454425D01*
Y148969D01*
D02*
G37*
G36*
X449776D02*
X446126D01*
Y146500D01*
X449776D01*
Y148969D01*
D02*
G37*
G36*
X572102Y147050D02*
X568500D01*
Y143447D01*
X569079Y143524D01*
X570084Y143940D01*
X570948Y144603D01*
X571610Y145466D01*
X572026Y146471D01*
X572102Y147050D01*
D02*
G37*
G36*
X567500D02*
X563898D01*
X563974Y146471D01*
X564390Y145466D01*
X565053Y144603D01*
X565916Y143940D01*
X566921Y143524D01*
X567500Y143447D01*
Y147050D01*
D02*
G37*
G36*
X454425Y145500D02*
X450776D01*
Y143032D01*
X454425D01*
Y145500D01*
D02*
G37*
G36*
X449776D02*
X446126D01*
Y143032D01*
X449776D01*
Y145500D01*
D02*
G37*
G36*
X562400Y123317D02*
X560758Y123155D01*
X559179Y122676D01*
X557724Y121898D01*
X556449Y120851D01*
X555402Y119576D01*
X554624Y118121D01*
X554145Y116542D01*
X553983Y114900D01*
X554145Y113258D01*
X554624Y111679D01*
X555402Y110224D01*
X556449Y108949D01*
X557724Y107902D01*
X559179Y107124D01*
X560758Y106645D01*
X562400Y106483D01*
X564042Y106645D01*
X565621Y107124D01*
X567076Y107902D01*
X568351Y108949D01*
X569398Y110224D01*
X570176Y111679D01*
X570655Y113258D01*
X570817Y114900D01*
X570655Y116542D01*
X570176Y118121D01*
X569398Y119576D01*
X568351Y120851D01*
X567076Y121898D01*
X565621Y122676D01*
X564042Y123155D01*
X562400Y123317D01*
D02*
G37*
%LPD*%
D16*
X350276Y156000D02*
D03*
Y146000D02*
D03*
Y136000D02*
D03*
X305000D02*
D03*
Y146000D02*
D03*
Y156000D02*
D03*
Y196000D02*
D03*
Y186000D02*
D03*
Y176000D02*
D03*
X350276D02*
D03*
Y186000D02*
D03*
Y196000D02*
D03*
Y236000D02*
D03*
Y226000D02*
D03*
Y216000D02*
D03*
X305000D02*
D03*
Y226000D02*
D03*
Y236000D02*
D03*
Y276000D02*
D03*
Y266000D02*
D03*
Y256000D02*
D03*
X350276D02*
D03*
Y266000D02*
D03*
Y276000D02*
D03*
X450276Y156000D02*
D03*
Y146000D02*
D03*
Y136000D02*
D03*
X405000D02*
D03*
Y146000D02*
D03*
Y156000D02*
D03*
X404862Y196000D02*
D03*
Y186000D02*
D03*
Y176000D02*
D03*
X450138D02*
D03*
Y186000D02*
D03*
Y196000D02*
D03*
X450276Y236000D02*
D03*
Y226000D02*
D03*
Y216000D02*
D03*
X405000D02*
D03*
Y226000D02*
D03*
Y236000D02*
D03*
Y276000D02*
D03*
Y266000D02*
D03*
Y256000D02*
D03*
X450276D02*
D03*
Y266000D02*
D03*
Y276000D02*
D03*
D17*
X289740Y157874D02*
D03*
X282260D02*
D03*
X286000Y150000D02*
D03*
Y190000D02*
D03*
X282260Y197874D02*
D03*
X289740D02*
D03*
Y237874D02*
D03*
X282260D02*
D03*
X286000Y230000D02*
D03*
Y270000D02*
D03*
X282260Y277874D02*
D03*
X289740D02*
D03*
X282260Y134126D02*
D03*
X289740D02*
D03*
X286000Y142000D02*
D03*
Y182000D02*
D03*
X289740Y174126D02*
D03*
X282260D02*
D03*
Y214126D02*
D03*
X289740D02*
D03*
X286000Y222000D02*
D03*
Y262000D02*
D03*
X289740Y254126D02*
D03*
X282260D02*
D03*
X389740Y157874D02*
D03*
X382260D02*
D03*
X386000Y150000D02*
D03*
Y190000D02*
D03*
X382260Y197874D02*
D03*
X389740D02*
D03*
Y237874D02*
D03*
X382260D02*
D03*
X386000Y230000D02*
D03*
Y270000D02*
D03*
X382260Y277874D02*
D03*
X389740D02*
D03*
X382260Y134126D02*
D03*
X389740D02*
D03*
X386000Y142000D02*
D03*
Y182000D02*
D03*
X389740Y174126D02*
D03*
X382260D02*
D03*
Y214126D02*
D03*
X389740D02*
D03*
X386000Y222000D02*
D03*
Y262000D02*
D03*
X389740Y254126D02*
D03*
X382260D02*
D03*
D18*
X535000Y149620D02*
D03*
Y158380D02*
D03*
X523800Y161500D02*
D03*
Y152740D02*
D03*
Y166240D02*
D03*
Y175000D02*
D03*
X535000Y177880D02*
D03*
Y169120D02*
D03*
Y182620D02*
D03*
Y191380D02*
D03*
X523800Y194000D02*
D03*
Y185240D02*
D03*
Y198740D02*
D03*
Y207500D02*
D03*
X535000Y210500D02*
D03*
Y201740D02*
D03*
Y234600D02*
D03*
Y243360D02*
D03*
X523800Y240500D02*
D03*
Y231740D02*
D03*
X535000Y224000D02*
D03*
Y215240D02*
D03*
X523800Y227160D02*
D03*
Y218400D02*
D03*
X535000Y256800D02*
D03*
Y248040D02*
D03*
X534900Y267500D02*
D03*
Y276260D02*
D03*
X523800Y251100D02*
D03*
Y259860D02*
D03*
Y264540D02*
D03*
Y273300D02*
D03*
D19*
X142850Y207500D02*
D03*
X149150D02*
D03*
X141850Y152500D02*
D03*
X148150D02*
D03*
Y162500D02*
D03*
X141850D02*
D03*
Y182500D02*
D03*
X148150D02*
D03*
Y172500D02*
D03*
X141850D02*
D03*
Y242500D02*
D03*
X148150D02*
D03*
Y252500D02*
D03*
X141850D02*
D03*
Y262500D02*
D03*
X148150D02*
D03*
Y272500D02*
D03*
X141850D02*
D03*
X210650Y290000D02*
D03*
X216950D02*
D03*
D20*
X107500Y125000D02*
D03*
X542500Y300000D02*
D03*
X107500Y290000D02*
D03*
D21*
X203228Y128500D02*
D03*
Y133500D02*
D03*
Y138500D02*
D03*
Y143500D02*
D03*
Y148500D02*
D03*
Y153500D02*
D03*
Y158500D02*
D03*
X181772Y128500D02*
D03*
Y133500D02*
D03*
Y138500D02*
D03*
Y143500D02*
D03*
Y148500D02*
D03*
Y153500D02*
D03*
Y158500D02*
D03*
Y198500D02*
D03*
Y193500D02*
D03*
Y188500D02*
D03*
Y183500D02*
D03*
Y178500D02*
D03*
Y173500D02*
D03*
Y168500D02*
D03*
X203228Y198500D02*
D03*
Y193500D02*
D03*
Y188500D02*
D03*
Y183500D02*
D03*
Y178500D02*
D03*
Y173500D02*
D03*
Y168500D02*
D03*
Y208500D02*
D03*
Y213500D02*
D03*
Y218500D02*
D03*
Y223500D02*
D03*
Y228500D02*
D03*
Y233500D02*
D03*
Y238500D02*
D03*
X181772Y208500D02*
D03*
Y213500D02*
D03*
Y218500D02*
D03*
Y223500D02*
D03*
Y228500D02*
D03*
Y233500D02*
D03*
Y238500D02*
D03*
Y278500D02*
D03*
Y273500D02*
D03*
Y268500D02*
D03*
Y263500D02*
D03*
Y258500D02*
D03*
Y253500D02*
D03*
Y248500D02*
D03*
X203228Y278500D02*
D03*
Y273500D02*
D03*
Y268500D02*
D03*
Y263500D02*
D03*
Y258500D02*
D03*
Y253500D02*
D03*
Y248500D02*
D03*
D22*
X222657Y136000D02*
D03*
X217342D02*
D03*
Y176000D02*
D03*
X222657D02*
D03*
Y216000D02*
D03*
X217342D02*
D03*
Y256000D02*
D03*
X222657D02*
D03*
Y128000D02*
D03*
X217342D02*
D03*
Y168000D02*
D03*
X222657D02*
D03*
Y208000D02*
D03*
X217342D02*
D03*
Y248000D02*
D03*
X222657D02*
D03*
X172500Y153500D02*
D03*
X167185D02*
D03*
Y193500D02*
D03*
X172500D02*
D03*
Y233500D02*
D03*
X167185D02*
D03*
Y273500D02*
D03*
X172500D02*
D03*
D23*
X245650Y136000D02*
D03*
X239350D02*
D03*
Y176000D02*
D03*
X245650D02*
D03*
Y216000D02*
D03*
X239350D02*
D03*
Y256000D02*
D03*
X245650D02*
D03*
Y128000D02*
D03*
X239350D02*
D03*
Y168000D02*
D03*
X245650D02*
D03*
Y208000D02*
D03*
X239350D02*
D03*
Y248000D02*
D03*
X245650D02*
D03*
X172500Y161000D02*
D03*
X166201D02*
D03*
Y201000D02*
D03*
X172500D02*
D03*
Y241000D02*
D03*
X166201D02*
D03*
Y281000D02*
D03*
X172500D02*
D03*
X211850Y158500D02*
D03*
X218150D02*
D03*
Y198500D02*
D03*
X211850D02*
D03*
Y238500D02*
D03*
X218150D02*
D03*
Y278500D02*
D03*
X211850D02*
D03*
D33*
X562400Y114900D02*
D03*
Y300100D02*
D03*
D34*
X568000Y147550D02*
D03*
Y158450D02*
D03*
Y169350D02*
D03*
Y180250D02*
D03*
Y191150D02*
D03*
Y202050D02*
D03*
Y212950D02*
D03*
Y223850D02*
D03*
Y234750D02*
D03*
Y245650D02*
D03*
Y256550D02*
D03*
Y267450D02*
D03*
X556800Y142100D02*
D03*
Y153000D02*
D03*
Y163900D02*
D03*
Y174800D02*
D03*
Y185700D02*
D03*
Y196600D02*
D03*
Y207500D02*
D03*
Y218400D02*
D03*
Y229300D02*
D03*
Y240200D02*
D03*
Y251100D02*
D03*
Y262000D02*
D03*
D35*
Y272900D02*
D03*
D40*
X500000Y125000D02*
D03*
Y145000D02*
D03*
X490000Y135000D02*
D03*
X510000D02*
D03*
X507000Y128000D02*
D03*
X493000D02*
D03*
Y142000D02*
D03*
X507000D02*
D03*
D43*
X517463Y274775D02*
X517895Y273732D01*
X518938Y273300D01*
X517463Y277771D02*
X517181Y278638D01*
X516443Y279173D01*
X515532D01*
X514794Y278638D01*
X514513Y277771D01*
X513775Y272775D02*
X514321Y273592D01*
X514513Y274555D01*
X519925Y241975D02*
X520357Y240932D01*
X521400Y240500D01*
X519925Y241975D02*
X519643Y242842D01*
X518906Y243378D01*
X517994D01*
X517257Y242842D01*
X516975Y241975D01*
X514025Y240925D02*
X514307Y240058D01*
X515044Y239522D01*
X515956D01*
X516693Y240058D01*
X516975Y240925D01*
X514025Y241153D02*
X513743Y242020D01*
X513006Y242556D01*
X512094D01*
X511357Y242020D01*
X511075Y241153D01*
X508125Y240925D02*
X508407Y240058D01*
X509144Y239522D01*
X510056D01*
X510793Y240058D01*
X511075Y240925D01*
X508125Y242279D02*
X507843Y243146D01*
X507106Y243682D01*
X506194D01*
X505457Y243146D01*
X505175Y242279D01*
X503700Y240500D02*
X504743Y240932D01*
X505175Y241975D01*
X519361Y218500D02*
X518318Y218068D01*
X517886Y217025D01*
X514936Y214395D02*
X515218Y213528D01*
X515955Y212992D01*
X516867D01*
X517604Y213528D01*
X517886Y214395D01*
X514936Y217025D02*
X514504Y218068D01*
X513461Y218500D01*
X507935Y208975D02*
X508366Y207932D01*
X509410Y207500D01*
X507935Y212075D02*
X507653Y212942D01*
X506915Y213478D01*
X506004D01*
X505266Y212942D01*
X504985Y212075D01*
X503510Y207500D02*
X504553Y207932D01*
X504985Y208975D01*
X513894Y176475D02*
X514326Y175432D01*
X515369Y175000D01*
X513894Y177033D02*
X513612Y177900D01*
X512875Y178436D01*
X511963D01*
X511226Y177900D01*
X510944Y177033D01*
X507994Y175925D02*
X508276Y175058D01*
X509013Y174522D01*
X509925D01*
X510662Y175058D01*
X510944Y175925D01*
X507994Y177104D02*
X507712Y177971D01*
X506975Y178507D01*
X506063D01*
X505326Y177971D01*
X505044Y177104D01*
X503569Y175000D02*
X504612Y175432D01*
X505044Y176475D01*
X521488Y153000D02*
X520445Y152568D01*
X520013Y151525D01*
X517063Y151004D02*
X517344Y150137D01*
X518082Y149601D01*
X518993D01*
X519731Y150137D01*
X520013Y151004D01*
X517063Y151575D02*
X516781Y152442D01*
X516043Y152978D01*
X515132D01*
X514394Y152442D01*
X514113Y151575D01*
X511163Y151004D02*
X511444Y150137D01*
X512182Y149601D01*
X513093D01*
X513831Y150137D01*
X514113Y151004D01*
X511163Y151525D02*
X510731Y152568D01*
X509688Y153000D01*
X518938Y273300D02*
X522800D01*
X517463Y274775D02*
Y277771D01*
X514513Y274555D02*
Y277771D01*
X513300Y272300D02*
X513775Y272775D01*
X522800Y273300D02*
X523800D01*
X507000Y266000D02*
X513300Y272300D01*
X474000Y224000D02*
X490500Y240500D01*
X521400D02*
X523643D01*
X519925Y241975D02*
Y241975D01*
X516975Y240925D02*
Y241975D01*
X514025Y240925D02*
Y241153D01*
X511075Y240925D02*
Y241153D01*
X508125Y240925D02*
Y242279D01*
X505175Y241975D02*
Y242279D01*
X503225Y240500D02*
X503700D01*
X523643D02*
X523800D01*
X490500D02*
X503225D01*
X463500Y222000D02*
X491000Y249500D01*
X517000D01*
X518600Y251100D01*
X487500Y255000D02*
X514500D01*
X468500Y236000D02*
X487500Y255000D01*
X514500D02*
X516000Y256500D01*
X510000Y261000D02*
X516500Y267500D01*
X451500Y256000D02*
X456500Y261000D01*
X510000D01*
X516500Y267500D02*
X534900D01*
X491500Y266000D02*
X507000D01*
X481500Y276000D02*
X491500Y266000D01*
X518600Y251100D02*
X523800D01*
X519361Y218500D02*
X522609D01*
X517886Y214395D02*
Y217025D01*
X514936Y214395D02*
Y217025D01*
X500000Y218500D02*
X513461D01*
X499039Y217538D02*
X500000Y218500D01*
X498973Y217473D02*
X499039Y217538D01*
X492000Y210500D02*
X498973Y217473D01*
X511510Y207500D02*
X523800D01*
X509410D02*
X511510D01*
X507935Y208975D02*
Y212075D01*
X504985Y208975D02*
Y212075D01*
X503034Y207500D02*
X503510D01*
X500000D02*
X503034D01*
X522609Y218500D02*
X523700D01*
X500000Y185500D02*
X523540D01*
X519620Y175000D02*
X523800D01*
X515369D02*
X519620D01*
X513894Y176475D02*
Y177033D01*
X510944Y175925D02*
Y177033D01*
X507994Y175925D02*
Y177104D01*
X505044Y176475D02*
Y177104D01*
X503094Y175000D02*
X503569D01*
X500000D02*
X503094D01*
X523540Y185500D02*
X523800Y185240D01*
X523540Y153000D02*
X523680Y152860D01*
X523529Y153000D02*
X523540D01*
X521488D02*
X523529D01*
X520013Y151004D02*
Y151525D01*
X517063Y151004D02*
Y151575D01*
X514113Y151004D02*
Y151575D01*
X511163Y151004D02*
Y151525D01*
X500362Y153000D02*
X509688D01*
X523680Y152860D02*
X523800Y152740D01*
X500000Y153000D02*
X500362D01*
X450276Y236000D02*
X468500D01*
X457500Y222000D02*
X463500D01*
X451500Y216000D02*
X457500Y222000D01*
X470000Y190000D02*
X474000Y194000D01*
Y224000D01*
X458000Y190000D02*
X470000D01*
X480000Y220000D02*
X494500Y234500D01*
X534900D01*
X480000Y190000D02*
Y220000D01*
X472000Y182000D02*
X480000Y190000D01*
X458000Y182000D02*
X472000D01*
X523800Y240350D02*
X556650D01*
X452000Y196000D02*
X458000Y190000D01*
X452000Y176000D02*
X458000Y182000D01*
X486000Y214000D02*
X496000Y224000D01*
X535000D01*
X486000Y158000D02*
Y214000D01*
X458000Y150000D02*
X478000D01*
X486000Y158000D01*
X450138Y196000D02*
X452000D01*
X534700Y256500D02*
X535000Y256800D01*
X516000Y256500D02*
X534700D01*
X468500Y276000D02*
X481500D01*
X534900Y234500D02*
X535000Y234600D01*
X567850D02*
X568000Y234750D01*
X535000Y234600D02*
X567850D01*
X523700Y218500D02*
X523800Y218400D01*
X492000Y154000D02*
Y210500D01*
X458000Y142000D02*
X480000D01*
X492000Y154000D01*
X523800Y218400D02*
X556800D01*
X452000Y136000D02*
X458000Y142000D01*
X452000Y156000D02*
X458000Y150000D01*
X534740Y202000D02*
X535000Y201740D01*
X500000Y202000D02*
X534740D01*
X534940Y191440D02*
X535000Y191380D01*
X500060Y191440D02*
X534940D01*
X500000Y191500D02*
X500060Y191440D01*
X534620Y169500D02*
X535000Y169120D01*
X500000Y169500D02*
X534620D01*
Y158000D02*
X535000Y158380D01*
X500000Y158000D02*
X534620D01*
X556670Y152870D02*
X556800Y153000D01*
X523930Y152870D02*
X556670D01*
X450276Y216000D02*
X451500D01*
X450276Y256000D02*
X451500D01*
X450276Y156000D02*
X452000D01*
X450276Y136000D02*
X452000D01*
X450138Y176000D02*
X452000D01*
X523800Y175000D02*
X523900Y174900D01*
X556700D01*
X556800Y174800D01*
X535000Y158380D02*
X535035Y158415D01*
X567965D01*
X568000Y158450D01*
X535000Y169120D02*
X535115Y169235D01*
X567885D01*
X568000Y169350D01*
X523800Y185240D02*
X524030Y185470D01*
X556570D01*
X556800Y185700D01*
X535000Y191380D02*
X535115Y191265D01*
X567885D01*
X568000Y191150D01*
X535000Y201740D02*
X535155Y201895D01*
X567845D01*
X568000Y202050D01*
X523800Y207500D02*
X556800D01*
X534900Y267500D02*
X534925Y267475D01*
X567975D01*
X568000Y267450D01*
X523800Y273300D02*
X556400D01*
X556800Y272900D01*
X213500Y263500D02*
X215000Y262000D01*
X203228Y263500D02*
X213500D01*
X203228Y223500D02*
X213500D01*
X210000Y218500D02*
X212500Y216000D01*
X203228Y218500D02*
X210000D01*
X207508Y213500D02*
X213008Y208000D01*
X203228Y213500D02*
X207508D01*
X213500Y223500D02*
X215000Y222000D01*
X203228Y228500D02*
X213500D01*
X215000Y230000D01*
X203228Y143500D02*
X213500D01*
X210000Y138500D02*
X212500Y136000D01*
X203228Y138500D02*
X210000D01*
X207500Y133500D02*
X213000Y128000D01*
X203228Y133500D02*
X207500D01*
X213000Y128000D02*
X217342D01*
X212500Y136000D02*
X217342D01*
X213500Y143500D02*
X215000Y142000D01*
X222657Y208000D02*
X239350D01*
X222657Y216000D02*
X239350D01*
X245650D02*
X252000D01*
X245650Y208000D02*
X250000D01*
X222657Y176000D02*
X239350D01*
X245650D02*
X252000D01*
X258000Y170000D02*
X358000Y170000D01*
X252000Y176000D02*
X258000Y170000D01*
X245650Y168000D02*
X250000D01*
X222657D02*
X239350D01*
X245650Y128000D02*
X250000D01*
X222657D02*
X239350D01*
X222657Y136000D02*
X239350D01*
X245650D02*
X252000D01*
X222657Y248000D02*
X239350D01*
X245650D02*
X250000D01*
X245650Y256000D02*
X252000D01*
X245150D02*
X245650D01*
X222657D02*
X239350D01*
X465500Y276000D02*
X468500D01*
X450276D02*
X465500D01*
X245150Y248000D02*
X245650D01*
X567925Y223925D02*
X568000Y223850D01*
X535075Y223925D02*
X567925D01*
X535000Y224000D02*
X535075Y223925D01*
X556650Y240350D02*
X556800Y240200D01*
X523800Y251100D02*
X556800D01*
X567875Y256675D02*
X568000Y256550D01*
X535125Y256675D02*
X567875D01*
X350276Y136000D02*
X351457D01*
X357251Y141794D01*
X357794D01*
X358000Y142000D01*
X350276Y156000D02*
X351457D01*
X357251Y150206D01*
X357794D01*
X358000Y150000D01*
X350276Y176000D02*
X351457D01*
X357251Y181794D01*
X357794D01*
X358000Y182000D01*
X350276Y196000D02*
X351457D01*
X357251Y190206D01*
X357794D02*
X358000Y190000D01*
X357251Y190206D02*
X357794D01*
X350276Y216000D02*
X351457D01*
X357251Y221794D01*
X357794D01*
X358000Y222000D01*
X350276Y236000D02*
X351457D01*
X357251Y230206D01*
X357794D01*
X358000Y230000D01*
X350276Y276000D02*
X351457D01*
X357251Y270206D01*
X357794D01*
X358000Y270000D01*
X350276Y256000D02*
X351457D01*
X357251Y261794D01*
X357794D01*
X358000Y262000D01*
X250000Y128000D02*
X256000Y122000D01*
X360000D01*
X380000Y142000D01*
X386000D01*
X258000Y130000D02*
X358000D01*
X297819Y142000D02*
X303819Y136000D01*
X252000D02*
X258000Y130000D01*
X286000Y142000D02*
X297819D01*
X215000D02*
X286000D01*
X358000Y130000D02*
X378000Y150000D01*
X386000D01*
X403819Y136000D02*
X405000D01*
X397819Y142000D02*
X403819Y136000D01*
X386000Y142000D02*
X397819D01*
X403819Y156000D02*
X405000D01*
X397819Y150000D02*
X403819Y156000D01*
X386000Y150000D02*
X397819D01*
X203228Y148500D02*
X213500D01*
X215000Y150000D01*
X286000D01*
X297819D01*
X303819Y156000D02*
X305000D01*
X297819Y150000D02*
X303819Y156000D01*
Y136000D02*
X305000D01*
X380000Y182000D02*
X386000D01*
X360000Y162000D02*
X380000Y182000D01*
X256000Y162000D02*
X360000D01*
X358000Y170000D02*
X378000Y190000D01*
X386000D01*
Y182000D02*
X397681D01*
X403681Y176000D02*
X404862D01*
X397681Y182000D02*
X403681Y176000D01*
Y196000D02*
X404862D01*
X397681Y190000D02*
X403681Y196000D01*
X386000Y190000D02*
X397681D01*
X250000Y168000D02*
X256000Y162000D01*
X212500Y176000D02*
X217342D01*
X203228Y178500D02*
X210000D01*
X212500Y176000D01*
X213000Y168000D02*
X217342D01*
X207500Y173500D02*
X213000Y168000D01*
X203228Y173500D02*
X207500D01*
X203228Y183500D02*
X213500D01*
X215000Y182000D01*
X203228Y188500D02*
X213500D01*
X215000Y190000D01*
Y182000D02*
X286000D01*
X297819D01*
X215000Y190000D02*
X286000D01*
X303819Y176000D02*
X305000D01*
X297819Y182000D02*
X303819Y176000D01*
Y196000D02*
X305000D01*
X297819Y190000D02*
X303819Y196000D01*
X286000Y190000D02*
X297819D01*
X203228Y253500D02*
X207508D01*
X210000Y258500D02*
X212500Y256000D01*
X213500Y268500D02*
X215000Y270000D01*
X403819Y216000D02*
X405000D01*
X403819Y256000D02*
X405000D01*
X403819Y236000D02*
X405000D01*
X403819Y276000D02*
X405000D01*
X213008Y208000D02*
X217342D01*
X212500Y216000D02*
X217342D01*
X213008Y248000D02*
X217342D01*
X212500Y256000D02*
X217342D01*
X203228Y258500D02*
X210000D01*
X203228Y268500D02*
X213500D01*
X303819Y216000D02*
X305000D01*
X303819Y256000D02*
X305000D01*
X380000Y222000D02*
X386000D01*
X378000Y230000D02*
X386000D01*
X380000Y262000D02*
X386000D01*
X378000Y270000D02*
X386000D01*
X207508Y253500D02*
X213008Y248000D01*
X252000Y216000D02*
X258000Y210000D01*
X250000Y208000D02*
X256000Y202000D01*
X250000Y248000D02*
X256000Y242000D01*
X297819Y222000D02*
X303819Y216000D01*
Y236000D02*
X305000D01*
X297819Y230000D02*
X303819Y236000D01*
X297819Y270000D02*
X303819Y276000D01*
X305000D01*
X360000Y202000D02*
X380000Y222000D01*
X397819D02*
X403819Y216000D01*
X397819Y230000D02*
X403819Y236000D01*
X397819Y270000D02*
X403819Y276000D01*
X252000Y256000D02*
X258000Y250000D01*
X297819Y262000D02*
X303819Y256000D01*
X360000Y242000D02*
X380000Y262000D01*
X358000Y250000D02*
X378000Y270000D01*
X358000Y210000D02*
X378000Y230000D01*
X397819Y262000D02*
X403819Y256000D01*
X286000Y222000D02*
X297819D01*
X386000D02*
X397819D01*
X286000Y230000D02*
X297819D01*
X386000D02*
X397819D01*
X286000Y262000D02*
X297819D01*
X386000D02*
X397819D01*
X286000Y270000D02*
X297819D01*
X386000D02*
X397819D01*
X256000Y202000D02*
X360000D01*
X258000Y210000D02*
X358000D01*
X215000Y222000D02*
X286000D01*
X215000Y230000D02*
X286000D01*
X256000Y242000D02*
X360000D01*
X258000Y250000D02*
X358000D01*
X215000Y262000D02*
X286000D01*
X215000Y270000D02*
X286000D01*
D44*
X120000Y135000D02*
X125000Y130000D01*
X166500D01*
X115000Y157500D02*
X120000Y152500D01*
Y135000D02*
Y152500D01*
X126500Y218500D02*
X172500D01*
X120000Y225000D02*
X126500Y218500D01*
X115000Y247500D02*
X120000Y242500D01*
Y225000D02*
Y242500D01*
X166500Y130000D02*
X172500Y136000D01*
X175000Y258500D02*
X181772D01*
X172500Y261000D02*
X175000Y258500D01*
X172500Y218500D02*
X181772D01*
X175000Y178500D02*
X181772D01*
X172500Y181000D02*
X175000Y178500D01*
Y138500D02*
X181772D01*
X172500Y136000D02*
X175000Y138500D01*
X117500Y285000D02*
X152500D01*
X164000Y273500D01*
X167185D01*
X172500D02*
X181772D01*
X172500Y233500D02*
X181772D01*
X167185Y153205D02*
Y153500D01*
X161480Y147500D02*
X167185Y153205D01*
X140000Y147500D02*
X161480D01*
X172500Y153500D02*
X181772D01*
X172500Y193500D02*
X181772D01*
X148150Y152500D02*
X154000D01*
X148150Y162500D02*
X154000D01*
X148150Y182500D02*
X154000D01*
X115000Y282500D02*
X117500Y285000D01*
X148150Y242500D02*
X154000D01*
X148150Y252500D02*
X154000D01*
X148150Y262500D02*
X154000D01*
X148150Y272500D02*
X154000D01*
X115000Y187500D02*
X121000Y193500D01*
X167185D01*
X144000Y233500D02*
X167185D01*
X130000Y247500D02*
X144000Y233500D01*
X115000Y277500D02*
Y282500D01*
X130000Y157500D02*
X140000Y147500D01*
X125000Y157500D02*
X130000D01*
X148150Y172500D02*
X154000D01*
X125000Y247500D02*
X130000D01*
D45*
X142850Y207500D02*
X142995Y207355D01*
Y202505D02*
Y207355D01*
Y202505D02*
X143000Y202500D01*
X149150Y207500D02*
X149495Y207846D01*
Y211995D01*
X149500Y212000D01*
X172500Y281000D02*
Y286000D01*
X205800Y290000D02*
X210650D01*
X216950D02*
X221800D01*
X175500Y228500D02*
X181772D01*
X175500Y268500D02*
X181772D01*
X175500Y148500D02*
X181772D01*
X175500Y188500D02*
X181772D01*
X289505Y254005D02*
X293995D01*
X389626Y134126D02*
X389995Y134495D01*
X389500Y134000D02*
X389995Y133505D01*
X289740Y134126D02*
X289861Y134005D01*
X293995D01*
X294000Y134000D01*
X289740Y134126D02*
Y134323D01*
X286568Y137495D02*
X289740Y134323D01*
X286505Y137495D02*
X286568D01*
X286500Y137500D02*
X286505Y137495D01*
X282139Y157995D02*
X282260Y157874D01*
X278005Y157995D02*
X282139D01*
X278000Y158000D02*
X278005Y157995D01*
X282260Y157677D02*
Y157874D01*
Y157677D02*
X285432Y154505D01*
X285495D01*
X285500Y154500D01*
X289740Y174126D02*
X289861Y174005D01*
X293995D01*
X294000Y174000D01*
X289740Y174126D02*
Y174323D01*
X286568Y177495D02*
X289740Y174323D01*
X286505Y177495D02*
X286568D01*
X286500Y177500D02*
X286505Y177495D01*
X282139Y197995D02*
X282260Y197874D01*
X278005Y197995D02*
X282139D01*
X278000Y198000D02*
X278005Y197995D01*
X282260Y197677D02*
Y197874D01*
Y197677D02*
X285432Y194505D01*
X285495D01*
X285500Y194500D01*
X289866Y214000D02*
X294000D01*
X289740Y214126D02*
X289866Y214000D01*
X289500Y214500D02*
Y214563D01*
X286568Y217495D02*
X289500Y214563D01*
X286505Y217495D02*
X286568D01*
X286500Y217500D02*
X286505Y217495D01*
X289740Y214126D02*
Y214260D01*
X289500Y214500D02*
X289740Y214260D01*
X211505Y158846D02*
X211850Y158500D01*
X211505Y158846D02*
Y163495D01*
X211500Y163500D02*
X211505Y163495D01*
Y198846D02*
X211850Y198500D01*
X211505Y198846D02*
Y203495D01*
X211500Y203500D02*
X211505Y203495D01*
Y238846D02*
Y243495D01*
X211500Y243500D02*
X211505Y243495D01*
Y238846D02*
X211850Y238500D01*
X211505Y278846D02*
X211850Y278500D01*
X211505Y278846D02*
Y283495D01*
X211500Y283500D02*
X211505Y283495D01*
X172500Y161000D02*
Y166000D01*
Y201000D02*
Y206000D01*
Y241000D02*
Y246000D01*
X282260Y237677D02*
Y237874D01*
Y237677D02*
X285432Y234505D01*
X285495D01*
X285500Y234500D01*
X282139Y237995D02*
X282260Y237874D01*
X278005Y237995D02*
X282139D01*
X278000Y238000D02*
X278005Y237995D01*
X293995Y254005D02*
X294000Y254000D01*
X289740Y254126D02*
Y254323D01*
X286568Y257495D02*
X289740Y254323D01*
X286505Y257495D02*
X286568D01*
X286500Y257500D02*
X286505Y257495D01*
X289505Y254005D02*
X289626Y254126D01*
X289500Y254000D02*
X289505Y254005D01*
X289626Y254126D02*
X289740D01*
X282005Y277619D02*
X282260Y277874D01*
X282005Y274005D02*
Y277619D01*
X282000Y274000D02*
X282005Y274005D01*
Y278129D02*
X282260Y277874D01*
X282005Y278129D02*
Y281995D01*
X282000Y282000D02*
X282005Y281995D01*
X389995Y130005D02*
Y133505D01*
Y130005D02*
X390000Y130000D01*
X389500Y134000D02*
X389626Y134126D01*
X389995Y134495D02*
Y137995D01*
X390000Y138000D01*
X389626Y134126D02*
X389740D01*
X382005Y157619D02*
X382260Y157874D01*
X382005Y154005D02*
Y157619D01*
X382000Y154000D02*
X382005Y154005D01*
Y158129D02*
X382260Y157874D01*
X382005Y158129D02*
Y161995D01*
X382000Y162000D02*
X382005Y161995D01*
X389740Y174126D02*
X389995Y173871D01*
Y170005D02*
Y173871D01*
Y170005D02*
X390000Y170000D01*
X382005Y198129D02*
Y201995D01*
X382000Y202000D02*
X382005Y201995D01*
X389740Y174126D02*
X389995Y174381D01*
Y177995D01*
X390000Y178000D01*
X382005Y197619D02*
X382260Y197874D01*
X382005Y194005D02*
Y197619D01*
X382000Y194000D02*
X382005Y194005D01*
Y198129D02*
X382260Y197874D01*
X389740Y214126D02*
X389995Y213871D01*
Y210005D02*
Y213871D01*
Y210005D02*
X390000Y210000D01*
X389740Y214126D02*
X389995Y214381D01*
Y217995D01*
X390000Y218000D01*
X382005Y237619D02*
X382260Y237874D01*
X382005Y234005D02*
Y237619D01*
X382000Y234000D02*
X382005Y234005D01*
Y238129D02*
X382260Y237874D01*
X382005Y238129D02*
Y241995D01*
X382000Y242000D02*
X382005Y241995D01*
Y277619D02*
X382260Y277874D01*
X382005Y274005D02*
Y277619D01*
X382000Y274000D02*
X382005Y274005D01*
Y278129D02*
X382260Y277874D01*
X382005Y278129D02*
Y281995D01*
X382000Y282000D02*
X382005Y281995D01*
X389740Y254126D02*
X389995Y253871D01*
Y250005D02*
Y253871D01*
Y250005D02*
X390000Y250000D01*
X389740Y254126D02*
X389995Y254381D01*
Y257995D01*
X390000Y258000D01*
X203228Y198500D02*
X211850D01*
X174803D02*
X181772D01*
X172500Y200803D02*
X174803Y198500D01*
X172500Y200803D02*
Y201000D01*
X203228Y238500D02*
X211079D01*
X175000D02*
X181772D01*
X172500Y241000D02*
X175000Y238500D01*
X172500Y281000D02*
X175000Y278500D01*
X181772D01*
X203228D02*
X211850D01*
X173468Y160031D02*
X175000Y158500D01*
X181772D01*
X203228D02*
X211850D01*
D46*
X263779Y287130D02*
D03*
X236221D02*
D03*
D47*
X259842Y276500D02*
D03*
X240158D02*
D03*
D48*
X500000Y135000D02*
D03*
D49*
X125000Y277500D02*
D03*
Y187500D02*
D03*
D50*
Y267500D02*
D03*
Y257500D02*
D03*
Y247500D02*
D03*
Y237500D02*
D03*
Y227500D02*
D03*
X115000D02*
D03*
Y257500D02*
D03*
Y237500D02*
D03*
Y277500D02*
D03*
Y267500D02*
D03*
Y247500D02*
D03*
X125000Y177500D02*
D03*
Y167500D02*
D03*
Y157500D02*
D03*
Y147500D02*
D03*
Y137500D02*
D03*
X115000D02*
D03*
Y167500D02*
D03*
Y147500D02*
D03*
Y187500D02*
D03*
Y177500D02*
D03*
Y157500D02*
D03*
D51*
X501968Y210236D02*
D03*
Y199213D02*
D03*
Y194488D02*
D03*
Y182677D02*
D03*
Y150000D02*
D03*
Y177953D02*
D03*
Y166535D02*
D03*
Y161024D02*
D03*
X442000Y216000D02*
D03*
Y256000D02*
D03*
X358000Y276000D02*
D03*
X132500Y172500D02*
D03*
Y262500D02*
D03*
X172500Y223500D02*
D03*
X175500Y264000D02*
D03*
X169500Y258000D02*
D03*
X313000Y135000D02*
D03*
Y157000D02*
D03*
Y175000D02*
D03*
Y197000D02*
D03*
Y215000D02*
D03*
Y237000D02*
D03*
Y255000D02*
D03*
Y278000D02*
D03*
X175500Y132500D02*
D03*
Y184000D02*
D03*
X169500Y178000D02*
D03*
X204500Y123500D02*
D03*
Y163500D02*
D03*
Y203500D02*
D03*
Y243500D02*
D03*
X442000Y176000D02*
D03*
X320000Y126000D02*
D03*
Y166000D02*
D03*
Y206000D02*
D03*
Y286000D02*
D03*
Y246000D02*
D03*
X228500Y239000D02*
D03*
Y199000D02*
D03*
Y159000D02*
D03*
X272500Y155000D02*
D03*
Y195000D02*
D03*
Y235000D02*
D03*
X275000Y136500D02*
D03*
Y176500D02*
D03*
Y216500D02*
D03*
Y256500D02*
D03*
X350385Y285891D02*
D03*
X350500Y126000D02*
D03*
Y166000D02*
D03*
X350440Y245971D02*
D03*
X259000Y246000D02*
D03*
Y126000D02*
D03*
Y166000D02*
D03*
Y206000D02*
D03*
X305000D02*
D03*
X350500D02*
D03*
X228500Y139000D02*
D03*
Y179000D02*
D03*
Y219000D02*
D03*
Y259000D02*
D03*
X259000Y146000D02*
D03*
Y186000D02*
D03*
Y226000D02*
D03*
X358000Y136000D02*
D03*
Y156000D02*
D03*
Y256000D02*
D03*
Y236000D02*
D03*
Y216000D02*
D03*
Y196000D02*
D03*
Y176000D02*
D03*
X422000Y246000D02*
D03*
Y286000D02*
D03*
Y126000D02*
D03*
Y166000D02*
D03*
Y206000D02*
D03*
X342000Y216000D02*
D03*
Y256000D02*
D03*
X320000Y266000D02*
D03*
X342000Y236000D02*
D03*
Y276000D02*
D03*
X442000Y236000D02*
D03*
X420000Y266000D02*
D03*
X442000Y276000D02*
D03*
X320000Y226000D02*
D03*
X420000D02*
D03*
X320000Y146000D02*
D03*
X342000Y136000D02*
D03*
Y156000D02*
D03*
Y176000D02*
D03*
X320000Y186000D02*
D03*
X342000Y196000D02*
D03*
X442000Y136000D02*
D03*
X420000Y146000D02*
D03*
X442000Y156000D02*
D03*
X420000Y186000D02*
D03*
X442000Y196000D02*
D03*
D52*
X500000Y207500D02*
D03*
Y202000D02*
D03*
Y191500D02*
D03*
Y185500D02*
D03*
Y175000D02*
D03*
Y169500D02*
D03*
Y158000D02*
D03*
Y153000D02*
D03*
X149000Y202500D02*
D03*
X143000D02*
D03*
X149500Y212000D02*
D03*
X172500Y286000D02*
D03*
Y261000D02*
D03*
X175500Y253500D02*
D03*
X172500Y218500D02*
D03*
X175500Y213500D02*
D03*
X172500Y181000D02*
D03*
X175500Y173500D02*
D03*
X172500Y136000D02*
D03*
X175500Y143500D02*
D03*
X282500Y287500D02*
D03*
X216800Y285000D02*
D03*
X205800Y290000D02*
D03*
X221800D02*
D03*
X175500Y228500D02*
D03*
Y268500D02*
D03*
Y148500D02*
D03*
Y188500D02*
D03*
X210000Y266000D02*
D03*
Y226000D02*
D03*
Y146000D02*
D03*
Y186000D02*
D03*
X154000Y152500D02*
D03*
Y162500D02*
D03*
Y182500D02*
D03*
Y242500D02*
D03*
Y252500D02*
D03*
Y262500D02*
D03*
Y272500D02*
D03*
X294000Y134000D02*
D03*
X286500Y137500D02*
D03*
X278000Y158000D02*
D03*
X285500Y154500D02*
D03*
X294000Y174000D02*
D03*
X286500Y177500D02*
D03*
X278000Y198000D02*
D03*
X285500Y194500D02*
D03*
X294000Y214000D02*
D03*
X286500Y217500D02*
D03*
X259000Y266000D02*
D03*
X215000Y150000D02*
D03*
X211500Y163500D02*
D03*
Y203500D02*
D03*
Y243500D02*
D03*
Y283500D02*
D03*
X172500Y166000D02*
D03*
Y206000D02*
D03*
Y246000D02*
D03*
X285500Y234500D02*
D03*
X278000Y238000D02*
D03*
X294000Y254000D02*
D03*
X286500Y257500D02*
D03*
X282000Y274000D02*
D03*
Y282000D02*
D03*
X390000Y130000D02*
D03*
Y138000D02*
D03*
X382000Y154000D02*
D03*
Y162000D02*
D03*
X390000Y170000D02*
D03*
X382000Y202000D02*
D03*
X390000Y178000D02*
D03*
X382000Y194000D02*
D03*
X390000Y210000D02*
D03*
Y218000D02*
D03*
X382000Y234000D02*
D03*
Y242000D02*
D03*
Y274000D02*
D03*
Y282000D02*
D03*
X390000Y250000D02*
D03*
Y258000D02*
D03*
X358000Y142000D02*
D03*
Y150000D02*
D03*
Y182000D02*
D03*
Y190000D02*
D03*
Y222000D02*
D03*
Y230000D02*
D03*
Y270000D02*
D03*
Y262000D02*
D03*
X215000Y142000D02*
D03*
Y182000D02*
D03*
Y190000D02*
D03*
Y222000D02*
D03*
Y230000D02*
D03*
Y262000D02*
D03*
Y270000D02*
D03*
X154000Y172500D02*
D03*
D53*
X298000Y266000D02*
D03*
Y226000D02*
D03*
X299000Y186000D02*
D03*
Y146000D02*
D03*
X215000D02*
D03*
Y186000D02*
D03*
Y226000D02*
D03*
Y266000D02*
D03*
X398500Y146000D02*
D03*
Y186000D02*
D03*
Y226000D02*
D03*
X398000Y266000D02*
D03*
X358000Y146000D02*
D03*
Y266000D02*
D03*
Y226000D02*
D03*
Y186000D02*
D03*
M02*
