G04*
G04 #@! TF.GenerationSoftware,Altium Limited,Altium Designer,20.2.6 (244)*
G04*
G04 Layer_Physical_Order=4*
G04 Layer_Color=16711680*
%FSLAX25Y25*%
%MOIN*%
G70*
G04*
G04 #@! TF.SameCoordinates,92151F8D-A914-4CFD-8B26-E94C02A97E6A*
G04*
G04*
G04 #@! TF.FilePolarity,Positive*
G04*
G01*
G75*
%ADD20C,0.03937*%
%ADD22R,0.03150X0.03740*%
%ADD23R,0.03543X0.03937*%
%ADD33C,0.12500*%
%ADD34C,0.06265*%
%ADD35R,0.06265X0.06265*%
%ADD40C,0.02500*%
%ADD43C,0.00950*%
%ADD44C,0.01150*%
%ADD45C,0.02000*%
%ADD46O,0.03740X0.06102*%
%ADD47O,0.05118X0.03740*%
%ADD48C,0.23622*%
%ADD49R,0.06000X0.06000*%
%ADD50C,0.06000*%
%ADD51C,0.02362*%
%ADD52C,0.02025*%
%ADD54R,0.05906X0.06102*%
%ADD55R,0.01378X0.05315*%
%ADD56C,0.01500*%
G36*
X426980Y281571D02*
X426917Y281511D01*
X425032Y281263D01*
X424968Y281241D01*
X424901Y281237D01*
X423065Y280745D01*
X423005Y280715D01*
X422939Y280702D01*
X421183Y279975D01*
X421127Y279937D01*
X421063Y279916D01*
X419417Y278965D01*
X419367Y278921D01*
X419306Y278891D01*
X417798Y277734D01*
X417754Y277683D01*
X417698Y277646D01*
X416354Y276302D01*
X416317Y276246D01*
X416266Y276202D01*
X415109Y274694D01*
X415079Y274633D01*
X415035Y274583D01*
X414084Y272937D01*
X414063Y272873D01*
X414025Y272817D01*
X413919Y272559D01*
X413899Y272461D01*
X413861Y272368D01*
Y272268D01*
X413841Y272169D01*
X413497Y271702D01*
X413267Y271533D01*
X413213Y271504D01*
X359372D01*
X358785Y271896D01*
X358000Y272052D01*
X357215Y271896D01*
X356549Y271451D01*
X356104Y270785D01*
X355948Y270000D01*
X356104Y269215D01*
X356518Y268595D01*
X356548Y268529D01*
X356499Y267620D01*
X356428Y267572D01*
X355945Y266851D01*
X355776Y266000D01*
X355945Y265149D01*
X356428Y264427D01*
X356499Y264380D01*
X356548Y263471D01*
X356518Y263405D01*
X356104Y262785D01*
X355948Y262000D01*
X356104Y261215D01*
X356549Y260549D01*
X357215Y260104D01*
X358000Y259948D01*
X358785Y260104D01*
X359372Y260496D01*
X413213D01*
X413267Y260467D01*
X413497Y260298D01*
X413841Y259831D01*
X413861Y259732D01*
Y259632D01*
X413899Y259539D01*
X413919Y259441D01*
X414025Y259183D01*
X414063Y259127D01*
X414084Y259063D01*
X415035Y257417D01*
X415079Y257367D01*
X415109Y257306D01*
X416266Y255798D01*
X416317Y255754D01*
X416354Y255698D01*
X417698Y254354D01*
X417754Y254317D01*
X417798Y254266D01*
X419306Y253109D01*
X419367Y253079D01*
X419417Y253035D01*
X421063Y252084D01*
X421127Y252063D01*
X421183Y252026D01*
X422939Y251298D01*
X423005Y251285D01*
X423065Y251255D01*
X424901Y250763D01*
X424968Y250759D01*
X425032Y250737D01*
X426917Y250489D01*
X426980Y250429D01*
X426980Y241571D01*
X426917Y241511D01*
X425032Y241263D01*
X424968Y241241D01*
X424901Y241237D01*
X423065Y240745D01*
X423005Y240715D01*
X422939Y240702D01*
X421183Y239975D01*
X421127Y239937D01*
X421063Y239916D01*
X419417Y238965D01*
X419367Y238921D01*
X419306Y238891D01*
X417798Y237734D01*
X417754Y237683D01*
X417698Y237646D01*
X416354Y236302D01*
X416317Y236246D01*
X416266Y236202D01*
X415109Y234694D01*
X415079Y234633D01*
X415035Y234583D01*
X414084Y232937D01*
X414063Y232873D01*
X414025Y232817D01*
X413919Y232559D01*
X413899Y232461D01*
X413861Y232368D01*
Y232268D01*
X413841Y232169D01*
X413497Y231702D01*
X413267Y231533D01*
X413213Y231504D01*
X359372D01*
X358785Y231896D01*
X358000Y232052D01*
X357215Y231896D01*
X356549Y231451D01*
X356104Y230785D01*
X355948Y230000D01*
X356104Y229215D01*
X356518Y228595D01*
X356548Y228529D01*
X356499Y227620D01*
X356428Y227572D01*
X355945Y226851D01*
X355776Y226000D01*
X355945Y225149D01*
X356428Y224428D01*
X356499Y224380D01*
X356548Y223471D01*
X356518Y223405D01*
X356104Y222785D01*
X355948Y222000D01*
X356104Y221215D01*
X356549Y220549D01*
X357215Y220104D01*
X358000Y219948D01*
X358785Y220104D01*
X359372Y220496D01*
X413213D01*
X413267Y220467D01*
X413497Y220298D01*
X413841Y219831D01*
X413861Y219732D01*
Y219632D01*
X413899Y219539D01*
X413919Y219441D01*
X414025Y219183D01*
X414063Y219127D01*
X414084Y219063D01*
X415035Y217417D01*
X415079Y217367D01*
X415109Y217306D01*
X416266Y215798D01*
X416317Y215754D01*
X416354Y215698D01*
X417698Y214354D01*
X417754Y214317D01*
X417798Y214266D01*
X419306Y213109D01*
X419367Y213079D01*
X419417Y213035D01*
X421063Y212084D01*
X421127Y212063D01*
X421183Y212025D01*
X422939Y211298D01*
X423005Y211285D01*
X423065Y211255D01*
X424901Y210763D01*
X424968Y210759D01*
X425032Y210737D01*
X426917Y210489D01*
X426980Y210429D01*
X426980Y201571D01*
X426917Y201511D01*
X425032Y201263D01*
X424968Y201241D01*
X424901Y201237D01*
X423065Y200745D01*
X423005Y200715D01*
X422939Y200702D01*
X421183Y199975D01*
X421127Y199937D01*
X421063Y199916D01*
X419417Y198965D01*
X419367Y198921D01*
X419306Y198891D01*
X417798Y197734D01*
X417754Y197683D01*
X417698Y197646D01*
X416354Y196302D01*
X416317Y196246D01*
X416266Y196202D01*
X415109Y194694D01*
X415079Y194633D01*
X415035Y194583D01*
X414084Y192937D01*
X414063Y192873D01*
X414025Y192817D01*
X413919Y192559D01*
X413899Y192461D01*
X413861Y192368D01*
Y192268D01*
X413841Y192169D01*
X413497Y191702D01*
X413267Y191533D01*
X413213Y191504D01*
X359372D01*
X358785Y191896D01*
X358000Y192052D01*
X357215Y191896D01*
X356549Y191451D01*
X356104Y190785D01*
X355948Y190000D01*
X356104Y189215D01*
X356518Y188595D01*
X356548Y188529D01*
X356499Y187620D01*
X356428Y187573D01*
X355945Y186851D01*
X355776Y186000D01*
X355945Y185149D01*
X356428Y184427D01*
X356499Y184380D01*
X356548Y183471D01*
X356518Y183405D01*
X356104Y182785D01*
X355948Y182000D01*
X356104Y181215D01*
X356549Y180549D01*
X357215Y180104D01*
X358000Y179948D01*
X358785Y180104D01*
X359372Y180496D01*
X413213D01*
X413267Y180467D01*
X413497Y180298D01*
X413841Y179831D01*
X413861Y179732D01*
Y179632D01*
X413899Y179539D01*
X413919Y179441D01*
X414025Y179183D01*
X414063Y179127D01*
X414084Y179063D01*
X415035Y177417D01*
X415079Y177367D01*
X415109Y177306D01*
X416266Y175798D01*
X416317Y175754D01*
X416354Y175698D01*
X417698Y174354D01*
X417754Y174317D01*
X417798Y174266D01*
X419306Y173109D01*
X419367Y173079D01*
X419417Y173035D01*
X421063Y172084D01*
X421127Y172063D01*
X421183Y172026D01*
X422939Y171298D01*
X423005Y171285D01*
X423065Y171255D01*
X424901Y170763D01*
X424968Y170759D01*
X425032Y170737D01*
X426917Y170489D01*
X426980Y170429D01*
X426980Y161571D01*
X426917Y161511D01*
X425032Y161263D01*
X424968Y161241D01*
X424901Y161237D01*
X423065Y160745D01*
X423005Y160715D01*
X422939Y160702D01*
X421183Y159975D01*
X421127Y159937D01*
X421063Y159916D01*
X419417Y158965D01*
X419367Y158921D01*
X419306Y158891D01*
X417798Y157734D01*
X417754Y157683D01*
X417698Y157646D01*
X416354Y156302D01*
X416317Y156246D01*
X416266Y156202D01*
X415109Y154694D01*
X415079Y154633D01*
X415035Y154583D01*
X414084Y152937D01*
X414063Y152873D01*
X414025Y152817D01*
X413919Y152559D01*
X413899Y152461D01*
X413861Y152368D01*
Y152268D01*
X413841Y152169D01*
X413497Y151702D01*
X413267Y151533D01*
X413213Y151504D01*
X359372D01*
X358785Y151896D01*
X358000Y152052D01*
X357215Y151896D01*
X356549Y151451D01*
X356104Y150785D01*
X355948Y150000D01*
X356104Y149215D01*
X356518Y148595D01*
X356548Y148529D01*
X356499Y147620D01*
X356428Y147573D01*
X355945Y146851D01*
X355776Y146000D01*
X355945Y145149D01*
X356428Y144428D01*
X356499Y144380D01*
X356548Y143471D01*
X356518Y143405D01*
X356104Y142785D01*
X355948Y142000D01*
X356104Y141215D01*
X356549Y140549D01*
X357215Y140104D01*
X358000Y139948D01*
X358785Y140104D01*
X359372Y140496D01*
X413213D01*
X413267Y140467D01*
X413497Y140298D01*
X413841Y139831D01*
X413861Y139732D01*
Y139632D01*
X413899Y139539D01*
X413919Y139441D01*
X414025Y139183D01*
X414063Y139127D01*
X414084Y139063D01*
X415035Y137417D01*
X415079Y137367D01*
X415109Y137306D01*
X416266Y135798D01*
X416317Y135754D01*
X416354Y135698D01*
X417698Y134354D01*
X417754Y134317D01*
X417798Y134266D01*
X419306Y133109D01*
X419367Y133079D01*
X419417Y133035D01*
X421063Y132084D01*
X421127Y132063D01*
X421183Y132026D01*
X422939Y131298D01*
X423005Y131285D01*
X423065Y131255D01*
X424901Y130763D01*
X424968Y130759D01*
X425032Y130737D01*
X426917Y130489D01*
X426980Y130429D01*
Y119539D01*
X192500D01*
Y295461D01*
X229155D01*
X232558Y292058D01*
X232915Y291820D01*
X232982Y291723D01*
X233132Y290976D01*
X233110Y290822D01*
X232730Y290326D01*
X232327Y289354D01*
X232190Y288311D01*
Y285949D01*
X232327Y284906D01*
X232730Y283934D01*
X233370Y283099D01*
X234181Y282477D01*
Y279309D01*
X234336Y278528D01*
X234778Y277867D01*
X235520Y277125D01*
X235438Y276500D01*
X235575Y275457D01*
X235978Y274485D01*
X236618Y273650D01*
X237453Y273009D01*
X238425Y272607D01*
X239469Y272469D01*
X240846D01*
X241890Y272607D01*
X242403Y272819D01*
X243193Y272843D01*
X243193Y272843D01*
X243193Y272843D01*
X244382D01*
Y274593D01*
X244740Y275457D01*
X244877Y276500D01*
X244740Y277543D01*
X244382Y278407D01*
Y280157D01*
X243193D01*
X243193Y280157D01*
Y280157D01*
X242403Y280181D01*
X241890Y280393D01*
X240846Y280531D01*
X239469D01*
X239060Y280477D01*
X238260Y281151D01*
Y282477D01*
X239019Y283059D01*
X240826D01*
X240925Y283039D01*
X240945D01*
X241310Y283112D01*
X241342Y283117D01*
X242110Y283079D01*
X242110Y283079D01*
X257890D01*
Y283079D01*
X258658Y283136D01*
X258690Y283132D01*
X259055Y283059D01*
X260981D01*
X261740Y282477D01*
Y281151D01*
X260940Y280477D01*
X260531Y280531D01*
X259154D01*
X258110Y280393D01*
X257597Y280181D01*
X256807Y280157D01*
X256807Y280157D01*
X256807Y280157D01*
X245382D01*
Y276500D01*
Y272843D01*
X253350D01*
Y270969D01*
X252422D01*
X252378Y270969D01*
X251622D01*
X251578Y270969D01*
X249350D01*
Y268000D01*
Y265032D01*
X251578D01*
X251622Y265032D01*
X252378D01*
X252422Y265032D01*
X255234D01*
X255703Y264563D01*
X256364Y264121D01*
X257145Y263966D01*
X258912D01*
X259000Y263948D01*
X259785Y264104D01*
X260451Y264549D01*
X260896Y265215D01*
X261052Y266000D01*
X260896Y266785D01*
X260451Y267451D01*
X259785Y267896D01*
X259000Y268052D01*
X258960Y268044D01*
X257990D01*
X257921Y268112D01*
Y270969D01*
X256918D01*
Y272235D01*
X257718Y272769D01*
X258110Y272607D01*
X259154Y272469D01*
X260531D01*
X261575Y272607D01*
X262547Y273009D01*
X263382Y273650D01*
X264022Y274485D01*
X264425Y275457D01*
X264562Y276500D01*
X264480Y277125D01*
X265222Y277867D01*
X265664Y278528D01*
X265819Y279309D01*
X265819Y279309D01*
Y282477D01*
X266630Y283099D01*
X267270Y283934D01*
X267673Y284906D01*
X267722Y285276D01*
X269079D01*
Y284531D01*
X274578D01*
X274622Y284531D01*
X275378D01*
X275422Y284531D01*
X280921D01*
Y285461D01*
X282436D01*
X282500Y285448D01*
X283285Y285604D01*
X283951Y286049D01*
X284396Y286715D01*
X284552Y287500D01*
X284396Y288285D01*
X283951Y288951D01*
X283285Y289396D01*
X282500Y289552D01*
X282436Y289539D01*
X280921D01*
Y290469D01*
X275422D01*
X275378Y290469D01*
X274622D01*
X274578Y290469D01*
X269079D01*
Y289354D01*
X267673D01*
X267673Y289354D01*
X267270Y290326D01*
X266890Y290822D01*
X266868Y290976D01*
X267018Y291723D01*
X267085Y291820D01*
X267442Y292058D01*
X270845Y295461D01*
X426980D01*
X426980Y281571D01*
D02*
G37*
G36*
X240945Y284059D02*
X240925D01*
Y284079D01*
X236221D01*
X236118Y284081D01*
X236015Y284089D01*
X235912Y284103D01*
X235811Y284122D01*
X235711Y284146D01*
X235612Y284175D01*
X235515Y284209D01*
X235420Y284249D01*
X235327Y284293D01*
X235236Y284343D01*
X235148Y284396D01*
X235063Y284455D01*
X234982Y284517D01*
X234903Y284584D01*
X234828Y284655D01*
X234758Y284730D01*
X234691Y284808D01*
X234628Y284890D01*
X234570Y284975D01*
X234516Y285063D01*
X234467Y285154D01*
X234422Y285247D01*
X234383Y285342D01*
X234348Y285439D01*
X234319Y285538D01*
X234295Y285638D01*
X234276Y285739D01*
X234263Y285841D01*
X234255Y285944D01*
X234252Y286047D01*
Y288213D01*
X234255Y288320D01*
X234263Y288423D01*
X234276Y288525D01*
X234295Y288626D01*
X234319Y288726D01*
X234348Y288824D01*
X234382Y288921D01*
X234422Y289016D01*
X234466Y289109D01*
X234515Y289199D01*
X234569Y289287D01*
X234627Y289372D01*
X234690Y289453D01*
X234756Y289531D01*
X234827Y289606D01*
X234902Y289677D01*
X234980Y289743D01*
X235061Y289806D01*
X235146Y289864D01*
X235234Y289918D01*
X235324Y289967D01*
X235417Y290011D01*
X235512Y290051D01*
X235609Y290085D01*
X235707Y290114D01*
X235807Y290138D01*
X235908Y290157D01*
X236010Y290170D01*
X236113Y290178D01*
X236211Y290181D01*
Y289394D01*
X236164Y289392D01*
X236113Y289388D01*
X236062Y289382D01*
X236012Y289372D01*
X235962Y289360D01*
X235913Y289346D01*
X235865Y289329D01*
X235817Y289309D01*
X235771Y289287D01*
X235726Y289263D01*
X235682Y289236D01*
X235640Y289207D01*
X235599Y289176D01*
X235560Y289142D01*
X235523Y289107D01*
X235488Y289070D01*
X235455Y289031D01*
X235423Y288990D01*
X235394Y288948D01*
X235367Y288904D01*
X235343Y288859D01*
X235321Y288813D01*
X235301Y288765D01*
X235284Y288717D01*
X235270Y288668D01*
X235258Y288618D01*
X235248Y288568D01*
X235242Y288517D01*
X235238Y288466D01*
X235236Y288409D01*
Y285850D01*
X235238Y285799D01*
X235242Y285748D01*
X235248Y285696D01*
X235258Y285646D01*
X235270Y285596D01*
X235284Y285546D01*
X235302Y285498D01*
X235321Y285450D01*
X235344Y285403D01*
X235368Y285358D01*
X235395Y285314D01*
X235424Y285272D01*
X235456Y285231D01*
X235489Y285192D01*
X235525Y285154D01*
X235562Y285119D01*
X235601Y285086D01*
X235642Y285054D01*
X235684Y285025D01*
X235728Y284998D01*
X235774Y284973D01*
X235820Y284951D01*
X235868Y284931D01*
X235916Y284914D01*
X235966Y284900D01*
X236016Y284888D01*
X236067Y284878D01*
X236118Y284872D01*
X236169Y284868D01*
X236221Y284866D01*
X236272Y284868D01*
X236323Y284872D01*
X236374Y284878D01*
X236425Y284888D01*
X236475Y284900D01*
X236525Y284914D01*
X236573Y284931D01*
X236621Y284951D01*
X236667Y284973D01*
X236713Y284998D01*
X236756Y285025D01*
X236799Y285054D01*
X236840Y285086D01*
X236879Y285119D01*
X236916Y285154D01*
X236952Y285192D01*
X236985Y285231D01*
X237017Y285272D01*
X237046Y285314D01*
X237073Y285358D01*
X237097Y285403D01*
X237120Y285450D01*
X237139Y285498D01*
X237157Y285546D01*
X237171Y285596D01*
X237183Y285646D01*
X237193Y285696D01*
X237199Y285748D01*
X237203Y285799D01*
X237205Y285850D01*
Y285890D01*
Y288370D01*
Y288409D01*
X237203Y288466D01*
X237199Y288517D01*
X237193Y288568D01*
X237183Y288618D01*
X237171Y288668D01*
X237157Y288717D01*
X237140Y288765D01*
X237120Y288813D01*
X237098Y288859D01*
X237073Y288904D01*
X237047Y288948D01*
X237018Y288990D01*
X236986Y289031D01*
X236953Y289070D01*
X236918Y289107D01*
X236881Y289142D01*
X236842Y289176D01*
X236801Y289207D01*
X236759Y289236D01*
X236715Y289263D01*
X236670Y289287D01*
X236624Y289309D01*
X236576Y289329D01*
X236528Y289346D01*
X236479Y289360D01*
X236429Y289372D01*
X236379Y289382D01*
X236328Y289388D01*
X236277Y289392D01*
X236230Y289394D01*
Y290181D01*
X240945D01*
Y284059D01*
D02*
G37*
G36*
X191480Y256689D02*
X190772Y256469D01*
X190680Y256469D01*
X189606D01*
Y258130D01*
X190575D01*
Y263870D01*
X186060D01*
X185425Y263870D01*
X184625Y263870D01*
X180110D01*
Y262606D01*
X178081D01*
X177606Y263406D01*
X177724Y264000D01*
X177555Y264851D01*
X177073Y265573D01*
X176351Y266055D01*
X175500Y266224D01*
X174649Y266055D01*
X173927Y265573D01*
X173445Y264851D01*
X173276Y264000D01*
X172575Y263509D01*
X172295Y263476D01*
X157135Y278636D01*
X156614Y278984D01*
X156000Y279106D01*
X130126D01*
Y282626D01*
X119874D01*
Y280883D01*
X119074Y280611D01*
X118656Y281156D01*
X117585Y281978D01*
X116338Y282494D01*
X115000Y282670D01*
X113662Y282494D01*
X112415Y281978D01*
X111344Y281156D01*
X110522Y280085D01*
X110006Y278838D01*
X109830Y277500D01*
X110006Y276162D01*
X110522Y274915D01*
X111344Y273844D01*
X112415Y273023D01*
X112631Y272933D01*
Y272067D01*
X112415Y271977D01*
X111344Y271156D01*
X110522Y270085D01*
X110006Y268838D01*
X109830Y267500D01*
X110006Y266162D01*
X110522Y264915D01*
X111344Y263844D01*
X112415Y263022D01*
X112631Y262933D01*
Y262067D01*
X112415Y261978D01*
X111344Y261156D01*
X110522Y260085D01*
X110006Y258838D01*
X109830Y257500D01*
X110006Y256162D01*
X110522Y254915D01*
X111344Y253844D01*
X112415Y253023D01*
X112631Y252933D01*
Y252067D01*
X112415Y251977D01*
X111344Y251156D01*
X110522Y250085D01*
X110006Y248838D01*
X109830Y247500D01*
X110006Y246162D01*
X110522Y244915D01*
X111344Y243844D01*
X112415Y243022D01*
X112631Y242933D01*
Y242067D01*
X112415Y241978D01*
X111344Y241156D01*
X110522Y240085D01*
X110006Y238838D01*
X109830Y237500D01*
X110006Y236162D01*
X110522Y234915D01*
X111344Y233844D01*
X112415Y233022D01*
X113662Y232506D01*
X115000Y232330D01*
X116338Y232506D01*
X117585Y233022D01*
X118656Y233844D01*
X119477Y234915D01*
X119567Y235131D01*
X120433D01*
X120522Y234915D01*
X121344Y233844D01*
X122415Y233022D01*
X123662Y232506D01*
X125000Y232330D01*
X126338Y232506D01*
X127585Y233022D01*
X128656Y233844D01*
X129478Y234915D01*
X129994Y236162D01*
X130170Y237500D01*
X129994Y238838D01*
X129478Y240085D01*
X128656Y241156D01*
X127585Y241978D01*
X127369Y242067D01*
Y242933D01*
X127585Y243022D01*
X128656Y243844D01*
X129478Y244915D01*
X129994Y246162D01*
X130170Y247500D01*
X129994Y248838D01*
X129806Y249291D01*
X130485Y249744D01*
X138865Y241365D01*
X139385Y241016D01*
X140000Y240894D01*
X141268D01*
Y239630D01*
X145783D01*
X146417Y239630D01*
X147217Y239630D01*
X151732D01*
Y240894D01*
X152781D01*
X153215Y240604D01*
X154000Y240448D01*
X154785Y240604D01*
X155451Y241049D01*
X155896Y241715D01*
X156052Y242500D01*
X155896Y243285D01*
X155451Y243951D01*
X154785Y244396D01*
X154000Y244552D01*
X153215Y244396D01*
X152781Y244106D01*
X151732D01*
Y245370D01*
X147217D01*
X146583Y245370D01*
X145783Y245370D01*
X141268D01*
Y244583D01*
X140468Y244303D01*
X131135Y253636D01*
X130614Y253984D01*
X130000Y254106D01*
X129761D01*
X129407Y254823D01*
X129478Y254915D01*
X129883Y255894D01*
X134335D01*
X138865Y251364D01*
X139385Y251016D01*
X140000Y250894D01*
X141268D01*
Y249630D01*
X145783D01*
X146417Y249630D01*
X147217Y249630D01*
X151732D01*
Y250894D01*
X152781D01*
X153215Y250604D01*
X154000Y250448D01*
X154785Y250604D01*
X155451Y251049D01*
X155896Y251715D01*
X156052Y252500D01*
X155896Y253285D01*
X155451Y253951D01*
X154785Y254396D01*
X154000Y254552D01*
X153215Y254396D01*
X152781Y254106D01*
X151732D01*
Y255370D01*
X147217D01*
X146583Y255370D01*
X145783Y255370D01*
X141268D01*
Y254583D01*
X140468Y254303D01*
X136135Y258635D01*
X135615Y258984D01*
X135000Y259106D01*
X129883D01*
X129478Y260085D01*
X128656Y261156D01*
X127585Y261978D01*
X127369Y262067D01*
Y262933D01*
X127585Y263022D01*
X128656Y263844D01*
X129478Y264915D01*
X129883Y265894D01*
X134335D01*
X138865Y261365D01*
X139385Y261016D01*
X140000Y260894D01*
X140768D01*
Y259630D01*
X145283D01*
X145917Y259630D01*
X146717Y259630D01*
X151232D01*
Y260894D01*
X152781D01*
X153215Y260604D01*
X154000Y260448D01*
X154785Y260604D01*
X155451Y261049D01*
X155896Y261715D01*
X156052Y262500D01*
X155896Y263285D01*
X155451Y263951D01*
X154785Y264396D01*
X154000Y264552D01*
X153215Y264396D01*
X152781Y264106D01*
X151232D01*
Y265370D01*
X146717D01*
X146083Y265370D01*
X145283Y265370D01*
X140768D01*
Y265135D01*
X139968Y264803D01*
X136135Y268636D01*
X135615Y268984D01*
X135000Y269106D01*
X129883D01*
X129478Y270085D01*
X129407Y270177D01*
X129761Y270894D01*
X140768D01*
Y269630D01*
X145283D01*
X145917Y269630D01*
X146717Y269630D01*
X151232D01*
Y270894D01*
X152781D01*
X153215Y270604D01*
X154000Y270448D01*
X154785Y270604D01*
X155451Y271049D01*
X155896Y271715D01*
X156052Y272500D01*
X155896Y273285D01*
X155451Y273951D01*
X154785Y274396D01*
X154000Y274552D01*
X153215Y274396D01*
X152781Y274106D01*
X151798D01*
X151295Y274608D01*
X151310Y275440D01*
X151815Y275894D01*
X155335D01*
X170024Y261205D01*
X169991Y260925D01*
X169500Y260224D01*
X168649Y260055D01*
X167928Y259573D01*
X167446Y258851D01*
X167276Y258000D01*
X167446Y257149D01*
X167928Y256428D01*
X168649Y255945D01*
X169500Y255776D01*
X170351Y255945D01*
X171072Y256428D01*
X171555Y257149D01*
X171724Y258000D01*
X171664Y258299D01*
X172345Y258979D01*
X172500Y258948D01*
X173285Y259104D01*
X173719Y259394D01*
X180110D01*
Y258130D01*
X184625D01*
X185260Y258130D01*
X185828Y258130D01*
X186394Y257564D01*
Y256469D01*
X185273D01*
X185228Y256469D01*
X184472D01*
X184428Y256469D01*
X178929D01*
Y255539D01*
X175564D01*
X175500Y255552D01*
X174715Y255396D01*
X174049Y254951D01*
X173604Y254285D01*
X173448Y253500D01*
X173604Y252715D01*
X174049Y252049D01*
X174715Y251604D01*
X175500Y251448D01*
X175564Y251461D01*
X178929D01*
Y250532D01*
X184428D01*
X184472Y250532D01*
X185228D01*
X185273Y250532D01*
X190680D01*
X190772Y250532D01*
X191480Y250311D01*
Y216689D01*
X190772Y216469D01*
X190680Y216469D01*
X189606D01*
Y218130D01*
X190575D01*
Y223870D01*
X186060D01*
X185425Y223870D01*
X184625Y223870D01*
X180110D01*
Y222606D01*
X175362D01*
X174766Y223187D01*
X174696Y223361D01*
X174724Y223500D01*
X174555Y224351D01*
X174073Y225073D01*
X173351Y225555D01*
X172500Y225724D01*
X171649Y225555D01*
X170928Y225073D01*
X170446Y224351D01*
X170276Y223500D01*
X170446Y222649D01*
X170928Y221927D01*
X171649Y221445D01*
X171785Y220603D01*
X171715Y220396D01*
X171049Y219951D01*
X170604Y219285D01*
X170448Y218500D01*
X170604Y217715D01*
X171049Y217049D01*
X171715Y216604D01*
X172500Y216448D01*
X173285Y216604D01*
X173951Y217049D01*
X174396Y217715D01*
X174497Y218227D01*
X175665Y219394D01*
X180110D01*
Y218130D01*
X184625D01*
X185260Y218130D01*
X185828Y218130D01*
X186394Y217564D01*
Y216469D01*
X185273D01*
X185228Y216469D01*
X184472D01*
X184428Y216469D01*
X178929D01*
Y215539D01*
X175564D01*
X175500Y215552D01*
X174715Y215396D01*
X174049Y214951D01*
X173604Y214285D01*
X173448Y213500D01*
X173604Y212715D01*
X174049Y212049D01*
X174715Y211604D01*
X175500Y211448D01*
X175564Y211461D01*
X178929D01*
Y210531D01*
X184428D01*
X184472Y210531D01*
X185228D01*
X185273Y210531D01*
X190680D01*
X190772Y210531D01*
X191480Y210311D01*
Y176689D01*
X190772Y176469D01*
X190680Y176469D01*
X189606D01*
Y178130D01*
X190575D01*
Y183870D01*
X186060D01*
X185425Y183870D01*
X184625Y183870D01*
X180110D01*
Y182606D01*
X178081D01*
X177606Y183406D01*
X177724Y184000D01*
X177555Y184851D01*
X177073Y185573D01*
X176351Y186055D01*
X175500Y186224D01*
X174649Y186055D01*
X173927Y185573D01*
X173445Y184851D01*
X173276Y184000D01*
X172575Y183509D01*
X172295Y183476D01*
X167136Y188636D01*
X166614Y188984D01*
X166000Y189106D01*
X130126D01*
Y192626D01*
X119874D01*
Y190883D01*
X119074Y190611D01*
X118656Y191156D01*
X117585Y191978D01*
X116338Y192494D01*
X115000Y192670D01*
X113662Y192494D01*
X112415Y191978D01*
X111344Y191156D01*
X110522Y190085D01*
X110006Y188838D01*
X109830Y187500D01*
X110006Y186162D01*
X110522Y184915D01*
X111344Y183844D01*
X112415Y183022D01*
X112631Y182933D01*
Y182067D01*
X112415Y181977D01*
X111344Y181156D01*
X110522Y180085D01*
X110006Y178838D01*
X109830Y177500D01*
X110006Y176162D01*
X110522Y174915D01*
X111344Y173844D01*
X112415Y173022D01*
X112631Y172933D01*
Y172067D01*
X112415Y171977D01*
X111344Y171156D01*
X110522Y170085D01*
X110006Y168838D01*
X109830Y167500D01*
X110006Y166162D01*
X110522Y164915D01*
X111344Y163844D01*
X112415Y163022D01*
X112631Y162933D01*
Y162067D01*
X112415Y161978D01*
X111344Y161156D01*
X110522Y160085D01*
X110006Y158838D01*
X109830Y157500D01*
X110006Y156162D01*
X110522Y154915D01*
X111344Y153844D01*
X112415Y153023D01*
X112631Y152933D01*
Y152067D01*
X112415Y151978D01*
X111344Y151156D01*
X110522Y150085D01*
X110006Y148838D01*
X109830Y147500D01*
X110006Y146162D01*
X110522Y144915D01*
X111344Y143844D01*
X112415Y143023D01*
X113662Y142506D01*
X115000Y142330D01*
X116338Y142506D01*
X117585Y143023D01*
X118656Y143844D01*
X119477Y144915D01*
X119567Y145131D01*
X120433D01*
X120522Y144915D01*
X121344Y143844D01*
X122415Y143023D01*
X123662Y142506D01*
X125000Y142330D01*
X126338Y142506D01*
X127585Y143023D01*
X128656Y143844D01*
X129478Y144915D01*
X129994Y146162D01*
X130170Y147500D01*
X129994Y148838D01*
X129478Y150085D01*
X128656Y151156D01*
X127585Y151978D01*
X127369Y152067D01*
Y152933D01*
X127585Y153023D01*
X128656Y153844D01*
X129478Y154915D01*
X129994Y156162D01*
X130170Y157500D01*
X129994Y158838D01*
X129806Y159291D01*
X130485Y159744D01*
X138865Y151365D01*
X139385Y151016D01*
X140000Y150894D01*
X140768D01*
Y149630D01*
X145283D01*
X145917Y149630D01*
X146717Y149630D01*
X151232D01*
Y150894D01*
X152781D01*
X153215Y150604D01*
X154000Y150448D01*
X154785Y150604D01*
X155451Y151049D01*
X155896Y151715D01*
X156052Y152500D01*
X155896Y153285D01*
X155451Y153951D01*
X154785Y154396D01*
X154000Y154552D01*
X153215Y154396D01*
X152781Y154106D01*
X151232D01*
Y155370D01*
X146717D01*
X146083Y155370D01*
X145283Y155370D01*
X140768D01*
Y155135D01*
X139968Y154803D01*
X131135Y163636D01*
X130614Y163984D01*
X130000Y164106D01*
X129761D01*
X129407Y164823D01*
X129478Y164915D01*
X129883Y165894D01*
X134335D01*
X138865Y161364D01*
X139385Y161016D01*
X140000Y160894D01*
X140768D01*
Y159630D01*
X145283D01*
X145917Y159630D01*
X146717Y159630D01*
X151232D01*
Y160894D01*
X152781D01*
X153215Y160604D01*
X154000Y160448D01*
X154785Y160604D01*
X155451Y161049D01*
X155896Y161715D01*
X156052Y162500D01*
X155896Y163285D01*
X155451Y163951D01*
X154785Y164396D01*
X154000Y164552D01*
X153215Y164396D01*
X152781Y164106D01*
X151232D01*
Y165370D01*
X146717D01*
X146083Y165370D01*
X145283Y165370D01*
X140768D01*
Y165135D01*
X139968Y164803D01*
X136135Y168635D01*
X135615Y168984D01*
X135000Y169106D01*
X129883D01*
X129478Y170085D01*
X128656Y171156D01*
X127585Y171977D01*
X127369Y172067D01*
Y172933D01*
X127585Y173022D01*
X128656Y173844D01*
X129478Y174915D01*
X129883Y175894D01*
X134335D01*
X138865Y171364D01*
X139385Y171016D01*
X140000Y170894D01*
X141268D01*
Y169630D01*
X145783D01*
X146417Y169630D01*
X147217Y169630D01*
X151732D01*
Y170894D01*
X152781D01*
X153215Y170604D01*
X154000Y170448D01*
X154785Y170604D01*
X155451Y171049D01*
X155896Y171715D01*
X156052Y172500D01*
X155896Y173285D01*
X155451Y173951D01*
X154785Y174396D01*
X154000Y174552D01*
X153215Y174396D01*
X152781Y174106D01*
X151732D01*
Y175370D01*
X147217D01*
X146583Y175370D01*
X145783Y175370D01*
X141268D01*
Y174583D01*
X140468Y174303D01*
X136135Y178636D01*
X135615Y178984D01*
X135000Y179106D01*
X129883D01*
X129478Y180085D01*
X129407Y180177D01*
X129761Y180894D01*
X141268D01*
Y179630D01*
X145783D01*
X146417Y179630D01*
Y179630D01*
X146583D01*
Y179630D01*
X151732D01*
Y180894D01*
X152781D01*
X153215Y180604D01*
X154000Y180448D01*
X154785Y180604D01*
X155451Y181049D01*
X155896Y181715D01*
X156052Y182500D01*
X155896Y183285D01*
X155451Y183951D01*
X154785Y184396D01*
X154000Y184552D01*
X153215Y184396D01*
X152781Y184106D01*
X151732D01*
Y185370D01*
X152315Y185894D01*
X165335D01*
X170024Y181205D01*
X169991Y180925D01*
X169500Y180224D01*
X168649Y180054D01*
X167928Y179572D01*
X167446Y178851D01*
X167276Y178000D01*
X167446Y177149D01*
X167928Y176427D01*
X168649Y175945D01*
X169500Y175776D01*
X170351Y175945D01*
X171072Y176427D01*
X171555Y177149D01*
X171724Y178000D01*
X171664Y178299D01*
X172345Y178979D01*
X172500Y178948D01*
X173285Y179104D01*
X173719Y179394D01*
X180110D01*
Y178130D01*
X184625D01*
X185260Y178130D01*
X185828Y178130D01*
X186394Y177564D01*
Y176469D01*
X185273D01*
X185228Y176469D01*
X184472D01*
X184428Y176469D01*
X178929D01*
Y175539D01*
X175564D01*
X175500Y175552D01*
X174715Y175396D01*
X174049Y174951D01*
X173604Y174285D01*
X173448Y173500D01*
X173604Y172715D01*
X174049Y172049D01*
X174715Y171604D01*
X175500Y171448D01*
X175564Y171461D01*
X178929D01*
Y170531D01*
X184428D01*
X184472Y170531D01*
X185228D01*
X185273Y170531D01*
X190680D01*
X190772Y170531D01*
X191480Y170311D01*
Y146689D01*
X190772Y146468D01*
X190680Y146468D01*
X185273D01*
X185228Y146468D01*
X184472D01*
X184428Y146468D01*
X178929D01*
Y145539D01*
X175564D01*
X175500Y145552D01*
X174715Y145396D01*
X174049Y144951D01*
X173604Y144285D01*
X173448Y143500D01*
X173604Y142715D01*
X174049Y142049D01*
X174715Y141604D01*
X175500Y141448D01*
X175564Y141461D01*
X178929D01*
Y140532D01*
X184428D01*
X184472Y140532D01*
X185228D01*
X185273Y140532D01*
X186394D01*
Y139436D01*
X185828Y138870D01*
X185425D01*
X184625Y138870D01*
X180110D01*
Y137606D01*
X173719D01*
X173285Y137896D01*
X172500Y138052D01*
X171715Y137896D01*
X171049Y137451D01*
X170604Y136785D01*
X170448Y136000D01*
X170604Y135215D01*
X171049Y134549D01*
X171715Y134104D01*
X172500Y133948D01*
X172941Y134036D01*
X173445Y133351D01*
X173276Y132500D01*
X173445Y131649D01*
X173927Y130928D01*
X174649Y130446D01*
X175500Y130276D01*
X176351Y130446D01*
X177073Y130928D01*
X177555Y131649D01*
X177724Y132500D01*
X177555Y133351D01*
X177392Y133594D01*
X177820Y134394D01*
X180110D01*
Y133130D01*
X184625D01*
X185260Y133130D01*
X186060Y133130D01*
X190575D01*
Y138870D01*
X189606D01*
Y140532D01*
X190680D01*
X190772Y140532D01*
X191480Y140311D01*
Y119539D01*
X110126D01*
X109967Y120339D01*
X110148Y120414D01*
X111244Y121256D01*
X112086Y122352D01*
X112615Y123629D01*
X112795Y125000D01*
X112615Y126371D01*
X112086Y127648D01*
X111244Y128744D01*
X110148Y129586D01*
X108870Y130115D01*
X107500Y130295D01*
X106130Y130115D01*
X104852Y129586D01*
X103756Y128744D01*
X102914Y127648D01*
X102839Y127467D01*
X102039Y127626D01*
Y287374D01*
X102839Y287533D01*
X102914Y287352D01*
X103756Y286256D01*
X104852Y285414D01*
X106130Y284885D01*
X107500Y284705D01*
X108870Y284885D01*
X110148Y285414D01*
X111244Y286256D01*
X112086Y287352D01*
X112615Y288630D01*
X112795Y290000D01*
X112615Y291371D01*
X112086Y292648D01*
X111244Y293744D01*
X110148Y294586D01*
X109967Y294661D01*
X110126Y295461D01*
X191480D01*
Y256689D01*
D02*
G37*
G36*
X259075Y290181D02*
X263779D01*
X263882Y290178D01*
X263985Y290170D01*
X264088Y290157D01*
X264189Y290138D01*
X264289Y290114D01*
X264388Y290085D01*
X264485Y290050D01*
X264580Y290011D01*
X264673Y289967D01*
X264764Y289917D01*
X264852Y289863D01*
X264937Y289805D01*
X265018Y289742D01*
X265097Y289675D01*
X265172Y289604D01*
X265242Y289530D01*
X265309Y289451D01*
X265372Y289370D01*
X265430Y289285D01*
X265484Y289197D01*
X265533Y289106D01*
X265578Y289013D01*
X265617Y288918D01*
X265652Y288821D01*
X265681Y288722D01*
X265705Y288622D01*
X265724Y288521D01*
X265737Y288418D01*
X265745Y288316D01*
X265748Y288213D01*
Y286047D01*
X265745Y285940D01*
X265737Y285837D01*
X265724Y285735D01*
X265705Y285634D01*
X265681Y285534D01*
X265652Y285436D01*
X265618Y285339D01*
X265578Y285244D01*
X265534Y285151D01*
X265485Y285061D01*
X265431Y284973D01*
X265373Y284888D01*
X265310Y284807D01*
X265244Y284728D01*
X265173Y284654D01*
X265098Y284583D01*
X265020Y284516D01*
X264939Y284454D01*
X264854Y284396D01*
X264766Y284342D01*
X264676Y284293D01*
X264583Y284248D01*
X264488Y284209D01*
X264391Y284175D01*
X264293Y284146D01*
X264193Y284122D01*
X264092Y284103D01*
X263990Y284089D01*
X263887Y284081D01*
X263789Y284079D01*
Y284866D01*
X263836Y284868D01*
X263887Y284872D01*
X263938Y284878D01*
X263988Y284888D01*
X264038Y284899D01*
X264087Y284914D01*
X264135Y284931D01*
X264183Y284951D01*
X264229Y284973D01*
X264274Y284997D01*
X264318Y285024D01*
X264360Y285053D01*
X264401Y285084D01*
X264440Y285118D01*
X264477Y285153D01*
X264512Y285190D01*
X264545Y285229D01*
X264577Y285270D01*
X264606Y285312D01*
X264633Y285356D01*
X264657Y285401D01*
X264679Y285447D01*
X264699Y285494D01*
X264716Y285543D01*
X264730Y285592D01*
X264742Y285642D01*
X264752Y285692D01*
X264758Y285743D01*
X264762Y285794D01*
X264764Y285850D01*
Y288409D01*
X264762Y288461D01*
X264758Y288512D01*
X264752Y288563D01*
X264742Y288614D01*
X264730Y288664D01*
X264716Y288714D01*
X264698Y288762D01*
X264679Y288810D01*
X264656Y288856D01*
X264632Y288902D01*
X264605Y288946D01*
X264576Y288988D01*
X264544Y289029D01*
X264511Y289068D01*
X264475Y289105D01*
X264438Y289141D01*
X264399Y289174D01*
X264358Y289206D01*
X264316Y289235D01*
X264272Y289262D01*
X264226Y289286D01*
X264180Y289309D01*
X264132Y289328D01*
X264084Y289346D01*
X264034Y289360D01*
X263984Y289372D01*
X263933Y289382D01*
X263882Y289388D01*
X263831Y289392D01*
X263779Y289394D01*
X263728Y289392D01*
X263677Y289388D01*
X263626Y289382D01*
X263575Y289372D01*
X263525Y289360D01*
X263475Y289346D01*
X263427Y289328D01*
X263379Y289309D01*
X263333Y289286D01*
X263287Y289262D01*
X263244Y289235D01*
X263201Y289206D01*
X263160Y289174D01*
X263121Y289141D01*
X263084Y289105D01*
X263048Y289068D01*
X263015Y289029D01*
X262983Y288988D01*
X262954Y288946D01*
X262927Y288902D01*
X262903Y288856D01*
X262880Y288810D01*
X262861Y288762D01*
X262843Y288714D01*
X262829Y288664D01*
X262817Y288614D01*
X262807Y288563D01*
X262801Y288512D01*
X262797Y288461D01*
X262795Y288409D01*
Y288370D01*
Y285890D01*
Y285850D01*
X262797Y285794D01*
X262801Y285743D01*
X262807Y285692D01*
X262817Y285642D01*
X262829Y285592D01*
X262843Y285543D01*
X262860Y285494D01*
X262880Y285447D01*
X262902Y285401D01*
X262927Y285356D01*
X262953Y285312D01*
X262982Y285270D01*
X263014Y285229D01*
X263047Y285190D01*
X263082Y285153D01*
X263119Y285118D01*
X263158Y285084D01*
X263199Y285053D01*
X263241Y285024D01*
X263285Y284997D01*
X263330Y284973D01*
X263376Y284951D01*
X263424Y284931D01*
X263472Y284914D01*
X263521Y284899D01*
X263571Y284888D01*
X263621Y284878D01*
X263672Y284872D01*
X263723Y284868D01*
X263770Y284866D01*
Y284079D01*
X259055D01*
Y290201D01*
X259075D01*
Y290181D01*
D02*
G37*
G36*
X597961Y102039D02*
X545845D01*
X528942Y118942D01*
X528280Y119384D01*
X527500Y119539D01*
X428000D01*
Y131500D01*
X428000Y131500D01*
X427050D01*
X425165Y131748D01*
X423329Y132240D01*
X421573Y132967D01*
X419927Y133918D01*
X418419Y135075D01*
X417075Y136419D01*
X415918Y137927D01*
X414967Y139573D01*
X414861Y139831D01*
X415305Y140496D01*
X474000D01*
X474576Y140611D01*
X475063Y140937D01*
X485623Y151496D01*
X498628D01*
X499215Y151104D01*
X500000Y150948D01*
X500785Y151104D01*
X501451Y151549D01*
X501896Y152215D01*
X502052Y153000D01*
X501896Y153785D01*
X501451Y154451D01*
X500785Y154896D01*
X500000Y155052D01*
X499215Y154896D01*
X498628Y154504D01*
X485000D01*
X484424Y154389D01*
X483937Y154063D01*
X473377Y143504D01*
X413703D01*
X413500Y145050D01*
X413500Y146000D01*
X413500Y146000D01*
X413500Y146000D01*
X413500Y146000D01*
X413500Y146950D01*
X413703Y148496D01*
X470000D01*
X470576Y148611D01*
X471063Y148937D01*
X478623Y156496D01*
X498628D01*
X499215Y156104D01*
X500000Y155948D01*
X500785Y156104D01*
X501451Y156549D01*
X501896Y157215D01*
X502052Y158000D01*
X501896Y158785D01*
X501451Y159451D01*
X500785Y159896D01*
X500000Y160052D01*
X499215Y159896D01*
X498628Y159504D01*
X478000D01*
X477424Y159389D01*
X476937Y159063D01*
X469377Y151504D01*
X415305D01*
X414861Y152169D01*
X414967Y152427D01*
X415918Y154073D01*
X417075Y155581D01*
X418419Y156925D01*
X419927Y158082D01*
X421573Y159033D01*
X423329Y159760D01*
X425165Y160252D01*
X427050Y160500D01*
X428000Y160500D01*
X428000Y170700D01*
X428000Y171500D01*
X427049Y171500D01*
X425165Y171748D01*
X423329Y172240D01*
X421573Y172967D01*
X419927Y173918D01*
X418419Y175075D01*
X417075Y176419D01*
X415918Y177927D01*
X414967Y179573D01*
X414861Y179831D01*
X415305Y180496D01*
X453877D01*
X465937Y168437D01*
X466425Y168111D01*
X467000Y167996D01*
X498628D01*
X499215Y167604D01*
X500000Y167448D01*
X500785Y167604D01*
X501451Y168049D01*
X501896Y168715D01*
X502052Y169500D01*
X501896Y170285D01*
X501451Y170951D01*
X500785Y171396D01*
X500000Y171552D01*
X499215Y171396D01*
X498628Y171004D01*
X467623D01*
X455563Y183063D01*
X455076Y183389D01*
X454500Y183504D01*
X413703D01*
X413500Y185050D01*
X413500Y186000D01*
X413500Y186950D01*
X413703Y188496D01*
X457877D01*
X472437Y173937D01*
X472925Y173611D01*
X473500Y173496D01*
X498628D01*
X499215Y173104D01*
X500000Y172948D01*
X500785Y173104D01*
X501451Y173549D01*
X501896Y174215D01*
X502052Y175000D01*
X501896Y175785D01*
X501451Y176451D01*
X500785Y176896D01*
X500000Y177052D01*
X499215Y176896D01*
X498628Y176504D01*
X474123D01*
X459563Y191063D01*
X459075Y191389D01*
X458500Y191504D01*
X415305D01*
X414861Y192169D01*
X414967Y192427D01*
X415918Y194073D01*
X417075Y195581D01*
X418419Y196925D01*
X419927Y198082D01*
X421573Y199033D01*
X423329Y199760D01*
X425165Y200252D01*
X427050Y200500D01*
X428000Y200500D01*
X428000Y210700D01*
X428000Y211500D01*
X428000Y211500D01*
X427050Y211500D01*
X425165Y211748D01*
X423329Y212240D01*
X421573Y212967D01*
X419927Y213918D01*
X418419Y215075D01*
X417075Y216419D01*
X415918Y217927D01*
X414967Y219573D01*
X414861Y219831D01*
X415305Y220496D01*
X442377D01*
X478437Y184437D01*
X478437Y184437D01*
X478925Y184111D01*
X479500Y183996D01*
X479500Y183996D01*
X483883D01*
X483887Y183987D01*
X483896Y183983D01*
Y182466D01*
X483906Y182415D01*
X484001Y181696D01*
X484298Y180978D01*
X484771Y180362D01*
X485387Y179889D01*
X486105Y179592D01*
X486875Y179491D01*
X487645Y179592D01*
X488363Y179889D01*
X488979Y180362D01*
X489452Y180978D01*
X489749Y181696D01*
X489758Y181765D01*
X490595Y181990D01*
X490671Y181890D01*
X491287Y181417D01*
X492005Y181120D01*
X492775Y181018D01*
X493545Y181120D01*
X494263Y181417D01*
X494879Y181890D01*
X495352Y182506D01*
X495649Y183224D01*
X495744Y183943D01*
X495752Y183982D01*
X495763Y183987D01*
X495767Y183996D01*
X498628D01*
X499215Y183604D01*
X500000Y183448D01*
X500785Y183604D01*
X501451Y184049D01*
X501896Y184715D01*
X502052Y185500D01*
X501896Y186285D01*
X501451Y186951D01*
X500785Y187396D01*
X500000Y187552D01*
X499215Y187396D01*
X498628Y187004D01*
X495725D01*
X495674Y186994D01*
X494955Y186899D01*
X494237Y186602D01*
X493621Y186129D01*
X493489Y185956D01*
X493289Y185928D01*
X492592Y186103D01*
X492402Y186563D01*
X491929Y187179D01*
X491313Y187652D01*
X490595Y187949D01*
X489825Y188050D01*
X489055Y187949D01*
X488337Y187652D01*
X487721Y187179D01*
X487248Y186563D01*
X487058Y186103D01*
X486361Y185928D01*
X486162Y185956D01*
X486029Y186129D01*
X485413Y186602D01*
X484695Y186899D01*
X483976Y186994D01*
X483925Y187004D01*
X480123D01*
X444063Y223063D01*
X443575Y223389D01*
X443000Y223504D01*
X413703D01*
X413500Y225050D01*
X413500Y226000D01*
X413500Y226950D01*
X413703Y228496D01*
X445877D01*
X483937Y190437D01*
X484424Y190111D01*
X485000Y189996D01*
X498628D01*
X499215Y189604D01*
X500000Y189448D01*
X500785Y189604D01*
X501451Y190049D01*
X501896Y190715D01*
X502052Y191500D01*
X501896Y192285D01*
X501451Y192951D01*
X500785Y193396D01*
X500000Y193552D01*
X499215Y193396D01*
X498628Y193004D01*
X485623D01*
X447563Y231063D01*
X447076Y231389D01*
X446500Y231504D01*
X415305D01*
X414861Y232169D01*
X414967Y232427D01*
X415918Y234073D01*
X417075Y235581D01*
X418419Y236925D01*
X419927Y238082D01*
X421573Y239033D01*
X423329Y239760D01*
X425165Y240252D01*
X427050Y240500D01*
X428000Y240500D01*
X428000Y250700D01*
X428000Y251500D01*
X428000Y251500D01*
X427050Y251500D01*
X425165Y251748D01*
X423329Y252240D01*
X421573Y252967D01*
X419927Y253918D01*
X418419Y255075D01*
X417075Y256419D01*
X415918Y257927D01*
X414967Y259573D01*
X414861Y259831D01*
X415305Y260496D01*
X430377D01*
X489937Y200937D01*
X490424Y200611D01*
X491000Y200496D01*
X498628D01*
X499215Y200104D01*
X500000Y199948D01*
X500785Y200104D01*
X501451Y200549D01*
X501896Y201215D01*
X502052Y202000D01*
X501896Y202785D01*
X501451Y203451D01*
X500785Y203896D01*
X500000Y204052D01*
X499215Y203896D01*
X498628Y203504D01*
X491623D01*
X432063Y263063D01*
X431575Y263389D01*
X431000Y263504D01*
X413703D01*
X413500Y265050D01*
X413500Y266000D01*
X413500Y266950D01*
X413703Y268496D01*
X432877D01*
X494937Y206437D01*
X495425Y206111D01*
X496000Y205996D01*
X498628D01*
X499215Y205604D01*
X500000Y205448D01*
X500785Y205604D01*
X501451Y206049D01*
X501896Y206715D01*
X502052Y207500D01*
X501896Y208285D01*
X501451Y208951D01*
X500785Y209396D01*
X500000Y209552D01*
X499215Y209396D01*
X498628Y209004D01*
X496623D01*
X434563Y271063D01*
X434075Y271389D01*
X433500Y271504D01*
X415305D01*
X414861Y272169D01*
X414967Y272427D01*
X415918Y274073D01*
X417075Y275581D01*
X418419Y276925D01*
X419927Y278082D01*
X421573Y279033D01*
X423329Y279760D01*
X425165Y280252D01*
X427050Y280500D01*
X428000Y280500D01*
X428000Y295461D01*
X527500D01*
X528280Y295616D01*
X528942Y296058D01*
X545845Y312961D01*
X597961D01*
Y102039D01*
D02*
G37*
%LPC*%
G36*
X213883Y292870D02*
X213083Y292870D01*
X208568D01*
Y292039D01*
X205864D01*
X205800Y292052D01*
X205015Y291896D01*
X204349Y291451D01*
X203904Y290785D01*
X203748Y290000D01*
X203904Y289215D01*
X204349Y288549D01*
X205015Y288104D01*
X205800Y287948D01*
X205864Y287961D01*
X208568D01*
Y287130D01*
X213083D01*
X213717Y287130D01*
X214190D01*
X214756Y286564D01*
Y285040D01*
X214748Y285000D01*
X214904Y284215D01*
X215349Y283549D01*
X216015Y283104D01*
X216800Y282948D01*
X217585Y283104D01*
X218251Y283549D01*
X218696Y284215D01*
X218852Y285000D01*
X218834Y285088D01*
Y287130D01*
X219032D01*
Y292870D01*
X214517D01*
X213883Y292870D01*
D02*
G37*
G36*
X422000Y288224D02*
X421149Y288055D01*
X420428Y287573D01*
X419945Y286851D01*
X419776Y286000D01*
X419945Y285149D01*
X420428Y284427D01*
X421149Y283945D01*
X422000Y283776D01*
X422851Y283945D01*
X423572Y284427D01*
X424055Y285149D01*
X424224Y286000D01*
X424055Y286851D01*
X423572Y287573D01*
X422851Y288055D01*
X422000Y288224D01*
D02*
G37*
G36*
X320000D02*
X319149Y288055D01*
X318427Y287573D01*
X317945Y286851D01*
X317776Y286000D01*
X317945Y285149D01*
X318427Y284427D01*
X319149Y283945D01*
X320000Y283776D01*
X320851Y283945D01*
X321572Y284427D01*
X322055Y285149D01*
X322224Y286000D01*
X322055Y286851D01*
X321572Y287573D01*
X320851Y288055D01*
X320000Y288224D01*
D02*
G37*
G36*
X350385Y288114D02*
X349534Y287945D01*
X348812Y287463D01*
X348330Y286741D01*
X348161Y285891D01*
X348330Y285039D01*
X348812Y284318D01*
X349534Y283836D01*
X350385Y283667D01*
X351236Y283836D01*
X351957Y284318D01*
X352439Y285039D01*
X352609Y285891D01*
X352439Y286741D01*
X351957Y287463D01*
X351236Y287945D01*
X350385Y288114D01*
D02*
G37*
G36*
X313000Y280224D02*
X312149Y280055D01*
X311427Y279573D01*
X310945Y278851D01*
X310776Y278000D01*
X310945Y277149D01*
X311427Y276428D01*
X312149Y275945D01*
X313000Y275776D01*
X313851Y275945D01*
X314573Y276428D01*
X315055Y277149D01*
X315224Y278000D01*
X315055Y278851D01*
X314573Y279573D01*
X313851Y280055D01*
X313000Y280224D01*
D02*
G37*
G36*
X358000Y278224D02*
X357149Y278055D01*
X356428Y277572D01*
X355945Y276851D01*
X355776Y276000D01*
X355945Y275149D01*
X356428Y274428D01*
X357149Y273945D01*
X358000Y273776D01*
X358851Y273945D01*
X359573Y274428D01*
X360055Y275149D01*
X360224Y276000D01*
X360055Y276851D01*
X359573Y277572D01*
X358851Y278055D01*
X358000Y278224D01*
D02*
G37*
G36*
X342000D02*
X341149Y278055D01*
X340427Y277572D01*
X339945Y276851D01*
X339776Y276000D01*
X339945Y275149D01*
X340427Y274428D01*
X341149Y273945D01*
X342000Y273776D01*
X342851Y273945D01*
X343572Y274428D01*
X344055Y275149D01*
X344224Y276000D01*
X344055Y276851D01*
X343572Y277572D01*
X342851Y278055D01*
X342000Y278224D01*
D02*
G37*
G36*
X248350Y270969D02*
X246079D01*
Y268500D01*
X248350D01*
Y270969D01*
D02*
G37*
G36*
Y267500D02*
X246079D01*
Y265032D01*
X248350D01*
Y267500D01*
D02*
G37*
G36*
X320000Y268224D02*
X319149Y268055D01*
X318427Y267572D01*
X317945Y266851D01*
X317776Y266000D01*
X317945Y265149D01*
X318427Y264427D01*
X319149Y263945D01*
X320000Y263776D01*
X320851Y263945D01*
X321572Y264427D01*
X322055Y265149D01*
X322224Y266000D01*
X322055Y266851D01*
X321572Y267572D01*
X320851Y268055D01*
X320000Y268224D01*
D02*
G37*
G36*
X298000D02*
X297149Y268055D01*
X296427Y267572D01*
X295945Y266851D01*
X295776Y266000D01*
X295945Y265149D01*
X296427Y264427D01*
X297149Y263945D01*
X298000Y263776D01*
X298851Y263945D01*
X299572Y264427D01*
X300055Y265149D01*
X300224Y266000D01*
X300055Y266851D01*
X299572Y267572D01*
X298851Y268055D01*
X298000Y268224D01*
D02*
G37*
G36*
X228500Y261224D02*
X227649Y261055D01*
X226927Y260573D01*
X226445Y259851D01*
X226276Y259000D01*
X226445Y258149D01*
X226927Y257428D01*
X227649Y256945D01*
X228500Y256776D01*
X229351Y256945D01*
X230072Y257428D01*
X230555Y258149D01*
X230724Y259000D01*
X230555Y259851D01*
X230072Y260573D01*
X229351Y261055D01*
X228500Y261224D01*
D02*
G37*
G36*
X199740Y276370D02*
X198940Y276370D01*
X194425D01*
Y270630D01*
X195496D01*
Y268969D01*
X194228D01*
Y263032D01*
X195496D01*
Y261370D01*
X194425D01*
Y255630D01*
X198940D01*
X199575Y255630D01*
X200375Y255630D01*
X204890D01*
Y256996D01*
X211500D01*
X212075Y257111D01*
X212563Y257437D01*
X215093Y259967D01*
X215785Y260104D01*
X216451Y260549D01*
X216896Y261215D01*
X217052Y262000D01*
X216896Y262785D01*
X216482Y263405D01*
X216452Y263471D01*
X216501Y264380D01*
X216572Y264427D01*
X217055Y265149D01*
X217224Y266000D01*
X217055Y266851D01*
X216572Y267572D01*
X216501Y267620D01*
X216452Y268529D01*
X216482Y268595D01*
X216896Y269215D01*
X217052Y270000D01*
X216896Y270785D01*
X216451Y271451D01*
X215785Y271896D01*
X215093Y272033D01*
X212563Y274563D01*
X212075Y274889D01*
X211500Y275004D01*
X204890D01*
Y276370D01*
X200375D01*
X199740Y276370D01*
D02*
G37*
G36*
X275000Y258724D02*
X274149Y258555D01*
X273428Y258072D01*
X272945Y257351D01*
X272776Y256500D01*
X272945Y255649D01*
X273428Y254927D01*
X274149Y254445D01*
X275000Y254276D01*
X275851Y254445D01*
X276572Y254927D01*
X277055Y255649D01*
X277224Y256500D01*
X277055Y257351D01*
X276572Y258072D01*
X275851Y258555D01*
X275000Y258724D01*
D02*
G37*
G36*
X358000Y258224D02*
X357149Y258055D01*
X356428Y257573D01*
X355945Y256851D01*
X355776Y256000D01*
X355945Y255149D01*
X356428Y254428D01*
X357149Y253945D01*
X358000Y253776D01*
X358851Y253945D01*
X359573Y254428D01*
X360055Y255149D01*
X360224Y256000D01*
X360055Y256851D01*
X359573Y257573D01*
X358851Y258055D01*
X358000Y258224D01*
D02*
G37*
G36*
X342000D02*
X341149Y258055D01*
X340427Y257573D01*
X339945Y256851D01*
X339776Y256000D01*
X339945Y255149D01*
X340427Y254428D01*
X341149Y253945D01*
X342000Y253776D01*
X342851Y253945D01*
X343572Y254428D01*
X344055Y255149D01*
X344224Y256000D01*
X344055Y256851D01*
X343572Y257573D01*
X342851Y258055D01*
X342000Y258224D01*
D02*
G37*
G36*
X313000Y257224D02*
X312149Y257055D01*
X311427Y256573D01*
X310945Y255851D01*
X310776Y255000D01*
X310945Y254149D01*
X311427Y253428D01*
X312149Y252945D01*
X313000Y252776D01*
X313851Y252945D01*
X314573Y253428D01*
X315055Y254149D01*
X315224Y255000D01*
X315055Y255851D01*
X314573Y256573D01*
X313851Y257055D01*
X313000Y257224D01*
D02*
G37*
G36*
X422000Y248224D02*
X421149Y248055D01*
X420428Y247572D01*
X419945Y246851D01*
X419776Y246000D01*
X419945Y245149D01*
X420428Y244427D01*
X421149Y243945D01*
X422000Y243776D01*
X422851Y243945D01*
X423572Y244427D01*
X424055Y245149D01*
X424224Y246000D01*
X424055Y246851D01*
X423572Y247572D01*
X422851Y248055D01*
X422000Y248224D01*
D02*
G37*
G36*
X320000D02*
X319149Y248055D01*
X318427Y247572D01*
X317945Y246851D01*
X317776Y246000D01*
X317945Y245149D01*
X318427Y244427D01*
X319149Y243945D01*
X320000Y243776D01*
X320851Y243945D01*
X321572Y244427D01*
X322055Y245149D01*
X322224Y246000D01*
X322055Y246851D01*
X321572Y247572D01*
X320851Y248055D01*
X320000Y248224D01*
D02*
G37*
G36*
X259000D02*
X258149Y248055D01*
X257428Y247572D01*
X256945Y246851D01*
X256776Y246000D01*
X256945Y245149D01*
X257428Y244427D01*
X258149Y243945D01*
X259000Y243776D01*
X259851Y243945D01*
X260573Y244427D01*
X261055Y245149D01*
X261224Y246000D01*
X261055Y246851D01*
X260573Y247572D01*
X259851Y248055D01*
X259000Y248224D01*
D02*
G37*
G36*
X350440Y248195D02*
X349589Y248025D01*
X348868Y247543D01*
X348386Y246822D01*
X348217Y245971D01*
X348386Y245120D01*
X348868Y244398D01*
X349589Y243916D01*
X350440Y243747D01*
X351291Y243916D01*
X352013Y244398D01*
X352495Y245120D01*
X352664Y245971D01*
X352495Y246822D01*
X352013Y247543D01*
X351291Y248025D01*
X350440Y248195D01*
D02*
G37*
G36*
X204500Y245724D02*
X203649Y245555D01*
X202927Y245073D01*
X202446Y244351D01*
X202276Y243500D01*
X202446Y242649D01*
X202927Y241928D01*
X203649Y241445D01*
X204500Y241276D01*
X205351Y241445D01*
X206072Y241928D01*
X206555Y242649D01*
X206724Y243500D01*
X206555Y244351D01*
X206072Y245073D01*
X205351Y245555D01*
X204500Y245724D01*
D02*
G37*
G36*
X228500Y241224D02*
X227649Y241055D01*
X226927Y240573D01*
X226445Y239851D01*
X226276Y239000D01*
X226445Y238149D01*
X226927Y237427D01*
X227649Y236945D01*
X228500Y236776D01*
X229351Y236945D01*
X230072Y237427D01*
X230555Y238149D01*
X230724Y239000D01*
X230555Y239851D01*
X230072Y240573D01*
X229351Y241055D01*
X228500Y241224D01*
D02*
G37*
G36*
X313000Y239224D02*
X312149Y239055D01*
X311427Y238573D01*
X310945Y237851D01*
X310776Y237000D01*
X310945Y236149D01*
X311427Y235427D01*
X312149Y234945D01*
X313000Y234776D01*
X313851Y234945D01*
X314573Y235427D01*
X315055Y236149D01*
X315224Y237000D01*
X315055Y237851D01*
X314573Y238573D01*
X313851Y239055D01*
X313000Y239224D01*
D02*
G37*
G36*
X358000Y238224D02*
X357149Y238055D01*
X356428Y237573D01*
X355945Y236851D01*
X355776Y236000D01*
X355945Y235149D01*
X356428Y234427D01*
X357149Y233945D01*
X358000Y233776D01*
X358851Y233945D01*
X359573Y234427D01*
X360055Y235149D01*
X360224Y236000D01*
X360055Y236851D01*
X359573Y237573D01*
X358851Y238055D01*
X358000Y238224D01*
D02*
G37*
G36*
X342000D02*
X341149Y238055D01*
X340427Y237573D01*
X339945Y236851D01*
X339776Y236000D01*
X339945Y235149D01*
X340427Y234427D01*
X341149Y233945D01*
X342000Y233776D01*
X342851Y233945D01*
X343572Y234427D01*
X344055Y235149D01*
X344224Y236000D01*
X344055Y236851D01*
X343572Y237573D01*
X342851Y238055D01*
X342000Y238224D01*
D02*
G37*
G36*
X272500Y237224D02*
X271649Y237055D01*
X270928Y236573D01*
X270445Y235851D01*
X270276Y235000D01*
X270445Y234149D01*
X270928Y233428D01*
X271649Y232945D01*
X272500Y232776D01*
X273351Y232945D01*
X274073Y233428D01*
X274555Y234149D01*
X274724Y235000D01*
X274555Y235851D01*
X274073Y236573D01*
X273351Y237055D01*
X272500Y237224D01*
D02*
G37*
G36*
X320000Y228224D02*
X319149Y228055D01*
X318427Y227572D01*
X317945Y226851D01*
X317776Y226000D01*
X317945Y225149D01*
X318427Y224428D01*
X319149Y223945D01*
X320000Y223776D01*
X320851Y223945D01*
X321572Y224428D01*
X322055Y225149D01*
X322224Y226000D01*
X322055Y226851D01*
X321572Y227572D01*
X320851Y228055D01*
X320000Y228224D01*
D02*
G37*
G36*
X298000D02*
X297149Y228055D01*
X296427Y227572D01*
X295945Y226851D01*
X295776Y226000D01*
X295945Y225149D01*
X296427Y224428D01*
X297149Y223945D01*
X298000Y223776D01*
X298851Y223945D01*
X299572Y224428D01*
X300055Y225149D01*
X300224Y226000D01*
X300055Y226851D01*
X299572Y227572D01*
X298851Y228055D01*
X298000Y228224D01*
D02*
G37*
G36*
X259000D02*
X258149Y228055D01*
X257428Y227572D01*
X256945Y226851D01*
X256776Y226000D01*
X256945Y225149D01*
X257428Y224428D01*
X258149Y223945D01*
X259000Y223776D01*
X259851Y223945D01*
X260573Y224428D01*
X261055Y225149D01*
X261224Y226000D01*
X261055Y226851D01*
X260573Y227572D01*
X259851Y228055D01*
X259000Y228224D01*
D02*
G37*
G36*
X228500Y221224D02*
X227649Y221055D01*
X226927Y220572D01*
X226445Y219851D01*
X226276Y219000D01*
X226445Y218149D01*
X226927Y217427D01*
X227649Y216945D01*
X228500Y216776D01*
X229351Y216945D01*
X230072Y217427D01*
X230555Y218149D01*
X230724Y219000D01*
X230555Y219851D01*
X230072Y220572D01*
X229351Y221055D01*
X228500Y221224D01*
D02*
G37*
G36*
X199740Y236370D02*
X198940Y236370D01*
X194425D01*
Y230630D01*
X195496D01*
Y228969D01*
X194228D01*
Y223031D01*
X195496D01*
Y221370D01*
X194425D01*
Y215630D01*
X198940D01*
X199575Y215630D01*
X200375Y215630D01*
X204890D01*
Y216996D01*
X211500D01*
X212075Y217111D01*
X212563Y217437D01*
X215093Y219967D01*
X215785Y220104D01*
X216451Y220549D01*
X216896Y221215D01*
X217052Y222000D01*
X216896Y222785D01*
X216482Y223405D01*
X216452Y223471D01*
X216501Y224380D01*
X216572Y224428D01*
X217055Y225149D01*
X217224Y226000D01*
X217055Y226851D01*
X216572Y227572D01*
X216501Y227620D01*
X216452Y228529D01*
X216482Y228595D01*
X216896Y229215D01*
X217052Y230000D01*
X216896Y230785D01*
X216451Y231451D01*
X215785Y231896D01*
X215093Y232033D01*
X212563Y234563D01*
X212075Y234889D01*
X211500Y235004D01*
X204890D01*
Y236370D01*
X200375D01*
X199740Y236370D01*
D02*
G37*
G36*
X275000Y218724D02*
X274149Y218555D01*
X273428Y218073D01*
X272945Y217351D01*
X272776Y216500D01*
X272945Y215649D01*
X273428Y214928D01*
X274149Y214445D01*
X275000Y214276D01*
X275851Y214445D01*
X276572Y214928D01*
X277055Y215649D01*
X277224Y216500D01*
X277055Y217351D01*
X276572Y218073D01*
X275851Y218555D01*
X275000Y218724D01*
D02*
G37*
G36*
X358000Y218224D02*
X357149Y218055D01*
X356428Y217572D01*
X355945Y216851D01*
X355776Y216000D01*
X355945Y215149D01*
X356428Y214427D01*
X357149Y213945D01*
X358000Y213776D01*
X358851Y213945D01*
X359573Y214427D01*
X360055Y215149D01*
X360224Y216000D01*
X360055Y216851D01*
X359573Y217572D01*
X358851Y218055D01*
X358000Y218224D01*
D02*
G37*
G36*
X342000D02*
X341149Y218055D01*
X340427Y217572D01*
X339945Y216851D01*
X339776Y216000D01*
X339945Y215149D01*
X340427Y214427D01*
X341149Y213945D01*
X342000Y213776D01*
X342851Y213945D01*
X343572Y214427D01*
X344055Y215149D01*
X344224Y216000D01*
X344055Y216851D01*
X343572Y217572D01*
X342851Y218055D01*
X342000Y218224D01*
D02*
G37*
G36*
X313000Y217224D02*
X312149Y217055D01*
X311427Y216572D01*
X310945Y215851D01*
X310776Y215000D01*
X310945Y214149D01*
X311427Y213427D01*
X312149Y212945D01*
X313000Y212776D01*
X313851Y212945D01*
X314573Y213427D01*
X315055Y214149D01*
X315224Y215000D01*
X315055Y215851D01*
X314573Y216572D01*
X313851Y217055D01*
X313000Y217224D01*
D02*
G37*
G36*
X422000Y208224D02*
X421149Y208055D01*
X420428Y207573D01*
X419945Y206851D01*
X419776Y206000D01*
X419945Y205149D01*
X420428Y204428D01*
X421149Y203945D01*
X422000Y203776D01*
X422851Y203945D01*
X423572Y204428D01*
X424055Y205149D01*
X424224Y206000D01*
X424055Y206851D01*
X423572Y207573D01*
X422851Y208055D01*
X422000Y208224D01*
D02*
G37*
G36*
X350500D02*
X349649Y208055D01*
X348927Y207573D01*
X348445Y206851D01*
X348276Y206000D01*
X348445Y205149D01*
X348927Y204428D01*
X349649Y203945D01*
X350500Y203776D01*
X351351Y203945D01*
X352073Y204428D01*
X352555Y205149D01*
X352724Y206000D01*
X352555Y206851D01*
X352073Y207573D01*
X351351Y208055D01*
X350500Y208224D01*
D02*
G37*
G36*
X320000D02*
X319149Y208055D01*
X318427Y207573D01*
X317945Y206851D01*
X317776Y206000D01*
X317945Y205149D01*
X318427Y204428D01*
X319149Y203945D01*
X320000Y203776D01*
X320851Y203945D01*
X321572Y204428D01*
X322055Y205149D01*
X322224Y206000D01*
X322055Y206851D01*
X321572Y207573D01*
X320851Y208055D01*
X320000Y208224D01*
D02*
G37*
G36*
X305000D02*
X304149Y208055D01*
X303428Y207573D01*
X302945Y206851D01*
X302776Y206000D01*
X302945Y205149D01*
X303428Y204428D01*
X304149Y203945D01*
X305000Y203776D01*
X305851Y203945D01*
X306573Y204428D01*
X307055Y205149D01*
X307224Y206000D01*
X307055Y206851D01*
X306573Y207573D01*
X305851Y208055D01*
X305000Y208224D01*
D02*
G37*
G36*
X259000D02*
X258149Y208055D01*
X257428Y207573D01*
X256945Y206851D01*
X256776Y206000D01*
X256945Y205149D01*
X257428Y204428D01*
X258149Y203945D01*
X259000Y203776D01*
X259851Y203945D01*
X260573Y204428D01*
X261055Y205149D01*
X261224Y206000D01*
X261055Y206851D01*
X260573Y207573D01*
X259851Y208055D01*
X259000Y208224D01*
D02*
G37*
G36*
X204500Y205724D02*
X203649Y205555D01*
X202927Y205072D01*
X202446Y204351D01*
X202276Y203500D01*
X202446Y202649D01*
X202927Y201927D01*
X203649Y201446D01*
X204500Y201276D01*
X205351Y201446D01*
X206072Y201927D01*
X206555Y202649D01*
X206724Y203500D01*
X206555Y204351D01*
X206072Y205072D01*
X205351Y205555D01*
X204500Y205724D01*
D02*
G37*
G36*
X228500Y201224D02*
X227649Y201055D01*
X226927Y200572D01*
X226445Y199851D01*
X226276Y199000D01*
X226445Y198149D01*
X226927Y197427D01*
X227649Y196946D01*
X228500Y196776D01*
X229351Y196946D01*
X230072Y197427D01*
X230555Y198149D01*
X230724Y199000D01*
X230555Y199851D01*
X230072Y200572D01*
X229351Y201055D01*
X228500Y201224D01*
D02*
G37*
G36*
X313000Y199224D02*
X312149Y199055D01*
X311427Y198573D01*
X310945Y197851D01*
X310776Y197000D01*
X310945Y196149D01*
X311427Y195428D01*
X312149Y194946D01*
X313000Y194776D01*
X313851Y194946D01*
X314573Y195428D01*
X315055Y196149D01*
X315224Y197000D01*
X315055Y197851D01*
X314573Y198573D01*
X313851Y199055D01*
X313000Y199224D01*
D02*
G37*
G36*
X358000Y198224D02*
X357149Y198055D01*
X356428Y197573D01*
X355945Y196851D01*
X355776Y196000D01*
X355945Y195149D01*
X356428Y194428D01*
X357149Y193946D01*
X358000Y193776D01*
X358851Y193946D01*
X359573Y194428D01*
X360055Y195149D01*
X360224Y196000D01*
X360055Y196851D01*
X359573Y197573D01*
X358851Y198055D01*
X358000Y198224D01*
D02*
G37*
G36*
X342000D02*
X341149Y198055D01*
X340427Y197573D01*
X339945Y196851D01*
X339776Y196000D01*
X339945Y195149D01*
X340427Y194428D01*
X341149Y193946D01*
X342000Y193776D01*
X342851Y193946D01*
X343572Y194428D01*
X344055Y195149D01*
X344224Y196000D01*
X344055Y196851D01*
X343572Y197573D01*
X342851Y198055D01*
X342000Y198224D01*
D02*
G37*
G36*
X272500Y197224D02*
X271649Y197055D01*
X270928Y196572D01*
X270445Y195851D01*
X270276Y195000D01*
X270445Y194149D01*
X270928Y193428D01*
X271649Y192946D01*
X272500Y192776D01*
X273351Y192946D01*
X274073Y193428D01*
X274555Y194149D01*
X274724Y195000D01*
X274555Y195851D01*
X274073Y196572D01*
X273351Y197055D01*
X272500Y197224D01*
D02*
G37*
G36*
X320000Y188224D02*
X319149Y188055D01*
X318427Y187573D01*
X317945Y186851D01*
X317776Y186000D01*
X317945Y185149D01*
X318427Y184427D01*
X319149Y183946D01*
X320000Y183776D01*
X320851Y183946D01*
X321572Y184427D01*
X322055Y185149D01*
X322224Y186000D01*
X322055Y186851D01*
X321572Y187573D01*
X320851Y188055D01*
X320000Y188224D01*
D02*
G37*
G36*
X299000D02*
X298149Y188055D01*
X297428Y187573D01*
X296945Y186851D01*
X296776Y186000D01*
X296945Y185149D01*
X297428Y184427D01*
X298149Y183946D01*
X299000Y183776D01*
X299851Y183946D01*
X300572Y184427D01*
X301055Y185149D01*
X301224Y186000D01*
X301055Y186851D01*
X300572Y187573D01*
X299851Y188055D01*
X299000Y188224D01*
D02*
G37*
G36*
X259000D02*
X258149Y188055D01*
X257428Y187573D01*
X256945Y186851D01*
X256776Y186000D01*
X256945Y185149D01*
X257428Y184427D01*
X258149Y183946D01*
X259000Y183776D01*
X259851Y183946D01*
X260573Y184427D01*
X261055Y185149D01*
X261224Y186000D01*
X261055Y186851D01*
X260573Y187573D01*
X259851Y188055D01*
X259000Y188224D01*
D02*
G37*
G36*
X228500Y181224D02*
X227649Y181054D01*
X226927Y180572D01*
X226445Y179851D01*
X226276Y179000D01*
X226445Y178149D01*
X226927Y177427D01*
X227649Y176945D01*
X228500Y176776D01*
X229351Y176945D01*
X230072Y177427D01*
X230555Y178149D01*
X230724Y179000D01*
X230555Y179851D01*
X230072Y180572D01*
X229351Y181054D01*
X228500Y181224D01*
D02*
G37*
G36*
X199740Y196370D02*
X198940Y196370D01*
X194425D01*
Y190630D01*
X195496D01*
Y188969D01*
X194228D01*
Y183031D01*
X195496D01*
Y181370D01*
X194425D01*
Y175630D01*
X198940D01*
X199575Y175630D01*
X200375Y175630D01*
X204890D01*
Y176996D01*
X211500D01*
X212075Y177111D01*
X212563Y177437D01*
X215093Y179967D01*
X215785Y180104D01*
X216451Y180549D01*
X216896Y181215D01*
X217052Y182000D01*
X216896Y182785D01*
X216482Y183405D01*
X216452Y183471D01*
X216501Y184380D01*
X216572Y184427D01*
X217055Y185149D01*
X217224Y186000D01*
X217055Y186851D01*
X216572Y187573D01*
X216501Y187620D01*
X216452Y188529D01*
X216482Y188595D01*
X216896Y189215D01*
X217052Y190000D01*
X216896Y190785D01*
X216451Y191451D01*
X215785Y191896D01*
X215093Y192033D01*
X212563Y194563D01*
X212075Y194889D01*
X211500Y195004D01*
X204890D01*
Y196370D01*
X200375D01*
X199740Y196370D01*
D02*
G37*
G36*
X275000Y178724D02*
X274149Y178554D01*
X273428Y178073D01*
X272945Y177351D01*
X272776Y176500D01*
X272945Y175649D01*
X273428Y174927D01*
X274149Y174445D01*
X275000Y174276D01*
X275851Y174445D01*
X276572Y174927D01*
X277055Y175649D01*
X277224Y176500D01*
X277055Y177351D01*
X276572Y178073D01*
X275851Y178554D01*
X275000Y178724D01*
D02*
G37*
G36*
X358000Y178224D02*
X357149Y178054D01*
X356428Y177573D01*
X355945Y176851D01*
X355776Y176000D01*
X355945Y175149D01*
X356428Y174427D01*
X357149Y173945D01*
X358000Y173776D01*
X358851Y173945D01*
X359573Y174427D01*
X360055Y175149D01*
X360224Y176000D01*
X360055Y176851D01*
X359573Y177573D01*
X358851Y178054D01*
X358000Y178224D01*
D02*
G37*
G36*
X342000D02*
X341149Y178054D01*
X340427Y177573D01*
X339945Y176851D01*
X339776Y176000D01*
X339945Y175149D01*
X340427Y174427D01*
X341149Y173945D01*
X342000Y173776D01*
X342851Y173945D01*
X343572Y174427D01*
X344055Y175149D01*
X344224Y176000D01*
X344055Y176851D01*
X343572Y177573D01*
X342851Y178054D01*
X342000Y178224D01*
D02*
G37*
G36*
X313000Y177224D02*
X312149Y177055D01*
X311427Y176573D01*
X310945Y175851D01*
X310776Y175000D01*
X310945Y174149D01*
X311427Y173427D01*
X312149Y172945D01*
X313000Y172776D01*
X313851Y172945D01*
X314573Y173427D01*
X315055Y174149D01*
X315224Y175000D01*
X315055Y175851D01*
X314573Y176573D01*
X313851Y177055D01*
X313000Y177224D01*
D02*
G37*
G36*
X422000Y168224D02*
X421149Y168054D01*
X420428Y167572D01*
X419945Y166851D01*
X419776Y166000D01*
X419945Y165149D01*
X420428Y164427D01*
X421149Y163945D01*
X422000Y163776D01*
X422851Y163945D01*
X423572Y164427D01*
X424055Y165149D01*
X424224Y166000D01*
X424055Y166851D01*
X423572Y167572D01*
X422851Y168054D01*
X422000Y168224D01*
D02*
G37*
G36*
X350500D02*
X349649Y168054D01*
X348927Y167572D01*
X348445Y166851D01*
X348276Y166000D01*
X348445Y165149D01*
X348927Y164427D01*
X349649Y163945D01*
X350500Y163776D01*
X351351Y163945D01*
X352073Y164427D01*
X352555Y165149D01*
X352724Y166000D01*
X352555Y166851D01*
X352073Y167572D01*
X351351Y168054D01*
X350500Y168224D01*
D02*
G37*
G36*
X320000D02*
X319149Y168054D01*
X318427Y167572D01*
X317945Y166851D01*
X317776Y166000D01*
X317945Y165149D01*
X318427Y164427D01*
X319149Y163945D01*
X320000Y163776D01*
X320851Y163945D01*
X321572Y164427D01*
X322055Y165149D01*
X322224Y166000D01*
X322055Y166851D01*
X321572Y167572D01*
X320851Y168054D01*
X320000Y168224D01*
D02*
G37*
G36*
X259000D02*
X258149Y168054D01*
X257428Y167572D01*
X256945Y166851D01*
X256776Y166000D01*
X256945Y165149D01*
X257428Y164427D01*
X258149Y163945D01*
X259000Y163776D01*
X259851Y163945D01*
X260573Y164427D01*
X261055Y165149D01*
X261224Y166000D01*
X261055Y166851D01*
X260573Y167572D01*
X259851Y168054D01*
X259000Y168224D01*
D02*
G37*
G36*
X204500Y165724D02*
X203649Y165554D01*
X202927Y165073D01*
X202446Y164351D01*
X202276Y163500D01*
X202446Y162649D01*
X202927Y161927D01*
X203649Y161445D01*
X204500Y161276D01*
X205351Y161445D01*
X206072Y161927D01*
X206555Y162649D01*
X206724Y163500D01*
X206555Y164351D01*
X206072Y165073D01*
X205351Y165554D01*
X204500Y165724D01*
D02*
G37*
G36*
X228500Y161224D02*
X227649Y161055D01*
X226927Y160573D01*
X226445Y159851D01*
X226276Y159000D01*
X226445Y158149D01*
X226927Y157428D01*
X227649Y156946D01*
X228500Y156776D01*
X229351Y156946D01*
X230072Y157428D01*
X230555Y158149D01*
X230724Y159000D01*
X230555Y159851D01*
X230072Y160573D01*
X229351Y161055D01*
X228500Y161224D01*
D02*
G37*
G36*
X313000Y159224D02*
X312149Y159055D01*
X311427Y158572D01*
X310945Y157851D01*
X310776Y157000D01*
X310945Y156149D01*
X311427Y155428D01*
X312149Y154946D01*
X313000Y154776D01*
X313851Y154946D01*
X314573Y155428D01*
X315055Y156149D01*
X315224Y157000D01*
X315055Y157851D01*
X314573Y158572D01*
X313851Y159055D01*
X313000Y159224D01*
D02*
G37*
G36*
X358000Y158224D02*
X357149Y158054D01*
X356428Y157572D01*
X355945Y156851D01*
X355776Y156000D01*
X355945Y155149D01*
X356428Y154428D01*
X357149Y153946D01*
X358000Y153776D01*
X358851Y153946D01*
X359573Y154428D01*
X360055Y155149D01*
X360224Y156000D01*
X360055Y156851D01*
X359573Y157572D01*
X358851Y158054D01*
X358000Y158224D01*
D02*
G37*
G36*
X342000D02*
X341149Y158054D01*
X340427Y157572D01*
X339945Y156851D01*
X339776Y156000D01*
X339945Y155149D01*
X340427Y154428D01*
X341149Y153946D01*
X342000Y153776D01*
X342851Y153946D01*
X343572Y154428D01*
X344055Y155149D01*
X344224Y156000D01*
X344055Y156851D01*
X343572Y157572D01*
X342851Y158054D01*
X342000Y158224D01*
D02*
G37*
G36*
X272500Y157224D02*
X271649Y157054D01*
X270928Y156572D01*
X270445Y155851D01*
X270276Y155000D01*
X270445Y154149D01*
X270928Y153428D01*
X271649Y152945D01*
X272500Y152776D01*
X273351Y152945D01*
X274073Y153428D01*
X274555Y154149D01*
X274724Y155000D01*
X274555Y155851D01*
X274073Y156572D01*
X273351Y157054D01*
X272500Y157224D01*
D02*
G37*
G36*
X320000Y148224D02*
X319149Y148055D01*
X318427Y147573D01*
X317945Y146851D01*
X317776Y146000D01*
X317945Y145149D01*
X318427Y144428D01*
X319149Y143946D01*
X320000Y143776D01*
X320851Y143946D01*
X321572Y144428D01*
X322055Y145149D01*
X322224Y146000D01*
X322055Y146851D01*
X321572Y147573D01*
X320851Y148055D01*
X320000Y148224D01*
D02*
G37*
G36*
X299000D02*
X298149Y148055D01*
X297428Y147573D01*
X296945Y146851D01*
X296776Y146000D01*
X296945Y145149D01*
X297428Y144428D01*
X298149Y143946D01*
X299000Y143776D01*
X299851Y143946D01*
X300572Y144428D01*
X301055Y145149D01*
X301224Y146000D01*
X301055Y146851D01*
X300572Y147573D01*
X299851Y148055D01*
X299000Y148224D01*
D02*
G37*
G36*
X259000D02*
X258149Y148055D01*
X257428Y147573D01*
X256945Y146851D01*
X256776Y146000D01*
X256945Y145149D01*
X257428Y144428D01*
X258149Y143946D01*
X259000Y143776D01*
X259851Y143946D01*
X260573Y144428D01*
X261055Y145149D01*
X261224Y146000D01*
X261055Y146851D01*
X260573Y147573D01*
X259851Y148055D01*
X259000Y148224D01*
D02*
G37*
G36*
X228500Y141224D02*
X227649Y141054D01*
X226927Y140573D01*
X226445Y139851D01*
X226276Y139000D01*
X226445Y138149D01*
X226927Y137427D01*
X227649Y136945D01*
X228500Y136776D01*
X229351Y136945D01*
X230072Y137427D01*
X230555Y138149D01*
X230724Y139000D01*
X230555Y139851D01*
X230072Y140573D01*
X229351Y141054D01*
X228500Y141224D01*
D02*
G37*
G36*
X199740Y156370D02*
X198940Y156370D01*
X194425D01*
Y150630D01*
X195496D01*
Y148969D01*
X194228D01*
Y143032D01*
X195496D01*
Y141370D01*
X194425D01*
Y135630D01*
X198940D01*
X199575Y135630D01*
X200375Y135630D01*
X204890D01*
Y136996D01*
X211500D01*
X212075Y137111D01*
X212563Y137437D01*
X215093Y139967D01*
X215785Y140104D01*
X216451Y140549D01*
X216896Y141215D01*
X217052Y142000D01*
X216896Y142785D01*
X216482Y143405D01*
X216452Y143471D01*
X216501Y144380D01*
X216572Y144428D01*
X217055Y145149D01*
X217224Y146000D01*
X217055Y146851D01*
X216572Y147573D01*
X216501Y147620D01*
X216452Y148529D01*
X216482Y148595D01*
X216896Y149215D01*
X217052Y150000D01*
X216896Y150785D01*
X216451Y151451D01*
X215785Y151896D01*
X215093Y152033D01*
X212563Y154563D01*
X212075Y154889D01*
X211500Y155004D01*
X204890D01*
Y156370D01*
X200375D01*
X199740Y156370D01*
D02*
G37*
G36*
X275000Y138724D02*
X274149Y138555D01*
X273428Y138073D01*
X272945Y137351D01*
X272776Y136500D01*
X272945Y135649D01*
X273428Y134927D01*
X274149Y134446D01*
X275000Y134276D01*
X275851Y134446D01*
X276572Y134927D01*
X277055Y135649D01*
X277224Y136500D01*
X277055Y137351D01*
X276572Y138073D01*
X275851Y138555D01*
X275000Y138724D01*
D02*
G37*
G36*
X358000Y138224D02*
X357149Y138055D01*
X356428Y137573D01*
X355945Y136851D01*
X355776Y136000D01*
X355945Y135149D01*
X356428Y134427D01*
X357149Y133946D01*
X358000Y133776D01*
X358851Y133946D01*
X359573Y134427D01*
X360055Y135149D01*
X360224Y136000D01*
X360055Y136851D01*
X359573Y137573D01*
X358851Y138055D01*
X358000Y138224D01*
D02*
G37*
G36*
X342000D02*
X341149Y138055D01*
X340427Y137573D01*
X339945Y136851D01*
X339776Y136000D01*
X339945Y135149D01*
X340427Y134427D01*
X341149Y133946D01*
X342000Y133776D01*
X342851Y133946D01*
X343572Y134427D01*
X344055Y135149D01*
X344224Y136000D01*
X344055Y136851D01*
X343572Y137573D01*
X342851Y138055D01*
X342000Y138224D01*
D02*
G37*
G36*
X313000Y137224D02*
X312149Y137055D01*
X311427Y136573D01*
X310945Y135851D01*
X310776Y135000D01*
X310945Y134149D01*
X311427Y133428D01*
X312149Y132946D01*
X313000Y132776D01*
X313851Y132946D01*
X314573Y133428D01*
X315055Y134149D01*
X315224Y135000D01*
X315055Y135851D01*
X314573Y136573D01*
X313851Y137055D01*
X313000Y137224D01*
D02*
G37*
G36*
X422000Y128224D02*
X421149Y128054D01*
X420428Y127573D01*
X419945Y126851D01*
X419776Y126000D01*
X419945Y125149D01*
X420428Y124427D01*
X421149Y123945D01*
X422000Y123776D01*
X422851Y123945D01*
X423572Y124427D01*
X424055Y125149D01*
X424224Y126000D01*
X424055Y126851D01*
X423572Y127573D01*
X422851Y128054D01*
X422000Y128224D01*
D02*
G37*
G36*
X350500D02*
X349649Y128054D01*
X348927Y127573D01*
X348445Y126851D01*
X348276Y126000D01*
X348445Y125149D01*
X348927Y124427D01*
X349649Y123945D01*
X350500Y123776D01*
X351351Y123945D01*
X352073Y124427D01*
X352555Y125149D01*
X352724Y126000D01*
X352555Y126851D01*
X352073Y127573D01*
X351351Y128054D01*
X350500Y128224D01*
D02*
G37*
G36*
X320000D02*
X319149Y128054D01*
X318427Y127573D01*
X317945Y126851D01*
X317776Y126000D01*
X317945Y125149D01*
X318427Y124427D01*
X319149Y123945D01*
X320000Y123776D01*
X320851Y123945D01*
X321572Y124427D01*
X322055Y125149D01*
X322224Y126000D01*
X322055Y126851D01*
X321572Y127573D01*
X320851Y128054D01*
X320000Y128224D01*
D02*
G37*
G36*
X259000D02*
X258149Y128054D01*
X257428Y127573D01*
X256945Y126851D01*
X256776Y126000D01*
X256945Y125149D01*
X257428Y124427D01*
X258149Y123945D01*
X259000Y123776D01*
X259851Y123945D01*
X260573Y124427D01*
X261055Y125149D01*
X261224Y126000D01*
X261055Y126851D01*
X260573Y127573D01*
X259851Y128054D01*
X259000Y128224D01*
D02*
G37*
G36*
X204500Y125724D02*
X203649Y125555D01*
X202927Y125073D01*
X202446Y124351D01*
X202276Y123500D01*
X202446Y122649D01*
X202927Y121927D01*
X203649Y121446D01*
X204500Y121276D01*
X205351Y121446D01*
X206072Y121927D01*
X206555Y122649D01*
X206724Y123500D01*
X206555Y124351D01*
X206072Y125073D01*
X205351Y125555D01*
X204500Y125724D01*
D02*
G37*
G36*
X132500Y264724D02*
X131649Y264555D01*
X130928Y264072D01*
X130446Y263351D01*
X130276Y262500D01*
X130446Y261649D01*
X130928Y260928D01*
X131649Y260445D01*
X132500Y260276D01*
X133351Y260445D01*
X134072Y260928D01*
X134555Y261649D01*
X134724Y262500D01*
X134555Y263351D01*
X134072Y264072D01*
X133351Y264555D01*
X132500Y264724D01*
D02*
G37*
G36*
X125500Y231469D02*
Y228000D01*
X128969D01*
X128897Y228544D01*
X128494Y229517D01*
X127853Y230353D01*
X127017Y230994D01*
X126044Y231397D01*
X125500Y231469D01*
D02*
G37*
G36*
X124500D02*
X123956Y231397D01*
X122983Y230994D01*
X122147Y230353D01*
X121506Y229517D01*
X121103Y228544D01*
X121031Y228000D01*
X124500D01*
Y231469D01*
D02*
G37*
G36*
X115500D02*
Y228000D01*
X118969D01*
X118897Y228544D01*
X118494Y229517D01*
X117853Y230353D01*
X117017Y230994D01*
X116044Y231397D01*
X115500Y231469D01*
D02*
G37*
G36*
X114500D02*
X113956Y231397D01*
X112983Y230994D01*
X112147Y230353D01*
X111506Y229517D01*
X111103Y228544D01*
X111031Y228000D01*
X114500D01*
Y231469D01*
D02*
G37*
G36*
X128969Y227000D02*
X125500D01*
Y223531D01*
X126044Y223603D01*
X127017Y224006D01*
X127853Y224647D01*
X128494Y225483D01*
X128897Y226456D01*
X128969Y227000D01*
D02*
G37*
G36*
X124500D02*
X121031D01*
X121103Y226456D01*
X121506Y225483D01*
X122147Y224647D01*
X122983Y224006D01*
X123956Y223603D01*
X124500Y223531D01*
Y227000D01*
D02*
G37*
G36*
X118969D02*
X115500D01*
Y223531D01*
X116044Y223603D01*
X117017Y224006D01*
X117853Y224647D01*
X118494Y225483D01*
X118897Y226456D01*
X118969Y227000D01*
D02*
G37*
G36*
X114500D02*
X111031D01*
X111103Y226456D01*
X111506Y225483D01*
X112147Y224647D01*
X112983Y224006D01*
X113956Y223603D01*
X114500Y223531D01*
Y227000D01*
D02*
G37*
G36*
X146083Y210370D02*
X145283Y210370D01*
X140768D01*
Y204630D01*
X140966D01*
Y202588D01*
X140948Y202500D01*
X141104Y201715D01*
X141549Y201049D01*
X142215Y200604D01*
X143000Y200448D01*
X143785Y200604D01*
X144451Y201049D01*
X144896Y201715D01*
X145052Y202500D01*
X145044Y202540D01*
Y204064D01*
X145610Y204630D01*
X146390D01*
X146956Y204064D01*
Y202540D01*
X146948Y202500D01*
X147104Y201715D01*
X147549Y201049D01*
X148215Y200604D01*
X149000Y200448D01*
X149785Y200604D01*
X150451Y201049D01*
X150896Y201715D01*
X151052Y202500D01*
X151034Y202588D01*
Y204630D01*
X151232D01*
Y210370D01*
X146717D01*
X146083Y210370D01*
D02*
G37*
G36*
X115000Y216795D02*
X113187Y216616D01*
X111443Y216087D01*
X109836Y215228D01*
X108428Y214072D01*
X107272Y212664D01*
X106413Y211057D01*
X105884Y209313D01*
X105705Y207500D01*
X105884Y205687D01*
X106413Y203943D01*
X107272Y202336D01*
X108428Y200928D01*
X109836Y199772D01*
X111443Y198913D01*
X113187Y198384D01*
X115000Y198205D01*
X116813Y198384D01*
X118557Y198913D01*
X120164Y199772D01*
X121572Y200928D01*
X122728Y202336D01*
X123587Y203943D01*
X124116Y205687D01*
X124295Y207500D01*
X124116Y209313D01*
X123587Y211057D01*
X122728Y212664D01*
X121572Y214072D01*
X120164Y215228D01*
X118557Y216087D01*
X116813Y216616D01*
X115000Y216795D01*
D02*
G37*
G36*
X132500Y174724D02*
X131649Y174555D01*
X130928Y174073D01*
X130446Y173351D01*
X130276Y172500D01*
X130446Y171649D01*
X130928Y170928D01*
X131649Y170446D01*
X132500Y170276D01*
X133351Y170446D01*
X134072Y170928D01*
X134555Y171649D01*
X134724Y172500D01*
X134555Y173351D01*
X134072Y174073D01*
X133351Y174555D01*
X132500Y174724D01*
D02*
G37*
G36*
X125500Y141469D02*
Y138000D01*
X128969D01*
X128897Y138544D01*
X128494Y139517D01*
X127853Y140353D01*
X127017Y140994D01*
X126044Y141397D01*
X125500Y141469D01*
D02*
G37*
G36*
X124500D02*
X123956Y141397D01*
X122983Y140994D01*
X122147Y140353D01*
X121506Y139517D01*
X121103Y138544D01*
X121031Y138000D01*
X124500D01*
Y141469D01*
D02*
G37*
G36*
X115500D02*
Y138000D01*
X118969D01*
X118897Y138544D01*
X118494Y139517D01*
X117853Y140353D01*
X117017Y140994D01*
X116044Y141397D01*
X115500Y141469D01*
D02*
G37*
G36*
X114500D02*
X113956Y141397D01*
X112983Y140994D01*
X112147Y140353D01*
X111506Y139517D01*
X111103Y138544D01*
X111031Y138000D01*
X114500D01*
Y141469D01*
D02*
G37*
G36*
X128969Y137000D02*
X125500D01*
Y133531D01*
X126044Y133603D01*
X127017Y134006D01*
X127853Y134647D01*
X128494Y135483D01*
X128897Y136456D01*
X128969Y137000D01*
D02*
G37*
G36*
X124500D02*
X121031D01*
X121103Y136456D01*
X121506Y135483D01*
X122147Y134647D01*
X122983Y134006D01*
X123956Y133603D01*
X124500Y133531D01*
Y137000D01*
D02*
G37*
G36*
X118969D02*
X115500D01*
Y133531D01*
X116044Y133603D01*
X117017Y134006D01*
X117853Y134647D01*
X118494Y135483D01*
X118897Y136456D01*
X118969Y137000D01*
D02*
G37*
G36*
X114500D02*
X111031D01*
X111103Y136456D01*
X111506Y135483D01*
X112147Y134647D01*
X112983Y134006D01*
X113956Y133603D01*
X114500Y133531D01*
Y137000D01*
D02*
G37*
G36*
X542500Y305295D02*
X541129Y305115D01*
X539852Y304586D01*
X538756Y303744D01*
X537914Y302648D01*
X537385Y301371D01*
X537205Y300000D01*
X537385Y298629D01*
X537914Y297352D01*
X538756Y296256D01*
X539852Y295414D01*
X541129Y294885D01*
X542500Y294705D01*
X543870Y294885D01*
X545148Y295414D01*
X546244Y296256D01*
X547086Y297352D01*
X547615Y298629D01*
X547795Y300000D01*
X547615Y301371D01*
X547086Y302648D01*
X546244Y303744D01*
X545148Y304586D01*
X543870Y305115D01*
X542500Y305295D01*
D02*
G37*
G36*
X562400Y308517D02*
X560758Y308355D01*
X559179Y307876D01*
X557724Y307098D01*
X556449Y306051D01*
X555402Y304776D01*
X554624Y303321D01*
X554145Y301742D01*
X553983Y300100D01*
X554145Y298458D01*
X554624Y296879D01*
X555402Y295424D01*
X556449Y294149D01*
X557724Y293102D01*
X559179Y292324D01*
X560758Y291845D01*
X562400Y291684D01*
X564042Y291845D01*
X565621Y292324D01*
X567076Y293102D01*
X568351Y294149D01*
X569398Y295424D01*
X570176Y296879D01*
X570655Y298458D01*
X570817Y300100D01*
X570655Y301742D01*
X570176Y303321D01*
X569398Y304776D01*
X568351Y306051D01*
X567076Y307098D01*
X565621Y307876D01*
X564042Y308355D01*
X562400Y308517D01*
D02*
G37*
G36*
X500000Y289295D02*
X498187Y289116D01*
X496443Y288587D01*
X494836Y287728D01*
X493428Y286572D01*
X492272Y285164D01*
X491413Y283557D01*
X490884Y281813D01*
X490705Y280000D01*
X490884Y278187D01*
X491413Y276443D01*
X492272Y274836D01*
X493428Y273428D01*
X494836Y272272D01*
X496443Y271413D01*
X498187Y270884D01*
X500000Y270705D01*
X501813Y270884D01*
X503557Y271413D01*
X505164Y272272D01*
X506572Y273428D01*
X507728Y274836D01*
X508587Y276443D01*
X509116Y278187D01*
X509295Y280000D01*
X509116Y281813D01*
X508587Y283557D01*
X507728Y285164D01*
X506572Y286572D01*
X505164Y287728D01*
X503557Y288587D01*
X501813Y289116D01*
X500000Y289295D01*
D02*
G37*
G36*
X557300Y266103D02*
Y262500D01*
X560903D01*
X560826Y263079D01*
X560410Y264084D01*
X559748Y264947D01*
X558884Y265610D01*
X557879Y266026D01*
X557300Y266103D01*
D02*
G37*
G36*
X556300D02*
X555721Y266026D01*
X554716Y265610D01*
X553853Y264947D01*
X553190Y264084D01*
X552774Y263079D01*
X552698Y262500D01*
X556300D01*
Y266103D01*
D02*
G37*
G36*
X560903Y261500D02*
X557300D01*
Y257897D01*
X557879Y257974D01*
X558884Y258390D01*
X559748Y259053D01*
X560410Y259916D01*
X560826Y260921D01*
X560903Y261500D01*
D02*
G37*
G36*
X556300D02*
X552698D01*
X552774Y260921D01*
X553190Y259916D01*
X553853Y259053D01*
X554716Y258390D01*
X555721Y257974D01*
X556300Y257897D01*
Y261500D01*
D02*
G37*
G36*
X562059Y278159D02*
X551541D01*
Y267641D01*
X561914D01*
X562185Y267575D01*
X562716Y267297D01*
X562877Y266077D01*
X563407Y264798D01*
X564250Y263700D01*
X565348Y262857D01*
X566420Y262412D01*
Y261588D01*
X565348Y261143D01*
X564250Y260300D01*
X563407Y259202D01*
X562877Y257923D01*
X562696Y256550D01*
X562877Y255177D01*
X563407Y253898D01*
X564250Y252800D01*
X565348Y251957D01*
X566627Y251427D01*
X568000Y251246D01*
X569373Y251427D01*
X570652Y251957D01*
X571750Y252800D01*
X572593Y253898D01*
X573123Y255177D01*
X573304Y256550D01*
X573123Y257923D01*
X572593Y259202D01*
X571750Y260300D01*
X570652Y261143D01*
X569580Y261588D01*
Y262412D01*
X570652Y262857D01*
X571750Y263700D01*
X572593Y264798D01*
X573123Y266077D01*
X573304Y267450D01*
X573123Y268823D01*
X572593Y270102D01*
X571750Y271200D01*
X570652Y272043D01*
X569373Y272573D01*
X568000Y272754D01*
X566627Y272573D01*
X565348Y272043D01*
X564250Y271200D01*
X563407Y270102D01*
X562877Y268823D01*
X562859Y268686D01*
X562059Y268738D01*
Y278159D01*
D02*
G37*
G36*
X568500Y249752D02*
Y246150D01*
X572102D01*
X572026Y246729D01*
X571610Y247734D01*
X570948Y248597D01*
X570084Y249260D01*
X569079Y249676D01*
X568500Y249752D01*
D02*
G37*
G36*
X567500D02*
X566921Y249676D01*
X565916Y249260D01*
X565053Y248597D01*
X564390Y247734D01*
X563974Y246729D01*
X563898Y246150D01*
X567500D01*
Y249752D01*
D02*
G37*
G36*
X572102Y245150D02*
X568500D01*
Y241547D01*
X569079Y241624D01*
X570084Y242040D01*
X570948Y242703D01*
X571610Y243566D01*
X572026Y244571D01*
X572102Y245150D01*
D02*
G37*
G36*
X567500D02*
X563898D01*
X563974Y244571D01*
X564390Y243566D01*
X565053Y242703D01*
X565916Y242040D01*
X566921Y241624D01*
X567500Y241547D01*
Y245150D01*
D02*
G37*
G36*
X556800Y256404D02*
X555427Y256223D01*
X554148Y255693D01*
X553050Y254851D01*
X552207Y253752D01*
X551677Y252473D01*
X551496Y251100D01*
X551677Y249727D01*
X552207Y248448D01*
X553050Y247350D01*
X554148Y246507D01*
X555220Y246062D01*
Y245238D01*
X554148Y244793D01*
X553050Y243951D01*
X552207Y242852D01*
X551677Y241573D01*
X551496Y240200D01*
X551677Y238827D01*
X552207Y237548D01*
X553050Y236450D01*
X554148Y235607D01*
X555427Y235077D01*
X556800Y234896D01*
X558173Y235077D01*
X559452Y235607D01*
X560550Y236450D01*
X561393Y237548D01*
X561923Y238827D01*
X562104Y240200D01*
X561923Y241573D01*
X561393Y242852D01*
X560550Y243951D01*
X559452Y244793D01*
X558380Y245238D01*
Y246062D01*
X559452Y246507D01*
X560550Y247350D01*
X561393Y248448D01*
X561923Y249727D01*
X562104Y251100D01*
X561923Y252473D01*
X561393Y253752D01*
X560550Y254851D01*
X559452Y255693D01*
X558173Y256223D01*
X556800Y256404D01*
D02*
G37*
G36*
X557300Y233402D02*
Y229800D01*
X560903D01*
X560826Y230379D01*
X560410Y231384D01*
X559748Y232247D01*
X558884Y232910D01*
X557879Y233326D01*
X557300Y233402D01*
D02*
G37*
G36*
X556300D02*
X555721Y233326D01*
X554716Y232910D01*
X553853Y232247D01*
X553190Y231384D01*
X552774Y230379D01*
X552698Y229800D01*
X556300D01*
Y233402D01*
D02*
G37*
G36*
X560903Y228800D02*
X557300D01*
Y225198D01*
X557879Y225274D01*
X558884Y225690D01*
X559748Y226353D01*
X560410Y227216D01*
X560826Y228221D01*
X560903Y228800D01*
D02*
G37*
G36*
X556300D02*
X552698D01*
X552774Y228221D01*
X553190Y227216D01*
X553853Y226353D01*
X554716Y225690D01*
X555721Y225274D01*
X556300Y225198D01*
Y228800D01*
D02*
G37*
G36*
X568000Y240054D02*
X566627Y239873D01*
X565348Y239343D01*
X564250Y238500D01*
X563407Y237402D01*
X562877Y236123D01*
X562696Y234750D01*
X562877Y233377D01*
X563407Y232098D01*
X564250Y230999D01*
X565348Y230157D01*
X566420Y229712D01*
Y228888D01*
X565348Y228443D01*
X564250Y227601D01*
X563407Y226502D01*
X562877Y225223D01*
X562696Y223850D01*
X562877Y222477D01*
X563407Y221198D01*
X564250Y220099D01*
X565348Y219257D01*
X566627Y218727D01*
X568000Y218546D01*
X569373Y218727D01*
X570652Y219257D01*
X571750Y220099D01*
X572593Y221198D01*
X573123Y222477D01*
X573304Y223850D01*
X573123Y225223D01*
X572593Y226502D01*
X571750Y227601D01*
X570652Y228443D01*
X569580Y228888D01*
Y229712D01*
X570652Y230157D01*
X571750Y230999D01*
X572593Y232098D01*
X573123Y233377D01*
X573304Y234750D01*
X573123Y236123D01*
X572593Y237402D01*
X571750Y238500D01*
X570652Y239343D01*
X569373Y239873D01*
X568000Y240054D01*
D02*
G37*
G36*
X568500Y217053D02*
Y213450D01*
X572102D01*
X572026Y214029D01*
X571610Y215034D01*
X570948Y215897D01*
X570084Y216560D01*
X569079Y216976D01*
X568500Y217053D01*
D02*
G37*
G36*
X567500D02*
X566921Y216976D01*
X565916Y216560D01*
X565053Y215897D01*
X564390Y215034D01*
X563974Y214029D01*
X563898Y213450D01*
X567500D01*
Y217053D01*
D02*
G37*
G36*
X572102Y212450D02*
X568500D01*
Y208847D01*
X569079Y208924D01*
X570084Y209340D01*
X570948Y210003D01*
X571610Y210866D01*
X572026Y211871D01*
X572102Y212450D01*
D02*
G37*
G36*
X567500D02*
X563898D01*
X563974Y211871D01*
X564390Y210866D01*
X565053Y210003D01*
X565916Y209340D01*
X566921Y208924D01*
X567500Y208847D01*
Y212450D01*
D02*
G37*
G36*
X556800Y223704D02*
X555427Y223523D01*
X554148Y222993D01*
X553050Y222150D01*
X552207Y221052D01*
X551677Y219773D01*
X551496Y218400D01*
X551677Y217027D01*
X552207Y215748D01*
X553050Y214650D01*
X554148Y213807D01*
X555220Y213362D01*
Y212538D01*
X554148Y212093D01*
X553050Y211250D01*
X552207Y210152D01*
X551677Y208873D01*
X551496Y207500D01*
X551677Y206127D01*
X552207Y204848D01*
X553050Y203749D01*
X554148Y202907D01*
X555427Y202377D01*
X556800Y202196D01*
X558173Y202377D01*
X559452Y202907D01*
X560550Y203749D01*
X561393Y204848D01*
X561923Y206127D01*
X562104Y207500D01*
X561923Y208873D01*
X561393Y210152D01*
X560550Y211250D01*
X559452Y212093D01*
X558380Y212538D01*
Y213362D01*
X559452Y213807D01*
X560550Y214650D01*
X561393Y215748D01*
X561923Y217027D01*
X562104Y218400D01*
X561923Y219773D01*
X561393Y221052D01*
X560550Y222150D01*
X559452Y222993D01*
X558173Y223523D01*
X556800Y223704D01*
D02*
G37*
G36*
X557300Y200703D02*
Y197100D01*
X560903D01*
X560826Y197679D01*
X560410Y198684D01*
X559748Y199548D01*
X558884Y200210D01*
X557879Y200626D01*
X557300Y200703D01*
D02*
G37*
G36*
X556300D02*
X555721Y200626D01*
X554716Y200210D01*
X553853Y199548D01*
X553190Y198684D01*
X552774Y197679D01*
X552698Y197100D01*
X556300D01*
Y200703D01*
D02*
G37*
G36*
X560903Y196100D02*
X557300D01*
Y192498D01*
X557879Y192574D01*
X558884Y192990D01*
X559748Y193652D01*
X560410Y194516D01*
X560826Y195521D01*
X560903Y196100D01*
D02*
G37*
G36*
X556300D02*
X552698D01*
X552774Y195521D01*
X553190Y194516D01*
X553853Y193652D01*
X554716Y192990D01*
X555721Y192574D01*
X556300Y192498D01*
Y196100D01*
D02*
G37*
G36*
X568000Y207354D02*
X566627Y207173D01*
X565348Y206643D01*
X564250Y205801D01*
X563407Y204702D01*
X562877Y203423D01*
X562696Y202050D01*
X562877Y200677D01*
X563407Y199398D01*
X564250Y198300D01*
X565348Y197457D01*
X566420Y197012D01*
Y196188D01*
X565348Y195743D01*
X564250Y194901D01*
X563407Y193802D01*
X562877Y192523D01*
X562696Y191150D01*
X562877Y189777D01*
X563407Y188498D01*
X564250Y187399D01*
X565348Y186557D01*
X566627Y186027D01*
X568000Y185846D01*
X569373Y186027D01*
X570652Y186557D01*
X571750Y187399D01*
X572593Y188498D01*
X573123Y189777D01*
X573304Y191150D01*
X573123Y192523D01*
X572593Y193802D01*
X571750Y194901D01*
X570652Y195743D01*
X569580Y196188D01*
Y197012D01*
X570652Y197457D01*
X571750Y198300D01*
X572593Y199398D01*
X573123Y200677D01*
X573304Y202050D01*
X573123Y203423D01*
X572593Y204702D01*
X571750Y205801D01*
X570652Y206643D01*
X569373Y207173D01*
X568000Y207354D01*
D02*
G37*
G36*
X568500Y184353D02*
Y180750D01*
X572102D01*
X572026Y181329D01*
X571610Y182334D01*
X570948Y183197D01*
X570084Y183860D01*
X569079Y184276D01*
X568500Y184353D01*
D02*
G37*
G36*
X567500D02*
X566921Y184276D01*
X565916Y183860D01*
X565053Y183197D01*
X564390Y182334D01*
X563974Y181329D01*
X563898Y180750D01*
X567500D01*
Y184353D01*
D02*
G37*
G36*
X572102Y179750D02*
X568500D01*
Y176147D01*
X569079Y176224D01*
X570084Y176640D01*
X570948Y177303D01*
X571610Y178166D01*
X572026Y179171D01*
X572102Y179750D01*
D02*
G37*
G36*
X567500D02*
X563898D01*
X563974Y179171D01*
X564390Y178166D01*
X565053Y177303D01*
X565916Y176640D01*
X566921Y176224D01*
X567500Y176147D01*
Y179750D01*
D02*
G37*
G36*
X556800Y191004D02*
X555427Y190823D01*
X554148Y190293D01*
X553050Y189451D01*
X552207Y188352D01*
X551677Y187073D01*
X551496Y185700D01*
X551677Y184327D01*
X552207Y183048D01*
X553050Y181949D01*
X554148Y181107D01*
X555220Y180662D01*
Y179838D01*
X554148Y179393D01*
X553050Y178551D01*
X552207Y177452D01*
X551677Y176173D01*
X551496Y174800D01*
X551677Y173427D01*
X552207Y172148D01*
X553050Y171049D01*
X554148Y170207D01*
X555427Y169677D01*
X556800Y169496D01*
X558173Y169677D01*
X559452Y170207D01*
X560550Y171049D01*
X561393Y172148D01*
X561923Y173427D01*
X562104Y174800D01*
X561923Y176173D01*
X561393Y177452D01*
X560550Y178551D01*
X559452Y179393D01*
X558380Y179838D01*
Y180662D01*
X559452Y181107D01*
X560550Y181949D01*
X561393Y183048D01*
X561923Y184327D01*
X562104Y185700D01*
X561923Y187073D01*
X561393Y188352D01*
X560550Y189451D01*
X559452Y190293D01*
X558173Y190823D01*
X556800Y191004D01*
D02*
G37*
G36*
X557300Y168002D02*
Y164400D01*
X560903D01*
X560826Y164979D01*
X560410Y165984D01*
X559748Y166848D01*
X558884Y167510D01*
X557879Y167926D01*
X557300Y168002D01*
D02*
G37*
G36*
X556300D02*
X555721Y167926D01*
X554716Y167510D01*
X553853Y166848D01*
X553190Y165984D01*
X552774Y164979D01*
X552698Y164400D01*
X556300D01*
Y168002D01*
D02*
G37*
G36*
X560903Y163400D02*
X557300D01*
Y159798D01*
X557879Y159874D01*
X558884Y160290D01*
X559748Y160952D01*
X560410Y161816D01*
X560826Y162821D01*
X560903Y163400D01*
D02*
G37*
G36*
X556300D02*
X552698D01*
X552774Y162821D01*
X553190Y161816D01*
X553853Y160952D01*
X554716Y160290D01*
X555721Y159874D01*
X556300Y159798D01*
Y163400D01*
D02*
G37*
G36*
X568000Y174654D02*
X566627Y174473D01*
X565348Y173943D01*
X564250Y173100D01*
X563407Y172002D01*
X562877Y170723D01*
X562696Y169350D01*
X562877Y167977D01*
X563407Y166698D01*
X564250Y165600D01*
X565348Y164757D01*
X566420Y164312D01*
Y163488D01*
X565348Y163043D01*
X564250Y162200D01*
X563407Y161102D01*
X562877Y159823D01*
X562696Y158450D01*
X562877Y157077D01*
X563407Y155798D01*
X564250Y154700D01*
X565348Y153857D01*
X566627Y153327D01*
X568000Y153146D01*
X569373Y153327D01*
X570652Y153857D01*
X571750Y154700D01*
X572593Y155798D01*
X573123Y157077D01*
X573304Y158450D01*
X573123Y159823D01*
X572593Y161102D01*
X571750Y162200D01*
X570652Y163043D01*
X569580Y163488D01*
Y164312D01*
X570652Y164757D01*
X571750Y165600D01*
X572593Y166698D01*
X573123Y167977D01*
X573304Y169350D01*
X573123Y170723D01*
X572593Y172002D01*
X571750Y173100D01*
X570652Y173943D01*
X569373Y174473D01*
X568000Y174654D01*
D02*
G37*
G36*
X568500Y151653D02*
Y148050D01*
X572102D01*
X572026Y148629D01*
X571610Y149634D01*
X570948Y150497D01*
X570084Y151160D01*
X569079Y151576D01*
X568500Y151653D01*
D02*
G37*
G36*
X567500D02*
X566921Y151576D01*
X565916Y151160D01*
X565053Y150497D01*
X564390Y149634D01*
X563974Y148629D01*
X563898Y148050D01*
X567500D01*
Y151653D01*
D02*
G37*
G36*
X572102Y147050D02*
X568500D01*
Y143447D01*
X569079Y143524D01*
X570084Y143940D01*
X570948Y144603D01*
X571610Y145466D01*
X572026Y146471D01*
X572102Y147050D01*
D02*
G37*
G36*
X567500D02*
X563898D01*
X563974Y146471D01*
X564390Y145466D01*
X565053Y144603D01*
X565916Y143940D01*
X566921Y143524D01*
X567500Y143447D01*
Y147050D01*
D02*
G37*
G36*
X556800Y158304D02*
X555427Y158123D01*
X554148Y157593D01*
X553050Y156751D01*
X552207Y155652D01*
X551677Y154373D01*
X551496Y153000D01*
X551677Y151627D01*
X552207Y150348D01*
X553050Y149249D01*
X554148Y148407D01*
X555220Y147962D01*
Y147138D01*
X554148Y146693D01*
X553050Y145851D01*
X552207Y144752D01*
X551677Y143473D01*
X551496Y142100D01*
X551677Y140727D01*
X552207Y139448D01*
X553050Y138349D01*
X554148Y137507D01*
X555427Y136977D01*
X556800Y136796D01*
X558173Y136977D01*
X559452Y137507D01*
X560550Y138349D01*
X561393Y139448D01*
X561923Y140727D01*
X562104Y142100D01*
X561923Y143473D01*
X561393Y144752D01*
X560550Y145851D01*
X559452Y146693D01*
X558380Y147138D01*
Y147962D01*
X559452Y148407D01*
X560550Y149249D01*
X561393Y150348D01*
X561923Y151627D01*
X562104Y153000D01*
X561923Y154373D01*
X561393Y155652D01*
X560550Y156751D01*
X559452Y157593D01*
X558173Y158123D01*
X556800Y158304D01*
D02*
G37*
G36*
X562400Y123317D02*
X560758Y123155D01*
X559179Y122676D01*
X557724Y121898D01*
X556449Y120851D01*
X555402Y119576D01*
X554624Y118121D01*
X554145Y116542D01*
X553983Y114900D01*
X554145Y113258D01*
X554624Y111679D01*
X555402Y110224D01*
X556449Y108949D01*
X557724Y107902D01*
X559179Y107124D01*
X560758Y106645D01*
X562400Y106483D01*
X564042Y106645D01*
X565621Y107124D01*
X567076Y107902D01*
X568351Y108949D01*
X569398Y110224D01*
X570176Y111679D01*
X570655Y113258D01*
X570817Y114900D01*
X570655Y116542D01*
X570176Y118121D01*
X569398Y119576D01*
X568351Y120851D01*
X567076Y121898D01*
X565621Y122676D01*
X564042Y123155D01*
X562400Y123317D01*
D02*
G37*
%LPD*%
D20*
X107500Y125000D02*
D03*
X542500Y300000D02*
D03*
X107500Y290000D02*
D03*
D22*
X188000Y261000D02*
D03*
X182685D02*
D03*
X188000Y221000D02*
D03*
X182685D02*
D03*
X188000Y181000D02*
D03*
X182685D02*
D03*
X188000Y136000D02*
D03*
X182685D02*
D03*
X148658Y207500D02*
D03*
X143342D02*
D03*
X211142Y290000D02*
D03*
X216458D02*
D03*
X197000Y153500D02*
D03*
X202315D02*
D03*
Y193500D02*
D03*
X197000D02*
D03*
Y233500D02*
D03*
X202315D02*
D03*
Y273500D02*
D03*
X197000D02*
D03*
X202315Y138500D02*
D03*
X197000D02*
D03*
Y178500D02*
D03*
X202315D02*
D03*
Y218500D02*
D03*
X197000D02*
D03*
Y258500D02*
D03*
X202315D02*
D03*
X143342Y152500D02*
D03*
X148658D02*
D03*
Y162500D02*
D03*
X143342D02*
D03*
X143842Y182500D02*
D03*
X149158D02*
D03*
Y172500D02*
D03*
X143842D02*
D03*
Y242500D02*
D03*
X149158D02*
D03*
Y252500D02*
D03*
X143842D02*
D03*
X143342Y262500D02*
D03*
X148658D02*
D03*
Y272500D02*
D03*
X143342D02*
D03*
D23*
X188000Y253500D02*
D03*
X181701D02*
D03*
X188000Y213500D02*
D03*
X181701D02*
D03*
X188000Y173500D02*
D03*
X181701D02*
D03*
X188000Y143500D02*
D03*
X181701D02*
D03*
X203299Y146000D02*
D03*
X197000D02*
D03*
Y186000D02*
D03*
X203299D02*
D03*
Y226000D02*
D03*
X197000D02*
D03*
Y266000D02*
D03*
X203299D02*
D03*
X248850Y268000D02*
D03*
X255150D02*
D03*
X278150Y287500D02*
D03*
X271850D02*
D03*
D33*
X562400Y114900D02*
D03*
Y300100D02*
D03*
D34*
X568000Y147550D02*
D03*
Y158450D02*
D03*
Y169350D02*
D03*
Y180250D02*
D03*
Y191150D02*
D03*
Y202050D02*
D03*
Y212950D02*
D03*
Y223850D02*
D03*
Y234750D02*
D03*
Y245650D02*
D03*
Y256550D02*
D03*
Y267450D02*
D03*
X556800Y142100D02*
D03*
Y153000D02*
D03*
Y163900D02*
D03*
Y174800D02*
D03*
Y185700D02*
D03*
Y196600D02*
D03*
Y207500D02*
D03*
Y218400D02*
D03*
Y229300D02*
D03*
Y240200D02*
D03*
Y251100D02*
D03*
Y262000D02*
D03*
D35*
Y272900D02*
D03*
D40*
X500000Y125000D02*
D03*
Y145000D02*
D03*
X490000Y135000D02*
D03*
X510000D02*
D03*
X507000Y128000D02*
D03*
X493000D02*
D03*
Y142000D02*
D03*
X507000D02*
D03*
D43*
X495725Y185500D02*
X494682Y185068D01*
X494250Y184025D01*
X491300Y183994D02*
X491582Y183127D01*
X492319Y182591D01*
X493231D01*
X493968Y183127D01*
X494250Y183994D01*
X491300Y185075D02*
X491018Y185942D01*
X490281Y186478D01*
X489369D01*
X488632Y185942D01*
X488350Y185075D01*
X485400Y182466D02*
X485682Y181599D01*
X486419Y181063D01*
X487331D01*
X488068Y181599D01*
X488350Y182466D01*
X485400Y184025D02*
X484968Y185068D01*
X483925Y185500D01*
X495725D02*
X499000D01*
X494250Y183994D02*
Y184025D01*
X491300Y183994D02*
Y185075D01*
X488350Y182466D02*
Y185075D01*
X485400Y182466D02*
Y184025D01*
X480500Y185500D02*
X483925D01*
X479500D02*
X480500D01*
X499000D02*
X500000D01*
X443000Y222000D02*
X479500Y185500D01*
X467000Y169500D02*
X500000D01*
X473500Y175000D02*
X500000D01*
X458500Y190000D02*
X473500Y175000D01*
X358000Y190000D02*
X458500D01*
X496000Y207500D02*
X500000D01*
X358000Y270000D02*
X433500D01*
X496000Y207500D01*
X491000Y202000D02*
X500000D01*
X431000Y262000D02*
X491000Y202000D01*
X446500Y230000D02*
X485000Y191500D01*
X500000D01*
X358000Y230000D02*
X446500D01*
X358000Y222000D02*
X443000D01*
X358000Y182000D02*
X454500D01*
X467000Y169500D01*
X358000Y262000D02*
X431000D01*
X478000Y158000D02*
X500000D01*
X485000Y153000D02*
X500000D01*
X474000Y142000D02*
X485000Y153000D01*
X470000Y150000D02*
X478000Y158000D01*
X197000Y218500D02*
Y226000D01*
Y233500D01*
X358000Y150000D02*
X470000D01*
X358000Y142000D02*
X474000D01*
X211500Y153500D02*
X215000Y150000D01*
X202315Y138500D02*
X211500D01*
X215000Y142000D01*
X202315Y153500D02*
X211500D01*
X202315Y178500D02*
X211500D01*
X215000Y182000D01*
X202315Y193500D02*
X211500D01*
X215000Y190000D01*
X202315Y218500D02*
X211500D01*
X215000Y222000D01*
X202315Y233500D02*
X211500D01*
X215000Y230000D01*
X202315Y258500D02*
X211500D01*
X215000Y262000D01*
X202315Y273500D02*
X211500D01*
X215000Y270000D01*
X197000Y258500D02*
Y266000D01*
Y273500D01*
Y178500D02*
Y186000D01*
Y193500D01*
Y138500D02*
Y146000D01*
Y153500D01*
D44*
X172500Y136000D02*
X182685D01*
X188000D02*
Y143500D01*
X156000Y277500D02*
X172500Y261000D01*
X125000Y277500D02*
X156000D01*
X172500Y261000D02*
X182685D01*
X188000Y253500D02*
Y261000D01*
Y213500D02*
Y221000D01*
X175000D02*
X182685D01*
X172500Y218500D02*
X175000Y221000D01*
X172500Y181000D02*
X182685D01*
X125000Y187500D02*
X166000D01*
X172500Y181000D01*
X188000Y173500D02*
Y181000D01*
X148658Y152500D02*
X154000D01*
X150157Y162500D02*
X154000D01*
X150315Y182500D02*
X154000D01*
X149158Y242500D02*
X154000D01*
X149158Y252500D02*
X154000D01*
X148658Y262500D02*
X154000D01*
X148658Y272500D02*
X154000D01*
X115000Y167500D02*
X120000Y162500D01*
X130000D02*
X140000Y152500D01*
X120000Y162500D02*
X130000D01*
X140000Y152500D02*
X143342D01*
X140000Y162500D02*
X143342D01*
X135000Y167500D02*
X140000Y162500D01*
X125000Y167500D02*
X135000D01*
X125000Y177500D02*
X135000D01*
X140000Y172500D01*
X144843D01*
X149158D02*
X154000D01*
X115000Y177500D02*
X120000Y182500D01*
X145000D01*
X125000Y257500D02*
X135000D01*
X140000Y252500D01*
X143842D01*
X140000Y242500D02*
X143842D01*
X120000Y252500D02*
X130000D01*
X140000Y242500D01*
X115000Y257500D02*
X120000Y252500D01*
X125000Y267500D02*
X135000D01*
X140000Y262500D01*
X143342D01*
X115000Y267500D02*
X120000Y272500D01*
X143342D01*
D45*
X148500Y207500D02*
X148995Y207005D01*
Y202505D02*
Y207005D01*
Y202505D02*
X149000Y202500D01*
X148500Y207500D02*
X148658D01*
X143005Y207162D02*
X143342Y207500D01*
X143005Y202505D02*
Y207162D01*
X143000Y202500D02*
X143005Y202505D01*
X175500Y253500D02*
X181701D01*
X175500Y213500D02*
X181701D01*
X175500Y173500D02*
X181701D01*
X175500Y143500D02*
X181701D01*
X278150Y287500D02*
X282500D01*
X271665Y287315D02*
X271850Y287500D01*
X263965Y287315D02*
X271665D01*
X263779Y287130D02*
X263965Y287315D01*
X216458Y290000D02*
X216795Y289662D01*
Y285005D02*
Y289662D01*
Y285005D02*
X216800Y285000D01*
X205800Y290000D02*
X211142D01*
X203299Y266000D02*
X210000D01*
X203299Y226000D02*
X210000D01*
X203299Y146000D02*
X210000D01*
X203299Y186000D02*
X210000D01*
X236211Y287140D02*
X236221Y287130D01*
X246063D01*
X259842Y276500D02*
X260971D01*
X263779Y279309D01*
Y287130D01*
X236221Y279309D02*
Y287130D01*
Y279309D02*
X239029Y276500D01*
X240158D01*
X246063Y287130D02*
X253937D01*
X263779D01*
X255150Y267803D02*
Y268000D01*
Y267803D02*
X255921Y267032D01*
X256118D01*
X257145Y266005D01*
X258995D01*
X259000Y266000D01*
D46*
X263779Y287130D02*
D03*
X236221D02*
D03*
D47*
X259842Y276500D02*
D03*
X240158D02*
D03*
D48*
X500000Y135000D02*
D03*
D49*
X125000Y277500D02*
D03*
Y187500D02*
D03*
D50*
Y267500D02*
D03*
Y257500D02*
D03*
Y247500D02*
D03*
Y237500D02*
D03*
Y227500D02*
D03*
X115000D02*
D03*
Y257500D02*
D03*
Y237500D02*
D03*
Y277500D02*
D03*
Y267500D02*
D03*
Y247500D02*
D03*
X125000Y177500D02*
D03*
Y167500D02*
D03*
Y157500D02*
D03*
Y147500D02*
D03*
Y137500D02*
D03*
X115000D02*
D03*
Y167500D02*
D03*
Y147500D02*
D03*
Y187500D02*
D03*
Y177500D02*
D03*
Y157500D02*
D03*
D51*
X501968Y210236D02*
D03*
Y199213D02*
D03*
Y194488D02*
D03*
Y182677D02*
D03*
Y150000D02*
D03*
Y177953D02*
D03*
Y166535D02*
D03*
Y161024D02*
D03*
X442000Y216000D02*
D03*
Y256000D02*
D03*
X358000Y276000D02*
D03*
X298000Y266000D02*
D03*
Y226000D02*
D03*
X299000Y186000D02*
D03*
Y146000D02*
D03*
X132500Y172500D02*
D03*
Y262500D02*
D03*
X172500Y223500D02*
D03*
X215000Y146000D02*
D03*
Y186000D02*
D03*
Y226000D02*
D03*
Y266000D02*
D03*
X175500Y264000D02*
D03*
X169500Y258000D02*
D03*
X313000Y135000D02*
D03*
Y157000D02*
D03*
Y175000D02*
D03*
Y197000D02*
D03*
Y215000D02*
D03*
Y237000D02*
D03*
Y255000D02*
D03*
Y278000D02*
D03*
X175500Y132500D02*
D03*
Y184000D02*
D03*
X169500Y178000D02*
D03*
X204500Y123500D02*
D03*
Y163500D02*
D03*
Y203500D02*
D03*
Y243500D02*
D03*
X442000Y176000D02*
D03*
X320000Y126000D02*
D03*
Y166000D02*
D03*
Y206000D02*
D03*
Y286000D02*
D03*
Y246000D02*
D03*
X228500Y239000D02*
D03*
Y199000D02*
D03*
Y159000D02*
D03*
X272500Y155000D02*
D03*
Y195000D02*
D03*
Y235000D02*
D03*
X275000Y136500D02*
D03*
Y176500D02*
D03*
Y216500D02*
D03*
Y256500D02*
D03*
X398500Y146000D02*
D03*
Y186000D02*
D03*
Y226000D02*
D03*
X398000Y266000D02*
D03*
X350385Y285891D02*
D03*
X350500Y126000D02*
D03*
Y166000D02*
D03*
X350440Y245971D02*
D03*
X259000Y246000D02*
D03*
Y126000D02*
D03*
Y166000D02*
D03*
Y206000D02*
D03*
X305000D02*
D03*
X350500D02*
D03*
X228500Y139000D02*
D03*
Y179000D02*
D03*
Y219000D02*
D03*
Y259000D02*
D03*
X259000Y146000D02*
D03*
Y186000D02*
D03*
Y226000D02*
D03*
X358000Y136000D02*
D03*
Y146000D02*
D03*
Y156000D02*
D03*
Y256000D02*
D03*
Y266000D02*
D03*
Y236000D02*
D03*
Y226000D02*
D03*
Y216000D02*
D03*
Y196000D02*
D03*
Y176000D02*
D03*
Y186000D02*
D03*
X422000Y246000D02*
D03*
Y286000D02*
D03*
Y126000D02*
D03*
Y166000D02*
D03*
Y206000D02*
D03*
X342000Y216000D02*
D03*
Y256000D02*
D03*
X320000Y266000D02*
D03*
X342000Y236000D02*
D03*
Y276000D02*
D03*
X442000Y236000D02*
D03*
X420000Y266000D02*
D03*
X442000Y276000D02*
D03*
X320000Y226000D02*
D03*
X420000D02*
D03*
X320000Y146000D02*
D03*
X342000Y136000D02*
D03*
Y156000D02*
D03*
Y176000D02*
D03*
X320000Y186000D02*
D03*
X342000Y196000D02*
D03*
X442000Y136000D02*
D03*
X420000Y146000D02*
D03*
X442000Y156000D02*
D03*
X420000Y186000D02*
D03*
X442000Y196000D02*
D03*
D52*
X500000Y207500D02*
D03*
Y202000D02*
D03*
Y191500D02*
D03*
Y185500D02*
D03*
Y175000D02*
D03*
Y169500D02*
D03*
Y158000D02*
D03*
Y153000D02*
D03*
X149000Y202500D02*
D03*
X143000D02*
D03*
X149500Y212000D02*
D03*
X172500Y286000D02*
D03*
Y261000D02*
D03*
X175500Y253500D02*
D03*
X172500Y218500D02*
D03*
X175500Y213500D02*
D03*
X172500Y181000D02*
D03*
X175500Y173500D02*
D03*
X172500Y136000D02*
D03*
X175500Y143500D02*
D03*
X282500Y287500D02*
D03*
X216800Y285000D02*
D03*
X205800Y290000D02*
D03*
X221800D02*
D03*
X175500Y228500D02*
D03*
Y268500D02*
D03*
Y148500D02*
D03*
Y188500D02*
D03*
X210000Y266000D02*
D03*
Y226000D02*
D03*
Y146000D02*
D03*
Y186000D02*
D03*
X154000Y152500D02*
D03*
Y162500D02*
D03*
Y182500D02*
D03*
Y242500D02*
D03*
Y252500D02*
D03*
Y262500D02*
D03*
Y272500D02*
D03*
X294000Y134000D02*
D03*
X286500Y137500D02*
D03*
X278000Y158000D02*
D03*
X285500Y154500D02*
D03*
X294000Y174000D02*
D03*
X286500Y177500D02*
D03*
X278000Y198000D02*
D03*
X285500Y194500D02*
D03*
X294000Y214000D02*
D03*
X286500Y217500D02*
D03*
X259000Y266000D02*
D03*
X215000Y150000D02*
D03*
X211500Y163500D02*
D03*
Y203500D02*
D03*
Y243500D02*
D03*
Y283500D02*
D03*
X172500Y166000D02*
D03*
Y206000D02*
D03*
Y246000D02*
D03*
X285500Y234500D02*
D03*
X278000Y238000D02*
D03*
X294000Y254000D02*
D03*
X286500Y257500D02*
D03*
X282000Y274000D02*
D03*
Y282000D02*
D03*
X390000Y130000D02*
D03*
Y138000D02*
D03*
X382000Y154000D02*
D03*
Y162000D02*
D03*
X390000Y170000D02*
D03*
X382000Y202000D02*
D03*
X390000Y178000D02*
D03*
X382000Y194000D02*
D03*
X390000Y210000D02*
D03*
Y218000D02*
D03*
X382000Y234000D02*
D03*
Y242000D02*
D03*
Y274000D02*
D03*
Y282000D02*
D03*
X390000Y250000D02*
D03*
Y258000D02*
D03*
X358000Y142000D02*
D03*
Y150000D02*
D03*
Y182000D02*
D03*
Y190000D02*
D03*
Y222000D02*
D03*
Y230000D02*
D03*
Y270000D02*
D03*
Y262000D02*
D03*
X215000Y142000D02*
D03*
Y182000D02*
D03*
Y190000D02*
D03*
Y222000D02*
D03*
Y230000D02*
D03*
Y262000D02*
D03*
Y270000D02*
D03*
X154000Y172500D02*
D03*
D54*
X253937Y287130D02*
D03*
X246063D02*
D03*
D55*
X255118Y276500D02*
D03*
X252559D02*
D03*
X250000D02*
D03*
X247441D02*
D03*
X244882D02*
D03*
D56*
X255118D02*
X255134Y276484D01*
Y268016D02*
Y276484D01*
M02*
