G04*
G04 #@! TF.GenerationSoftware,Altium Limited,Altium Designer,20.2.6 (244)*
G04*
G04 Layer_Color=255*
%FSLAX25Y25*%
%MOIN*%
G70*
G04*
G04 #@! TF.SameCoordinates,92151F8D-A914-4CFD-8B26-E94C02A97E6A*
G04*
G04*
G04 #@! TF.FilePolarity,Positive*
G04*
G01*
G75*
%ADD20C,0.03937*%
%ADD22R,0.03150X0.03740*%
%ADD23R,0.03543X0.03937*%
%ADD33C,0.12500*%
%ADD34C,0.06265*%
%ADD35R,0.06265X0.06265*%
%ADD46O,0.03740X0.06102*%
%ADD47O,0.05118X0.03740*%
%ADD48C,0.23622*%
%ADD49R,0.06000X0.06000*%
%ADD50C,0.06000*%
%ADD54R,0.05906X0.06102*%
%ADD55R,0.01378X0.05315*%
D20*
X107500Y125000D02*
D03*
X542500Y300000D02*
D03*
X107500Y290000D02*
D03*
D22*
X188000Y261000D02*
D03*
X182685D02*
D03*
X188000Y221000D02*
D03*
X182685D02*
D03*
X188000Y181000D02*
D03*
X182685D02*
D03*
X188000Y136000D02*
D03*
X182685D02*
D03*
X148658Y207500D02*
D03*
X143342D02*
D03*
X211142Y290000D02*
D03*
X216458D02*
D03*
X197000Y153500D02*
D03*
X202315D02*
D03*
Y193500D02*
D03*
X197000D02*
D03*
Y233500D02*
D03*
X202315D02*
D03*
Y273500D02*
D03*
X197000D02*
D03*
X202315Y138500D02*
D03*
X197000D02*
D03*
Y178500D02*
D03*
X202315D02*
D03*
Y218500D02*
D03*
X197000D02*
D03*
Y258500D02*
D03*
X202315D02*
D03*
X143342Y152500D02*
D03*
X148658D02*
D03*
Y162500D02*
D03*
X143342D02*
D03*
X143842Y182500D02*
D03*
X149158D02*
D03*
Y172500D02*
D03*
X143842D02*
D03*
Y242500D02*
D03*
X149158D02*
D03*
Y252500D02*
D03*
X143842D02*
D03*
X143342Y262500D02*
D03*
X148658D02*
D03*
Y272500D02*
D03*
X143342D02*
D03*
D23*
X188000Y253500D02*
D03*
X181701D02*
D03*
X188000Y213500D02*
D03*
X181701D02*
D03*
X188000Y173500D02*
D03*
X181701D02*
D03*
X188000Y143500D02*
D03*
X181701D02*
D03*
X203299Y146000D02*
D03*
X197000D02*
D03*
Y186000D02*
D03*
X203299D02*
D03*
Y226000D02*
D03*
X197000D02*
D03*
Y266000D02*
D03*
X203299D02*
D03*
X248850Y268000D02*
D03*
X255150D02*
D03*
X278150Y287500D02*
D03*
X271850D02*
D03*
D33*
X562400Y114900D02*
D03*
Y300100D02*
D03*
D34*
X568000Y147550D02*
D03*
Y158450D02*
D03*
Y169350D02*
D03*
Y180250D02*
D03*
Y191150D02*
D03*
Y202050D02*
D03*
Y212950D02*
D03*
Y223850D02*
D03*
Y234750D02*
D03*
Y245650D02*
D03*
Y256550D02*
D03*
Y267450D02*
D03*
X556800Y142100D02*
D03*
Y153000D02*
D03*
Y163900D02*
D03*
Y174800D02*
D03*
Y185700D02*
D03*
Y196600D02*
D03*
Y207500D02*
D03*
Y218400D02*
D03*
Y229300D02*
D03*
Y240200D02*
D03*
Y251100D02*
D03*
Y262000D02*
D03*
D35*
Y272900D02*
D03*
D46*
X263779Y287130D02*
D03*
X236221D02*
D03*
D47*
X259842Y276500D02*
D03*
X240158D02*
D03*
D48*
X500000Y135000D02*
D03*
D49*
X125000Y277500D02*
D03*
Y187500D02*
D03*
D50*
Y267500D02*
D03*
Y257500D02*
D03*
Y247500D02*
D03*
Y237500D02*
D03*
Y227500D02*
D03*
X115000D02*
D03*
Y257500D02*
D03*
Y237500D02*
D03*
Y277500D02*
D03*
Y267500D02*
D03*
Y247500D02*
D03*
X125000Y177500D02*
D03*
Y167500D02*
D03*
Y157500D02*
D03*
Y147500D02*
D03*
Y137500D02*
D03*
X115000D02*
D03*
Y167500D02*
D03*
Y147500D02*
D03*
Y187500D02*
D03*
Y177500D02*
D03*
Y157500D02*
D03*
D54*
X253937Y287130D02*
D03*
X246063D02*
D03*
D55*
X255118Y276500D02*
D03*
X252559D02*
D03*
X250000D02*
D03*
X247441D02*
D03*
X244882D02*
D03*
M02*
