G04*
G04 #@! TF.GenerationSoftware,Altium Limited,Altium Designer,20.2.6 (244)*
G04*
G04 Layer_Color=8388736*
%FSLAX25Y25*%
%MOIN*%
G70*
G04*
G04 #@! TF.SameCoordinates,92151F8D-A914-4CFD-8B26-E94C02A97E6A*
G04*
G04*
G04 #@! TF.FilePolarity,Negative*
G04*
G01*
G75*
%ADD17R,0.03150X0.03543*%
%ADD24R,0.06693X0.04331*%
%ADD25R,0.03661X0.02854*%
%ADD26R,0.03543X0.03543*%
%ADD27C,0.07874*%
%ADD28O,0.06102X0.02756*%
%ADD29R,0.03543X0.04134*%
%ADD30R,0.03937X0.04331*%
%ADD31O,0.04134X0.06496*%
%ADD32O,0.05512X0.04134*%
%ADD33C,0.12500*%
%ADD34C,0.06265*%
%ADD35R,0.06265X0.06265*%
%ADD36C,0.24016*%
%ADD37C,0.00394*%
%ADD38R,0.06394X0.06394*%
%ADD39C,0.06394*%
%ADD40C,0.02500*%
%ADD41C,0.03156*%
%ADD42C,0.02425*%
D17*
X289740Y157874D02*
D03*
X282260D02*
D03*
X286000Y150000D02*
D03*
Y190000D02*
D03*
X282260Y197874D02*
D03*
X289740D02*
D03*
Y237874D02*
D03*
X282260D02*
D03*
X286000Y230000D02*
D03*
Y270000D02*
D03*
X282260Y277874D02*
D03*
X289740D02*
D03*
X282260Y134126D02*
D03*
X289740D02*
D03*
X286000Y142000D02*
D03*
Y182000D02*
D03*
X289740Y174126D02*
D03*
X282260D02*
D03*
Y214126D02*
D03*
X289740D02*
D03*
X286000Y222000D02*
D03*
Y262000D02*
D03*
X289740Y254126D02*
D03*
X282260D02*
D03*
X389740Y157874D02*
D03*
X382260D02*
D03*
X386000Y150000D02*
D03*
Y190000D02*
D03*
X382260Y197874D02*
D03*
X389740D02*
D03*
Y237874D02*
D03*
X382260D02*
D03*
X386000Y230000D02*
D03*
Y270000D02*
D03*
X382260Y277874D02*
D03*
X389740D02*
D03*
X382260Y134126D02*
D03*
X389740D02*
D03*
X386000Y142000D02*
D03*
Y182000D02*
D03*
X389740Y174126D02*
D03*
X382260D02*
D03*
Y214126D02*
D03*
X389740D02*
D03*
X386000Y222000D02*
D03*
Y262000D02*
D03*
X389740Y254126D02*
D03*
X382260D02*
D03*
D24*
X350276Y156000D02*
D03*
Y146000D02*
D03*
Y136000D02*
D03*
X305000D02*
D03*
Y146000D02*
D03*
Y156000D02*
D03*
Y196000D02*
D03*
Y186000D02*
D03*
Y176000D02*
D03*
X350276D02*
D03*
Y186000D02*
D03*
Y196000D02*
D03*
Y236000D02*
D03*
Y226000D02*
D03*
Y216000D02*
D03*
X305000D02*
D03*
Y226000D02*
D03*
Y236000D02*
D03*
Y276000D02*
D03*
Y266000D02*
D03*
Y256000D02*
D03*
X350276D02*
D03*
Y266000D02*
D03*
Y276000D02*
D03*
X450276Y156000D02*
D03*
Y146000D02*
D03*
Y136000D02*
D03*
X405000D02*
D03*
Y146000D02*
D03*
Y156000D02*
D03*
X404862Y196000D02*
D03*
Y186000D02*
D03*
Y176000D02*
D03*
X450138D02*
D03*
Y186000D02*
D03*
Y196000D02*
D03*
X450276Y236000D02*
D03*
Y226000D02*
D03*
Y216000D02*
D03*
X405000D02*
D03*
Y226000D02*
D03*
Y236000D02*
D03*
Y276000D02*
D03*
Y266000D02*
D03*
Y256000D02*
D03*
X450276D02*
D03*
Y266000D02*
D03*
Y276000D02*
D03*
D25*
X535000Y149620D02*
D03*
Y158380D02*
D03*
X523800Y161500D02*
D03*
Y152740D02*
D03*
Y166240D02*
D03*
Y175000D02*
D03*
X535000Y177880D02*
D03*
Y169120D02*
D03*
Y182620D02*
D03*
Y191380D02*
D03*
X523800Y194000D02*
D03*
Y185240D02*
D03*
Y198740D02*
D03*
Y207500D02*
D03*
X535000Y210500D02*
D03*
Y201740D02*
D03*
Y234600D02*
D03*
Y243360D02*
D03*
X523800Y240500D02*
D03*
Y231740D02*
D03*
X535000Y224000D02*
D03*
Y215240D02*
D03*
X523800Y227160D02*
D03*
Y218400D02*
D03*
X535000Y256800D02*
D03*
Y248040D02*
D03*
X534900Y267500D02*
D03*
Y276260D02*
D03*
X523800Y251100D02*
D03*
Y259860D02*
D03*
Y264540D02*
D03*
Y273300D02*
D03*
D26*
X142850Y207500D02*
D03*
X149150D02*
D03*
X141850Y152500D02*
D03*
X148150D02*
D03*
Y162500D02*
D03*
X141850D02*
D03*
Y182500D02*
D03*
X148150D02*
D03*
Y172500D02*
D03*
X141850D02*
D03*
Y242500D02*
D03*
X148150D02*
D03*
Y252500D02*
D03*
X141850D02*
D03*
Y262500D02*
D03*
X148150D02*
D03*
Y272500D02*
D03*
X141850D02*
D03*
X210650Y290000D02*
D03*
X216950D02*
D03*
D27*
X107500Y125000D02*
D03*
X542500Y300000D02*
D03*
X107500Y290000D02*
D03*
D28*
X203228Y128500D02*
D03*
Y133500D02*
D03*
Y138500D02*
D03*
Y143500D02*
D03*
Y148500D02*
D03*
Y153500D02*
D03*
Y158500D02*
D03*
X181772Y128500D02*
D03*
Y133500D02*
D03*
Y138500D02*
D03*
Y143500D02*
D03*
Y148500D02*
D03*
Y153500D02*
D03*
Y158500D02*
D03*
Y198500D02*
D03*
Y193500D02*
D03*
Y188500D02*
D03*
Y183500D02*
D03*
Y178500D02*
D03*
Y173500D02*
D03*
Y168500D02*
D03*
X203228Y198500D02*
D03*
Y193500D02*
D03*
Y188500D02*
D03*
Y183500D02*
D03*
Y178500D02*
D03*
Y173500D02*
D03*
Y168500D02*
D03*
Y208500D02*
D03*
Y213500D02*
D03*
Y218500D02*
D03*
Y223500D02*
D03*
Y228500D02*
D03*
Y233500D02*
D03*
Y238500D02*
D03*
X181772Y208500D02*
D03*
Y213500D02*
D03*
Y218500D02*
D03*
Y223500D02*
D03*
Y228500D02*
D03*
Y233500D02*
D03*
Y238500D02*
D03*
Y278500D02*
D03*
Y273500D02*
D03*
Y268500D02*
D03*
Y263500D02*
D03*
Y258500D02*
D03*
Y253500D02*
D03*
Y248500D02*
D03*
X203228Y278500D02*
D03*
Y273500D02*
D03*
Y268500D02*
D03*
Y263500D02*
D03*
Y258500D02*
D03*
Y253500D02*
D03*
Y248500D02*
D03*
D29*
X222657Y136000D02*
D03*
X217342D02*
D03*
Y176000D02*
D03*
X222657D02*
D03*
Y216000D02*
D03*
X217342D02*
D03*
Y256000D02*
D03*
X222657D02*
D03*
Y128000D02*
D03*
X217342D02*
D03*
Y168000D02*
D03*
X222657D02*
D03*
Y208000D02*
D03*
X217342D02*
D03*
Y248000D02*
D03*
X222657D02*
D03*
X172500Y153500D02*
D03*
X167185D02*
D03*
Y193500D02*
D03*
X172500D02*
D03*
Y233500D02*
D03*
X167185D02*
D03*
Y273500D02*
D03*
X172500D02*
D03*
D30*
X245650Y136000D02*
D03*
X239350D02*
D03*
Y176000D02*
D03*
X245650D02*
D03*
Y216000D02*
D03*
X239350D02*
D03*
Y256000D02*
D03*
X245650D02*
D03*
Y128000D02*
D03*
X239350D02*
D03*
Y168000D02*
D03*
X245650D02*
D03*
Y208000D02*
D03*
X239350D02*
D03*
Y248000D02*
D03*
X245650D02*
D03*
X172500Y161000D02*
D03*
X166201D02*
D03*
Y201000D02*
D03*
X172500D02*
D03*
Y241000D02*
D03*
X166201D02*
D03*
Y281000D02*
D03*
X172500D02*
D03*
X211850Y158500D02*
D03*
X218150D02*
D03*
Y198500D02*
D03*
X211850D02*
D03*
Y238500D02*
D03*
X218150D02*
D03*
Y278500D02*
D03*
X211850D02*
D03*
D31*
X263779Y287130D02*
D03*
X236221D02*
D03*
D32*
X259842Y276500D02*
D03*
X240158D02*
D03*
D33*
X562400Y114900D02*
D03*
Y300100D02*
D03*
D34*
X568000Y147550D02*
D03*
Y158450D02*
D03*
Y169350D02*
D03*
Y180250D02*
D03*
Y191150D02*
D03*
Y202050D02*
D03*
Y212950D02*
D03*
Y223850D02*
D03*
Y234750D02*
D03*
Y245650D02*
D03*
Y256550D02*
D03*
Y267450D02*
D03*
X556800Y142100D02*
D03*
Y153000D02*
D03*
Y163900D02*
D03*
Y174800D02*
D03*
Y185700D02*
D03*
Y196600D02*
D03*
Y207500D02*
D03*
Y218400D02*
D03*
Y229300D02*
D03*
Y240200D02*
D03*
Y251100D02*
D03*
Y262000D02*
D03*
D35*
Y272900D02*
D03*
D36*
X500000Y135000D02*
D03*
D37*
Y280000D02*
D03*
X115000Y207500D02*
D03*
D38*
X125000Y277500D02*
D03*
Y187500D02*
D03*
D39*
Y267500D02*
D03*
Y257500D02*
D03*
Y247500D02*
D03*
Y237500D02*
D03*
Y227500D02*
D03*
X115000D02*
D03*
Y257500D02*
D03*
Y237500D02*
D03*
Y277500D02*
D03*
Y267500D02*
D03*
Y247500D02*
D03*
X125000Y177500D02*
D03*
Y167500D02*
D03*
Y157500D02*
D03*
Y147500D02*
D03*
Y137500D02*
D03*
X115000D02*
D03*
Y167500D02*
D03*
Y147500D02*
D03*
Y187500D02*
D03*
Y177500D02*
D03*
Y157500D02*
D03*
D40*
X500000Y125000D02*
D03*
Y145000D02*
D03*
X490000Y135000D02*
D03*
X510000D02*
D03*
X507000Y128000D02*
D03*
X493000D02*
D03*
Y142000D02*
D03*
X507000D02*
D03*
D41*
X298000Y266000D02*
D03*
Y226000D02*
D03*
X299000Y186000D02*
D03*
Y146000D02*
D03*
X215000D02*
D03*
Y186000D02*
D03*
Y226000D02*
D03*
Y266000D02*
D03*
X398500Y146000D02*
D03*
Y186000D02*
D03*
Y226000D02*
D03*
X398000Y266000D02*
D03*
X358000Y146000D02*
D03*
Y266000D02*
D03*
Y226000D02*
D03*
Y186000D02*
D03*
D42*
X172500Y286000D02*
D03*
X211500Y163500D02*
D03*
Y203500D02*
D03*
Y243500D02*
D03*
Y283500D02*
D03*
X172500Y166000D02*
D03*
Y206000D02*
D03*
Y246000D02*
D03*
M02*
