G04*
G04 #@! TF.GenerationSoftware,Altium Limited,Altium Designer,20.2.6 (244)*
G04*
G04 Layer_Color=16711935*
%FSLAX25Y25*%
%MOIN*%
G70*
G04*
G04 #@! TF.SameCoordinates,92151F8D-A914-4CFD-8B26-E94C02A97E6A*
G04*
G04*
G04 #@! TF.FilePolarity,Positive*
G04*
G01*
G75*
%ADD10C,0.00787*%
%ADD14C,0.00500*%
%ADD60C,0.00394*%
%ADD61C,0.00591*%
G36*
X144083Y152500D02*
X145984Y151319D01*
Y153681D01*
X144083Y152500D01*
D02*
G37*
G36*
Y162500D02*
X145984Y161319D01*
Y163681D01*
X144083Y162500D01*
D02*
G37*
G36*
Y172500D02*
X145984Y171319D01*
Y173681D01*
X144083Y172500D01*
D02*
G37*
G36*
Y182500D02*
X145984Y181319D01*
Y183681D01*
X144083Y182500D01*
D02*
G37*
G36*
X145083Y207500D02*
X146984Y206319D01*
Y208681D01*
X145083Y207500D01*
D02*
G37*
G36*
X214784Y288819D02*
X212883Y290000D01*
X214784Y291181D01*
Y288819D01*
D02*
G37*
G36*
X145984Y271319D02*
X144083Y272500D01*
X145984Y273681D01*
Y271319D01*
D02*
G37*
G36*
Y261319D02*
X144083Y262500D01*
X145984Y263681D01*
Y261319D01*
D02*
G37*
G36*
Y251319D02*
X144083Y252500D01*
X145984Y253681D01*
Y251319D01*
D02*
G37*
G36*
Y241319D02*
X144083Y242500D01*
X145984Y243681D01*
Y241319D01*
D02*
G37*
D10*
X307531Y160500D02*
X306744D01*
X307531D01*
Y200500D02*
X306744D01*
X307531D01*
Y240500D02*
X306744D01*
X307531D01*
Y280500D02*
X306744D01*
X307531D01*
X407531Y160500D02*
X406744D01*
X407531D01*
X407394Y200500D02*
X406606D01*
X407394D01*
X407531Y240500D02*
X406744D01*
X407531D01*
Y280500D02*
X406744D01*
X407531D01*
D14*
X309390Y163224D02*
X345886D01*
Y128776D02*
Y163224D01*
X309390Y128776D02*
X345886D01*
X309390D02*
Y163224D01*
Y168776D02*
Y203224D01*
Y168776D02*
X345886D01*
Y203224D01*
X309390D02*
X345886D01*
X309390Y243224D02*
X345886D01*
Y208776D02*
Y243224D01*
X309390Y208776D02*
X345886D01*
X309390D02*
Y243224D01*
Y248776D02*
Y283224D01*
Y248776D02*
X345886D01*
Y283224D01*
X309390D02*
X345886D01*
X409390Y163224D02*
X445886D01*
Y128776D02*
Y163224D01*
X409390Y128776D02*
X445886D01*
X409390D02*
Y163224D01*
X409252Y168776D02*
Y203224D01*
Y168776D02*
X445748D01*
Y203224D01*
X409252D02*
X445748D01*
X409390Y243224D02*
X445886D01*
Y208776D02*
Y243224D01*
X409390Y208776D02*
X445886D01*
X409390D02*
Y243224D01*
Y248776D02*
Y283224D01*
Y248776D02*
X445886D01*
Y283224D01*
X409390D02*
X445886D01*
D60*
X190138Y157280D02*
X189874Y158264D01*
X189154Y158984D01*
X188169Y159248D01*
X187185Y158984D01*
X186465Y158264D01*
X186201Y157280D01*
X186465Y156295D01*
X187185Y155575D01*
X188169Y155311D01*
X189154Y155575D01*
X189874Y156295D01*
X190138Y157280D01*
Y197280D02*
X189874Y198264D01*
X189154Y198984D01*
X188169Y199248D01*
X187185Y198984D01*
X186465Y198264D01*
X186201Y197280D01*
X186465Y196295D01*
X187185Y195575D01*
X188169Y195311D01*
X189154Y195575D01*
X189874Y196295D01*
X190138Y197280D01*
Y237280D02*
X189874Y238264D01*
X189154Y238984D01*
X188169Y239248D01*
X187185Y238984D01*
X186465Y238264D01*
X186201Y237280D01*
X186465Y236295D01*
X187185Y235575D01*
X188169Y235311D01*
X189154Y235575D01*
X189874Y236295D01*
X190138Y237280D01*
Y277279D02*
X189874Y278264D01*
X189154Y278984D01*
X188169Y279248D01*
X187185Y278984D01*
X186465Y278264D01*
X186201Y277279D01*
X186465Y276295D01*
X187185Y275575D01*
X188169Y275311D01*
X189154Y275575D01*
X189874Y276295D01*
X190138Y277279D01*
X532342Y150457D02*
Y157543D01*
X537657Y150457D02*
Y157543D01*
X532342Y150457D02*
X537657D01*
X532342Y157543D02*
X537657D01*
X526458Y153577D02*
Y160663D01*
X521142Y153577D02*
Y160663D01*
X526458D01*
X521142Y153577D02*
X526458D01*
X521142Y167077D02*
Y174163D01*
X526458Y167077D02*
Y174163D01*
X521142Y167077D02*
X526458D01*
X521142Y174163D02*
X526458D01*
X537657Y169957D02*
Y177043D01*
X532342Y169957D02*
Y177043D01*
X537657D01*
X532342Y169957D02*
X537657D01*
X532342Y183457D02*
Y190543D01*
X537657Y183457D02*
Y190543D01*
X532342Y183457D02*
X537657D01*
X532342Y190543D02*
X537657D01*
X526458Y186077D02*
Y193163D01*
X521142Y186077D02*
Y193163D01*
X526458D01*
X521142Y186077D02*
X526458D01*
X521142Y199577D02*
Y206663D01*
X526458Y199577D02*
Y206663D01*
X521142Y199577D02*
X526458D01*
X521142Y206663D02*
X526458D01*
X537657Y202577D02*
Y209663D01*
X532342Y202577D02*
Y209663D01*
X537657D01*
X532342Y202577D02*
X537657D01*
X142850Y205925D02*
Y209075D01*
Y205925D02*
X149150D01*
Y209075D01*
X142850D02*
X149150D01*
X141850Y150925D02*
Y154075D01*
Y150925D02*
X148150D01*
Y154075D01*
X141850D02*
X148150D01*
X141850Y164075D02*
X148150D01*
Y160925D02*
Y164075D01*
X141850Y160925D02*
X148150D01*
X141850D02*
Y164075D01*
Y180925D02*
Y184075D01*
Y180925D02*
X148150D01*
Y184075D01*
X141850D02*
X148150D01*
X141850Y174075D02*
X148150D01*
Y170925D02*
Y174075D01*
X141850Y170925D02*
X148150D01*
X141850D02*
Y174075D01*
Y240925D02*
Y244075D01*
Y240925D02*
X148150D01*
Y244075D01*
X141850D02*
X148150D01*
X141850Y254075D02*
X148150D01*
Y250925D02*
Y254075D01*
X141850Y250925D02*
X148150D01*
X141850D02*
Y254075D01*
Y260925D02*
Y264075D01*
Y260925D02*
X148150D01*
Y264075D01*
X141850D02*
X148150D01*
X141850Y274075D02*
X148150D01*
Y270925D02*
Y274075D01*
X141850Y270925D02*
X148150D01*
X141850D02*
Y274075D01*
X210650Y288425D02*
Y291575D01*
Y288425D02*
X216950D01*
Y291575D01*
X210650D02*
X216950D01*
X184626Y126177D02*
X200374D01*
X184626Y160823D02*
X200374D01*
Y126177D02*
Y160823D01*
X184626Y126177D02*
Y160823D01*
Y166177D02*
Y200823D01*
X200374Y166177D02*
Y200823D01*
X184626D02*
X200374D01*
X184626Y166177D02*
X200374D01*
X184626Y206177D02*
X200374D01*
X184626Y240823D02*
X200374D01*
Y206177D02*
Y240823D01*
X184626Y206177D02*
Y240823D01*
Y246177D02*
Y280823D01*
X200374Y246177D02*
Y280823D01*
X184626D02*
X200374D01*
X184626Y246177D02*
X200374D01*
X223445Y134130D02*
Y137870D01*
X216555Y134130D02*
Y137870D01*
Y134130D02*
X223445D01*
X216555Y137870D02*
X223445D01*
X216555Y177870D02*
X223445D01*
X216555Y174130D02*
X223445D01*
X216555D02*
Y177870D01*
X223445Y174130D02*
Y177870D01*
Y214130D02*
Y217870D01*
X216555Y214130D02*
Y217870D01*
Y214130D02*
X223445D01*
X216555Y217870D02*
X223445D01*
X216555Y257870D02*
X223445D01*
X216555Y254130D02*
X223445D01*
X216555D02*
Y257870D01*
X223445Y254130D02*
Y257870D01*
Y126130D02*
Y129870D01*
X216555Y126130D02*
Y129870D01*
Y126130D02*
X223445D01*
X216555Y129870D02*
X223445D01*
X216555Y169870D02*
X223445D01*
X216555Y166130D02*
X223445D01*
X216555D02*
Y169870D01*
X223445Y166130D02*
Y169870D01*
Y206130D02*
Y209870D01*
X216555Y206130D02*
Y209870D01*
Y206130D02*
X223445D01*
X216555Y209870D02*
X223445D01*
X216555Y249870D02*
X223445D01*
X216555Y246130D02*
X223445D01*
X216555D02*
Y249870D01*
X223445Y246130D02*
Y249870D01*
X166398Y151630D02*
X173287D01*
X166398Y155370D02*
X173287D01*
Y151630D02*
Y155370D01*
X166398Y151630D02*
Y155370D01*
Y191630D02*
Y195370D01*
X173287Y191630D02*
Y195370D01*
X166398D02*
X173287D01*
X166398Y191630D02*
X173287D01*
X166398Y231630D02*
X173287D01*
X166398Y235370D02*
X173287D01*
Y231630D02*
Y235370D01*
X166398Y231630D02*
Y235370D01*
Y271630D02*
Y275370D01*
X173287Y271630D02*
Y275370D01*
X166398D02*
X173287D01*
X166398Y271630D02*
X173287D01*
X239055Y134130D02*
X245945D01*
X239055Y137870D02*
X245945D01*
Y134130D02*
Y137870D01*
X239055Y134130D02*
Y137870D01*
Y174130D02*
Y177870D01*
X245945Y174130D02*
Y177870D01*
X239055D02*
X245945D01*
X239055Y174130D02*
X245945D01*
X239055Y214130D02*
X245945D01*
X239055Y217870D02*
X245945D01*
Y214130D02*
Y217870D01*
X239055Y214130D02*
Y217870D01*
Y254130D02*
Y257870D01*
X245945Y254130D02*
Y257870D01*
X239055D02*
X245945D01*
X239055Y254130D02*
X245945D01*
X239055Y126130D02*
X245945D01*
X239055Y129870D02*
X245945D01*
Y126130D02*
Y129870D01*
X239055Y126130D02*
Y129870D01*
Y166130D02*
Y169870D01*
X245945Y166130D02*
Y169870D01*
X239055D02*
X245945D01*
X239055Y166130D02*
X245945D01*
X239055Y206130D02*
X245945D01*
X239055Y209870D02*
X245945D01*
Y206130D02*
Y209870D01*
X239055Y206130D02*
Y209870D01*
Y246130D02*
Y249870D01*
X245945Y246130D02*
Y249870D01*
X239055D02*
X245945D01*
X239055Y246130D02*
X245945D01*
X165905Y159130D02*
X172795D01*
X165905Y162870D02*
X172795D01*
Y159130D02*
Y162870D01*
X165905Y159130D02*
Y162870D01*
Y199130D02*
Y202870D01*
X172795Y199130D02*
Y202870D01*
X165905D02*
X172795D01*
X165905Y199130D02*
X172795D01*
X165905Y239130D02*
X172795D01*
X165905Y242870D02*
X172795D01*
Y239130D02*
Y242870D01*
X165905Y239130D02*
Y242870D01*
Y279130D02*
Y282870D01*
X172795Y279130D02*
Y282870D01*
X165905D02*
X172795D01*
X165905Y279130D02*
X172795D01*
X211555Y160370D02*
X218445D01*
X211555Y156630D02*
X218445D01*
X211555D02*
Y160370D01*
X218445Y156630D02*
Y160370D01*
Y196630D02*
Y200370D01*
X211555Y196630D02*
Y200370D01*
Y196630D02*
X218445D01*
X211555Y200370D02*
X218445D01*
X211555Y240370D02*
X218445D01*
X211555Y236630D02*
X218445D01*
X211555D02*
Y240370D01*
X218445Y236630D02*
Y240370D01*
Y276630D02*
Y280370D01*
X211555Y276630D02*
Y280370D01*
Y276630D02*
X218445D01*
X211555Y280370D02*
X218445D01*
X532342Y235437D02*
X537657D01*
X532342Y242523D02*
X537657D01*
X532342Y235437D02*
Y242523D01*
X537657Y235437D02*
Y242523D01*
X521142Y239663D02*
X526458D01*
X521142Y232577D02*
X526458D01*
Y239663D01*
X521142Y232577D02*
Y239663D01*
X532342Y223163D02*
X537657D01*
X532342Y216077D02*
X537657D01*
Y223163D01*
X532342Y216077D02*
Y223163D01*
X526458Y219237D02*
Y226323D01*
X521142Y219237D02*
Y226323D01*
X526458D01*
X521142Y219237D02*
X526458D01*
X532342Y255963D02*
X537657D01*
X532342Y248877D02*
X537657D01*
Y255963D01*
X532342Y248877D02*
Y255963D01*
X532242Y268337D02*
X537558D01*
X532242Y275423D02*
X537558D01*
X532242Y268337D02*
Y275423D01*
X537558Y268337D02*
Y275423D01*
X521142Y251937D02*
X526458D01*
X521142Y259023D02*
X526458D01*
X521142Y251937D02*
Y259023D01*
X526458Y251937D02*
Y259023D01*
X521142Y265377D02*
Y272463D01*
X526458Y265377D02*
Y272463D01*
X521142Y265377D02*
X526458D01*
X521142Y272463D02*
X526458D01*
D61*
X549450Y312650D02*
X624950D01*
X549450Y102350D02*
X624950D01*
X549450D02*
Y312650D01*
X599900Y102350D02*
Y312650D01*
X624950Y102350D02*
Y312650D01*
M02*
