G04*
G04 #@! TF.GenerationSoftware,Altium Limited,Altium Designer,20.2.6 (244)*
G04*
G04 Layer_Color=32768*
%FSLAX25Y25*%
%MOIN*%
G70*
G04*
G04 #@! TF.SameCoordinates,92151F8D-A914-4CFD-8B26-E94C02A97E6A*
G04*
G04*
G04 #@! TF.FilePolarity,Positive*
G04*
G01*
G75*
%ADD10C,0.00787*%
%ADD60C,0.00394*%
%ADD62C,0.00197*%
D10*
X549056Y313044D02*
X625344D01*
X549056Y101956D02*
Y313044D01*
Y101956D02*
X625344D01*
Y313044D01*
D60*
X585231Y207500D02*
X589169D01*
X587200Y205532D02*
Y209469D01*
X533032Y154000D02*
X536969D01*
X535000Y152032D02*
Y155968D01*
X521832Y157120D02*
X525769D01*
X523800Y155152D02*
Y159089D01*
X521832Y170620D02*
X525769D01*
X523800Y168652D02*
Y172589D01*
X533032Y173500D02*
X536969D01*
X535000Y171531D02*
Y175469D01*
X533032Y187000D02*
X536969D01*
X535000Y185031D02*
Y188969D01*
X521832Y189620D02*
X525769D01*
X523800Y187652D02*
Y191589D01*
X521832Y203120D02*
X525769D01*
X523800Y201152D02*
Y205089D01*
X533032Y206120D02*
X536969D01*
X535000Y204152D02*
Y208089D01*
Y237011D02*
Y240948D01*
X533032Y238980D02*
X536969D01*
X523800Y234152D02*
Y238089D01*
X521832Y236120D02*
X525769D01*
X535000Y217652D02*
Y221589D01*
X533032Y219620D02*
X536969D01*
X521832Y222780D02*
X525769D01*
X523800Y220811D02*
Y224748D01*
X535000Y250452D02*
Y254389D01*
X533032Y252420D02*
X536969D01*
X534900Y269911D02*
Y273848D01*
X532932Y271880D02*
X536868D01*
X523800Y253511D02*
Y257448D01*
X521832Y255480D02*
X525769D01*
X521832Y268920D02*
X525769D01*
X523800Y266952D02*
Y270889D01*
D62*
X325638Y146000D02*
X329638D01*
X327638Y144000D02*
Y148000D01*
X300866Y164209D02*
X354410D01*
Y127791D02*
Y164209D01*
X300866Y127791D02*
X354410D01*
X300866D02*
Y164209D01*
Y167791D02*
Y204209D01*
Y167791D02*
X354410D01*
Y204209D01*
X300866D02*
X354410D01*
X327638Y184000D02*
Y188000D01*
X325638Y186000D02*
X329638D01*
X325638Y226000D02*
X329638D01*
X327638Y224000D02*
Y228000D01*
X300866Y244209D02*
X354410D01*
Y207791D02*
Y244209D01*
X300866Y207791D02*
X354410D01*
X300866D02*
Y244209D01*
Y247791D02*
Y284209D01*
Y247791D02*
X354410D01*
Y284209D01*
X300866D02*
X354410D01*
X327638Y264000D02*
Y268000D01*
X325638Y266000D02*
X329638D01*
X425638Y146000D02*
X429638D01*
X427638Y144000D02*
Y148000D01*
X400866Y164209D02*
X454410D01*
Y127791D02*
Y164209D01*
X400866Y127791D02*
X454410D01*
X400866D02*
Y164209D01*
X400728Y167791D02*
Y204209D01*
Y167791D02*
X454272D01*
Y204209D01*
X400728D02*
X454272D01*
X427500Y184000D02*
Y188000D01*
X425500Y186000D02*
X429500D01*
X425638Y226000D02*
X429638D01*
X427638Y224000D02*
Y228000D01*
X400866Y244209D02*
X454410D01*
Y207791D02*
Y244209D01*
X400866Y207791D02*
X454410D01*
X400866D02*
Y244209D01*
Y247791D02*
Y284209D01*
Y247791D02*
X454410D01*
Y284209D01*
X400866D02*
X454410D01*
X427638Y264000D02*
Y268000D01*
X425638Y266000D02*
X429638D01*
X292299Y147835D02*
Y160039D01*
X279701D02*
X292299D01*
X279701Y147835D02*
X292299D01*
X279701D02*
Y160039D01*
X284032Y153937D02*
X287968D01*
X286000Y151969D02*
Y155905D01*
Y191969D02*
Y195905D01*
X284032Y193937D02*
X287968D01*
X279701Y187835D02*
Y200039D01*
Y187835D02*
X292299D01*
X279701Y200039D02*
X292299D01*
Y187835D02*
Y200039D01*
Y227835D02*
Y240039D01*
X279701D02*
X292299D01*
X279701Y227835D02*
X292299D01*
X279701D02*
Y240039D01*
X284032Y233937D02*
X287968D01*
X286000Y231968D02*
Y235906D01*
Y271969D02*
Y275905D01*
X284032Y273937D02*
X287968D01*
X279701Y267835D02*
Y280039D01*
Y267835D02*
X292299D01*
X279701Y280039D02*
X292299D01*
Y267835D02*
Y280039D01*
X279701Y131961D02*
Y144165D01*
Y131961D02*
X292299D01*
X279701Y144165D02*
X292299D01*
Y131961D02*
Y144165D01*
X284032Y138063D02*
X287968D01*
X286000Y136094D02*
Y140032D01*
Y176094D02*
Y180032D01*
X284032Y178063D02*
X287968D01*
X292299Y171961D02*
Y184165D01*
X279701D02*
X292299D01*
X279701Y171961D02*
X292299D01*
X279701D02*
Y184165D01*
Y211961D02*
Y224165D01*
Y211961D02*
X292299D01*
X279701Y224165D02*
X292299D01*
Y211961D02*
Y224165D01*
X284032Y218063D02*
X287968D01*
X286000Y216094D02*
Y220031D01*
Y256095D02*
Y260032D01*
X284032Y258063D02*
X287968D01*
X292299Y251961D02*
Y264165D01*
X279701D02*
X292299D01*
X279701Y251961D02*
X292299D01*
X279701D02*
Y264165D01*
X392299Y147835D02*
Y160039D01*
X379701D02*
X392299D01*
X379701Y147835D02*
X392299D01*
X379701D02*
Y160039D01*
X384032Y153937D02*
X387968D01*
X386000Y151969D02*
Y155905D01*
Y191969D02*
Y195905D01*
X384032Y193937D02*
X387968D01*
X379701Y187835D02*
Y200039D01*
Y187835D02*
X392299D01*
X379701Y200039D02*
X392299D01*
Y187835D02*
Y200039D01*
Y227835D02*
Y240039D01*
X379701D02*
X392299D01*
X379701Y227835D02*
X392299D01*
X379701D02*
Y240039D01*
X384032Y233937D02*
X387968D01*
X386000Y231968D02*
Y235906D01*
Y271969D02*
Y275905D01*
X384032Y273937D02*
X387968D01*
X379701Y267835D02*
Y280039D01*
Y267835D02*
X392299D01*
X379701Y280039D02*
X392299D01*
Y267835D02*
Y280039D01*
X379701Y131961D02*
Y144165D01*
Y131961D02*
X392299D01*
X379701Y144165D02*
X392299D01*
Y131961D02*
Y144165D01*
X384032Y138063D02*
X387968D01*
X386000Y136094D02*
Y140032D01*
Y176094D02*
Y180032D01*
X384032Y178063D02*
X387968D01*
X392299Y171961D02*
Y184165D01*
X379701D02*
X392299D01*
X379701Y171961D02*
X392299D01*
X379701D02*
Y184165D01*
Y211961D02*
Y224165D01*
Y211961D02*
X392299D01*
X379701Y224165D02*
X392299D01*
Y211961D02*
Y224165D01*
X384032Y218063D02*
X387968D01*
X386000Y216094D02*
Y220031D01*
Y256095D02*
Y260032D01*
X384032Y258063D02*
X387968D01*
X392299Y251961D02*
Y264165D01*
X379701D02*
X392299D01*
X379701Y251961D02*
X392299D01*
X379701D02*
Y264165D01*
X531653Y147307D02*
Y160693D01*
X538346Y147307D02*
Y160693D01*
X531653Y147307D02*
X538346D01*
X531653Y160693D02*
X538346D01*
X527146Y150427D02*
Y163813D01*
X520454Y150427D02*
Y163813D01*
X527146D01*
X520454Y150427D02*
X527146D01*
X520454Y163927D02*
Y177313D01*
X527146Y163927D02*
Y177313D01*
X520454Y163927D02*
X527146D01*
X520454Y177313D02*
X527146D01*
X538346Y166807D02*
Y180193D01*
X531653Y166807D02*
Y180193D01*
X538346D01*
X531653Y166807D02*
X538346D01*
X531653Y180307D02*
Y193693D01*
X538346Y180307D02*
Y193693D01*
X531653Y180307D02*
X538346D01*
X531653Y193693D02*
X538346D01*
X527146Y182927D02*
Y196313D01*
X520454Y182927D02*
Y196313D01*
X527146D01*
X520454Y182927D02*
X527146D01*
X520454Y196427D02*
Y209813D01*
X527146Y196427D02*
Y209813D01*
X520454Y196427D02*
X527146D01*
X520454Y209813D02*
X527146D01*
X538346Y199427D02*
Y212813D01*
X531653Y199427D02*
Y212813D01*
X538346D01*
X531653Y199427D02*
X538346D01*
X140488Y204941D02*
Y210059D01*
Y204941D02*
X151512D01*
Y210059D01*
X140488D02*
X151512D01*
X146000Y205532D02*
Y209469D01*
X144032Y207500D02*
X147968D01*
X139488Y149941D02*
Y155059D01*
Y149941D02*
X150512D01*
Y155059D01*
X139488D02*
X150512D01*
X145000Y150531D02*
Y154469D01*
X143032Y152500D02*
X146968D01*
X143032Y162500D02*
X146968D01*
X145000Y160531D02*
Y164469D01*
X139488Y165059D02*
X150512D01*
Y159941D02*
Y165059D01*
X139488Y159941D02*
X150512D01*
X139488D02*
Y165059D01*
Y179941D02*
Y185059D01*
Y179941D02*
X150512D01*
Y185059D01*
X139488D02*
X150512D01*
X145000Y180532D02*
Y184468D01*
X143032Y182500D02*
X146968D01*
X143032Y172500D02*
X146968D01*
X145000Y170531D02*
Y174469D01*
X139488Y175059D02*
X150512D01*
Y169941D02*
Y175059D01*
X139488Y169941D02*
X150512D01*
X139488D02*
Y175059D01*
Y239941D02*
Y245059D01*
Y239941D02*
X150512D01*
Y245059D01*
X139488D02*
X150512D01*
X145000Y240531D02*
Y244468D01*
X143032Y242500D02*
X146968D01*
X143032Y252500D02*
X146968D01*
X145000Y250532D02*
Y254468D01*
X139488Y255059D02*
X150512D01*
Y249941D02*
Y255059D01*
X139488Y249941D02*
X150512D01*
X139488D02*
Y255059D01*
Y259941D02*
Y265059D01*
Y259941D02*
X150512D01*
Y265059D01*
X139488D02*
X150512D01*
X145000Y260531D02*
Y264469D01*
X143032Y262500D02*
X146968D01*
X143032Y272500D02*
X146968D01*
X145000Y270532D02*
Y274468D01*
X139488Y275059D02*
X150512D01*
Y269941D02*
Y275059D01*
X139488Y269941D02*
X150512D01*
X139488D02*
Y275059D01*
X208288Y287441D02*
Y292559D01*
Y287441D02*
X219312D01*
Y292559D01*
X208288D02*
X219312D01*
X213800Y288032D02*
Y291968D01*
X211831Y290000D02*
X215769D01*
X192500Y141532D02*
Y145468D01*
X190532Y143500D02*
X194468D01*
X177933Y125193D02*
X207067D01*
X177933Y161807D02*
X207067D01*
Y125193D02*
Y161807D01*
X177933Y125193D02*
Y161807D01*
Y165193D02*
Y201807D01*
X207067Y165193D02*
Y201807D01*
X177933D02*
X207067D01*
X177933Y165193D02*
X207067D01*
X190532Y183500D02*
X194468D01*
X192500Y181532D02*
Y185468D01*
Y221532D02*
Y225468D01*
X190532Y223500D02*
X194468D01*
X177933Y205193D02*
X207067D01*
X177933Y241807D02*
X207067D01*
Y205193D02*
Y241807D01*
X177933Y205193D02*
Y241807D01*
Y245193D02*
Y281807D01*
X207067Y245193D02*
Y281807D01*
X177933D02*
X207067D01*
X177933Y245193D02*
X207067D01*
X190532Y263500D02*
X194468D01*
X192500Y261531D02*
Y265469D01*
X225315Y133047D02*
Y138953D01*
X214685Y133047D02*
Y138953D01*
Y133047D02*
X225315D01*
X214685Y138953D02*
X225315D01*
X218130Y136000D02*
X221870D01*
X220000Y134130D02*
Y137870D01*
Y174130D02*
Y177870D01*
X218130Y176000D02*
X221870D01*
X214685Y178953D02*
X225315D01*
X214685Y173047D02*
X225315D01*
X214685D02*
Y178953D01*
X225315Y173047D02*
Y178953D01*
Y213047D02*
Y218953D01*
X214685Y213047D02*
Y218953D01*
Y213047D02*
X225315D01*
X214685Y218953D02*
X225315D01*
X218130Y216000D02*
X221870D01*
X220000Y214130D02*
Y217870D01*
Y254130D02*
Y257870D01*
X218130Y256000D02*
X221870D01*
X214685Y258953D02*
X225315D01*
X214685Y253047D02*
X225315D01*
X214685D02*
Y258953D01*
X225315Y253047D02*
Y258953D01*
Y125047D02*
Y130953D01*
X214685Y125047D02*
Y130953D01*
Y125047D02*
X225315D01*
X214685Y130953D02*
X225315D01*
X218130Y128000D02*
X221870D01*
X220000Y126130D02*
Y129870D01*
Y166130D02*
Y169870D01*
X218130Y168000D02*
X221870D01*
X214685Y170953D02*
X225315D01*
X214685Y165047D02*
X225315D01*
X214685D02*
Y170953D01*
X225315Y165047D02*
Y170953D01*
Y205047D02*
Y210953D01*
X214685Y205047D02*
Y210953D01*
Y205047D02*
X225315D01*
X214685Y210953D02*
X225315D01*
X218130Y208000D02*
X221870D01*
X220000Y206130D02*
Y209870D01*
Y246130D02*
Y249870D01*
X218130Y248000D02*
X221870D01*
X214685Y250953D02*
X225315D01*
X214685Y245047D02*
X225315D01*
X214685D02*
Y250953D01*
X225315Y245047D02*
Y250953D01*
X169843Y151630D02*
Y155370D01*
X167972Y153500D02*
X171713D01*
X164528Y150547D02*
X175157D01*
X164528Y156453D02*
X175157D01*
Y150547D02*
Y156453D01*
X164528Y150547D02*
Y156453D01*
Y190547D02*
Y196453D01*
X175157Y190547D02*
Y196453D01*
X164528D02*
X175157D01*
X164528Y190547D02*
X175157D01*
X167972Y193500D02*
X171713D01*
X169843Y191630D02*
Y195370D01*
Y231630D02*
Y235370D01*
X167972Y233500D02*
X171713D01*
X164528Y230547D02*
X175157D01*
X164528Y236453D02*
X175157D01*
Y230547D02*
Y236453D01*
X164528Y230547D02*
Y236453D01*
Y270547D02*
Y276453D01*
X175157Y270547D02*
Y276453D01*
X164528D02*
X175157D01*
X164528Y270547D02*
X175157D01*
X167972Y273500D02*
X171713D01*
X169843Y271630D02*
Y275370D01*
X242500Y134130D02*
Y137870D01*
X240630Y136000D02*
X244370D01*
X236595Y133047D02*
X248406D01*
X236595Y138953D02*
X248406D01*
Y133047D02*
Y138953D01*
X236595Y133047D02*
Y138953D01*
Y173047D02*
Y178953D01*
X248406Y173047D02*
Y178953D01*
X236595D02*
X248406D01*
X236595Y173047D02*
X248406D01*
X240630Y176000D02*
X244370D01*
X242500Y174130D02*
Y177870D01*
Y214130D02*
Y217870D01*
X240630Y216000D02*
X244370D01*
X236595Y213047D02*
X248406D01*
X236595Y218953D02*
X248406D01*
Y213047D02*
Y218953D01*
X236595Y213047D02*
Y218953D01*
Y253047D02*
Y258953D01*
X248406Y253047D02*
Y258953D01*
X236595D02*
X248406D01*
X236595Y253047D02*
X248406D01*
X240630Y256000D02*
X244370D01*
X242500Y254130D02*
Y257870D01*
Y126130D02*
Y129870D01*
X240630Y128000D02*
X244370D01*
X236595Y125047D02*
X248406D01*
X236595Y130953D02*
X248406D01*
Y125047D02*
Y130953D01*
X236595Y125047D02*
Y130953D01*
Y165047D02*
Y170953D01*
X248406Y165047D02*
Y170953D01*
X236595D02*
X248406D01*
X236595Y165047D02*
X248406D01*
X240630Y168000D02*
X244370D01*
X242500Y166130D02*
Y169870D01*
Y206130D02*
Y209870D01*
X240630Y208000D02*
X244370D01*
X236595Y205047D02*
X248406D01*
X236595Y210953D02*
X248406D01*
Y205047D02*
Y210953D01*
X236595Y205047D02*
Y210953D01*
Y245047D02*
Y250953D01*
X248406Y245047D02*
Y250953D01*
X236595D02*
X248406D01*
X236595Y245047D02*
X248406D01*
X240630Y248000D02*
X244370D01*
X242500Y246130D02*
Y249870D01*
X169350Y159130D02*
Y162870D01*
X167480Y161000D02*
X171221D01*
X163445Y158047D02*
X175256D01*
X163445Y163953D02*
X175256D01*
Y158047D02*
Y163953D01*
X163445Y158047D02*
Y163953D01*
Y198047D02*
Y203953D01*
X175256Y198047D02*
Y203953D01*
X163445D02*
X175256D01*
X163445Y198047D02*
X175256D01*
X167480Y201000D02*
X171221D01*
X169350Y199130D02*
Y202870D01*
Y239130D02*
Y242870D01*
X167480Y241000D02*
X171221D01*
X163445Y238047D02*
X175256D01*
X163445Y243953D02*
X175256D01*
Y238047D02*
Y243953D01*
X163445Y238047D02*
Y243953D01*
Y278047D02*
Y283953D01*
X175256Y278047D02*
Y283953D01*
X163445D02*
X175256D01*
X163445Y278047D02*
X175256D01*
X167480Y281000D02*
X171221D01*
X169350Y279130D02*
Y282870D01*
X215000Y156630D02*
Y160370D01*
X213130Y158500D02*
X216870D01*
X209095Y161453D02*
X220905D01*
X209095Y155547D02*
X220905D01*
X209095D02*
Y161453D01*
X220905Y155547D02*
Y161453D01*
Y195547D02*
Y201453D01*
X209095Y195547D02*
Y201453D01*
Y195547D02*
X220905D01*
X209095Y201453D02*
X220905D01*
X213130Y198500D02*
X216870D01*
X215000Y196630D02*
Y200370D01*
Y236630D02*
Y240370D01*
X213130Y238500D02*
X216870D01*
X209095Y241453D02*
X220905D01*
X209095Y235547D02*
X220905D01*
X209095D02*
Y241453D01*
X220905Y235547D02*
Y241453D01*
Y275547D02*
Y281453D01*
X209095Y275547D02*
Y281453D01*
Y275547D02*
X220905D01*
X209095Y281453D02*
X220905D01*
X213130Y278500D02*
X216870D01*
X215000Y276630D02*
Y280370D01*
X531653Y232287D02*
X538346D01*
X531653Y245673D02*
X538346D01*
X531653Y232287D02*
Y245673D01*
X538346Y232287D02*
Y245673D01*
X520454Y242813D02*
X527146D01*
X520454Y229427D02*
X527146D01*
Y242813D01*
X520454Y229427D02*
Y242813D01*
X531653Y226313D02*
X538346D01*
X531653Y212927D02*
X538346D01*
Y226313D01*
X531653Y212927D02*
Y226313D01*
X527146Y216087D02*
Y229473D01*
X520454Y216087D02*
Y229473D01*
X527146D01*
X520454Y216087D02*
X527146D01*
X531653Y259113D02*
X538346D01*
X531653Y245727D02*
X538346D01*
Y259113D01*
X531653Y245727D02*
Y259113D01*
X531554Y265187D02*
X538246D01*
X531554Y278573D02*
X538246D01*
X531554Y265187D02*
Y278573D01*
X538246Y265187D02*
Y278573D01*
X520454Y248787D02*
X527146D01*
X520454Y262173D02*
X527146D01*
X520454Y248787D02*
Y262173D01*
X527146Y248787D02*
Y262173D01*
X520454Y262227D02*
Y275613D01*
X527146Y262227D02*
Y275613D01*
X520454Y262227D02*
X527146D01*
X520454Y275613D02*
X527146D01*
M02*
