G04*
G04 #@! TF.GenerationSoftware,Altium Limited,Altium Designer,20.2.6 (244)*
G04*
G04 Layer_Color=65535*
%FSLAX25Y25*%
%MOIN*%
G70*
G04*
G04 #@! TF.SameCoordinates,92151F8D-A914-4CFD-8B26-E94C02A97E6A*
G04*
G04*
G04 #@! TF.FilePolarity,Positive*
G04*
G01*
G75*
%ADD10C,0.00787*%
%ADD11C,0.00984*%
%ADD12C,0.01000*%
%ADD13C,0.01181*%
%ADD14C,0.00500*%
%ADD15C,0.00600*%
D10*
X307531Y160500D02*
X306744D01*
X307531D01*
Y200500D02*
X306744D01*
X307531D01*
Y240500D02*
X306744D01*
X307531D01*
Y280500D02*
X306744D01*
X307531D01*
X407531Y160500D02*
X406744D01*
X407531D01*
X407394Y200500D02*
X406606D01*
X407394D01*
X407531Y240500D02*
X406744D01*
X407531D01*
Y280500D02*
X406744D01*
X407531D01*
X291905Y151181D02*
Y154626D01*
X280095Y151181D02*
X282949D01*
X289051D02*
X291905D01*
X280095D02*
Y154626D01*
X285311Y156693D02*
X286689D01*
X285311Y196693D02*
X286689D01*
X280095Y191181D02*
Y194626D01*
X289051Y191181D02*
X291905D01*
X280095D02*
X282949D01*
X291905D02*
Y194626D01*
Y231181D02*
Y234626D01*
X280095Y231181D02*
X282949D01*
X289051D02*
X291905D01*
X280095D02*
Y234626D01*
X285311Y236693D02*
X286689D01*
X285311Y276693D02*
X286689D01*
X280095Y271181D02*
Y274626D01*
X289051Y271181D02*
X291905D01*
X280095D02*
X282949D01*
X291905D02*
Y274626D01*
X280095Y137374D02*
Y140819D01*
X289051D02*
X291905D01*
X280095D02*
X282949D01*
X291905Y137374D02*
Y140819D01*
X285311Y135307D02*
X286689D01*
X285311Y175307D02*
X286689D01*
X291905Y177374D02*
Y180819D01*
X280095D02*
X282949D01*
X289051D02*
X291905D01*
X280095Y177374D02*
Y180819D01*
Y217374D02*
Y220819D01*
X289051D02*
X291905D01*
X280095D02*
X282949D01*
X291905Y217374D02*
Y220819D01*
X285311Y215307D02*
X286689D01*
X285311Y255307D02*
X286689D01*
X291905Y257374D02*
Y260819D01*
X280095D02*
X282949D01*
X289051D02*
X291905D01*
X280095Y257374D02*
Y260819D01*
X391905Y151181D02*
Y154626D01*
X380095Y151181D02*
X382949D01*
X389051D02*
X391905D01*
X380095D02*
Y154626D01*
X385311Y156693D02*
X386689D01*
X385311Y196693D02*
X386689D01*
X380095Y191181D02*
Y194626D01*
X389051Y191181D02*
X391905D01*
X380095D02*
X382949D01*
X391905D02*
Y194626D01*
Y231181D02*
Y234626D01*
X380095Y231181D02*
X382949D01*
X389051D02*
X391905D01*
X380095D02*
Y234626D01*
X385311Y236693D02*
X386689D01*
X385311Y276693D02*
X386689D01*
X380095Y271181D02*
Y274626D01*
X389051Y271181D02*
X391905D01*
X380095D02*
X382949D01*
X391905D02*
Y274626D01*
X380095Y137374D02*
Y140819D01*
X389051D02*
X391905D01*
X380095D02*
X382949D01*
X391905Y137374D02*
Y140819D01*
X385311Y135307D02*
X386689D01*
X385311Y175307D02*
X386689D01*
X391905Y177374D02*
Y180819D01*
X380095D02*
X382949D01*
X389051D02*
X391905D01*
X380095Y177374D02*
Y180819D01*
Y217374D02*
Y220819D01*
X389051D02*
X391905D01*
X380095D02*
X382949D01*
X391905Y217374D02*
Y220819D01*
X385311Y215307D02*
X386689D01*
X385311Y255307D02*
X386689D01*
X391905Y257374D02*
Y260819D01*
X380095D02*
X382949D01*
X389051D02*
X391905D01*
X380095Y257374D02*
Y260819D01*
X549352Y102000D02*
X599700D01*
X549352Y313000D02*
X599700D01*
X549352Y102000D02*
Y313000D01*
X535000Y155181D02*
Y156362D01*
Y151638D02*
Y152425D01*
X533032Y155181D02*
X536575D01*
X533032D02*
X535000Y152425D01*
X536575Y155181D01*
X533032Y152425D02*
X536969D01*
X523800Y154758D02*
Y155939D01*
Y158695D02*
Y159482D01*
X522225Y155939D02*
X525769D01*
X523800Y158695D02*
X525769Y155939D01*
X522225D02*
X523800Y158695D01*
X521832D02*
X525769D01*
X523800Y171801D02*
Y172982D01*
Y168258D02*
Y169045D01*
X521832Y171801D02*
X525375D01*
X521832D02*
X523800Y169045D01*
X525375Y171801D01*
X521832Y169045D02*
X525769D01*
X535000Y171138D02*
Y172319D01*
Y175075D02*
Y175862D01*
X533425Y172319D02*
X536969D01*
X535000Y175075D02*
X536969Y172319D01*
X533425D02*
X535000Y175075D01*
X533032D02*
X536969D01*
X535000Y188181D02*
Y189362D01*
Y184638D02*
Y185425D01*
X533032Y188181D02*
X536575D01*
X533032D02*
X535000Y185425D01*
X536575Y188181D01*
X533032Y185425D02*
X536969D01*
X523800Y187258D02*
Y188439D01*
Y191195D02*
Y191982D01*
X522225Y188439D02*
X525769D01*
X523800Y191195D02*
X525769Y188439D01*
X522225D02*
X523800Y191195D01*
X521832D02*
X525769D01*
X523800Y204301D02*
Y205482D01*
Y200758D02*
Y201545D01*
X521832Y204301D02*
X525375D01*
X521832D02*
X523800Y201545D01*
X525375Y204301D01*
X521832Y201545D02*
X525769D01*
X535000Y203758D02*
Y204939D01*
Y207695D02*
Y208482D01*
X533425Y204939D02*
X536969D01*
X535000Y207695D02*
X536969Y204939D01*
X533425D02*
X535000Y207695D01*
X533032D02*
X536969D01*
X186000Y127500D02*
X199000D01*
X186000Y159500D02*
X199000D01*
Y127500D02*
Y159500D01*
X186000Y127500D02*
Y159500D01*
Y167500D02*
Y199500D01*
X199000Y167500D02*
Y199500D01*
X186000D02*
X199000D01*
X186000Y167500D02*
X199000D01*
X186000Y207500D02*
X199000D01*
X186000Y239500D02*
X199000D01*
Y207500D02*
Y239500D01*
X186000Y207500D02*
Y239500D01*
Y247500D02*
Y279500D01*
X199000Y247500D02*
Y279500D01*
X186000D02*
X199000D01*
X186000Y247500D02*
X199000D01*
X533032Y240555D02*
X536969D01*
X533425Y237799D02*
X535000Y240555D01*
X536969Y237799D01*
X533425D02*
X536969D01*
X535000Y240555D02*
Y241342D01*
Y236618D02*
Y237799D01*
X521832Y234545D02*
X525769D01*
X523800D02*
X525375Y237301D01*
X521832D02*
X523800Y234545D01*
X521832Y237301D02*
X525375D01*
X523800Y233758D02*
Y234545D01*
Y237301D02*
Y238482D01*
X533032Y218045D02*
X536969D01*
X535000D02*
X536575Y220801D01*
X533032D02*
X535000Y218045D01*
X533032Y220801D02*
X536575D01*
X535000Y217258D02*
Y218045D01*
Y220801D02*
Y221982D01*
X523800Y220418D02*
Y221599D01*
Y224355D02*
Y225142D01*
X522225Y221599D02*
X525769D01*
X523800Y224355D02*
X525769Y221599D01*
X522225D02*
X523800Y224355D01*
X521832D02*
X525769D01*
X533032Y250845D02*
X536969D01*
X535000D02*
X536575Y253601D01*
X533032D02*
X535000Y250845D01*
X533032Y253601D02*
X536575D01*
X535000Y250058D02*
Y250845D01*
Y253601D02*
Y254782D01*
X532932Y273455D02*
X536868D01*
X533325Y270699D02*
X534900Y273455D01*
X536868Y270699D01*
X533325D02*
X536868D01*
X534900Y273455D02*
Y274242D01*
Y269518D02*
Y270699D01*
X521832Y257055D02*
X525769D01*
X522225Y254299D02*
X523800Y257055D01*
X525769Y254299D01*
X522225D02*
X525769D01*
X523800Y257055D02*
Y257842D01*
Y253118D02*
Y254299D01*
Y270101D02*
Y271282D01*
Y266558D02*
Y267345D01*
X521832Y270101D02*
X525375D01*
X521832D02*
X523800Y267345D01*
X525375Y270101D01*
X521832Y267345D02*
X525769D01*
D11*
X546158Y273182D02*
X545419Y273608D01*
Y272755D01*
X546158Y273182D01*
X182264Y161846D02*
X181526Y162273D01*
Y161420D01*
X182264Y161846D01*
Y201847D02*
X181526Y202273D01*
Y201420D01*
X182264Y201847D01*
Y241846D02*
X181526Y242273D01*
Y241420D01*
X182264Y241846D01*
Y281846D02*
X181526Y282273D01*
Y281420D01*
X182264Y281846D01*
D12*
X512500Y135000D02*
X512461Y135993D01*
X512342Y136980D01*
X512146Y137954D01*
X511873Y138910D01*
X511525Y139841D01*
X511103Y140741D01*
X510612Y141605D01*
X510054Y142428D01*
X509432Y143203D01*
X508750Y143926D01*
X508014Y144593D01*
X507226Y145200D01*
X506393Y145741D01*
X505519Y146215D01*
X504611Y146618D01*
X503673Y146948D01*
X502712Y147202D01*
X501734Y147379D01*
X500745Y147478D01*
X499752Y147497D01*
X498759Y147438D01*
X497775Y147300D01*
X496805Y147085D01*
X495855Y146793D01*
X494931Y146426D01*
X494039Y145987D01*
X493185Y145479D01*
X492374Y144904D01*
X491611Y144267D01*
X490902Y143571D01*
X490249Y142821D01*
X489659Y142022D01*
X489134Y141178D01*
X488677Y140295D01*
X488292Y139379D01*
X487981Y138435D01*
X487746Y137469D01*
X487589Y136488D01*
X487510Y135497D01*
Y134503D01*
X487589Y133512D01*
X487746Y132531D01*
X487981Y131565D01*
X488292Y130621D01*
X488677Y129705D01*
X489134Y128822D01*
X489659Y127978D01*
X490249Y127179D01*
X490902Y126429D01*
X491611Y125733D01*
X492374Y125096D01*
X493185Y124521D01*
X494039Y124013D01*
X494931Y123574D01*
X495855Y123207D01*
X496805Y122915D01*
X497775Y122700D01*
X498759Y122562D01*
X499752Y122503D01*
X500745Y122522D01*
X501734Y122621D01*
X502712Y122798D01*
X503673Y123052D01*
X504611Y123381D01*
X505519Y123784D01*
X506393Y124258D01*
X507226Y124800D01*
X508014Y125407D01*
X508751Y126074D01*
X509432Y126797D01*
X510054Y127573D01*
X510612Y128395D01*
X511103Y129259D01*
X511525Y130159D01*
X511873Y131090D01*
X512146Y132046D01*
X512342Y133020D01*
X512461Y134007D01*
X512500Y135000D01*
Y280000D02*
X512461Y280993D01*
X512342Y281980D01*
X512146Y282954D01*
X511873Y283910D01*
X511525Y284841D01*
X511103Y285741D01*
X510612Y286605D01*
X510054Y287427D01*
X509432Y288203D01*
X508750Y288926D01*
X508014Y289593D01*
X507226Y290200D01*
X506393Y290741D01*
X505519Y291215D01*
X504611Y291618D01*
X503673Y291948D01*
X502712Y292202D01*
X501734Y292379D01*
X500745Y292478D01*
X499752Y292497D01*
X498759Y292438D01*
X497775Y292300D01*
X496805Y292085D01*
X495855Y291793D01*
X494931Y291426D01*
X494039Y290987D01*
X493185Y290479D01*
X492374Y289904D01*
X491611Y289267D01*
X490902Y288571D01*
X490249Y287821D01*
X489659Y287022D01*
X489134Y286178D01*
X488677Y285295D01*
X488292Y284379D01*
X487981Y283435D01*
X487746Y282469D01*
X487589Y281488D01*
X487510Y280497D01*
Y279503D01*
X487589Y278512D01*
X487746Y277531D01*
X487981Y276565D01*
X488292Y275621D01*
X488677Y274705D01*
X489134Y273822D01*
X489659Y272978D01*
X490249Y272179D01*
X490902Y271429D01*
X491611Y270733D01*
X492374Y270096D01*
X493185Y269521D01*
X494039Y269013D01*
X494931Y268574D01*
X495855Y268207D01*
X496805Y267915D01*
X497775Y267700D01*
X498759Y267562D01*
X499752Y267502D01*
X500745Y267522D01*
X501734Y267621D01*
X502712Y267798D01*
X503673Y268052D01*
X504611Y268382D01*
X505519Y268784D01*
X506393Y269258D01*
X507226Y269800D01*
X508014Y270407D01*
X508751Y271074D01*
X509432Y271797D01*
X510054Y272572D01*
X510612Y273395D01*
X511103Y274259D01*
X511525Y275159D01*
X511873Y276090D01*
X512146Y277046D01*
X512342Y278020D01*
X512461Y279007D01*
X512500Y280000D01*
X127500Y207500D02*
X127461Y208493D01*
X127342Y209480D01*
X127146Y210454D01*
X126873Y211410D01*
X126525Y212341D01*
X126103Y213241D01*
X125612Y214105D01*
X125054Y214928D01*
X124432Y215703D01*
X123750Y216426D01*
X123014Y217093D01*
X122226Y217700D01*
X121393Y218242D01*
X120519Y218716D01*
X119611Y219118D01*
X118673Y219448D01*
X117712Y219702D01*
X116734Y219879D01*
X115745Y219978D01*
X114752Y219998D01*
X113759Y219938D01*
X112775Y219800D01*
X111805Y219585D01*
X110855Y219293D01*
X109931Y218926D01*
X109039Y218487D01*
X108185Y217979D01*
X107374Y217404D01*
X106611Y216767D01*
X105902Y216071D01*
X105249Y215321D01*
X104659Y214522D01*
X104133Y213678D01*
X103677Y212795D01*
X103292Y211879D01*
X102981Y210935D01*
X102746Y209969D01*
X102589Y208988D01*
X102510Y207997D01*
Y207003D01*
X102589Y206012D01*
X102746Y205031D01*
X102981Y204065D01*
X103292Y203121D01*
X103677Y202205D01*
X104133Y201322D01*
X104659Y200478D01*
X105249Y199679D01*
X105902Y198929D01*
X106611Y198233D01*
X107374Y197596D01*
X108185Y197021D01*
X109039Y196513D01*
X109931Y196074D01*
X110855Y195707D01*
X111805Y195415D01*
X112775Y195200D01*
X113759Y195062D01*
X114752Y195002D01*
X115745Y195022D01*
X116734Y195121D01*
X117712Y195298D01*
X118673Y195552D01*
X119611Y195881D01*
X120519Y196284D01*
X121393Y196758D01*
X122226Y197300D01*
X123014Y197907D01*
X123750Y198574D01*
X124432Y199297D01*
X125054Y200073D01*
X125612Y200895D01*
X126103Y201759D01*
X126525Y202659D01*
X126873Y203590D01*
X127146Y204546D01*
X127342Y205520D01*
X127461Y206507D01*
X127500Y207500D01*
X513000Y135000D02*
X521000D01*
Y127500D02*
Y135000D01*
X523500Y122500D02*
X526000Y127500D01*
X518500Y122500D02*
X521000Y127500D01*
X513500Y122500D02*
X516000Y127500D01*
X526000D01*
D13*
X188591Y157500D02*
X188000Y158091D01*
X187409Y157500D01*
X188000Y156909D01*
X188591Y157500D01*
Y197500D02*
X188000Y198091D01*
X187409Y197500D01*
X188000Y196909D01*
X188591Y197500D01*
Y237500D02*
X188000Y238090D01*
X187409Y237500D01*
X188000Y236910D01*
X188591Y237500D01*
Y277500D02*
X188000Y278091D01*
X187409Y277500D01*
X188000Y276909D01*
X188591Y277500D01*
D14*
X310138Y129500D02*
Y132220D01*
X345138Y129500D02*
Y132220D01*
Y159780D02*
Y162500D01*
X310138Y159780D02*
Y162500D01*
X345138D01*
X310138Y129500D02*
X345138D01*
X310138Y169500D02*
X345138D01*
X310138Y202500D02*
X345138D01*
X310138Y199779D02*
Y202500D01*
X345138Y199779D02*
Y202500D01*
Y169500D02*
Y172221D01*
X310138Y169500D02*
Y172221D01*
Y209500D02*
Y212221D01*
X345138Y209500D02*
Y212221D01*
Y239779D02*
Y242500D01*
X310138Y239779D02*
Y242500D01*
X345138D01*
X310138Y209500D02*
X345138D01*
X310138Y249500D02*
X345138D01*
X310138Y282500D02*
X345138D01*
X310138Y279780D02*
Y282500D01*
X345138Y279780D02*
Y282500D01*
Y249500D02*
Y252221D01*
X310138Y249500D02*
Y252221D01*
X410138Y129500D02*
Y132220D01*
X445138Y129500D02*
Y132220D01*
Y159780D02*
Y162500D01*
X410138Y159780D02*
Y162500D01*
X445138D01*
X410138Y129500D02*
X445138D01*
X410000Y169500D02*
X445000D01*
X410000Y202500D02*
X445000D01*
X410000Y199779D02*
Y202500D01*
X445000Y199779D02*
Y202500D01*
Y169500D02*
Y172221D01*
X410000Y169500D02*
Y172221D01*
X410138Y209500D02*
Y212221D01*
X445138Y209500D02*
Y212221D01*
Y239779D02*
Y242500D01*
X410138Y239779D02*
Y242500D01*
X445138D01*
X410138Y209500D02*
X445138D01*
X410138Y249500D02*
X445138D01*
X410138Y282500D02*
X445138D01*
X410138Y279780D02*
Y282500D01*
X445138Y279780D02*
Y282500D01*
Y249500D02*
Y252221D01*
X410138Y249500D02*
Y252221D01*
X145300Y206300D02*
Y208700D01*
X145500Y207500D02*
X146700Y208700D01*
Y206300D02*
Y208700D01*
X145500Y207500D02*
X146700Y206300D01*
X144300Y151300D02*
Y153700D01*
X144500Y152500D02*
X145700Y153700D01*
Y151300D02*
Y153700D01*
X144500Y152500D02*
X145700Y151300D01*
X144500Y162500D02*
X145700Y161300D01*
Y163700D01*
X144500Y162500D02*
X145700Y163700D01*
X144300Y161300D02*
Y163700D01*
Y181300D02*
Y183700D01*
X144500Y182500D02*
X145700Y183700D01*
Y181300D02*
Y183700D01*
X144500Y182500D02*
X145700Y181300D01*
X144500Y172500D02*
X145700Y171300D01*
Y173700D01*
X144500Y172500D02*
X145700Y173700D01*
X144300Y171300D02*
Y173700D01*
Y241300D02*
Y243700D01*
X144500Y242500D02*
X145700Y243700D01*
Y241300D02*
Y243700D01*
X144500Y242500D02*
X145700Y241300D01*
X144500Y252500D02*
X145700Y251300D01*
Y253700D01*
X144500Y252500D02*
X145700Y253700D01*
X144300Y251300D02*
Y253700D01*
Y261300D02*
Y263700D01*
X144500Y262500D02*
X145700Y263700D01*
Y261300D02*
Y263700D01*
X144500Y262500D02*
X145700Y261300D01*
X144500Y272500D02*
X145700Y271300D01*
Y273700D01*
X144500Y272500D02*
X145700Y273700D01*
X144300Y271300D02*
Y273700D01*
X213100Y288800D02*
Y291200D01*
X213300Y290000D02*
X214500Y291200D01*
Y288800D02*
Y291200D01*
X213300Y290000D02*
X214500Y288800D01*
X219900Y137600D02*
X220100D01*
X219900Y134400D02*
X220100D01*
X219900Y174400D02*
X220100D01*
X219900Y177600D02*
X220100D01*
X219900Y217600D02*
X220100D01*
X219900Y214400D02*
X220100D01*
X219900Y254400D02*
X220100D01*
X219900Y257600D02*
X220100D01*
X219900Y129600D02*
X220100D01*
X219900Y126400D02*
X220100D01*
X219900Y166400D02*
X220100D01*
X219900Y169600D02*
X220100D01*
X219900Y209600D02*
X220100D01*
X219900Y206400D02*
X220100D01*
X219900Y246400D02*
X220100D01*
X219900Y249600D02*
X220100D01*
X169743Y155100D02*
X169942D01*
X169743Y151900D02*
X169942D01*
X169743Y191900D02*
X169942D01*
X169743Y195100D02*
X169942D01*
X169743Y235100D02*
X169942D01*
X169743Y231900D02*
X169942D01*
X169743Y271900D02*
X169942D01*
X169743Y275100D02*
X169942D01*
X242303Y134425D02*
X242697D01*
X242303Y137575D02*
X242697D01*
X242303Y177575D02*
X242697D01*
X242303Y174425D02*
X242697D01*
X242303Y214425D02*
X242697D01*
X242303Y217575D02*
X242697D01*
X242303Y257575D02*
X242697D01*
X242303Y254425D02*
X242697D01*
X242303Y126425D02*
X242697D01*
X242303Y129575D02*
X242697D01*
X242303Y169575D02*
X242697D01*
X242303Y166425D02*
X242697D01*
X242303Y206425D02*
X242697D01*
X242303Y209575D02*
X242697D01*
X242303Y249575D02*
X242697D01*
X242303Y246425D02*
X242697D01*
X169153Y159425D02*
X169547D01*
X169153Y162575D02*
X169547D01*
X169153Y202575D02*
X169547D01*
X169153Y199425D02*
X169547D01*
X169153Y239425D02*
X169547D01*
X169153Y242575D02*
X169547D01*
X169153Y282575D02*
X169547D01*
X169153Y279425D02*
X169547D01*
X214803Y160075D02*
X215197D01*
X214803Y156925D02*
X215197D01*
X214803Y196925D02*
X215197D01*
X214803Y200075D02*
X215197D01*
X214803Y240075D02*
X215197D01*
X214803Y236925D02*
X215197D01*
X214803Y276925D02*
X215197D01*
X214803Y280075D02*
X215197D01*
D15*
X152000Y204500D02*
Y210500D01*
Y204500D02*
X166000D01*
X152000Y210500D02*
X166000D01*
X221000Y287000D02*
X229500D01*
X221000D02*
Y293000D01*
X229500Y287000D02*
Y293000D01*
X221000D02*
X229500D01*
X166000Y204500D02*
Y210500D01*
X164000Y258500D02*
X177500D01*
X164000Y218500D02*
X177500D01*
X164000Y266500D02*
X172000D01*
X177500Y272000D01*
X164000Y226500D02*
X172000D01*
X177500Y232000D01*
X164000Y186500D02*
X172000D01*
X177500Y192000D01*
X164000Y178500D02*
X177500D01*
X172000Y146500D02*
X177500Y152000D01*
X164000Y146500D02*
X172000D01*
X164000Y138500D02*
X177500D01*
X153000Y269500D02*
X164000D01*
Y263500D02*
Y269500D01*
X153000Y263500D02*
Y269500D01*
Y263500D02*
X164000D01*
X153000Y261500D02*
X164000D01*
Y255500D02*
Y261500D01*
X153000Y255500D02*
Y261500D01*
Y255500D02*
X164000D01*
X153000Y229500D02*
X164000D01*
Y223500D02*
Y229500D01*
X153000Y223500D02*
Y229500D01*
Y223500D02*
X164000D01*
X153000Y221500D02*
X164000D01*
Y215500D02*
Y221500D01*
X153000Y215500D02*
Y221500D01*
Y215500D02*
X164000D01*
X153000Y189500D02*
X164000D01*
Y183500D02*
Y189500D01*
X153000Y183500D02*
Y189500D01*
Y183500D02*
X164000D01*
X153000Y181500D02*
X164000D01*
Y175500D02*
Y181500D01*
X153000Y175500D02*
Y181500D01*
Y175500D02*
X164000D01*
X153000Y149500D02*
X164000D01*
Y143500D02*
Y149500D01*
X153000Y143500D02*
Y149500D01*
Y143500D02*
X164000D01*
X153000Y135500D02*
X164000D01*
X153000D02*
Y141500D01*
X164000Y135500D02*
Y141500D01*
X153000D02*
X164000D01*
X153402Y208566D02*
X153935Y209100D01*
X155001D01*
X155534Y208566D01*
Y208033D01*
X155001Y207500D01*
X154468D01*
X155001D01*
X155534Y206967D01*
Y206434D01*
X155001Y205901D01*
X153935D01*
X153402Y206434D01*
X156601Y205901D02*
Y206434D01*
X157134D01*
Y205901D01*
X156601D01*
X159267Y208566D02*
X159800Y209100D01*
X160866D01*
X161399Y208566D01*
Y208033D01*
X160866Y207500D01*
X160333D01*
X160866D01*
X161399Y206967D01*
Y206434D01*
X160866Y205901D01*
X159800D01*
X159267Y206434D01*
X162466Y209100D02*
Y206967D01*
X163532Y205901D01*
X164598Y206967D01*
Y209100D01*
X484834Y290900D02*
Y294099D01*
X485900Y293033D01*
X486967Y294099D01*
Y290900D01*
X488033Y293566D02*
X488566Y294099D01*
X489633D01*
X490166Y293566D01*
Y293033D01*
X489633Y292500D01*
X489100D01*
X489633D01*
X490166Y291967D01*
Y291434D01*
X489633Y290900D01*
X488566D01*
X488033Y291434D01*
X124834Y218401D02*
Y221600D01*
X125900Y220533D01*
X126967Y221600D01*
Y218401D01*
X128033Y221066D02*
X128566Y221600D01*
X129633D01*
X130166Y221066D01*
Y220533D01*
X129633Y220000D01*
X129100D01*
X129633D01*
X130166Y219467D01*
Y218934D01*
X129633Y218401D01*
X128566D01*
X128033Y218934D01*
X484834Y145900D02*
Y149100D01*
X485900Y148033D01*
X486967Y149100D01*
Y145900D01*
X488033Y148566D02*
X488566Y149100D01*
X489633D01*
X490166Y148566D01*
Y148033D01*
X489633Y147500D01*
X489100D01*
X489633D01*
X490166Y146967D01*
Y146434D01*
X489633Y145900D01*
X488566D01*
X488033Y146434D01*
X502200Y222600D02*
X501133D01*
X500600Y222066D01*
Y219934D01*
X501133Y219401D01*
X502200D01*
X502733Y219934D01*
Y222066D01*
X502200Y222600D01*
X503799Y221533D02*
Y219934D01*
X504332Y219401D01*
X505932D01*
Y221533D01*
X507531Y222066D02*
Y221533D01*
X506998D01*
X508064D01*
X507531D01*
Y219934D01*
X508064Y219401D01*
X509664D02*
Y221533D01*
X510730Y222600D01*
X511796Y221533D01*
Y219401D01*
Y221000D01*
X509664D01*
X502200Y239100D02*
X501133D01*
X500600Y238566D01*
Y236434D01*
X501133Y235900D01*
X502200D01*
X502733Y236434D01*
Y238566D01*
X502200Y239100D01*
X503799Y238033D02*
Y236434D01*
X504332Y235900D01*
X505932D01*
Y238033D01*
X507531Y238566D02*
Y238033D01*
X506998D01*
X508064D01*
X507531D01*
Y236434D01*
X508064Y235900D01*
X509664Y239100D02*
Y235900D01*
X511263D01*
X511796Y236434D01*
Y236967D01*
X511263Y237500D01*
X509664D01*
X511263D01*
X511796Y238033D01*
Y238566D01*
X511263Y239100D01*
X509664D01*
X502200Y254099D02*
X501133D01*
X500600Y253566D01*
Y251434D01*
X501133Y250901D01*
X502200D01*
X502733Y251434D01*
Y253566D01*
X502200Y254099D01*
X503799Y253033D02*
Y251434D01*
X504332Y250901D01*
X505932D01*
Y253033D01*
X507531Y253566D02*
Y253033D01*
X506998D01*
X508064D01*
X507531D01*
Y251434D01*
X508064Y250901D01*
X511796Y253566D02*
X511263Y254099D01*
X510197D01*
X509664Y253566D01*
Y251434D01*
X510197Y250901D01*
X511263D01*
X511796Y251434D01*
X502200Y265599D02*
X501133D01*
X500600Y265066D01*
Y262934D01*
X501133Y262401D01*
X502200D01*
X502733Y262934D01*
Y265066D01*
X502200Y265599D01*
X503799Y264533D02*
Y262934D01*
X504332Y262401D01*
X505932D01*
Y264533D01*
X507531Y265066D02*
Y264533D01*
X506998D01*
X508064D01*
X507531D01*
Y262934D01*
X508064Y262401D01*
X509664Y265599D02*
Y262401D01*
X511263D01*
X511796Y262934D01*
Y265066D01*
X511263Y265599D01*
X509664D01*
X500600Y206100D02*
X501666D01*
X501133D01*
Y202901D01*
X500600D01*
X501666D01*
X503266D02*
Y205033D01*
X504865D01*
X505398Y204500D01*
Y202901D01*
X506465Y206100D02*
Y202901D01*
X508064D01*
X508597Y203434D01*
Y205566D01*
X508064Y206100D01*
X506465D01*
X500600Y190100D02*
X501666D01*
X501133D01*
Y186900D01*
X500600D01*
X501666D01*
X503266D02*
Y189033D01*
X504865D01*
X505398Y188500D01*
Y186900D01*
X508597Y189566D02*
X508064Y190100D01*
X506998D01*
X506465Y189566D01*
Y187434D01*
X506998Y186900D01*
X508064D01*
X508597Y187434D01*
X500600Y173600D02*
X501666D01*
X501133D01*
Y170401D01*
X500600D01*
X501666D01*
X503266D02*
Y172533D01*
X504865D01*
X505398Y172000D01*
Y170401D01*
X506465Y173600D02*
Y170401D01*
X508064D01*
X508597Y170934D01*
Y171467D01*
X508064Y172000D01*
X506465D01*
X508064D01*
X508597Y172533D01*
Y173066D01*
X508064Y173600D01*
X506465D01*
X500600Y157099D02*
X501666D01*
X501133D01*
Y153901D01*
X500600D01*
X501666D01*
X503266D02*
Y156033D01*
X504865D01*
X505398Y155500D01*
Y153901D01*
X506465D02*
Y156033D01*
X507531Y157099D01*
X508597Y156033D01*
Y153901D01*
Y155500D01*
X506465D01*
X154235Y140100D02*
X156367D01*
X155301D01*
Y136900D01*
X157434Y139033D02*
X159566Y136900D01*
X158500Y137967D01*
X159566Y139033D01*
X157434Y136900D01*
X160633D02*
Y139033D01*
X161699Y140100D01*
X162765Y139033D01*
Y136900D01*
Y138500D01*
X160633D01*
X154235Y180099D02*
X156367D01*
X155301D01*
Y176900D01*
X157434Y179033D02*
X159566Y176900D01*
X158500Y177967D01*
X159566Y179033D01*
X157434Y176900D01*
X160633Y180099D02*
Y176900D01*
X162232D01*
X162765Y177434D01*
Y177967D01*
X162232Y178500D01*
X160633D01*
X162232D01*
X162765Y179033D01*
Y179566D01*
X162232Y180099D01*
X160633D01*
X154235Y220099D02*
X156367D01*
X155301D01*
Y216900D01*
X157434Y219033D02*
X159566Y216900D01*
X158500Y217967D01*
X159566Y219033D01*
X157434Y216900D01*
X162765Y219566D02*
X162232Y220099D01*
X161166D01*
X160633Y219566D01*
Y217434D01*
X161166Y216900D01*
X162232D01*
X162765Y217434D01*
X154235Y260100D02*
X156367D01*
X155301D01*
Y256901D01*
X157434Y259033D02*
X159566Y256901D01*
X158500Y257967D01*
X159566Y259033D01*
X157434Y256901D01*
X160633Y260100D02*
Y256901D01*
X162232D01*
X162765Y257434D01*
Y259566D01*
X162232Y260100D01*
X160633D01*
X154235Y264900D02*
Y268099D01*
X155834D01*
X156367Y267566D01*
Y266500D01*
X155834Y265967D01*
X154235D01*
X155301D02*
X156367Y264900D01*
X157434Y267033D02*
X159566Y264900D01*
X158500Y265967D01*
X159566Y267033D01*
X157434Y264900D01*
X160633Y268099D02*
Y264900D01*
X162232D01*
X162765Y265434D01*
Y267566D01*
X162232Y268099D01*
X160633D01*
X154235Y224901D02*
Y228099D01*
X155834D01*
X156367Y227566D01*
Y226500D01*
X155834Y225967D01*
X154235D01*
X155301D02*
X156367Y224901D01*
X157434Y227033D02*
X159566Y224901D01*
X158500Y225967D01*
X159566Y227033D01*
X157434Y224901D01*
X162765Y227566D02*
X162232Y228099D01*
X161166D01*
X160633Y227566D01*
Y225434D01*
X161166Y224901D01*
X162232D01*
X162765Y225434D01*
X154235Y184900D02*
Y188100D01*
X155834D01*
X156367Y187566D01*
Y186500D01*
X155834Y185967D01*
X154235D01*
X155301D02*
X156367Y184900D01*
X157434Y187033D02*
X159566Y184900D01*
X158500Y185967D01*
X159566Y187033D01*
X157434Y184900D01*
X160633Y188100D02*
Y184900D01*
X162232D01*
X162765Y185434D01*
Y185967D01*
X162232Y186500D01*
X160633D01*
X162232D01*
X162765Y187033D01*
Y187566D01*
X162232Y188100D01*
X160633D01*
X154235Y144901D02*
Y148100D01*
X155834D01*
X156367Y147566D01*
Y146500D01*
X155834Y145967D01*
X154235D01*
X155301D02*
X156367Y144901D01*
X157434Y147033D02*
X159566Y144901D01*
X158500Y145967D01*
X159566Y147033D01*
X157434Y144901D01*
X160633D02*
Y147033D01*
X161699Y148100D01*
X162765Y147033D01*
Y144901D01*
Y146500D01*
X160633D01*
X432733Y121400D02*
X430600D01*
X432733Y123533D01*
Y124066D01*
X432199Y124600D01*
X431133D01*
X430600Y124066D01*
X433799D02*
X434332Y124600D01*
X435398D01*
X435932Y124066D01*
Y121934D01*
X435398Y121400D01*
X434332D01*
X433799Y121934D01*
Y124066D01*
X439131Y121400D02*
X436998D01*
X439131Y123533D01*
Y124066D01*
X438597Y124600D01*
X437531D01*
X436998Y124066D01*
X440197D02*
X440730Y124600D01*
X441796D01*
X442330Y124066D01*
Y121934D01*
X441796Y121400D01*
X440730D01*
X440197Y121934D01*
Y124066D01*
X380100Y121434D02*
X381166D01*
X380633D01*
Y123566D01*
X380100D01*
X382766Y121434D02*
Y123566D01*
X383299D01*
X383832Y123033D01*
Y121434D01*
Y123033D01*
X384365Y123566D01*
X384898Y123033D01*
Y121434D01*
X386498Y123566D02*
X387564D01*
X388097Y123033D01*
Y121434D01*
X386498D01*
X385965Y121967D01*
X386498Y122500D01*
X388097D01*
X390230Y120367D02*
X390763D01*
X391296Y120900D01*
Y123566D01*
X389697D01*
X389164Y123033D01*
Y121967D01*
X389697Y121434D01*
X391296D01*
X392363D02*
X393429D01*
X392896D01*
Y123566D01*
X392363D01*
X395028Y121434D02*
Y123566D01*
X396628D01*
X397161Y123033D01*
Y121434D01*
X398761Y123566D02*
X399827D01*
X400360Y123033D01*
Y121434D01*
X398761D01*
X398228Y121967D01*
X398761Y122500D01*
X400360D01*
X401427Y123566D02*
Y121434D01*
Y122500D01*
X401960Y123033D01*
X402493Y123566D01*
X403026D01*
X404625D02*
Y121967D01*
X405159Y121434D01*
X406758D01*
Y120900D01*
X406225Y120367D01*
X405692D01*
X406758Y121434D02*
Y123566D01*
X411023Y121434D02*
Y123566D01*
X412090Y124633D01*
X413156Y123566D01*
Y121434D01*
Y123033D01*
X411023D01*
X414222Y123566D02*
Y121967D01*
X414755Y121434D01*
X416355D01*
Y123566D01*
X419554Y124633D02*
Y121434D01*
X417954D01*
X417421Y121967D01*
Y123033D01*
X417954Y123566D01*
X419554D01*
X420620Y121434D02*
X421687D01*
X421153D01*
Y123566D01*
X420620D01*
X423819Y121434D02*
X424886D01*
X425419Y121967D01*
Y123033D01*
X424886Y123566D01*
X423819D01*
X423286Y123033D01*
Y121967D01*
X423819Y121434D01*
X237737Y279901D02*
Y283100D01*
X239337D01*
X239870Y282566D01*
Y281500D01*
X239337Y280967D01*
X237737D01*
X240936Y283100D02*
Y279901D01*
X242003Y280967D01*
X243069Y279901D01*
Y283100D01*
X244135Y279901D02*
Y283100D01*
X245735D01*
X246268Y282566D01*
Y281500D01*
X245735Y280967D01*
X244135D01*
X245201D02*
X246268Y279901D01*
X252133Y283100D02*
X251066D01*
X250533Y282566D01*
Y280434D01*
X251066Y279901D01*
X252133D01*
X252666Y280434D01*
Y282566D01*
X252133Y283100D01*
X253732Y279901D02*
Y283100D01*
X255865Y279901D01*
Y283100D01*
X256931D02*
Y279901D01*
X259064D01*
X260130Y283100D02*
Y282566D01*
X261196Y281500D01*
X262263Y282566D01*
Y283100D01*
X261196Y281500D02*
Y279901D01*
X249467Y288599D02*
X248400D01*
X248934D01*
Y285934D01*
X248400Y285401D01*
X247867D01*
X247334Y285934D01*
X252133Y285401D02*
Y288599D01*
X250533Y287000D01*
X252666D01*
X224733Y291599D02*
X222600D01*
Y290000D01*
X223666Y290533D01*
X224200D01*
X224733Y290000D01*
Y288934D01*
X224200Y288401D01*
X223133D01*
X222600Y288934D01*
X225799Y291599D02*
Y289467D01*
X226865Y288401D01*
X227932Y289467D01*
Y291599D01*
X375600Y290900D02*
X376666D01*
X376133D01*
Y293033D01*
X375600D01*
X378266Y290900D02*
Y293033D01*
X379332Y294099D01*
X380398Y293033D01*
Y290900D01*
Y292500D01*
X378266D01*
X381465D02*
X383597D01*
X384664Y290900D02*
Y294099D01*
X386263D01*
X386796Y293566D01*
Y292500D01*
X386263Y291967D01*
X384664D01*
X387863Y290900D02*
Y293033D01*
X388396D01*
X388929Y292500D01*
Y290900D01*
Y292500D01*
X389462Y293033D01*
X389995Y292500D01*
Y290900D01*
X391595D02*
X392661D01*
X393194Y291434D01*
Y292500D01*
X392661Y293033D01*
X391595D01*
X391062Y292500D01*
Y291434D01*
X391595Y290900D01*
X396393Y294099D02*
Y290900D01*
X394794D01*
X394261Y291434D01*
Y292500D01*
X394794Y293033D01*
X396393D01*
X397460Y292500D02*
X399592D01*
X400659Y290900D02*
Y293033D01*
X401725Y294099D01*
X402791Y293033D01*
Y290900D01*
Y292500D01*
X400659D01*
X405990Y294099D02*
X403858D01*
Y290900D01*
X405990D01*
X403858Y292500D02*
X404924D01*
X409189Y293566D02*
X408656Y294099D01*
X407590D01*
X407057Y293566D01*
Y293033D01*
X407590Y292500D01*
X408656D01*
X409189Y291967D01*
Y291434D01*
X408656Y290900D01*
X407590D01*
X407057Y291434D01*
X410255Y293566D02*
X410789Y294099D01*
X411855D01*
X412388Y293566D01*
Y293033D01*
X411855Y292500D01*
X411322D01*
X411855D01*
X412388Y291967D01*
Y291434D01*
X411855Y290900D01*
X410789D01*
X410255Y291434D01*
X413454Y292500D02*
X415587D01*
X418253Y290900D02*
Y294099D01*
X416653Y292500D01*
X418786D01*
X419852Y293033D02*
X421985Y290900D01*
X420919Y291967D01*
X421985Y293033D01*
X419852Y290900D01*
X424651D02*
Y294099D01*
X423051Y292500D01*
X425184D01*
X430600Y290900D02*
Y294099D01*
X432199D01*
X432733Y293566D01*
Y292500D01*
X432199Y291967D01*
X430600D01*
X431666D02*
X432733Y290900D01*
X435398D02*
X434332D01*
X433799Y291434D01*
Y292500D01*
X434332Y293033D01*
X435398D01*
X435932Y292500D01*
Y291967D01*
X433799D01*
X436998Y293033D02*
X438064Y290900D01*
X439131Y293033D01*
X440197D02*
X440730D01*
Y292500D01*
X440197D01*
Y293033D01*
Y291434D02*
X440730D01*
Y290900D01*
X440197D01*
Y291434D01*
X442863Y293566D02*
X443396Y294099D01*
X444462D01*
X444995Y293566D01*
Y291434D01*
X444462Y290900D01*
X443396D01*
X442863Y291434D01*
Y293566D01*
X446062Y290900D02*
Y291434D01*
X446595D01*
Y290900D01*
X446062D01*
X448728D02*
X449794D01*
X449261D01*
Y294099D01*
X448728Y293566D01*
X128902Y209100D02*
Y205901D01*
X131034D01*
X132101Y209100D02*
Y205901D01*
X133700D01*
X134233Y206434D01*
Y208566D01*
X133700Y209100D01*
X132101D01*
X135300Y205901D02*
X136366D01*
X135833D01*
Y209100D01*
X135300Y208566D01*
X137966D02*
X138499Y209100D01*
X139565D01*
X140098Y208566D01*
Y206434D01*
X139565Y205901D01*
X138499D01*
X137966Y206434D01*
Y208566D01*
X153168Y271901D02*
Y275099D01*
X154768D01*
X155301Y274566D01*
Y273500D01*
X154768Y272967D01*
X153168D01*
X154235D02*
X155301Y271901D01*
X156367D02*
X157434D01*
X156901D01*
Y275099D01*
X156367Y274566D01*
X159033Y271901D02*
X160099D01*
X159566D01*
Y275099D01*
X159033Y274566D01*
X161699Y275099D02*
Y271901D01*
X163298D01*
X163832Y272434D01*
Y274566D01*
X163298Y275099D01*
X161699D01*
X153168Y231901D02*
Y235100D01*
X154768D01*
X155301Y234566D01*
Y233500D01*
X154768Y232967D01*
X153168D01*
X154235D02*
X155301Y231901D01*
X156367D02*
X157434D01*
X156901D01*
Y235100D01*
X156367Y234566D01*
X159033Y231901D02*
X160099D01*
X159566D01*
Y235100D01*
X159033Y234566D01*
X163832D02*
X163298Y235100D01*
X162232D01*
X161699Y234566D01*
Y232434D01*
X162232Y231901D01*
X163298D01*
X163832Y232434D01*
X153168Y191901D02*
Y195099D01*
X154768D01*
X155301Y194566D01*
Y193500D01*
X154768Y192967D01*
X153168D01*
X154235D02*
X155301Y191901D01*
X156367D02*
X157434D01*
X156901D01*
Y195099D01*
X156367Y194566D01*
X159033Y191901D02*
X160099D01*
X159566D01*
Y195099D01*
X159033Y194566D01*
X161699Y195099D02*
Y191901D01*
X163298D01*
X163832Y192434D01*
Y192967D01*
X163298Y193500D01*
X161699D01*
X163298D01*
X163832Y194033D01*
Y194566D01*
X163298Y195099D01*
X161699D01*
X153168Y151900D02*
Y155099D01*
X154768D01*
X155301Y154566D01*
Y153500D01*
X154768Y152967D01*
X153168D01*
X154235D02*
X155301Y151900D01*
X156367D02*
X157434D01*
X156901D01*
Y155099D01*
X156367Y154566D01*
X159033Y151900D02*
X160099D01*
X159566D01*
Y155099D01*
X159033Y154566D01*
X161699Y151900D02*
Y154033D01*
X162765Y155099D01*
X163832Y154033D01*
Y151900D01*
Y153500D01*
X161699D01*
X199035Y291599D02*
Y288401D01*
X201167D01*
X202234Y291599D02*
Y288401D01*
X203833D01*
X204366Y288934D01*
Y291066D01*
X203833Y291599D01*
X202234D01*
X205433Y288934D02*
X205966Y288401D01*
X207032D01*
X207565Y288934D01*
Y291066D01*
X207032Y291599D01*
X205966D01*
X205433Y291066D01*
Y290533D01*
X205966Y290000D01*
X207565D01*
X130235Y274099D02*
Y270901D01*
X132367D01*
X133434Y274099D02*
Y270901D01*
X135033D01*
X135566Y271434D01*
Y273566D01*
X135033Y274099D01*
X133434D01*
X136633Y273566D02*
X137166Y274099D01*
X138232D01*
X138765Y273566D01*
Y273033D01*
X138232Y272500D01*
X138765Y271967D01*
Y271434D01*
X138232Y270901D01*
X137166D01*
X136633Y271434D01*
Y271967D01*
X137166Y272500D01*
X136633Y273033D01*
Y273566D01*
X137166Y272500D02*
X138232D01*
X130235Y264100D02*
Y260900D01*
X132367D01*
X133434Y264100D02*
Y260900D01*
X135033D01*
X135566Y261434D01*
Y263566D01*
X135033Y264100D01*
X133434D01*
X136633D02*
X138765D01*
Y263566D01*
X136633Y261434D01*
Y260900D01*
X130235Y254099D02*
Y250901D01*
X132367D01*
X133434Y254099D02*
Y250901D01*
X135033D01*
X135566Y251434D01*
Y253566D01*
X135033Y254099D01*
X133434D01*
X138765D02*
X137699Y253566D01*
X136633Y252500D01*
Y251434D01*
X137166Y250901D01*
X138232D01*
X138765Y251434D01*
Y251967D01*
X138232Y252500D01*
X136633D01*
X130235Y244099D02*
Y240900D01*
X132367D01*
X133434Y244099D02*
Y240900D01*
X135033D01*
X135566Y241434D01*
Y243566D01*
X135033Y244099D01*
X133434D01*
X138765D02*
X136633D01*
Y242500D01*
X137699Y243033D01*
X138232D01*
X138765Y242500D01*
Y241434D01*
X138232Y240900D01*
X137166D01*
X136633Y241434D01*
X130235Y174100D02*
Y170900D01*
X132367D01*
X133434Y174100D02*
Y170900D01*
X135033D01*
X135566Y171434D01*
Y173566D01*
X135033Y174100D01*
X133434D01*
X136633Y173566D02*
X137166Y174100D01*
X138232D01*
X138765Y173566D01*
Y173033D01*
X138232Y172500D01*
X137699D01*
X138232D01*
X138765Y171967D01*
Y171434D01*
X138232Y170900D01*
X137166D01*
X136633Y171434D01*
X130235Y184099D02*
Y180901D01*
X132367D01*
X133434Y184099D02*
Y180901D01*
X135033D01*
X135566Y181434D01*
Y183566D01*
X135033Y184099D01*
X133434D01*
X138232Y180901D02*
Y184099D01*
X136633Y182500D01*
X138765D01*
X130235Y164100D02*
Y160900D01*
X132367D01*
X133434Y164100D02*
Y160900D01*
X135033D01*
X135566Y161434D01*
Y163566D01*
X135033Y164100D01*
X133434D01*
X138765Y160900D02*
X136633D01*
X138765Y163033D01*
Y163566D01*
X138232Y164100D01*
X137166D01*
X136633Y163566D01*
X130268Y154100D02*
Y150900D01*
X132401D01*
X133467Y154100D02*
Y150900D01*
X135066D01*
X135600Y151434D01*
Y153566D01*
X135066Y154100D01*
X133467D01*
X136666Y150900D02*
X137732D01*
X137199D01*
Y154100D01*
X136666Y153566D01*
X369735Y260599D02*
Y257400D01*
X371334D01*
X371867Y257934D01*
Y260066D01*
X371334Y260599D01*
X369735D01*
X372934D02*
X375066D01*
Y260066D01*
X372934Y257934D01*
Y257400D01*
X376133Y260599D02*
Y257400D01*
X377732D01*
X378265Y257934D01*
Y260066D01*
X377732Y260599D01*
X376133D01*
X369735Y220600D02*
Y217401D01*
X371334D01*
X371867Y217934D01*
Y220066D01*
X371334Y220600D01*
X369735D01*
X372934D02*
X375066D01*
Y220066D01*
X372934Y217934D01*
Y217401D01*
X378265Y220066D02*
X377732Y220600D01*
X376666D01*
X376133Y220066D01*
Y217934D01*
X376666Y217401D01*
X377732D01*
X378265Y217934D01*
X369735Y180599D02*
Y177401D01*
X371334D01*
X371867Y177934D01*
Y180066D01*
X371334Y180599D01*
X369735D01*
X372934D02*
X375066D01*
Y180066D01*
X372934Y177934D01*
Y177401D01*
X376133Y180599D02*
Y177401D01*
X377732D01*
X378265Y177934D01*
Y178467D01*
X377732Y179000D01*
X376133D01*
X377732D01*
X378265Y179533D01*
Y180066D01*
X377732Y180599D01*
X376133D01*
X369735Y140600D02*
Y137400D01*
X371334D01*
X371867Y137934D01*
Y140066D01*
X371334Y140600D01*
X369735D01*
X372934D02*
X375066D01*
Y140066D01*
X372934Y137934D01*
Y137400D01*
X376133D02*
Y139533D01*
X377199Y140600D01*
X378265Y139533D01*
Y137400D01*
Y139000D01*
X376133D01*
X370235Y270099D02*
Y266900D01*
X371834D01*
X372367Y267434D01*
Y269566D01*
X371834Y270099D01*
X370235D01*
X375566D02*
X373434D01*
Y268500D01*
X374500Y269033D01*
X375033D01*
X375566Y268500D01*
Y267434D01*
X375033Y266900D01*
X373967D01*
X373434Y267434D01*
X376633Y270099D02*
Y266900D01*
X378232D01*
X378765Y267434D01*
Y269566D01*
X378232Y270099D01*
X376633D01*
X369735Y234599D02*
Y231400D01*
X371334D01*
X371867Y231934D01*
Y234066D01*
X371334Y234599D01*
X369735D01*
X375066D02*
X372934D01*
Y233000D01*
X374000Y233533D01*
X374533D01*
X375066Y233000D01*
Y231934D01*
X374533Y231400D01*
X373467D01*
X372934Y231934D01*
X378265Y234066D02*
X377732Y234599D01*
X376666D01*
X376133Y234066D01*
Y231934D01*
X376666Y231400D01*
X377732D01*
X378265Y231934D01*
X369735Y194599D02*
Y191401D01*
X371334D01*
X371867Y191934D01*
Y194066D01*
X371334Y194599D01*
X369735D01*
X375066D02*
X372934D01*
Y193000D01*
X374000Y193533D01*
X374533D01*
X375066Y193000D01*
Y191934D01*
X374533Y191401D01*
X373467D01*
X372934Y191934D01*
X376133Y194599D02*
Y191401D01*
X377732D01*
X378265Y191934D01*
Y192467D01*
X377732Y193000D01*
X376133D01*
X377732D01*
X378265Y193533D01*
Y194066D01*
X377732Y194599D01*
X376133D01*
X369735Y154100D02*
Y150900D01*
X371334D01*
X371867Y151434D01*
Y153566D01*
X371334Y154100D01*
X369735D01*
X375066D02*
X372934D01*
Y152500D01*
X374000Y153033D01*
X374533D01*
X375066Y152500D01*
Y151434D01*
X374533Y150900D01*
X373467D01*
X372934Y151434D01*
X376133Y150900D02*
Y153033D01*
X377199Y154100D01*
X378265Y153033D01*
Y150900D01*
Y152500D01*
X376133D01*
X527901Y267735D02*
X531100D01*
Y269334D01*
X530566Y269867D01*
X528434D01*
X527901Y269334D01*
Y267735D01*
X528434Y270934D02*
X527901Y271467D01*
Y272533D01*
X528434Y273066D01*
X528967D01*
X529500Y272533D01*
X530033Y273066D01*
X530566D01*
X531100Y272533D01*
Y271467D01*
X530566Y270934D01*
X530033D01*
X529500Y271467D01*
X528967Y270934D01*
X528434D01*
X529500Y271467D02*
Y272533D01*
X527901Y274133D02*
X531100D01*
Y275732D01*
X530566Y276265D01*
X528434D01*
X527901Y275732D01*
Y274133D01*
X516701Y251235D02*
X519900D01*
Y252834D01*
X519366Y253367D01*
X517234D01*
X516701Y252834D01*
Y251235D01*
X517234Y254434D02*
X516701Y254967D01*
Y256033D01*
X517234Y256566D01*
X517767D01*
X518300Y256033D01*
X518833Y256566D01*
X519366D01*
X519900Y256033D01*
Y254967D01*
X519366Y254434D01*
X518833D01*
X518300Y254967D01*
X517767Y254434D01*
X517234D01*
X518300Y254967D02*
Y256033D01*
X517234Y259765D02*
X516701Y259232D01*
Y258166D01*
X517234Y257633D01*
X519366D01*
X519900Y258166D01*
Y259232D01*
X519366Y259765D01*
X527901Y234735D02*
X531100D01*
Y236334D01*
X530566Y236867D01*
X528434D01*
X527901Y236334D01*
Y234735D01*
X528434Y237934D02*
X527901Y238467D01*
Y239533D01*
X528434Y240066D01*
X528967D01*
X529500Y239533D01*
X530033Y240066D01*
X530566D01*
X531100Y239533D01*
Y238467D01*
X530566Y237934D01*
X530033D01*
X529500Y238467D01*
X528967Y237934D01*
X528434D01*
X529500Y238467D02*
Y239533D01*
X527901Y241133D02*
X531100D01*
Y242732D01*
X530566Y243265D01*
X530033D01*
X529500Y242732D01*
Y241133D01*
Y242732D01*
X528967Y243265D01*
X528434D01*
X527901Y242732D01*
Y241133D01*
X516701Y218235D02*
X519900D01*
Y219834D01*
X519366Y220367D01*
X517234D01*
X516701Y219834D01*
Y218235D01*
X517234Y221434D02*
X516701Y221967D01*
Y223033D01*
X517234Y223566D01*
X517767D01*
X518300Y223033D01*
X518833Y223566D01*
X519366D01*
X519900Y223033D01*
Y221967D01*
X519366Y221434D01*
X518833D01*
X518300Y221967D01*
X517767Y221434D01*
X517234D01*
X518300Y221967D02*
Y223033D01*
X519900Y224633D02*
X517767D01*
X516701Y225699D01*
X517767Y226765D01*
X519900D01*
X518300D01*
Y224633D01*
X516701Y264735D02*
X519900D01*
Y266334D01*
X519366Y266867D01*
X517234D01*
X516701Y266334D01*
Y264735D01*
Y270066D02*
X517234Y269000D01*
X518300Y267934D01*
X519366D01*
X519900Y268467D01*
Y269533D01*
X519366Y270066D01*
X518833D01*
X518300Y269533D01*
Y267934D01*
X516701Y271133D02*
X519900D01*
Y272732D01*
X519366Y273265D01*
X517234D01*
X516701Y272732D01*
Y271133D01*
X527901Y248235D02*
X531100D01*
Y249834D01*
X530566Y250367D01*
X528434D01*
X527901Y249834D01*
Y248235D01*
Y253566D02*
X528434Y252500D01*
X529500Y251434D01*
X530566D01*
X531100Y251967D01*
Y253033D01*
X530566Y253566D01*
X530033D01*
X529500Y253033D01*
Y251434D01*
X528434Y256765D02*
X527901Y256232D01*
Y255166D01*
X528434Y254633D01*
X530566D01*
X531100Y255166D01*
Y256232D01*
X530566Y256765D01*
X516701Y231735D02*
X519900D01*
Y233334D01*
X519366Y233867D01*
X517234D01*
X516701Y233334D01*
Y231735D01*
Y237066D02*
X517234Y236000D01*
X518300Y234934D01*
X519366D01*
X519900Y235467D01*
Y236533D01*
X519366Y237066D01*
X518833D01*
X518300Y236533D01*
Y234934D01*
X516701Y238133D02*
X519900D01*
Y239732D01*
X519366Y240265D01*
X518833D01*
X518300Y239732D01*
Y238133D01*
Y239732D01*
X517767Y240265D01*
X517234D01*
X516701Y239732D01*
Y238133D01*
X527901Y215235D02*
X531100D01*
Y216834D01*
X530566Y217367D01*
X528434D01*
X527901Y216834D01*
Y215235D01*
Y220566D02*
X528434Y219500D01*
X529500Y218434D01*
X530566D01*
X531100Y218967D01*
Y220033D01*
X530566Y220566D01*
X530033D01*
X529500Y220033D01*
Y218434D01*
X531100Y221633D02*
X528967D01*
X527901Y222699D01*
X528967Y223765D01*
X531100D01*
X529500D01*
Y221633D01*
X185501Y284599D02*
Y281934D01*
X186035Y281400D01*
X187101D01*
X187634Y281934D01*
Y284599D01*
X188700Y281400D02*
X189767D01*
X189233D01*
Y284599D01*
X188700Y284066D01*
X191366Y284599D02*
Y281400D01*
X192966D01*
X193499Y281934D01*
Y284066D01*
X192966Y284599D01*
X191366D01*
X185501Y244600D02*
Y241934D01*
X186035Y241401D01*
X187101D01*
X187634Y241934D01*
Y244600D01*
X188700Y241401D02*
X189767D01*
X189233D01*
Y244600D01*
X188700Y244066D01*
X193499D02*
X192966Y244600D01*
X191899D01*
X191366Y244066D01*
Y241934D01*
X191899Y241401D01*
X192966D01*
X193499Y241934D01*
X185501Y204599D02*
Y201934D01*
X186035Y201400D01*
X187101D01*
X187634Y201934D01*
Y204599D01*
X188700Y201400D02*
X189767D01*
X189233D01*
Y204599D01*
X188700Y204066D01*
X191366Y204599D02*
Y201400D01*
X192966D01*
X193499Y201934D01*
Y202467D01*
X192966Y203000D01*
X191366D01*
X192966D01*
X193499Y203533D01*
Y204066D01*
X192966Y204599D01*
X191366D01*
X185501Y164600D02*
Y161934D01*
X186035Y161400D01*
X187101D01*
X187634Y161934D01*
Y164600D01*
X188700Y161400D02*
X189767D01*
X189233D01*
Y164600D01*
X188700Y164066D01*
X191366Y161400D02*
Y163533D01*
X192432Y164600D01*
X193499Y163533D01*
Y161400D01*
Y163000D01*
X191366D01*
X409735Y287599D02*
X411867D01*
X410801D01*
Y284401D01*
X415066D02*
X412934D01*
X415066Y286533D01*
Y287066D01*
X414533Y287599D01*
X413467D01*
X412934Y287066D01*
X416133Y287599D02*
Y284401D01*
X417732D01*
X418265Y284934D01*
Y287066D01*
X417732Y287599D01*
X416133D01*
X409735Y247600D02*
X411867D01*
X410801D01*
Y244401D01*
X415066D02*
X412934D01*
X415066Y246533D01*
Y247066D01*
X414533Y247600D01*
X413467D01*
X412934Y247066D01*
X418265D02*
X417732Y247600D01*
X416666D01*
X416133Y247066D01*
Y244934D01*
X416666Y244401D01*
X417732D01*
X418265Y244934D01*
X409735Y207599D02*
X411867D01*
X410801D01*
Y204400D01*
X415066D02*
X412934D01*
X415066Y206533D01*
Y207066D01*
X414533Y207599D01*
X413467D01*
X412934Y207066D01*
X416133Y207599D02*
Y204400D01*
X417732D01*
X418265Y204934D01*
Y205467D01*
X417732Y206000D01*
X416133D01*
X417732D01*
X418265Y206533D01*
Y207066D01*
X417732Y207599D01*
X416133D01*
X409735Y167599D02*
X411867D01*
X410801D01*
Y164400D01*
X415066D02*
X412934D01*
X415066Y166533D01*
Y167066D01*
X414533Y167599D01*
X413467D01*
X412934Y167066D01*
X416133Y164400D02*
Y166533D01*
X417199Y167599D01*
X418265Y166533D01*
Y164400D01*
Y166000D01*
X416133D01*
X310001Y287599D02*
X312134D01*
X311068D01*
Y284401D01*
X313200D02*
X314267D01*
X313733D01*
Y287599D01*
X313200Y287066D01*
X315866Y287599D02*
Y284401D01*
X317465D01*
X317999Y284934D01*
Y287066D01*
X317465Y287599D01*
X315866D01*
X310001Y247600D02*
X312134D01*
X311068D01*
Y244401D01*
X313200D02*
X314267D01*
X313733D01*
Y247600D01*
X313200Y247066D01*
X317999D02*
X317465Y247600D01*
X316399D01*
X315866Y247066D01*
Y244934D01*
X316399Y244401D01*
X317465D01*
X317999Y244934D01*
X310001Y207599D02*
X312134D01*
X311068D01*
Y204400D01*
X313200D02*
X314267D01*
X313733D01*
Y207599D01*
X313200Y207066D01*
X315866Y207599D02*
Y204400D01*
X317465D01*
X317999Y204934D01*
Y205467D01*
X317465Y206000D01*
X315866D01*
X317465D01*
X317999Y206533D01*
Y207066D01*
X317465Y207599D01*
X315866D01*
X310001Y167599D02*
X312134D01*
X311068D01*
Y164400D01*
X313200D02*
X314267D01*
X313733D01*
Y167599D01*
X313200Y167066D01*
X315866Y164400D02*
Y166533D01*
X316932Y167599D01*
X317999Y166533D01*
Y164400D01*
Y166000D01*
X315866D01*
X225402Y246400D02*
Y249600D01*
X227001D01*
X227535Y249066D01*
Y248000D01*
X227001Y247467D01*
X225402D01*
X226468D02*
X227535Y246400D01*
X228601D02*
X229667D01*
X229134D01*
Y249600D01*
X228601Y249066D01*
X231267D02*
X231800Y249600D01*
X232866D01*
X233399Y249066D01*
Y248533D01*
X232866Y248000D01*
X232333D01*
X232866D01*
X233399Y247467D01*
Y246934D01*
X232866Y246400D01*
X231800D01*
X231267Y246934D01*
X234466Y249600D02*
Y246400D01*
X236065D01*
X236598Y246934D01*
Y249066D01*
X236065Y249600D01*
X234466D01*
X225402Y206400D02*
Y209599D01*
X227001D01*
X227535Y209066D01*
Y208000D01*
X227001Y207467D01*
X225402D01*
X226468D02*
X227535Y206400D01*
X228601D02*
X229667D01*
X229134D01*
Y209599D01*
X228601Y209066D01*
X231267D02*
X231800Y209599D01*
X232866D01*
X233399Y209066D01*
Y208533D01*
X232866Y208000D01*
X232333D01*
X232866D01*
X233399Y207467D01*
Y206934D01*
X232866Y206400D01*
X231800D01*
X231267Y206934D01*
X236598Y209066D02*
X236065Y209599D01*
X234999D01*
X234466Y209066D01*
Y206934D01*
X234999Y206400D01*
X236065D01*
X236598Y206934D01*
X225402Y166401D02*
Y169599D01*
X227001D01*
X227535Y169066D01*
Y168000D01*
X227001Y167467D01*
X225402D01*
X226468D02*
X227535Y166401D01*
X228601D02*
X229667D01*
X229134D01*
Y169599D01*
X228601Y169066D01*
X231267D02*
X231800Y169599D01*
X232866D01*
X233399Y169066D01*
Y168533D01*
X232866Y168000D01*
X232333D01*
X232866D01*
X233399Y167467D01*
Y166934D01*
X232866Y166401D01*
X231800D01*
X231267Y166934D01*
X234466Y169599D02*
Y166401D01*
X236065D01*
X236598Y166934D01*
Y167467D01*
X236065Y168000D01*
X234466D01*
X236065D01*
X236598Y168533D01*
Y169066D01*
X236065Y169599D01*
X234466D01*
X225402Y126400D02*
Y129599D01*
X227001D01*
X227535Y129066D01*
Y128000D01*
X227001Y127467D01*
X225402D01*
X226468D02*
X227535Y126400D01*
X228601D02*
X229667D01*
X229134D01*
Y129599D01*
X228601Y129066D01*
X231267D02*
X231800Y129599D01*
X232866D01*
X233399Y129066D01*
Y128533D01*
X232866Y128000D01*
X232333D01*
X232866D01*
X233399Y127467D01*
Y126934D01*
X232866Y126400D01*
X231800D01*
X231267Y126934D01*
X234466Y126400D02*
Y128533D01*
X235532Y129599D01*
X236598Y128533D01*
Y126400D01*
Y128000D01*
X234466D01*
X225402Y254400D02*
Y257599D01*
X227001D01*
X227535Y257066D01*
Y256000D01*
X227001Y255467D01*
X225402D01*
X226468D02*
X227535Y254400D01*
X228601D02*
X229667D01*
X229134D01*
Y257599D01*
X228601Y257066D01*
X233399Y254400D02*
X231267D01*
X233399Y256533D01*
Y257066D01*
X232866Y257599D01*
X231800D01*
X231267Y257066D01*
X234466Y257599D02*
Y254400D01*
X236065D01*
X236598Y254934D01*
Y257066D01*
X236065Y257599D01*
X234466D01*
X225402Y214401D02*
Y217600D01*
X227001D01*
X227535Y217066D01*
Y216000D01*
X227001Y215467D01*
X225402D01*
X226468D02*
X227535Y214401D01*
X228601D02*
X229667D01*
X229134D01*
Y217600D01*
X228601Y217066D01*
X233399Y214401D02*
X231267D01*
X233399Y216533D01*
Y217066D01*
X232866Y217600D01*
X231800D01*
X231267Y217066D01*
X236598D02*
X236065Y217600D01*
X234999D01*
X234466Y217066D01*
Y214934D01*
X234999Y214401D01*
X236065D01*
X236598Y214934D01*
X225402Y174400D02*
Y177600D01*
X227001D01*
X227535Y177066D01*
Y176000D01*
X227001Y175467D01*
X225402D01*
X226468D02*
X227535Y174400D01*
X228601D02*
X229667D01*
X229134D01*
Y177600D01*
X228601Y177066D01*
X233399Y174400D02*
X231267D01*
X233399Y176533D01*
Y177066D01*
X232866Y177600D01*
X231800D01*
X231267Y177066D01*
X234466Y177600D02*
Y174400D01*
X236065D01*
X236598Y174934D01*
Y175467D01*
X236065Y176000D01*
X234466D01*
X236065D01*
X236598Y176533D01*
Y177066D01*
X236065Y177600D01*
X234466D01*
X225402Y134400D02*
Y137600D01*
X227001D01*
X227535Y137066D01*
Y136000D01*
X227001Y135467D01*
X225402D01*
X226468D02*
X227535Y134400D01*
X228601D02*
X229667D01*
X229134D01*
Y137600D01*
X228601Y137066D01*
X233399Y134400D02*
X231267D01*
X233399Y136533D01*
Y137066D01*
X232866Y137600D01*
X231800D01*
X231267Y137066D01*
X234466Y134400D02*
Y136533D01*
X235532Y137600D01*
X236598Y136533D01*
Y134400D01*
Y136000D01*
X234466D01*
X539267Y292600D02*
X538201D01*
X538734D01*
Y289934D01*
X538201Y289401D01*
X537667D01*
X537134Y289934D01*
X540333Y292066D02*
X540866Y292600D01*
X541933D01*
X542466Y292066D01*
Y291533D01*
X541933Y291000D01*
X541399D01*
X541933D01*
X542466Y290467D01*
Y289934D01*
X541933Y289401D01*
X540866D01*
X540333Y289934D01*
X124467Y195099D02*
X123400D01*
X123934D01*
Y192434D01*
X123400Y191901D01*
X122867D01*
X122334Y192434D01*
X127666Y191901D02*
X125533D01*
X127666Y194033D01*
Y194566D01*
X127133Y195099D01*
X126066D01*
X125533Y194566D01*
X125000Y285100D02*
X123934D01*
X124467D01*
Y282434D01*
X123934Y281901D01*
X123400D01*
X122867Y282434D01*
X126066Y281901D02*
X127133D01*
X126600D01*
Y285100D01*
X126066Y284566D01*
X527901Y201975D02*
X531100D01*
Y203574D01*
X530566Y204107D01*
X528434D01*
X527901Y203574D01*
Y201975D01*
X531100Y206773D02*
X527901D01*
X529500Y205174D01*
Y207307D01*
X527901Y208373D02*
X531100D01*
Y209972D01*
X530566Y210506D01*
X528434D01*
X527901Y209972D01*
Y208373D01*
X516701Y185235D02*
X519900D01*
Y186834D01*
X519366Y187367D01*
X517234D01*
X516701Y186834D01*
Y185235D01*
X519900Y190033D02*
X516701D01*
X518300Y188434D01*
Y190566D01*
X517234Y193765D02*
X516701Y193232D01*
Y192166D01*
X517234Y191633D01*
X519366D01*
X519900Y192166D01*
Y193232D01*
X519366Y193765D01*
X527901Y169235D02*
X531100D01*
Y170834D01*
X530566Y171367D01*
X528434D01*
X527901Y170834D01*
Y169235D01*
X531100Y174033D02*
X527901D01*
X529500Y172434D01*
Y174566D01*
X527901Y175633D02*
X531100D01*
Y177232D01*
X530566Y177765D01*
X530033D01*
X529500Y177232D01*
Y175633D01*
Y177232D01*
X528967Y177765D01*
X528434D01*
X527901Y177232D01*
Y175633D01*
X516701Y152855D02*
X519900D01*
Y154454D01*
X519366Y154987D01*
X517234D01*
X516701Y154454D01*
Y152855D01*
X519900Y157653D02*
X516701D01*
X518300Y156054D01*
Y158186D01*
X519900Y159253D02*
X517767D01*
X516701Y160319D01*
X517767Y161385D01*
X519900D01*
X518300D01*
Y159253D01*
X516701Y198855D02*
X519900D01*
Y200454D01*
X519366Y200987D01*
X517234D01*
X516701Y200454D01*
Y198855D01*
X519900Y204186D02*
Y202054D01*
X517767Y204186D01*
X517234D01*
X516701Y203653D01*
Y202587D01*
X517234Y202054D01*
X516701Y205253D02*
X519900D01*
Y206852D01*
X519366Y207385D01*
X517234D01*
X516701Y206852D01*
Y205253D01*
X527901Y182735D02*
X531100D01*
Y184334D01*
X530566Y184867D01*
X528434D01*
X527901Y184334D01*
Y182735D01*
X531100Y188066D02*
Y185934D01*
X528967Y188066D01*
X528434D01*
X527901Y187533D01*
Y186467D01*
X528434Y185934D01*
Y191265D02*
X527901Y190732D01*
Y189666D01*
X528434Y189133D01*
X530566D01*
X531100Y189666D01*
Y190732D01*
X530566Y191265D01*
X516701Y166355D02*
X519900D01*
Y167954D01*
X519366Y168487D01*
X517234D01*
X516701Y167954D01*
Y166355D01*
X519900Y171686D02*
Y169554D01*
X517767Y171686D01*
X517234D01*
X516701Y171153D01*
Y170087D01*
X517234Y169554D01*
X516701Y172753D02*
X519900D01*
Y174352D01*
X519366Y174885D01*
X518833D01*
X518300Y174352D01*
Y172753D01*
Y174352D01*
X517767Y174885D01*
X517234D01*
X516701Y174352D01*
Y172753D01*
X527901Y149735D02*
X531100D01*
Y151334D01*
X530566Y151867D01*
X528434D01*
X527901Y151334D01*
Y149735D01*
X531100Y155066D02*
Y152934D01*
X528967Y155066D01*
X528434D01*
X527901Y154533D01*
Y153467D01*
X528434Y152934D01*
X531100Y156133D02*
X528967D01*
X527901Y157199D01*
X528967Y158265D01*
X531100D01*
X529500D01*
Y156133D01*
X269735Y260599D02*
Y257400D01*
X271334D01*
X271867Y257934D01*
Y260066D01*
X271334Y260599D01*
X269735D01*
X272934Y260066D02*
X273467Y260599D01*
X274533D01*
X275066Y260066D01*
Y259533D01*
X274533Y259000D01*
X274000D01*
X274533D01*
X275066Y258467D01*
Y257934D01*
X274533Y257400D01*
X273467D01*
X272934Y257934D01*
X276133Y260599D02*
Y257400D01*
X277732D01*
X278265Y257934D01*
Y260066D01*
X277732Y260599D01*
X276133D01*
X269735Y220600D02*
Y217401D01*
X271334D01*
X271867Y217934D01*
Y220066D01*
X271334Y220600D01*
X269735D01*
X272934Y220066D02*
X273467Y220600D01*
X274533D01*
X275066Y220066D01*
Y219533D01*
X274533Y219000D01*
X274000D01*
X274533D01*
X275066Y218467D01*
Y217934D01*
X274533Y217401D01*
X273467D01*
X272934Y217934D01*
X278265Y220066D02*
X277732Y220600D01*
X276666D01*
X276133Y220066D01*
Y217934D01*
X276666Y217401D01*
X277732D01*
X278265Y217934D01*
X269735Y180599D02*
Y177401D01*
X271334D01*
X271867Y177934D01*
Y180066D01*
X271334Y180599D01*
X269735D01*
X272934Y180066D02*
X273467Y180599D01*
X274533D01*
X275066Y180066D01*
Y179533D01*
X274533Y179000D01*
X274000D01*
X274533D01*
X275066Y178467D01*
Y177934D01*
X274533Y177401D01*
X273467D01*
X272934Y177934D01*
X276133Y180599D02*
Y177401D01*
X277732D01*
X278265Y177934D01*
Y178467D01*
X277732Y179000D01*
X276133D01*
X277732D01*
X278265Y179533D01*
Y180066D01*
X277732Y180599D01*
X276133D01*
X269735Y140600D02*
Y137400D01*
X271334D01*
X271867Y137934D01*
Y140066D01*
X271334Y140600D01*
X269735D01*
X272934Y140066D02*
X273467Y140600D01*
X274533D01*
X275066Y140066D01*
Y139533D01*
X274533Y139000D01*
X274000D01*
X274533D01*
X275066Y138467D01*
Y137934D01*
X274533Y137400D01*
X273467D01*
X272934Y137934D01*
X276133Y137400D02*
Y139533D01*
X277199Y140600D01*
X278265Y139533D01*
Y137400D01*
Y139000D01*
X276133D01*
X270001Y274600D02*
Y271400D01*
X271601D01*
X272134Y271934D01*
Y274066D01*
X271601Y274600D01*
X270001D01*
X273200Y271400D02*
X274267D01*
X273733D01*
Y274600D01*
X273200Y274066D01*
X275866Y274600D02*
Y271400D01*
X277466D01*
X277999Y271934D01*
Y274066D01*
X277466Y274600D01*
X275866D01*
X270001Y234599D02*
Y231400D01*
X271601D01*
X272134Y231934D01*
Y234066D01*
X271601Y234599D01*
X270001D01*
X273200Y231400D02*
X274267D01*
X273733D01*
Y234599D01*
X273200Y234066D01*
X277999D02*
X277466Y234599D01*
X276399D01*
X275866Y234066D01*
Y231934D01*
X276399Y231400D01*
X277466D01*
X277999Y231934D01*
X270001Y194599D02*
Y191401D01*
X271601D01*
X272134Y191934D01*
Y194066D01*
X271601Y194599D01*
X270001D01*
X273200Y191401D02*
X274267D01*
X273733D01*
Y194599D01*
X273200Y194066D01*
X275866Y194599D02*
Y191401D01*
X277466D01*
X277999Y191934D01*
Y192467D01*
X277466Y193000D01*
X275866D01*
X277466D01*
X277999Y193533D01*
Y194066D01*
X277466Y194599D01*
X275866D01*
X270001Y154599D02*
Y151400D01*
X271601D01*
X272134Y151934D01*
Y154066D01*
X271601Y154599D01*
X270001D01*
X273200Y151400D02*
X274267D01*
X273733D01*
Y154599D01*
X273200Y154066D01*
X275866Y151400D02*
Y153533D01*
X276932Y154599D01*
X277999Y153533D01*
Y151400D01*
Y153000D01*
X275866D01*
X223867Y279566D02*
X223334Y280100D01*
X222268D01*
X221735Y279566D01*
Y277434D01*
X222268Y276901D01*
X223334D01*
X223867Y277434D01*
X227066Y280100D02*
X224934D01*
Y278500D01*
X226000Y279033D01*
X226533D01*
X227066Y278500D01*
Y277434D01*
X226533Y276901D01*
X225467D01*
X224934Y277434D01*
X228133Y280100D02*
Y276901D01*
X229732D01*
X230265Y277434D01*
Y279566D01*
X229732Y280100D01*
X228133D01*
X223867Y239566D02*
X223334Y240100D01*
X222268D01*
X221735Y239566D01*
Y237434D01*
X222268Y236900D01*
X223334D01*
X223867Y237434D01*
X227066Y240100D02*
X224934D01*
Y238500D01*
X226000Y239033D01*
X226533D01*
X227066Y238500D01*
Y237434D01*
X226533Y236900D01*
X225467D01*
X224934Y237434D01*
X230265Y239566D02*
X229732Y240100D01*
X228666D01*
X228133Y239566D01*
Y237434D01*
X228666Y236900D01*
X229732D01*
X230265Y237434D01*
X223867Y199566D02*
X223334Y200099D01*
X222268D01*
X221735Y199566D01*
Y197434D01*
X222268Y196900D01*
X223334D01*
X223867Y197434D01*
X227066Y200099D02*
X224934D01*
Y198500D01*
X226000Y199033D01*
X226533D01*
X227066Y198500D01*
Y197434D01*
X226533Y196900D01*
X225467D01*
X224934Y197434D01*
X228133Y200099D02*
Y196900D01*
X229732D01*
X230265Y197434D01*
Y197967D01*
X229732Y198500D01*
X228133D01*
X229732D01*
X230265Y199033D01*
Y199566D01*
X229732Y200099D01*
X228133D01*
X223867Y159566D02*
X223334Y160099D01*
X222268D01*
X221735Y159566D01*
Y157434D01*
X222268Y156901D01*
X223334D01*
X223867Y157434D01*
X227066Y160099D02*
X224934D01*
Y158500D01*
X226000Y159033D01*
X226533D01*
X227066Y158500D01*
Y157434D01*
X226533Y156901D01*
X225467D01*
X224934Y157434D01*
X228133Y156901D02*
Y159033D01*
X229199Y160099D01*
X230265Y159033D01*
Y156901D01*
Y158500D01*
X228133D01*
X155867Y282066D02*
X155334Y282599D01*
X154268D01*
X153735Y282066D01*
Y279934D01*
X154268Y279400D01*
X155334D01*
X155867Y279934D01*
X158533Y279400D02*
Y282599D01*
X156934Y281000D01*
X159066D01*
X160133Y282599D02*
Y279400D01*
X161732D01*
X162265Y279934D01*
Y282066D01*
X161732Y282599D01*
X160133D01*
X155867Y242066D02*
X155334Y242600D01*
X154268D01*
X153735Y242066D01*
Y239934D01*
X154268Y239401D01*
X155334D01*
X155867Y239934D01*
X158533Y239401D02*
Y242600D01*
X156934Y241000D01*
X159066D01*
X162265Y242066D02*
X161732Y242600D01*
X160666D01*
X160133Y242066D01*
Y239934D01*
X160666Y239401D01*
X161732D01*
X162265Y239934D01*
X155867Y202066D02*
X155334Y202600D01*
X154268D01*
X153735Y202066D01*
Y199934D01*
X154268Y199400D01*
X155334D01*
X155867Y199934D01*
X158533Y199400D02*
Y202600D01*
X156934Y201000D01*
X159066D01*
X160133Y202600D02*
Y199400D01*
X161732D01*
X162265Y199934D01*
Y200467D01*
X161732Y201000D01*
X160133D01*
X161732D01*
X162265Y201533D01*
Y202066D01*
X161732Y202600D01*
X160133D01*
X155867Y162066D02*
X155334Y162600D01*
X154268D01*
X153735Y162066D01*
Y159934D01*
X154268Y159400D01*
X155334D01*
X155867Y159934D01*
X158533Y159400D02*
Y162600D01*
X156934Y161000D01*
X159066D01*
X160133Y159400D02*
Y161533D01*
X161199Y162600D01*
X162265Y161533D01*
Y159400D01*
Y161000D01*
X160133D01*
X251367Y249066D02*
X250834Y249600D01*
X249768D01*
X249235Y249066D01*
Y246934D01*
X249768Y246400D01*
X250834D01*
X251367Y246934D01*
X252434Y249066D02*
X252967Y249600D01*
X254033D01*
X254566Y249066D01*
Y248533D01*
X254033Y248000D01*
X253500D01*
X254033D01*
X254566Y247467D01*
Y246934D01*
X254033Y246400D01*
X252967D01*
X252434Y246934D01*
X255633Y249600D02*
Y246400D01*
X257232D01*
X257765Y246934D01*
Y249066D01*
X257232Y249600D01*
X255633D01*
X251367Y209066D02*
X250834Y209599D01*
X249768D01*
X249235Y209066D01*
Y206934D01*
X249768Y206400D01*
X250834D01*
X251367Y206934D01*
X252434Y209066D02*
X252967Y209599D01*
X254033D01*
X254566Y209066D01*
Y208533D01*
X254033Y208000D01*
X253500D01*
X254033D01*
X254566Y207467D01*
Y206934D01*
X254033Y206400D01*
X252967D01*
X252434Y206934D01*
X257765Y209066D02*
X257232Y209599D01*
X256166D01*
X255633Y209066D01*
Y206934D01*
X256166Y206400D01*
X257232D01*
X257765Y206934D01*
X251367Y169066D02*
X250834Y169599D01*
X249768D01*
X249235Y169066D01*
Y166934D01*
X249768Y166401D01*
X250834D01*
X251367Y166934D01*
X252434Y169066D02*
X252967Y169599D01*
X254033D01*
X254566Y169066D01*
Y168533D01*
X254033Y168000D01*
X253500D01*
X254033D01*
X254566Y167467D01*
Y166934D01*
X254033Y166401D01*
X252967D01*
X252434Y166934D01*
X255633Y169599D02*
Y166401D01*
X257232D01*
X257765Y166934D01*
Y167467D01*
X257232Y168000D01*
X255633D01*
X257232D01*
X257765Y168533D01*
Y169066D01*
X257232Y169599D01*
X255633D01*
X251367Y129066D02*
X250834Y129599D01*
X249768D01*
X249235Y129066D01*
Y126934D01*
X249768Y126400D01*
X250834D01*
X251367Y126934D01*
X252434Y129066D02*
X252967Y129599D01*
X254033D01*
X254566Y129066D01*
Y128533D01*
X254033Y128000D01*
X253500D01*
X254033D01*
X254566Y127467D01*
Y126934D01*
X254033Y126400D01*
X252967D01*
X252434Y126934D01*
X255633Y126400D02*
Y128533D01*
X256699Y129599D01*
X257765Y128533D01*
Y126400D01*
Y128000D01*
X255633D01*
X251367Y257066D02*
X250834Y257599D01*
X249768D01*
X249235Y257066D01*
Y254934D01*
X249768Y254400D01*
X250834D01*
X251367Y254934D01*
X254566Y254400D02*
X252434D01*
X254566Y256533D01*
Y257066D01*
X254033Y257599D01*
X252967D01*
X252434Y257066D01*
X255633Y257599D02*
Y254400D01*
X257232D01*
X257765Y254934D01*
Y257066D01*
X257232Y257599D01*
X255633D01*
X251367Y217066D02*
X250834Y217600D01*
X249768D01*
X249235Y217066D01*
Y214934D01*
X249768Y214401D01*
X250834D01*
X251367Y214934D01*
X254566Y214401D02*
X252434D01*
X254566Y216533D01*
Y217066D01*
X254033Y217600D01*
X252967D01*
X252434Y217066D01*
X257765D02*
X257232Y217600D01*
X256166D01*
X255633Y217066D01*
Y214934D01*
X256166Y214401D01*
X257232D01*
X257765Y214934D01*
X251367Y177066D02*
X250834Y177600D01*
X249768D01*
X249235Y177066D01*
Y174934D01*
X249768Y174400D01*
X250834D01*
X251367Y174934D01*
X254566Y174400D02*
X252434D01*
X254566Y176533D01*
Y177066D01*
X254033Y177600D01*
X252967D01*
X252434Y177066D01*
X255633Y177600D02*
Y174400D01*
X257232D01*
X257765Y174934D01*
Y175467D01*
X257232Y176000D01*
X255633D01*
X257232D01*
X257765Y176533D01*
Y177066D01*
X257232Y177600D01*
X255633D01*
X251367Y137066D02*
X250834Y137600D01*
X249768D01*
X249235Y137066D01*
Y134934D01*
X249768Y134400D01*
X250834D01*
X251367Y134934D01*
X254566Y134400D02*
X252434D01*
X254566Y136533D01*
Y137066D01*
X254033Y137600D01*
X252967D01*
X252434Y137066D01*
X255633Y134400D02*
Y136533D01*
X256699Y137600D01*
X257765Y136533D01*
Y134400D01*
Y136000D01*
X255633D01*
M02*
