G04*
G04 #@! TF.GenerationSoftware,Altium Limited,Altium Designer,20.2.6 (244)*
G04*
G04 Layer_Physical_Order=2*
G04 Layer_Color=32768*
%FSLAX25Y25*%
%MOIN*%
G70*
G04*
G04 #@! TF.SameCoordinates,16B91273-F958-4659-884B-EDC08065C5E0*
G04*
G04*
G04 #@! TF.FilePolarity,Negative*
G04*
G01*
G75*
%ADD12C,0.01000*%
%ADD54C,0.04000*%
%ADD55O,0.04559X0.06528*%
%ADD56O,0.05347X0.04559*%
%ADD57C,0.14500*%
G04:AMPARAMS|DCode=58|XSize=101mil|YSize=101mil|CornerRadius=0mil|HoleSize=0mil|Usage=FLASHONLY|Rotation=0.000|XOffset=0mil|YOffset=0mil|HoleType=Round|Shape=Relief|Width=10mil|Gap=10mil|Entries=4|*
%AMTHD58*
7,0,0,0.10100,0.08100,0.01000,45*
%
%ADD58THD58*%
%ADD59C,0.06100*%
G04:AMPARAMS|DCode=60|XSize=193.858mil|YSize=193.858mil|CornerRadius=0mil|HoleSize=0mil|Usage=FLASHONLY|Rotation=0.000|XOffset=0mil|YOffset=0mil|HoleType=Round|Shape=Relief|Width=10mil|Gap=10mil|Entries=4|*
%AMTHD60*
7,0,0,0.19386,0.17386,0.01000,45*
%
%ADD60THD60*%
%ADD61C,0.15386*%
%ADD62C,0.05937*%
G04:AMPARAMS|DCode=63|XSize=99.37mil|YSize=99.37mil|CornerRadius=0mil|HoleSize=0mil|Usage=FLASHONLY|Rotation=0.000|XOffset=0mil|YOffset=0mil|HoleType=Round|Shape=Relief|Width=10mil|Gap=10mil|Entries=4|*
%AMTHD63*
7,0,0,0.09937,0.07937,0.01000,45*
%
%ADD63THD63*%
%ADD64C,0.03000*%
%ADD65C,0.03181*%
D12*
X428000Y280500D02*
X427010Y280466D01*
X426026Y280365D01*
X425050Y280197D01*
X424088Y279962D01*
X423144Y279663D01*
X422223Y279300D01*
X421329Y278874D01*
X420466Y278389D01*
X419638Y277846D01*
X418849Y277248D01*
X418103Y276597D01*
X417403Y275897D01*
X416752Y275151D01*
X416154Y274362D01*
X415611Y273534D01*
X415126Y272671D01*
X414700Y271777D01*
X414337Y270856D01*
X414038Y269912D01*
X413803Y268950D01*
X413635Y267974D01*
X413534Y266989D01*
X413500Y266000D01*
Y266000D02*
X413534Y265010D01*
X413635Y264026D01*
X413803Y263050D01*
X414038Y262088D01*
X414337Y261144D01*
X414700Y260223D01*
X415126Y259329D01*
X415611Y258466D01*
X416154Y257638D01*
X416752Y256849D01*
X417403Y256103D01*
X418103Y255403D01*
X418849Y254752D01*
X419638Y254154D01*
X420466Y253611D01*
X421329Y253126D01*
X422223Y252700D01*
X423144Y252337D01*
X424088Y252038D01*
X425050Y251803D01*
X426026Y251635D01*
X427010Y251534D01*
X428000Y251500D01*
X428000Y240500D02*
X427010Y240466D01*
X426026Y240365D01*
X425050Y240197D01*
X424088Y239962D01*
X423144Y239663D01*
X422223Y239300D01*
X421329Y238874D01*
X420466Y238389D01*
X419638Y237846D01*
X418849Y237248D01*
X418103Y236597D01*
X417403Y235897D01*
X416752Y235151D01*
X416154Y234362D01*
X415611Y233534D01*
X415126Y232671D01*
X414700Y231777D01*
X414337Y230856D01*
X414038Y229912D01*
X413803Y228950D01*
X413635Y227974D01*
X413534Y226990D01*
X413500Y226000D01*
Y226000D02*
X413534Y225010D01*
X413635Y224026D01*
X413803Y223050D01*
X414038Y222088D01*
X414337Y221144D01*
X414700Y220223D01*
X415126Y219329D01*
X415611Y218466D01*
X416154Y217638D01*
X416752Y216849D01*
X417403Y216103D01*
X418103Y215403D01*
X418849Y214752D01*
X419638Y214154D01*
X420466Y213611D01*
X421329Y213126D01*
X422223Y212700D01*
X423144Y212337D01*
X424088Y212038D01*
X425050Y211803D01*
X426026Y211635D01*
X427010Y211534D01*
X428000Y211500D01*
X428000Y200500D02*
X427010Y200466D01*
X426026Y200365D01*
X425050Y200197D01*
X424088Y199962D01*
X423144Y199663D01*
X422223Y199300D01*
X421329Y198874D01*
X420466Y198389D01*
X419638Y197846D01*
X418849Y197248D01*
X418103Y196597D01*
X417403Y195897D01*
X416752Y195151D01*
X416154Y194362D01*
X415611Y193534D01*
X415126Y192671D01*
X414700Y191777D01*
X414337Y190856D01*
X414038Y189912D01*
X413803Y188950D01*
X413635Y187974D01*
X413534Y186989D01*
X413500Y186000D01*
Y186000D02*
X413534Y185011D01*
X413635Y184026D01*
X413803Y183050D01*
X414038Y182088D01*
X414337Y181144D01*
X414700Y180223D01*
X415126Y179329D01*
X415611Y178466D01*
X416154Y177638D01*
X416752Y176849D01*
X417403Y176103D01*
X418103Y175403D01*
X418849Y174752D01*
X419638Y174154D01*
X420466Y173611D01*
X421329Y173126D01*
X422223Y172700D01*
X423144Y172337D01*
X424088Y172038D01*
X425050Y171803D01*
X426026Y171635D01*
X427010Y171534D01*
X428000Y171500D01*
X428000Y160500D02*
X427010Y160466D01*
X426026Y160365D01*
X425050Y160197D01*
X424088Y159962D01*
X423144Y159663D01*
X422223Y159300D01*
X421329Y158874D01*
X420466Y158389D01*
X419638Y157846D01*
X418849Y157248D01*
X418103Y156597D01*
X417403Y155897D01*
X416752Y155151D01*
X416154Y154362D01*
X415611Y153534D01*
X415126Y152671D01*
X414700Y151777D01*
X414337Y150856D01*
X414038Y149912D01*
X413803Y148950D01*
X413635Y147974D01*
X413534Y146990D01*
X413500Y146000D01*
Y146000D02*
X413534Y145010D01*
X413635Y144026D01*
X413803Y143050D01*
X414038Y142088D01*
X414337Y141144D01*
X414700Y140223D01*
X415126Y139329D01*
X415611Y138466D01*
X416154Y137638D01*
X416752Y136849D01*
X417403Y136103D01*
X418103Y135403D01*
X418849Y134752D01*
X419638Y134154D01*
X420466Y133611D01*
X421329Y133126D01*
X422223Y132700D01*
X423144Y132337D01*
X424088Y132038D01*
X425050Y131803D01*
X426026Y131635D01*
X427010Y131534D01*
X428000Y131500D01*
X428000Y117500D02*
Y131500D01*
Y160500D02*
Y171500D01*
Y200500D02*
Y211500D01*
Y240500D02*
Y251500D01*
Y280500D02*
Y297500D01*
D54*
X100000Y117500D02*
X527500D01*
X545000Y100000D01*
X600000D01*
Y315000D01*
X545000D02*
X600000D01*
X527500Y297500D02*
X545000Y315000D01*
X270000Y297500D02*
X527500D01*
X266000Y293500D02*
X270000Y297500D01*
X234000Y293500D02*
X266000D01*
X230000Y297500D02*
X234000Y293500D01*
X100000Y297500D02*
X230000D01*
X100000Y117500D02*
Y297500D01*
D55*
X263779Y287130D02*
D03*
X236221D02*
D03*
D56*
X259842Y276500D02*
D03*
X240158D02*
D03*
D57*
X562400Y114900D02*
D03*
Y300100D02*
D03*
D58*
X568000Y147550D02*
D03*
Y180250D02*
D03*
Y212950D02*
D03*
Y245650D02*
D03*
X556800Y163900D02*
D03*
Y196600D02*
D03*
Y229300D02*
D03*
Y262000D02*
D03*
D59*
X568000Y158450D02*
D03*
Y169350D02*
D03*
Y191150D02*
D03*
Y202050D02*
D03*
Y223850D02*
D03*
Y234750D02*
D03*
Y256550D02*
D03*
Y267450D02*
D03*
X556800Y142100D02*
D03*
Y153000D02*
D03*
Y174800D02*
D03*
Y185700D02*
D03*
Y207500D02*
D03*
Y218400D02*
D03*
Y240200D02*
D03*
Y251100D02*
D03*
Y272900D02*
D03*
D60*
X500000Y135000D02*
D03*
D61*
Y280000D02*
D03*
X115000Y207500D02*
D03*
D62*
X125000Y277500D02*
D03*
Y267500D02*
D03*
Y257500D02*
D03*
Y247500D02*
D03*
Y227500D02*
D03*
X115000D02*
D03*
Y257500D02*
D03*
Y277500D02*
D03*
Y267500D02*
D03*
Y247500D02*
D03*
X125000Y187500D02*
D03*
Y177500D02*
D03*
Y167500D02*
D03*
Y157500D02*
D03*
Y137500D02*
D03*
X115000D02*
D03*
Y167500D02*
D03*
Y187500D02*
D03*
Y177500D02*
D03*
Y157500D02*
D03*
D63*
X125000Y237500D02*
D03*
X115000D02*
D03*
X125000Y147500D02*
D03*
X115000D02*
D03*
D64*
X500000Y207500D02*
D03*
Y202000D02*
D03*
Y191500D02*
D03*
Y185500D02*
D03*
Y175000D02*
D03*
Y169500D02*
D03*
Y158000D02*
D03*
Y153000D02*
D03*
X143000Y202500D02*
D03*
X149500Y212000D02*
D03*
X172500Y286000D02*
D03*
Y261000D02*
D03*
Y218500D02*
D03*
Y181000D02*
D03*
Y136000D02*
D03*
X205800Y290000D02*
D03*
X221800D02*
D03*
X175500Y228500D02*
D03*
Y268500D02*
D03*
Y148500D02*
D03*
Y188500D02*
D03*
X154000Y152500D02*
D03*
Y162500D02*
D03*
Y182500D02*
D03*
Y242500D02*
D03*
Y252500D02*
D03*
Y262500D02*
D03*
Y272500D02*
D03*
X294000Y134000D02*
D03*
X286500Y137500D02*
D03*
X278000Y158000D02*
D03*
X285500Y154500D02*
D03*
X294000Y174000D02*
D03*
X286500Y177500D02*
D03*
X278000Y198000D02*
D03*
X285500Y194500D02*
D03*
X294000Y214000D02*
D03*
X286500Y217500D02*
D03*
X215000Y150000D02*
D03*
X211500Y163500D02*
D03*
Y203500D02*
D03*
Y243500D02*
D03*
Y283500D02*
D03*
X172500Y166000D02*
D03*
Y206000D02*
D03*
Y246000D02*
D03*
X285500Y234500D02*
D03*
X278000Y238000D02*
D03*
X294000Y254000D02*
D03*
X286500Y257500D02*
D03*
X282000Y274000D02*
D03*
Y282000D02*
D03*
X390000Y130000D02*
D03*
Y138000D02*
D03*
X382000Y154000D02*
D03*
Y162000D02*
D03*
X390000Y170000D02*
D03*
X382000Y202000D02*
D03*
X390000Y178000D02*
D03*
X382000Y194000D02*
D03*
X390000Y210000D02*
D03*
Y218000D02*
D03*
X382000Y234000D02*
D03*
Y242000D02*
D03*
Y274000D02*
D03*
Y282000D02*
D03*
X390000Y250000D02*
D03*
Y258000D02*
D03*
X358000Y142000D02*
D03*
Y150000D02*
D03*
Y182000D02*
D03*
Y190000D02*
D03*
Y222000D02*
D03*
Y230000D02*
D03*
Y270000D02*
D03*
Y262000D02*
D03*
X215000Y142000D02*
D03*
Y182000D02*
D03*
Y190000D02*
D03*
Y222000D02*
D03*
Y230000D02*
D03*
Y262000D02*
D03*
Y270000D02*
D03*
X154000Y172500D02*
D03*
D65*
X358000Y276000D02*
D03*
Y136000D02*
D03*
Y146000D02*
D03*
Y156000D02*
D03*
Y256000D02*
D03*
Y266000D02*
D03*
Y236000D02*
D03*
Y226000D02*
D03*
Y216000D02*
D03*
Y196000D02*
D03*
Y176000D02*
D03*
Y186000D02*
D03*
X342000Y216000D02*
D03*
Y256000D02*
D03*
X320000Y266000D02*
D03*
X342000Y236000D02*
D03*
Y276000D02*
D03*
X320000Y226000D02*
D03*
Y146000D02*
D03*
X342000Y136000D02*
D03*
Y156000D02*
D03*
Y176000D02*
D03*
X320000Y186000D02*
D03*
X342000Y196000D02*
D03*
M02*
