M48
;Layer_Color=9474304
;FILE_FORMAT=2:4
INCH,TZ
;TYPE=PLATED
T1F00S00C0.0100
T2F00S00C0.0118
T4F00S00C0.0394
T5F00S00C0.0410
T6F00S00C0.1339
;TYPE=NON_PLATED
T7F00S00C0.1250
T8F00S00C0.1339
%
T01
X15400Y15250
X17550Y14850
Y14350
X17250Y13600
X21000Y14600
X21500Y15000
Y14200
X28650Y13750
X29400Y13400
X28550Y15450
X35800Y15000
Y14200
X39000Y13800
Y13000
X38200Y15400
X50000Y15300
Y14500
X49300Y14200
X49000Y13500
X49300Y12800
X50000Y12500
X50700Y12800
X51000Y13500
X50700Y14200
X50000Y15800
Y16950
Y17500
Y18550
Y19150
Y20200
Y20750
X39000Y21000
Y21800
X38200Y20200
Y19400
X39000Y17800
Y17000
X38200Y16200
X35800Y18200
Y19000
Y22200
Y23000
X38200Y23400
Y24200
X39000Y25000
Y25800
X38200Y27400
Y28200
X35800Y27000
Y26200
X29400Y25400
X28650Y25750
X28200Y27400
Y28200
X28250Y28750
X25900Y26600
X27800Y23800
X28550Y23450
X28650Y21750
X29400Y21400
X28550Y19450
X27800Y19800
X28650Y17750
X29400Y17400
X27800Y15800
X21150Y16350
X21500Y18200
Y19000
X21000Y18600
X21150Y20350
X21500Y22200
Y23000
X21000Y22600
X21150Y24350
X21500Y26200
Y27000
X21000Y26600
X21150Y28350
X21680Y28500
X22180Y29000
X20580
X17250Y28600
X17550Y26850
X17250Y26100
X17550Y25350
X17250Y24600
X17550Y22850
X17250Y21850
X17550Y21350
X17250Y20600
X17550Y18850
X17250Y18100
X17550Y17350
X17250Y16600
X15400Y16250
Y17250
Y18250
X14900Y20250
X14300
X14950Y21200
X15400Y24250
Y25250
Y26250
Y27250
T02
X17550Y13250
X20450Y12350
X21500Y14600
X22850Y13900
X25900Y14600
Y12600
X27500Y13650
X27250Y15500
X29900Y14600
X32000
X31300Y13500
X32000Y12600
X35050
X35800Y13600
Y14600
Y15600
X34200
Y13600
X39850Y14600
X42000
X42200Y12600
X44200Y13600
Y15600
X50197Y15000
Y16102
Y16654
Y17795
Y18268
Y19449
Y19921
Y21024
X44200Y21600
Y23600
Y25600
Y27600
X42200Y28600
X42000Y26600
X39800
X35800
Y27600
X34200
X35038Y28589
X32000Y28600
X31300Y27800
X32000Y26600
X31300Y25500
X32000Y24600
X31300Y23700
X32000Y22600
X31300Y21500
X32000Y20600
X31300Y19700
X32000Y18600
X31300Y17500
X32000Y16600
X31300Y15700
X35050Y16600
X35800Y17600
Y18600
Y19600
X34200
X35050Y20600
X35800Y21600
Y22600
Y23600
X34200
X35044Y24597
X35800Y25600
X34200
Y21600
Y17600
X39850Y18600
X42000
X42200Y16600
X44200Y17600
Y19600
X42200Y20600
X42000Y22600
X39850
X42200Y24600
X29800Y26600
X27500Y25650
X27250Y23500
X27500Y21650
X27250Y19500
X27500Y17650
X25900Y18600
Y16600
X22850Y15900
Y17900
Y19900
Y21900
Y23900
Y25900
X21500Y26600
X20450Y24350
X21500Y22600
X20450Y20350
X21500Y18600
X20450Y16350
X17550Y18400
X16950Y17800
X17250Y22350
X16950Y25800
X17550Y26400
X25900Y24600
Y22600
Y20600
X30500
X29900Y18600
X29800Y22600
X13250Y26250
Y17250
T04
X11500Y13750
X12500
Y14750
X11500
Y15750
X12500
Y16750
Y17750
Y18750
X11500
Y17750
Y16750
Y22750
X12500
Y23750
Y24750
Y25750
Y26750
Y27750
X11500
Y26750
Y25750
Y24750
Y23750
T05
X55680Y14210
Y15300
X56800Y14755
Y15845
Y16935
Y18025
Y19115
Y20205
Y21295
Y22385
Y23475
Y24565
Y25655
Y26745
X55680Y26200
Y25110
Y24020
Y22930
Y21840
Y20750
Y19660
Y18570
Y17480
Y16390
Y27290
T06
X50000Y13500
T07
X56240Y11490
Y30010
T08
X50000Y28000
X11500Y20750
M30
